<svg xmlns="http://www.w3.org/2000/svg" viewBox="0 0 350 200"><defs><style>.cls-1{fill:#fff;}.cls-2,.cls-6{fill:#326de6;}.cls-3{fill:#06f7c9;opacity:0.1;}.cls-4,.cls-5{fill:none;stroke:#06f7c9;stroke-miterlimit:10;}.cls-4{stroke-width:2.4px;stroke-dasharray:2.41 1.61;}.cls-5{stroke-width:0.8px;}.cls-6{stroke:#fff;stroke-linecap:round;stroke-linejoin:round;stroke-width:0.91px;}</style></defs><title>16.07.28_k8s_visual_diagrams</title><g id="Graphics"><polygon class="cls-1" points="175 167.08 116.9 133.54 116.9 66.46 175 32.92 233.1 66.46 233.1 133.54 175 167.08"/><path class="cls-2" d="M175,168a.91.91,0,0,1-.46-.12l-58.1-33.54a.91.91,0,0,1-.46-.79V66.46a.91.91,0,0,1,.46-.79l58.1-33.54a.91.91,0,0,1,.91,0l58.1,33.54a.91.91,0,0,1,.46.79v67.08a.91.91,0,0,1-.46.79l-58.1,33.54A.91.91,0,0,1,175,168Zm-57.18-35L175,166l57.18-33V67L175,34,117.82,67Z"/><circle class="cls-3" cx="175" cy="100" r="34.13"/><path class="cls-4" d="M175,146.13A46.13,46.13,0,1,1,221.13,100,46.18,46.18,0,0,1,175,146.13Z"/><circle class="cls-5" cx="175" cy="100" r="34.13"/><polygon class="cls-6" points="163.14 93.15 175 86.31 186.86 93.15 175 100 163.14 93.15"/><polygon class="cls-6" points="163.14 106.85 163.14 93.15 175 100 175 113.69 163.14 106.85"/><polygon class="cls-6" points="175 113.69 175 100 186.86 93.15 186.86 106.85 175 113.69"/></g></svg>