<svg xmlns="http://www.w3.org/2000/svg" xmlns:xlink="http://www.w3.org/1999/xlink" viewBox="0 0 350 200"><defs><style>.cls-1{fill:#fff;}.cls-2{fill:#326de6;}.cls-3{opacity:0.1;fill:url(#linear-gradient);}.cls-4{fill:none;stroke:#326de6;stroke-miterlimit:10;stroke-width:1.2px;}.cls-5{fill:#06f7c9;stroke:#011f38;stroke-linecap:round;stroke-linejoin:round;stroke-width:0.8px;}</style><linearGradient id="linear-gradient" x1="140.96" y1="100.17" x2="209.04" y2="100.17" gradientUnits="userSpaceOnUse"><stop offset="0" stop-color="#326de6"/><stop offset="1" stop-color="#10ffc6"/></linearGradient></defs><title>16.07.28_k8s_visual_diagrams</title><g id="Graphics"><polygon class="cls-1" points="175 167.25 116.9 133.71 116.9 66.63 175 33.08 233.1 66.63 233.1 133.71 175 167.25"/><path class="cls-2" d="M175,168.16a.91.91,0,0,1-.46-.12l-58.1-33.54a.91.91,0,0,1-.46-.79V66.63a.91.91,0,0,1,.46-.79l58.1-33.54a.91.91,0,0,1,.91,0l58.1,33.54a.91.91,0,0,1,.46.79v67.08a.91.91,0,0,1-.46.79L175.46,168A.91.91,0,0,1,175,168.16Zm-57.18-35,57.18,33,57.18-33v-66L175,34.14l-57.18,33Z"/><circle class="cls-3" cx="175" cy="100.17" r="34.04"/><circle class="cls-4" cx="175" cy="100.17" r="34.13"/><polygon class="cls-5" points="163.14 93.32 175 86.47 186.86 93.32 175 100.17 163.14 93.32"/><polygon class="cls-5" points="163.14 107.02 163.14 93.32 175 100.17 175 113.86 163.14 107.02"/><polygon class="cls-5" points="175 113.86 175 100.17 186.86 93.32 186.86 107.02 175 113.86"/></g></svg>