<svg xmlns="http://www.w3.org/2000/svg" viewBox="0 0 350 200"><defs><style>.cls-1,.cls-5,.cls-8{fill:none;stroke-miterlimit:10;}.cls-1,.cls-5{stroke:#06f7c9;stroke-width:2.77px;}.cls-2{fill:#8115ff;}.cls-2,.cls-7,.cls-8{stroke:#011f38;}.cls-2,.cls-7{stroke-linecap:round;stroke-linejoin:round;}.cls-2,.cls-8{stroke-width:0.8px;}.cls-3{fill:#fff;}.cls-4{fill:#326de6;}.cls-5,.cls-6{opacity:0.3;}.cls-7{fill:#06f7c9;stroke-width:0.83px;}.cls-9{fill:#011f38;}</style></defs><title>16.07.28_k8s_visual_diagrams</title><g id="Graphics"><circle class="cls-1" cx="89.9" cy="118.5" r="28.95"/><polygon class="cls-2" points="76.49 110.76 89.9 103.02 103.31 110.76 89.9 118.51 76.49 110.76"/><polygon class="cls-2" points="76.49 126.25 76.49 110.76 89.9 118.51 89.9 133.99 76.49 126.25"/><polygon class="cls-2" points="89.9 133.99 89.9 118.51 103.31 110.76 103.31 126.25 89.9 133.99"/><polygon class="cls-3" points="229.63 167.54 171.14 133.77 171.14 66.23 229.63 32.46 288.13 66.23 288.13 133.77 229.63 167.54"/><path class="cls-4" d="M229.63,168.46a.92.92,0,0,1-.46-.12l-58.49-33.77a.92.92,0,0,1-.46-.8V66.23a.92.92,0,0,1,.46-.8l58.49-33.77a.92.92,0,0,1,.92,0l58.49,33.77a.92.92,0,0,1,.46.8v67.54a.92.92,0,0,1-.46.8l-58.49,33.77A.92.92,0,0,1,229.63,168.46Zm-57.58-35.22,57.58,33.24,57.58-33.24V66.76L229.63,33.52,172.06,66.76Z"/><circle class="cls-5" cx="208.95" cy="79.69" r="19.42"/><circle class="cls-1" cx="253.81" cy="118.45" r="19.42"/><polygon class="cls-2" points="245.18 113.47 253.81 108.48 262.45 113.47 253.81 118.45 245.18 113.47"/><polygon class="cls-2" points="245.18 123.44 245.18 113.47 253.81 118.45 253.81 128.42 245.18 123.44"/><polygon class="cls-2" points="253.81 128.42 253.81 118.45 262.45 113.47 262.45 123.44 253.81 128.42"/><g class="cls-6"><polygon class="cls-7" points="200.32 74.7 208.95 69.72 217.59 74.7 208.95 79.69 200.32 74.7"/><polygon class="cls-7" points="200.32 84.67 200.32 74.7 208.95 79.69 208.95 89.66 200.32 84.67"/><polygon class="cls-7" points="208.95 89.66 208.95 79.69 217.59 74.7 217.59 84.67 208.95 89.66"/></g><line class="cls-8" x1="138.29" y1="119.46" x2="216.72" y2="119.46"/><polygon class="cls-9" points="214.07 122.73 213.52 122.14 216.41 119.46 213.52 116.77 214.07 116.19 217.59 119.46 214.07 122.73"/></g></svg>