<svg xmlns="http://www.w3.org/2000/svg" xmlns:xlink="http://www.w3.org/1999/xlink" viewBox="0 0 720.4 440.4"><defs><style>.cls-1,.cls-2,.cls-3,.cls-4{opacity:0.1;}.cls-1{fill:url(#linear-gradient);}.cls-2{fill:url(#linear-gradient-2);}.cls-3{fill:url(#linear-gradient-3);}.cls-4{fill:url(#linear-gradient-4);}.cls-5{fill:none;stroke:#326de6;stroke-miterlimit:10;stroke-width:2px;}.cls-11,.cls-6{font-size:12px;}.cls-11,.cls-14,.cls-6,.cls-9{fill:#011f38;}.cls-6{font-family:RobotoSlab-Light, Roboto Slab;}.cls-7{fill:#06f7c9;}.cls-7,.cls-8{stroke:#011f38;stroke-width:0.8px;}.cls-14,.cls-7,.cls-8{stroke-linecap:round;stroke-linejoin:round;}.cls-8{fill:#8115ff;}.cls-9{font-size:13.6px;font-family:RobotoSlab-Bold, Roboto Slab;font-weight:700;}.cls-10{letter-spacing:-0.01em;}.cls-11{font-family:RobotoSlab-Regular, Roboto Slab;}.cls-12{letter-spacing:0em;}.cls-13{letter-spacing:-0.01em;}.cls-14{stroke:#414042;stroke-width:0.3px;}.cls-15{letter-spacing:-0.01em;}.cls-16{letter-spacing:-0.01em;}.cls-17{letter-spacing:-0.01em;}</style><linearGradient id="linear-gradient" x1="163.8" y1="220.2" x2="245.75" y2="220.2" gradientUnits="userSpaceOnUse"><stop offset="0" stop-color="#326de6"/><stop offset="1" stop-color="#10ffc6"/></linearGradient><linearGradient id="linear-gradient-2" x1="279.9" y1="220.2" x2="389.17" y2="220.2" xlink:href="#linear-gradient"/><linearGradient id="linear-gradient-3" x1="432.13" y1="170.03" x2="559.33" y2="272.62" xlink:href="#linear-gradient"/><linearGradient id="linear-gradient-4" x1="57.95" y1="220.2" x2="119.41" y2="220.2" xlink:href="#linear-gradient"/></defs><title>16.07.28_k8s_diagrams_all</title><g id="pods"><circle class="cls-1" cx="204.78" cy="220.2" r="40.97"/><circle class="cls-2" cx="334.53" cy="220.2" r="54.63"/><circle class="cls-3" cx="494.34" cy="220.2" r="71.02"/><circle class="cls-4" cx="88.68" cy="220.2" r="30.73"/><circle class="cls-5" cx="204.78" cy="220.2" r="40.97"/><circle class="cls-5" cx="88.68" cy="220.2" r="30.73"/><circle class="cls-5" cx="334.53" cy="220.2" r="54.63"/><circle class="cls-5" cx="494.34" cy="220.2" r="71.02"/></g><g id="IP"><text class="cls-6" transform="translate(163.51 204.26) rotate(-65.64)">1</text><text class="cls-6" transform="translate(165.35 200) rotate(-58.39)">0</text><text class="cls-6" transform="translate(168.88 194.45) rotate(-52.5)">.</text><text class="cls-6" transform="matrix(0.67, -0.74, 0.74, 0.67, 170.41, 192.37)">1</text><text class="cls-6" transform="matrix(0.76, -0.65, 0.65, 0.76, 173.46, 188.89)">0</text><text class="cls-6" transform="translate(178.51 184.68) rotate(-34.79)">.</text><text class="cls-6" transform="translate(180.59 183.18) rotate(-30.1)">1</text><text class="cls-6" transform="translate(184.56 180.78) rotate(-22.83)">0</text><text class="cls-6" transform="translate(190.64 178.32) rotate(-16.91)">.</text><text class="cls-6" transform="translate(193.05 177.48) rotate(-11.1)">2</text><text class="cls-6" transform="translate(57.67 208.28) rotate(-64.67)">1</text><text class="cls-6" transform="translate(59.53 204.1) rotate(-55.16)">0</text><text class="cls-6" transform="translate(63.34 198.83) rotate(-47.47)">.</text><text class="cls-6" transform="matrix(0.75, -0.66, 0.66, 0.75, 64.99, 196.93)">1</text><text class="cls-6" transform="matrix(0.85, -0.53, 0.53, 0.85, 68.36, 193.83)">0</text><text class="cls-6" transform="translate(73.95 190.5) rotate(-24.1)">.</text><text class="cls-6" transform="translate(76.23 189.4) rotate(-17.84)">1</text><text class="cls-6" transform="translate(80.52 187.91) rotate(-8.31)">0</text><text class="cls-6" transform="translate(86.97 187.09) rotate(-0.93)">.</text><text class="cls-6" transform="translate(89.51 186.99) rotate(5.59)">1</text><text class="cls-6" transform="matrix(0.64, -0.77, 0.77, 0.64, 288.43, 185.24)">1</text><text class="cls-6" transform="translate(291.38 181.59) rotate(-44.83)">0</text><text class="cls-6" transform="matrix(0.76, -0.65, 0.65, 0.76, 296.13, 176.97)">.</text><text class="cls-6" transform="translate(298.11 175.25) rotate(-36.68)">1</text><text class="cls-6" transform="matrix(0.86, -0.52, 0.52, 0.86, 301.81, 172.42)">0</text><text class="cls-6" transform="translate(307.51 169.06) rotate(-26.59)">.</text><text class="cls-6" transform="matrix(0.92, -0.39, 0.39, 0.92, 309.84, 167.85)">1</text><text class="cls-6" transform="translate(314.12 165.98) rotate(-17.31)">0</text><text class="cls-6" transform="translate(320.46 164.08) rotate(-12.72)">.</text><text class="cls-6" transform="translate(322.97 163.44) rotate(-8.28)">3</text><text class="cls-6" transform="matrix(0.69, -0.73, 0.73, 0.69, 438.68, 171.09)">1</text><text class="cls-6" transform="translate(441.87 167.64) rotate(-42.36)">0</text><text class="cls-6" transform="translate(446.85 163.19) rotate(-38.8)">.</text><text class="cls-6" transform="matrix(0.81, -0.59, 0.59, 0.81, 448.89, 161.51)">1</text><text class="cls-6" transform="matrix(0.85, -0.52, 0.52, 0.85, 452.68, 158.71)">0</text><text class="cls-6" transform="matrix(0.88, -0.47, 0.47, 0.88, 458.38, 155.27)">.</text><text class="cls-6" transform="translate(460.7 154) rotate(-25.15)">1</text><text class="cls-6" transform="translate(464.93 151.97) rotate(-20.76)">0</text><text class="cls-6" transform="matrix(0.96, -0.29, 0.29, 0.96, 471.2, 149.66)">.</text><text class="cls-6" transform="translate(473.65 148.83) rotate(-13.5)">4</text></g><g id="containers_volumes" data-name="containers/volumes"><polygon class="cls-7" points="179.7 213.49 190.26 207.39 200.82 213.49 190.26 219.59 179.7 213.49"/><polygon class="cls-7" points="179.7 225.69 179.7 213.49 190.26 219.59 190.26 231.79 179.7 225.69"/><polygon class="cls-7" points="190.26 231.79 190.26 219.59 200.82 213.49 200.82 225.69 190.26 231.79"/><path class="cls-8" d="M229.85,224.88s0,0,0,0,0,0,0,0V214.24H208.74v10.55s0,0,0,0,0,0,0,0v.19h0c.24,2.88,4.86,5.19,10.54,5.19s10.3-2.3,10.54-5.19h0Z"/><ellipse class="cls-8" cx="219.3" cy="214.35" rx="10.56" ry="5.42"/><polygon class="cls-7" points="78.12 214.1 88.68 208 99.24 214.1 88.68 220.2 78.12 214.1"/><polygon class="cls-7" points="78.12 226.3 78.12 214.1 88.68 220.2 88.68 232.4 78.12 226.3"/><polygon class="cls-7" points="88.68 232.4 88.68 220.2 99.24 214.1 99.24 226.3 88.68 232.4"/><polygon class="cls-7" points="323.97 201.42 334.53 195.32 345.1 201.42 334.53 207.52 323.97 201.42"/><polygon class="cls-7" points="323.97 213.62 323.97 201.42 334.53 207.52 334.53 219.72 323.97 213.62"/><polygon class="cls-7" points="334.53 219.72 334.53 207.52 345.1 201.42 345.1 213.62 334.53 219.72"/><polygon class="cls-7" points="312.07 224.65 319.99 220.08 327.91 224.65 319.99 229.23 312.07 224.65"/><polygon class="cls-7" points="312.07 233.8 312.07 224.65 319.99 229.23 319.99 238.37 312.07 233.8"/><polygon class="cls-7" points="319.99 238.37 319.99 229.23 327.91 224.65 327.91 233.8 319.99 238.37"/><path class="cls-8" d="M359.58,234.51s0,0,0,0,0,0,0,0V223.88H338.47v10.55s0,0,0,0,0,0,0,0v.19h0c.24,2.88,4.86,5.19,10.54,5.19s10.3-2.3,10.54-5.19h0Z"/><ellipse class="cls-8" cx="349.02" cy="223.98" rx="10.56" ry="5.42"/><path class="cls-8" d="M477.26,226.24s0,0,0,0,0,0,0,0V215.61H456.14v10.55s0,0,0,0,0,0,0,0v.19h0c.24,2.88,4.86,5.19,10.54,5.19s10.3-2.3,10.54-5.19h0Z"/><ellipse class="cls-8" cx="466.7" cy="215.71" rx="10.56" ry="5.42"/><path class="cls-8" d="M520.66,204.54s0,0,0,0,0,0,0,0V193.9H499.54v10.55s0,0,0,0,0,0,0,0v.19h0c.24,2.88,4.86,5.19,10.54,5.19s10.3-2.3,10.54-5.19h0Z"/><ellipse class="cls-8" cx="510.1" cy="194.01" rx="10.56" ry="5.42"/><polygon class="cls-7" points="485.05 214.85 495.61 208.76 506.17 214.85 495.61 220.96 485.05 214.85"/><polygon class="cls-7" points="485.05 227.05 485.05 214.85 495.61 220.96 495.61 233.15 485.05 227.05"/><polygon class="cls-7" points="495.61 233.15 495.61 220.96 506.17 214.85 506.17 227.05 495.61 233.15"/><polygon class="cls-7" points="516.7 216.38 524.62 211.81 532.54 216.38 524.62 220.96 516.7 216.38"/><polygon class="cls-7" points="516.7 225.53 516.7 216.38 524.62 220.96 524.62 230.1 516.7 225.53"/><polygon class="cls-7" points="524.62 230.1 524.62 220.96 532.54 216.38 532.54 225.53 524.62 230.1"/><polygon class="cls-7" points="484.2 239.53 478.92 236.48 473.64 239.53 478.92 242.58 484.2 239.53"/><polygon class="cls-7" points="484.2 245.63 484.2 239.53 478.92 242.58 478.92 248.67 484.2 245.63"/><polygon class="cls-7" points="478.92 248.67 478.92 242.58 473.64 239.53 473.64 245.63 478.92 248.67"/></g><g id="description"><text class="cls-9" transform="translate(187.16 322.96)"><tspan class="cls-10">P</tspan><tspan x="8.71" y="0">od 2</tspan></text><text class="cls-9" transform="translate(71.82 322.96)"><tspan class="cls-10">P</tspan><tspan x="8.71" y="0">od 1</tspan></text><text class="cls-9" transform="translate(316.98 322.96)"><tspan class="cls-10">P</tspan><tspan x="8.71" y="0">od 3</tspan></text><text class="cls-9" transform="translate(476.87 322.96)"><tspan class="cls-10">P</tspan><tspan x="8.71" y="0">od 4</tspan></text><text class="cls-11" transform="translate(598.45 225.12)">contai<tspan class="cls-12" x="35.87" y="0">n</tspan><tspan x="43.54" y="0">eri</tspan><tspan class="cls-13" x="58.89" y="0">z</tspan><tspan x="65.15" y="0">ed app</tspan></text><line class="cls-14" x1="596.41" y1="222.72" x2="523.34" y2="222.72"/><text class="cls-11" transform="translate(598.45 205.05)"><tspan class="cls-15">v</tspan><tspan class="cls-16" x="6.61" y="0">o</tspan><tspan x="13.22" y="0">lu</tspan><tspan class="cls-12" x="24.29" y="0">m</tspan><tspan x="35.57" y="0">e</tspan></text><line class="cls-14" x1="596.41" y1="202.65" x2="509.97" y2="202.65"/><text class="cls-11" transform="translate(598.45 147.18)">IP add<tspan class="cls-17" x="35.5" y="0">r</tspan><tspan x="40.35" y="0">ess</tspan></text><line class="cls-14" x1="596.41" y1="144.78" x2="482.21" y2="144.78"/></g></svg>