<?xml version="1.0" encoding="utf-8"?>
<!-- Generator: Adobe Illustrator 19.2.1, SVG Export Plug-In . SVG Version: 6.00 Build 0)  -->
<svg version="1.1" xmlns="http://www.w3.org/2000/svg" xmlns:xlink="http://www.w3.org/1999/xlink" x="0px" y="0px"
	 viewBox="0 0 720.4 440.4" style="enable-background:new 0 0 720.4 440.4;" xml:space="preserve">
<style type="text/css">
	.st0{fill:#FFFFFF;stroke:#326DE6;stroke-width:2;stroke-linecap:round;stroke-linejoin:round;stroke-miterlimit:10;}
	.st1{opacity:0.71;fill:#326CE6;}
	.st2{opacity:0.45;fill:#FFFFFF;}
	.st3{fill:#FFFFFF;stroke:#006DE9;stroke-width:2;stroke-linecap:round;stroke-linejoin:round;stroke-miterlimit:10;}
	.st4{fill:#006DE9;}
	.st5{fill:#A0CAEA;}
	.st6{fill:#FFFFFF;}
	.st7{opacity:0.13;}
	.st8{fill:url(#SVGID_1_);}
	.st9{fill:url(#SVGID_2_);}
	.st10{fill:#FFFFFF;stroke:#006DE9;stroke-linecap:round;stroke-linejoin:round;stroke-miterlimit:10;}
	.st11{fill:#FFFFFF;stroke:#006DE9;stroke-width:6;stroke-linecap:round;stroke-linejoin:round;stroke-miterlimit:10;}
	.st12{fill:#FFFFFF;stroke:#326DE6;stroke-width:3.2;stroke-linecap:round;stroke-linejoin:round;stroke-miterlimit:10;}
	.st13{fill:#326DE6;}
	.st14{fill:none;stroke:#326DE6;stroke-width:2.4;stroke-miterlimit:10;}
	.st15{fill:#A0CAE9;}
	.st16{fill:#FFFFFF;stroke:#326DE6;stroke-width:1.6;stroke-linecap:round;stroke-linejoin:round;stroke-miterlimit:10;}
	.st17{fill:#FFFFFF;stroke:#326DE6;stroke-width:1.6;stroke-miterlimit:10;}
	.st18{fill:none;stroke:#06F7C9;stroke-width:2;stroke-miterlimit:10;}
	.st19{fill:none;stroke:#06F7C9;stroke-width:2;stroke-miterlimit:10;stroke-dasharray:2.3749,1.5832;}
	.st20{fill:none;stroke:#06F7C9;stroke-width:2;stroke-miterlimit:10;stroke-dasharray:2.4006,1.6004;}
	.st21{fill:none;stroke:#EEF406;stroke-width:2;stroke-miterlimit:10;stroke-dasharray:2.4,1.6;}
	.st22{fill:none;stroke:#EEF406;stroke-width:2;stroke-miterlimit:10;}
	.st23{fill:none;stroke:#EEF406;stroke-width:2;stroke-miterlimit:10;stroke-dasharray:2.3975,1.5984;}
	.st24{fill:none;stroke:#EEF406;stroke-width:2;stroke-miterlimit:10;stroke-dasharray:2.395,1.5966;}
	.st25{fill:none;stroke:#EEF406;stroke-width:2;stroke-miterlimit:10;stroke-dasharray:2.3963,1.5976;}
	.st26{opacity:0.1;fill:#EEF406;}
	.st27{opacity:2.000000e-02;fill:#EEF406;}
	.st28{opacity:0.1;fill:#06F7C9;}
	.st29{fill:none;stroke:#006DE9;stroke-width:0.8;stroke-miterlimit:10;}
	.st30{opacity:0.1;fill:url(#SVGID_3_);}
	.st31{opacity:0.1;fill:url(#SVGID_4_);}
	.st32{opacity:0.1;fill:url(#SVGID_5_);}
	.st33{opacity:0.1;fill:url(#SVGID_6_);}
	.st34{fill:none;stroke:#326DE6;stroke-width:1.2;stroke-miterlimit:10;}
	.st35{opacity:0.1;fill:url(#SVGID_7_);}
	.st36{opacity:0.1;fill:url(#SVGID_8_);}
	.st37{opacity:0.1;fill:url(#SVGID_9_);}
	.st38{opacity:0.1;fill:url(#SVGID_10_);}
	.st39{fill:none;stroke:#326DE6;stroke-width:2;stroke-miterlimit:10;}
	.st40{opacity:0.4;fill:none;stroke:#EEF406;stroke-width:2;stroke-miterlimit:10;}
	.st41{fill:none;stroke:#EEF406;stroke-width:2.4596;stroke-miterlimit:10;}
	.st42{fill:#011F38;}
	.st43{opacity:0.4;}
	.st44{opacity:0.1;}
	.st45{fill:#326DE6;stroke:#EEF406;stroke-width:2;stroke-miterlimit:10;}
	.st46{fill:none;stroke:#FFFFFF;stroke-width:1.2;stroke-linecap:round;stroke-linejoin:round;}
	.st47{fill:#06F7C9;stroke:#FFFFFF;stroke-width:0.3;stroke-linecap:round;stroke-linejoin:round;stroke-miterlimit:10;}
	.st48{fill:none;stroke:#011F38;stroke-width:1.2;stroke-linecap:round;stroke-linejoin:round;}
	.st49{fill:#326DE6;stroke:#06F7C9;stroke-width:2;stroke-miterlimit:10;}
	.st50{fill:#06F7C9;stroke:#011F38;stroke-width:0.8;stroke-linecap:round;stroke-linejoin:round;stroke-miterlimit:10;}
	.st51{fill:#8115FF;stroke:#011F38;stroke-width:0.8;stroke-linecap:round;stroke-linejoin:round;stroke-miterlimit:10;}
	.st52{opacity:0.3;}
	.st53{opacity:0.2;fill:#6D6E71;}
	.st54{fill:#EEF406;}
	.st55{fill:#06F7C9;}
	.st56{fill:#FFFFFF;stroke:#06F7C9;stroke-width:2;stroke-miterlimit:10;stroke-dasharray:2.4,1.6;}
	.st57{fill:#FFFFFF;stroke:#EEF406;stroke-width:1.6;stroke-miterlimit:10;stroke-dasharray:2.4,1.6;}
	.st58{fill:none;stroke:#06F7C9;stroke-width:2;stroke-miterlimit:10;stroke-dasharray:2.4938,1.6626;}
	.st59{fill:none;stroke:#06F7C9;stroke-width:2;stroke-miterlimit:10;stroke-dasharray:2.0084,1.3389;}
	.st60{fill:none;stroke:#06F7C9;stroke-width:2;stroke-miterlimit:10;stroke-dasharray:2.724,1.816;}
	.st61{fill:#011F38;stroke:#414042;stroke-width:0.3;stroke-linecap:round;stroke-linejoin:round;stroke-miterlimit:10;}
	.st62{fill:none;stroke:#011F38;stroke-width:0.3;stroke-linecap:round;stroke-linejoin:round;stroke-miterlimit:10;}
	.st63{fill:none;stroke:#011F38;stroke-width:0.2813;stroke-linecap:round;stroke-linejoin:round;stroke-miterlimit:10;}
</style>
<symbol  id="node_high_level" viewBox="-81 -93 162 186.1">
	<polygon class="st0" points="-80,-46 -80,46 0,92 80,46 80,-46 0,-92 	"/>
	<g id="Isolation_Mode_3_">
	</g>
</symbol>
<symbol  id="node_x5F_empty" viewBox="-87.5 -100.6 175.1 201.1">
	
		<use xlink:href="#node_high_level"  width="162" height="186.1" id="XMLID_201_" x="-81" y="-93" transform="matrix(1.0808 0 0 1.0808 -3.292006e-05 -3.749943e-05)" style="overflow:visible;"/>
	<g>
		<polygon class="st1" points="76.8,-28.1 -14,-80.3 0,-88.3 76.7,-44.4 		"/>
		<polygon class="st2" points="76.8,-28.1 32.1,-53.8 38.8,-66.1 76.7,-44.4 		"/>
	</g>
</symbol>
<symbol  id="node_x5F_new" viewBox="-87.6 -101 175.2 202">
	<polygon class="st3" points="0,-100 -86.6,-50 -86.6,50 0,100 86.6,50 86.6,-50 	"/>
	<polygon class="st4" points="-86.6,-20.2 -86.6,-50 0,-100 25.8,-85.1 	"/>
	<polygon class="st5" points="-40.8,-70.7 -32.9,-57 15.7,-85.1 0,-94.3 	"/>
	
		<text transform="matrix(0.866 -0.5 -0.5 -0.866 -33.9256 -70.7388)" class="st6" style="font-family:'RobotoSlab-Regular'; font-size:11.3632px;">Docker</text>
	
		<text transform="matrix(0.866 -0.5 -0.5 -0.866 -76.0668 -46.4087)" class="st6" style="font-family:'RobotoSlab-Regular'; font-size:11.3632px;">Kubelt</text>
</symbol>
<g id="CLUSTER">
</g>
<g id="master">
	<g id="master_x5F_level1">
	</g>
	<polygon class="st12" points="340.5,265.9 316.3,235.6 325,197.8 359.9,181 394.8,197.8 403.4,235.6 379.2,265.9 	"/>
</g>
<g id="Node">
	<g id="Node_x5F_level3_x5F_1">
		<g id="Isolation_Mode">
		</g>
	</g>
	<g>
		<polygon class="st17" points="423.4,179.8 365.3,146.2 365.3,79.1 423.4,45.6 481.5,79.1 481.5,146.2 		"/>
	</g>
	<g>
		<polygon class="st17" points="296.3,179.7 238.2,146.1 238.2,79.1 296.3,45.5 354.4,79.1 354.4,146.1 		"/>
	</g>
	<g>
		<polygon class="st17" points="296.3,401.4 238.2,367.9 238.2,300.8 296.3,267.2 354.4,300.8 354.4,367.9 		"/>
	</g>
</g>
<g id="service">
	<g>
		<g>
			<path class="st18" d="M295.1,154.7c0.4,0,0.8,0,1.2,0h1.2"/>
			<line class="st19" x1="299" y1="154.7" x2="444.7" y2="154.7"/>
			<path class="st18" d="M445.5,154.7h1.2c0.4,0,0.8,0,1.2,0"/>
			<path class="st20" d="M449.5,154.7c24.1-1.5,43.3-21.5,43.3-46c0-25.4-20.7-46.1-46.1-46.1H296.3c-25.4,0-46.1,20.7-46.1,46.1
				c0,24.8,19.6,45,44.1,46.1"/>
		</g>
	</g>
	<path class="st21" d="M295.6,384.5c-25.4,0-46.1-20.7-46.1-46.1c0-25.4,20.7-46.1,46.1-46.1c25.4,0,46.1,20.7,46.1,46.1
		C341.8,363.8,321.1,384.5,295.6,384.5z"/>
</g>
<g id="pods">
	<circle class="st26" cx="295.6" cy="338.3" r="34.1"/>
	<circle class="st22" cx="295.6" cy="338.3" r="34.1"/>
	<circle class="st28" cx="400.2" cy="108.6" r="20.5"/>
	<circle class="st28" cx="446.7" cy="108.6" r="20.5"/>
	<circle class="st28" cx="296.3" cy="108.6" r="34.1"/>
	<circle class="st18" cx="400.2" cy="108.6" r="20.5"/>
	<circle class="st18" cx="446.7" cy="108.6" r="20.5"/>
	<circle class="st18" cx="296.3" cy="108.6" r="34.1"/>
</g>
<g id="IP">
	<g>
		<path class="st42" d="M381.2,95.3l0.5-0.8l-3.4-2.6l-0.5,0.9l-0.2-0.2l0.6-1.3l3.8,2.9l0.6-0.7l0.2,0.2l-1.4,1.8L381.2,95.3z"/>
		<path class="st42" d="M384.1,89.6c0.5,0.5,0.7,0.9,0.8,1.4s-0.1,0.8-0.5,1.2c-0.4,0.3-0.8,0.5-1.2,0.4s-0.9-0.3-1.4-0.8L381,91
			c-0.5-0.5-0.7-0.9-0.8-1.4c0-0.5,0.1-0.9,0.5-1.2c0.4-0.3,0.8-0.5,1.2-0.4s0.9,0.3,1.4,0.8L384.1,89.6z M382.9,89
			c-0.4-0.4-0.7-0.6-1.1-0.7c-0.3-0.1-0.6,0-0.9,0.3c-0.3,0.3-0.4,0.6-0.3,0.9s0.3,0.7,0.6,1.1l0.9,0.9c0.4,0.4,0.7,0.6,1.1,0.7
			c0.3,0.1,0.7,0,0.9-0.3c0.3-0.3,0.4-0.6,0.3-0.9c-0.1-0.3-0.3-0.7-0.6-1.1L382.9,89z"/>
		<path class="st42" d="M386.5,90.3l-0.4,0.3l-0.3-0.5l0.4-0.3L386.5,90.3z"/>
		<path class="st42" d="M387.1,89.4l0.8-0.5l-2.3-3.7l-0.8,0.7l-0.2-0.3l1.1-1l2.5,4.1l0.8-0.4l0.2,0.3l-1.9,1.2L387.1,89.4z"/>
		<path class="st42" d="M391.8,85.2c0.3,0.6,0.3,1.1,0.2,1.6s-0.4,0.8-0.9,1c-0.5,0.2-0.9,0.2-1.3,0s-0.7-0.6-1-1.2l-0.5-1
			c-0.3-0.6-0.3-1.1-0.2-1.6c0.1-0.4,0.4-0.8,0.9-1c0.5-0.2,0.9-0.2,1.3,0c0.4,0.2,0.7,0.6,1,1.2L391.8,85.2z M390.9,84.2
			c-0.2-0.5-0.5-0.8-0.8-1c-0.3-0.2-0.6-0.2-1,0c-0.3,0.2-0.6,0.4-0.6,0.7c-0.1,0.3,0,0.7,0.2,1.2l0.5,1.2c0.2,0.5,0.5,0.8,0.8,1
			c0.3,0.2,0.6,0.2,1,0c0.3-0.2,0.6-0.4,0.6-0.7c0.1-0.3,0-0.8-0.2-1.2L390.9,84.2z"/>
		<path class="st42" d="M393.8,86.6l-0.5,0.1l-0.2-0.6l0.5-0.1L393.8,86.6z"/>
		<path class="st42" d="M394.7,86.1l0.9-0.2l-0.8-4.2l-1,0.3l-0.1-0.3l1.3-0.6l0.9,4.7l0.9-0.1l0.1,0.3l-2.2,0.4L394.7,86.1z"/>
		<path class="st42" d="M400.5,83.7c0,0.7-0.1,1.2-0.3,1.5c-0.3,0.4-0.6,0.6-1.1,0.6c-0.5,0-0.9-0.1-1.2-0.5
			c-0.3-0.3-0.5-0.8-0.5-1.5l-0.1-1.1c0-0.7,0.1-1.2,0.3-1.5c0.3-0.4,0.6-0.6,1.1-0.6c0.5,0,0.9,0.1,1.2,0.5s0.5,0.8,0.5,1.5
			L400.5,83.7z M400,82.5c0-0.5-0.1-0.9-0.4-1.2c-0.2-0.3-0.5-0.4-0.9-0.4c-0.4,0-0.7,0.2-0.8,0.5c-0.2,0.3-0.3,0.7-0.2,1.2l0.1,1.3
			c0,0.5,0.1,0.9,0.4,1.2s0.5,0.4,0.9,0.4c0.4,0,0.7-0.2,0.8-0.5c0.2-0.3,0.3-0.7,0.2-1.2L400,82.5z"/>
		<path class="st42" d="M401.9,85.8l-0.5,0l0-0.6l0.5,0L401.9,85.8z"/>
		<path class="st42" d="M405.7,84.7l0.8,0.1l-0.1,0.3l-0.8-0.1l-0.2,0.9l0.6,0.2l-0.1,0.3l-1.5-0.3l0.1-0.3l0.6,0.1l0.2-0.9
			l-2.4-0.4l0-0.2l3-3.1l0.5,0.1L405.7,84.7z M403.5,84.3l1.9,0.4l0.5-2.9l0,0l-0.2,0.3L403.5,84.3z"/>
	</g>
	<g>
		<path class="st42" d="M427.7,95.3l0.5-0.8l-3.4-2.6l-0.5,0.9l-0.2-0.2l0.6-1.3l3.8,2.9l0.6-0.7l0.2,0.2l-1.4,1.8L427.7,95.3z"/>
		<path class="st42" d="M430.6,89.6c0.5,0.5,0.7,0.9,0.8,1.4s-0.1,0.8-0.5,1.2c-0.4,0.3-0.8,0.5-1.2,0.4s-0.9-0.3-1.4-0.8l-0.8-0.8
			c-0.5-0.5-0.7-0.9-0.8-1.4c0-0.5,0.1-0.9,0.5-1.2c0.4-0.3,0.8-0.5,1.2-0.4s0.9,0.3,1.4,0.8L430.6,89.6z M429.4,89
			c-0.4-0.4-0.7-0.6-1.1-0.7c-0.3-0.1-0.6,0-0.9,0.3c-0.3,0.3-0.4,0.6-0.3,0.9s0.3,0.7,0.6,1.1l0.9,0.9c0.4,0.4,0.7,0.6,1.1,0.7
			c0.3,0.1,0.7,0,0.9-0.3c0.3-0.3,0.4-0.6,0.3-0.9c-0.1-0.3-0.3-0.7-0.6-1.1L429.4,89z"/>
		<path class="st42" d="M433,90.3l-0.4,0.3l-0.3-0.5l0.4-0.3L433,90.3z"/>
		<path class="st42" d="M433.6,89.4l0.8-0.5l-2.3-3.7l-0.8,0.7l-0.2-0.3l1.1-1l2.5,4.1l0.8-0.4l0.2,0.3l-1.9,1.2L433.6,89.4z"/>
		<path class="st42" d="M438.3,85.2c0.3,0.6,0.3,1.1,0.2,1.6s-0.4,0.8-0.9,1c-0.5,0.2-0.9,0.2-1.3,0s-0.7-0.6-1-1.2l-0.5-1
			c-0.3-0.6-0.3-1.1-0.2-1.6c0.1-0.4,0.4-0.8,0.9-1c0.5-0.2,0.9-0.2,1.3,0c0.4,0.2,0.7,0.6,1,1.2L438.3,85.2z M437.4,84.2
			c-0.2-0.5-0.5-0.8-0.8-1c-0.3-0.2-0.6-0.2-1,0c-0.3,0.2-0.6,0.4-0.6,0.7c-0.1,0.3,0,0.7,0.2,1.2l0.5,1.2c0.2,0.5,0.5,0.8,0.8,1
			c0.3,0.2,0.6,0.2,1,0c0.3-0.2,0.6-0.4,0.6-0.7c0.1-0.3,0-0.8-0.2-1.2L437.4,84.2z"/>
		<path class="st42" d="M440.3,86.6l-0.5,0.1l-0.2-0.6l0.5-0.1L440.3,86.6z"/>
		<path class="st42" d="M441.2,86.1l0.9-0.2l-0.8-4.2l-1,0.3l-0.1-0.3l1.3-0.6l0.9,4.7l0.9-0.1l0.1,0.3l-2.2,0.4L441.2,86.1z"/>
		<path class="st42" d="M447,83.7c0,0.7-0.1,1.2-0.3,1.5c-0.3,0.4-0.6,0.6-1.1,0.6c-0.5,0-0.9-0.1-1.2-0.5c-0.3-0.3-0.5-0.8-0.5-1.5
			l-0.1-1.1c0-0.7,0.1-1.2,0.3-1.5c0.3-0.4,0.6-0.6,1.1-0.6c0.5,0,0.9,0.1,1.2,0.5s0.5,0.8,0.5,1.5L447,83.7z M446.5,82.5
			c0-0.5-0.1-0.9-0.4-1.2c-0.2-0.3-0.5-0.4-0.9-0.4c-0.4,0-0.7,0.2-0.8,0.5c-0.2,0.3-0.3,0.7-0.2,1.2l0.1,1.3c0,0.5,0.1,0.9,0.4,1.2
			s0.5,0.4,0.9,0.4c0.4,0,0.7-0.2,0.8-0.5c0.2-0.3,0.3-0.7,0.2-1.2L446.5,82.5z"/>
		<path class="st42" d="M448.4,85.8l-0.5,0l0-0.6l0.5,0L448.4,85.8z"/>
		<path class="st42" d="M450.7,83.2l0.5,0.1c0.4,0.1,0.7,0,0.9-0.1s0.4-0.4,0.4-0.7c0.1-0.3,0-0.6-0.1-0.8c-0.1-0.2-0.4-0.4-0.7-0.4
			c-0.3-0.1-0.6,0-0.8,0.1s-0.4,0.4-0.4,0.7l-0.4-0.1l0,0c0.1-0.4,0.3-0.7,0.6-0.9c0.3-0.2,0.7-0.3,1.2-0.2c0.4,0.1,0.8,0.3,1,0.6
			c0.2,0.3,0.3,0.7,0.2,1.1c0,0.2-0.2,0.4-0.3,0.6c-0.2,0.2-0.4,0.3-0.7,0.4c0.3,0.1,0.5,0.3,0.6,0.6c0.1,0.2,0.1,0.5,0.1,0.8
			c-0.1,0.4-0.3,0.8-0.6,1c-0.3,0.2-0.7,0.3-1.2,0.2c-0.4-0.1-0.8-0.3-1.1-0.6c-0.3-0.3-0.4-0.7-0.3-1.1l0,0l0.4,0.1
			c-0.1,0.3,0,0.6,0.2,0.8c0.2,0.2,0.5,0.4,0.8,0.5c0.4,0.1,0.7,0,0.9-0.1c0.2-0.1,0.4-0.4,0.4-0.7c0.1-0.4,0-0.6-0.2-0.8
			c-0.2-0.2-0.5-0.3-0.9-0.4l-0.5-0.1L450.7,83.2z"/>
	</g>
	<g>
		<path class="st42" d="M262.8,93.2l0.4-0.8l-3.9-1.9l-0.3,1l-0.3-0.1l0.4-1.4l4.3,2.1l0.5-0.8l0.3,0.1l-1,2L262.8,93.2z"/>
		<path class="st42" d="M264.3,87c0.6,0.3,0.9,0.7,1.1,1.2c0.2,0.4,0.1,0.9-0.2,1.3c-0.3,0.4-0.6,0.7-1.1,0.7
			c-0.5,0.1-1-0.1-1.5-0.4l-1-0.6c-0.6-0.3-0.9-0.7-1.1-1.2c-0.2-0.4-0.1-0.9,0.2-1.3c0.3-0.4,0.6-0.7,1.1-0.7
			c0.5-0.1,1,0.1,1.5,0.4L264.3,87z M263.1,86.7c-0.4-0.3-0.8-0.4-1.2-0.4c-0.3,0-0.6,0.2-0.8,0.5c-0.2,0.3-0.2,0.6-0.1,1
			c0.1,0.3,0.4,0.6,0.9,0.9l1.1,0.7c0.4,0.3,0.8,0.4,1.2,0.4c0.4,0,0.6-0.2,0.8-0.5c0.2-0.3,0.2-0.6,0.1-1c-0.1-0.3-0.4-0.6-0.9-0.9
			L263.1,86.7z"/>
		<path class="st42" d="M266.8,87l-0.3,0.4l-0.5-0.3l0.3-0.4L266.8,87z"/>
		<path class="st42" d="M267.2,86l0.5-0.7l-3.3-2.7l-0.5,0.9l-0.2-0.2l0.7-1.3l3.7,3l0.6-0.7l0.2,0.2l-1.4,1.7L267.2,86z"/>
		<path class="st42" d="M270.1,80.3c0.5,0.5,0.7,0.9,0.8,1.4c0.1,0.4-0.1,0.9-0.4,1.2c-0.3,0.4-0.8,0.5-1.2,0.5
			c-0.5-0.1-0.9-0.3-1.4-0.8l-0.8-0.8c-0.5-0.5-0.7-0.9-0.8-1.4c-0.1-0.5,0.1-0.9,0.4-1.2c0.4-0.4,0.8-0.5,1.2-0.5
			c0.5,0.1,0.9,0.3,1.4,0.8L270.1,80.3z M268.9,79.8c-0.4-0.4-0.7-0.6-1.1-0.6c-0.3-0.1-0.6,0.1-0.9,0.3c-0.3,0.3-0.4,0.6-0.3,0.9
			c0.1,0.3,0.3,0.7,0.6,1.1l0.9,0.9c0.4,0.4,0.7,0.6,1.1,0.6c0.3,0.1,0.7,0,0.9-0.3c0.3-0.3,0.4-0.6,0.3-0.9
			c-0.1-0.3-0.3-0.7-0.6-1.1L268.9,79.8z"/>
		<path class="st42" d="M272.5,80.9l-0.4,0.3l-0.4-0.4l0.4-0.3L272.5,80.9z"/>
		<path class="st42" d="M273.1,80l0.7-0.6l-2.6-3.4l-0.7,0.7l-0.2-0.2l0.9-1.1l2.9,3.8l0.8-0.5l0.2,0.2l-1.8,1.4L273.1,80z"/>
		<path class="st42" d="M277.1,75.1c0.4,0.6,0.5,1.1,0.5,1.5c0,0.5-0.3,0.8-0.7,1.1c-0.4,0.3-0.8,0.3-1.3,0.2
			c-0.4-0.2-0.8-0.5-1.2-1.1l-0.6-1c-0.4-0.6-0.5-1.1-0.5-1.5s0.3-0.8,0.7-1.1c0.4-0.3,0.8-0.3,1.3-0.2c0.4,0.2,0.8,0.5,1.2,1.1
			L277.1,75.1z M276.1,74.3c-0.3-0.4-0.6-0.7-0.9-0.9c-0.3-0.1-0.6-0.1-1,0.1c-0.3,0.2-0.5,0.5-0.5,0.8c0,0.3,0.1,0.7,0.4,1.2
			l0.7,1.1c0.3,0.4,0.6,0.7,0.9,0.9c0.3,0.1,0.6,0.1,1-0.1c0.3-0.2,0.5-0.5,0.5-0.8c0-0.3-0.1-0.7-0.4-1.2L276.1,74.3z"/>
		<path class="st42" d="M279.4,76.2l-0.4,0.2l-0.3-0.5l0.4-0.2L279.4,76.2z"/>
		<path class="st42" d="M280.2,75.7l-0.1-0.3l0.8-2.4c0.1-0.4,0.2-0.8,0.3-1.1c0-0.3,0-0.5-0.1-0.7c-0.1-0.3-0.3-0.5-0.6-0.6
			c-0.2-0.1-0.5-0.1-0.8,0c-0.4,0.2-0.6,0.4-0.7,0.7c-0.1,0.3-0.1,0.6,0.1,0.9l-0.4,0.2l0,0c-0.2-0.4-0.2-0.8-0.1-1.2
			c0.1-0.4,0.4-0.7,0.9-0.9c0.4-0.2,0.8-0.2,1.1-0.1s0.6,0.4,0.8,0.8c0.1,0.3,0.1,0.6,0.1,0.9c0,0.3-0.1,0.7-0.3,1.2l-0.7,2l0,0
			l2-0.9l-0.3-0.7l0.3-0.1l0.4,1L280.2,75.7z"/>
	</g>
	<g>
		<path class="st42" d="M262.2,322.9l0.4-0.8l-3.9-1.9l-0.3,1l-0.3-0.1l0.4-1.4l4.3,2.1l0.5-0.8l0.3,0.1l-1,2L262.2,322.9z"/>
		<path class="st42" d="M263.7,316.7c0.6,0.3,0.9,0.7,1.1,1.2s0.1,0.9-0.2,1.3c-0.3,0.4-0.6,0.7-1.1,0.7c-0.5,0.1-1-0.1-1.5-0.4
			l-1-0.6c-0.6-0.3-0.9-0.7-1.1-1.2c-0.2-0.4-0.1-0.9,0.2-1.3c0.3-0.4,0.6-0.7,1.1-0.7c0.5-0.1,1,0.1,1.5,0.4L263.7,316.7z
			 M262.5,316.5c-0.4-0.3-0.8-0.4-1.2-0.4s-0.6,0.2-0.8,0.5c-0.2,0.3-0.2,0.6-0.1,1c0.1,0.3,0.4,0.6,0.9,0.9l1.1,0.7
			c0.4,0.3,0.8,0.4,1.2,0.4c0.4,0,0.6-0.2,0.8-0.5c0.2-0.3,0.2-0.6,0.1-1c-0.1-0.3-0.4-0.6-0.9-0.9L262.5,316.5z"/>
		<path class="st42" d="M266.2,316.7l-0.3,0.4l-0.5-0.3l0.3-0.4L266.2,316.7z"/>
		<path class="st42" d="M266.5,315.7l0.5-0.7l-3.3-2.7l-0.5,0.9l-0.2-0.2l0.7-1.3l3.7,3l0.6-0.7l0.2,0.2l-1.4,1.7L266.5,315.7z"/>
		<path class="st42" d="M269.4,310.1c0.5,0.5,0.7,0.9,0.8,1.4c0.1,0.5-0.1,0.9-0.4,1.2c-0.3,0.4-0.8,0.5-1.2,0.5
			c-0.5-0.1-0.9-0.3-1.4-0.8l-0.8-0.8c-0.5-0.5-0.7-0.9-0.8-1.4c-0.1-0.5,0.1-0.9,0.4-1.2c0.4-0.4,0.8-0.5,1.2-0.5
			c0.5,0.1,0.9,0.3,1.4,0.8L269.4,310.1z M268.3,309.5c-0.4-0.4-0.7-0.6-1.1-0.6c-0.3-0.1-0.6,0-0.9,0.3c-0.3,0.3-0.4,0.6-0.3,0.9
			c0.1,0.3,0.3,0.7,0.6,1.1l0.9,0.9c0.4,0.4,0.7,0.6,1.1,0.6c0.3,0.1,0.7,0,0.9-0.3c0.3-0.3,0.4-0.6,0.3-0.9s-0.3-0.7-0.6-1.1
			L268.3,309.5z"/>
		<path class="st42" d="M271.9,310.6l-0.4,0.3l-0.4-0.4l0.4-0.3L271.9,310.6z"/>
		<path class="st42" d="M272.4,309.7l0.7-0.6l-2.6-3.4l-0.7,0.7l-0.2-0.2l0.9-1.1l2.9,3.8l0.8-0.5l0.2,0.2l-1.8,1.4L272.4,309.7z"/>
		<path class="st42" d="M276.5,304.9c0.4,0.6,0.5,1.1,0.5,1.5c0,0.5-0.3,0.8-0.7,1.1c-0.4,0.3-0.8,0.3-1.3,0.2
			c-0.4-0.2-0.8-0.5-1.2-1.1l-0.6-1c-0.4-0.6-0.5-1.1-0.5-1.5c0-0.5,0.3-0.8,0.7-1.1c0.4-0.3,0.8-0.3,1.3-0.2
			c0.4,0.2,0.8,0.5,1.2,1.1L276.5,304.9z M275.5,304.1c-0.3-0.4-0.6-0.7-0.9-0.9c-0.3-0.1-0.6-0.1-1,0.1c-0.3,0.2-0.5,0.5-0.5,0.8
			c0,0.3,0.1,0.7,0.4,1.2l0.7,1.1c0.3,0.4,0.6,0.7,0.9,0.9s0.6,0.1,1-0.1c0.3-0.2,0.5-0.5,0.5-0.8c0-0.3-0.1-0.7-0.4-1.2
			L275.5,304.1z"/>
		<path class="st42" d="M278.8,305.9l-0.4,0.2l-0.3-0.5l0.4-0.2L278.8,305.9z"/>
		<path class="st42" d="M279.5,305.2l0.8-0.4l-1.8-3.9l-0.9,0.5l-0.1-0.3l1.2-0.9l2,4.4l0.9-0.3l0.1,0.3l-2.1,0.9L279.5,305.2z"/>
	</g>
	<g>
		<path class="st42" d="M247.8,313.2l-0.4,0.9l-0.9-0.2c-0.1,0.1-0.3,0.2-0.4,0.4c-0.1,0.2-0.3,0.4-0.4,0.6
			c-0.2,0.3-0.2,0.6-0.2,0.9c0.1,0.3,0.2,0.4,0.4,0.5c0.2,0.1,0.4,0.1,0.7,0s0.5-0.4,0.9-0.8c0.5-0.6,1-1,1.5-1.2s1-0.2,1.5,0
			c0.5,0.2,0.8,0.7,1,1.2c0.1,0.6,0,1.2-0.3,1.9c-0.2,0.5-0.5,0.9-0.9,1.2s-0.7,0.5-1.1,0.7l-1.3-0.6l0.5-1l0.9,0.3
			c0.2-0.1,0.3-0.2,0.5-0.4s0.3-0.4,0.4-0.7c0.2-0.3,0.2-0.6,0.2-0.9c-0.1-0.2-0.2-0.4-0.4-0.5c-0.2-0.1-0.5-0.1-0.7,0
			c-0.2,0.1-0.5,0.3-0.8,0.7c-0.6,0.6-1.1,1.1-1.5,1.3s-1,0.2-1.5,0c-0.5-0.2-0.8-0.6-0.9-1.2c-0.1-0.6,0-1.2,0.3-1.8
			c0.2-0.5,0.5-0.9,0.8-1.2c0.3-0.3,0.7-0.6,1-0.7L247.8,313.2z"/>
		<path class="st42" d="M253.6,312.7c-0.4,0.6-0.9,1-1.5,1.1c-0.6,0.1-1.2,0-1.9-0.4l-0.2-0.1c-0.6-0.4-1.1-0.9-1.3-1.5
			c-0.2-0.6-0.1-1.2,0.2-1.8c0.4-0.6,0.8-0.9,1.4-1s1.1,0,1.7,0.4l0.6,0.4l-1.6,2.6l0,0c0.3,0.2,0.6,0.2,0.9,0.1s0.5-0.2,0.7-0.5
			c0.2-0.3,0.3-0.5,0.3-0.7s0.1-0.4,0.1-0.7l0.9,0.1c0,0.3,0,0.6-0.1,0.9C254,312,253.8,312.3,253.6,312.7z M250,310.6
			c-0.1,0.2-0.2,0.4-0.1,0.7s0.3,0.4,0.5,0.6l0,0l0.9-1.4l-0.1-0.1c-0.2-0.2-0.5-0.2-0.7-0.2C250.3,310.2,250.1,310.4,250,310.6z"/>
		<path class="st42" d="M254.3,309.9l0.3-0.6l-2.5-1.9l-0.5,0.5l-0.7-0.5l1.2-1.6l0.6,0.4c-0.1-0.3-0.2-0.5-0.2-0.7s0.1-0.5,0.2-0.7
			c0-0.1,0.1-0.1,0.1-0.2c0.1-0.1,0.1-0.1,0.2-0.1l0.9,0.9l-0.3,0.4c-0.1,0.2-0.2,0.3-0.2,0.5c0,0.2,0,0.3,0.1,0.4l2,1.5l0.5-0.4
			l0.7,0.5l-1.6,2.2L254.3,309.9z"/>
		<path class="st42" d="M255.5,302.8l-0.3,0.4l2.1,1l0.4,0.3l0,0l-0.3-0.4l-1.2-2l-0.4,0.3l-0.6-0.6l1.5-1.7l0.6,0.5l-0.2,0.4
			l2.1,3.9l-0.9,1l-4.1-1.7l-0.3,0.3l-0.6-0.6l1.5-1.7L255.5,302.8z"/>
		<path class="st42" d="M258,297.4l-1,0.9l-0.7-0.7l1-0.9L258,297.4z M260.3,302.8l0.4-0.6l-2.2-2.3l-0.6,0.4l-0.6-0.6l1.5-1.4
			l2.8,3l0.6-0.3l0.6,0.6l-2,1.8L260.3,302.8z"/>
		<path class="st42" d="M264.3,299c0.2-0.2,0.3-0.3,0.3-0.5c0-0.2,0-0.4-0.2-0.6l1-0.8l0,0c0.3,0.4,0.5,0.8,0.4,1.4
			c-0.1,0.5-0.4,1-0.8,1.3c-0.6,0.5-1.2,0.7-1.8,0.5c-0.6-0.1-1.2-0.5-1.6-1.1l-0.1-0.1c-0.5-0.6-0.7-1.2-0.7-1.8
			c0-0.6,0.3-1.2,0.9-1.7c0.3-0.3,0.6-0.4,1-0.5c0.3-0.1,0.6-0.1,1-0.1l0.9,1l-0.9,0.7l-0.7-0.5c-0.1,0-0.2,0-0.3,0
			s-0.2,0.1-0.3,0.2c-0.3,0.2-0.4,0.5-0.4,0.8c0.1,0.3,0.2,0.7,0.5,1l0.1,0.1c0.3,0.4,0.6,0.6,0.9,0.7
			C263.7,299.3,264,299.3,264.3,299z"/>
		<path class="st42" d="M268.9,297c-0.6,0.4-1.2,0.5-1.9,0.4s-1.1-0.5-1.5-1.1l-0.1-0.2c-0.4-0.6-0.6-1.3-0.5-1.9s0.4-1.1,1-1.5
			c0.6-0.4,1.1-0.5,1.7-0.4c0.5,0.1,1,0.5,1.4,1.1l0.4,0.6l-2.5,1.7l0,0c0.2,0.3,0.4,0.4,0.7,0.5s0.6,0,0.9-0.2
			c0.3-0.2,0.4-0.3,0.6-0.5c0.1-0.2,0.3-0.4,0.4-0.6l0.8,0.5c-0.1,0.3-0.2,0.5-0.5,0.8C269.5,296.5,269.2,296.8,268.9,297z
			 M266.5,293.5c-0.2,0.1-0.3,0.3-0.3,0.6c0,0.2,0,0.5,0.2,0.8l0,0l1.4-0.9l-0.1-0.1c-0.2-0.2-0.3-0.4-0.6-0.5
			C267,293.4,266.7,293.4,266.5,293.5z"/>
		<path class="st42" d="M272.5,293.7l0.4-0.3l-0.5-6.3l1.3-0.6l4.3,4.6l0.5-0.1l0.3,0.8l-2.1,0.9l-0.3-0.8l0.4-0.3l-0.7-0.7l-2,0.9
			l0.1,1l0.5-0.1l0.3,0.8l-2.1,0.9L272.5,293.7z M274,290.9l1.4-0.6l-1.7-1.9l0,0L274,290.9z"/>
		<path class="st42" d="M283.3,289.7l1.1-0.4l-1-4.5l-1.1,0.2l-0.2-0.8l2.4-1l1.2,5.7l1.2-0.1l0.2,0.8l-3.6,0.8L283.3,289.7z"/>
		<path class="st42" d="M291.9,286.4c0.1,0.9,0,1.6-0.4,2.1c-0.4,0.5-0.9,0.8-1.6,0.9c-0.7,0.1-1.3-0.1-1.8-0.5
			c-0.5-0.4-0.8-1.1-0.9-2l-0.2-1.5c-0.1-0.9,0-1.6,0.4-2.1c0.4-0.5,0.9-0.8,1.6-0.9c0.7-0.1,1.3,0.1,1.8,0.5c0.5,0.4,0.8,1.1,0.9,2
			L291.9,286.4z M290.4,284.9c-0.1-0.5-0.2-0.9-0.4-1.2s-0.4-0.3-0.7-0.3c-0.3,0-0.5,0.2-0.7,0.5s-0.2,0.7-0.1,1.2l0.2,1.8
			c0.1,0.5,0.2,0.9,0.4,1.2c0.2,0.2,0.4,0.3,0.7,0.3c0.3,0,0.5-0.2,0.7-0.5s0.2-0.7,0.1-1.2L290.4,284.9z"/>
		<path class="st42" d="M294.5,289l-1.4,0.1l0-1.2l1.4-0.1L294.5,289z"/>
		<path class="st42" d="M295.2,288.2l1.2-0.1l0.1-4.6l-1.2,0l0-0.8l2.5-0.4l-0.2,5.9l1.1,0.2l0,0.8l-3.7-0.1L295.2,288.2z"/>
		<path class="st42" d="M304.3,287c-0.1,0.9-0.4,1.6-0.9,2c-0.5,0.4-1.1,0.6-1.8,0.5c-0.7-0.1-1.2-0.4-1.6-0.9s-0.5-1.2-0.4-2.1
			l0.2-1.5c0.1-0.9,0.4-1.5,0.9-2c0.5-0.4,1.1-0.6,1.8-0.5c0.7,0.1,1.2,0.4,1.6,0.9c0.4,0.5,0.5,1.2,0.4,2.1L304.3,287z
			 M303.2,285.2c0.1-0.5,0-0.9-0.1-1.2c-0.1-0.3-0.3-0.4-0.7-0.5c-0.3,0-0.6,0.1-0.7,0.3c-0.2,0.2-0.3,0.6-0.4,1.2l-0.2,1.8
			c-0.1,0.5,0,1,0.1,1.2c0.1,0.3,0.3,0.4,0.7,0.5c0.3,0,0.5-0.1,0.7-0.3c0.2-0.2,0.3-0.6,0.4-1.2L303.2,285.2z"/>
		<path class="st42" d="M306.2,290.1l-1.3-0.3l0.2-1.2l1.3,0.3L306.2,290.1z"/>
		<path class="st42" d="M309.1,289.9c0.4,0.1,0.7,0,1-0.2s0.5-0.6,0.7-1.1l0-0.1c-0.2,0.1-0.4,0.2-0.7,0.3c-0.2,0-0.5,0-0.7,0
			c-0.6-0.2-1-0.5-1.3-1c-0.2-0.5-0.2-1.1,0-1.8c0.2-0.7,0.6-1.2,1.1-1.5c0.5-0.3,1.1-0.4,1.8-0.2c0.7,0.2,1.1,0.6,1.4,1.2
			c0.3,0.6,0.3,1.3,0.1,2.1l-0.4,1.4c-0.2,0.9-0.7,1.4-1.3,1.8c-0.6,0.3-1.3,0.4-2,0.2c-0.2-0.1-0.5-0.2-0.7-0.3
			c-0.2-0.1-0.4-0.2-0.6-0.4l0.4-0.9c0.2,0.1,0.4,0.2,0.5,0.3C308.7,289.7,308.9,289.8,309.1,289.9z M309.9,287.8
			c0.2,0.1,0.4,0.1,0.6,0c0.2,0,0.3-0.1,0.5-0.2l0.2-0.7c0.1-0.5,0.2-0.9,0.1-1.2c-0.1-0.3-0.3-0.5-0.6-0.6c-0.3-0.1-0.5,0-0.8,0.2
			c-0.2,0.2-0.4,0.5-0.5,0.9c-0.1,0.4-0.1,0.7,0,1C309.4,287.6,309.6,287.8,309.9,287.8z"/>
		<path class="st42" d="M313.4,292.3l-1.3-0.5l0.4-1.1l1.3,0.5L313.4,292.3z"/>
		<path class="st42" d="M314.4,291.8l1.1,0.3l1.9-4.2l-1.1-0.5l0.3-0.7l2.5,0.6l-2.4,5.4l1,0.6l-0.3,0.7l-3.3-1.5L314.4,291.8z"/>
	</g>
	<g>
		<path class="st42" d="M324.6,54.6h-1l-0.2-0.9c-0.1-0.1-0.3-0.1-0.5-0.2c-0.2-0.1-0.5-0.1-0.7-0.1c-0.4,0-0.7,0.1-0.9,0.2
			c-0.2,0.2-0.3,0.4-0.3,0.6c0,0.2,0.1,0.4,0.3,0.6s0.6,0.3,1.1,0.5c0.8,0.2,1.3,0.5,1.7,0.8c0.4,0.3,0.6,0.8,0.6,1.4
			c0,0.6-0.2,1-0.7,1.4s-1.1,0.5-1.8,0.5c-0.5,0-1-0.1-1.5-0.3s-0.8-0.4-1.1-0.7V57h1.1l0.1,1c0.1,0.1,0.3,0.2,0.6,0.3
			c0.2,0.1,0.5,0.1,0.8,0.1c0.4,0,0.7-0.1,0.9-0.2c0.2-0.2,0.3-0.4,0.3-0.6c0-0.3-0.1-0.5-0.3-0.6c-0.2-0.2-0.5-0.3-1-0.5
			c-0.8-0.2-1.4-0.5-1.8-0.8c-0.4-0.3-0.6-0.8-0.6-1.3c0-0.6,0.2-1,0.7-1.4s1.1-0.5,1.8-0.5c0.5,0,1,0.1,1.4,0.2s0.8,0.4,1.1,0.6
			V54.6z"/>
		<path class="st42" d="M327.7,59.4c-0.7,0-1.3-0.2-1.8-0.7s-0.7-1.1-0.7-1.8v-0.2c0-0.8,0.2-1.4,0.6-1.9c0.4-0.5,1-0.7,1.7-0.7
			c0.7,0,1.2,0.2,1.6,0.6s0.6,1,0.6,1.7v0.7h-3l0,0c0,0.3,0.1,0.6,0.3,0.8c0.2,0.2,0.5,0.3,0.8,0.3c0.3,0,0.6,0,0.8-0.1
			c0.2-0.1,0.4-0.2,0.7-0.3l0.4,0.8c-0.2,0.2-0.5,0.3-0.8,0.4S328.1,59.4,327.7,59.4z M327.6,55.2c-0.3,0-0.5,0.1-0.6,0.3
			c-0.1,0.2-0.2,0.4-0.3,0.8l0,0h1.7v-0.1c0-0.3-0.1-0.5-0.2-0.7C328.1,55.3,327.9,55.2,327.6,55.2z"/>
		<path class="st42" d="M330.5,58.5l0.7-0.1v-3.1l-0.7-0.1v-0.8h2l0.1,0.7c0.1-0.3,0.3-0.5,0.5-0.6s0.4-0.2,0.7-0.2
			c0.1,0,0.1,0,0.2,0c0.1,0,0.1,0,0.2,0l-0.1,1.2l-0.6,0c-0.2,0-0.4,0-0.5,0.1c-0.1,0.1-0.2,0.2-0.3,0.3v2.5l0.7,0.1v0.8h-2.7V58.5z
			"/>
		<path class="st42" d="M336.7,55l-0.5,0.1l0.7,2.3l0.1,0.5h0l0.1-0.5l0.7-2.3l-0.5-0.1v-0.8h2.3V55l-0.4,0.1l-1.5,4.2h-1.3
			l-1.5-4.2l-0.4-0.1v-0.8h2.3V55z"/>
		<path class="st42" d="M340,58.5l0.7-0.1v-3.1l-0.7-0.1v-0.8h2.1v4.1l0.7,0.1v0.8H340V58.5z M342,53h-1.4v-1h1.4V53z"/>
		<path class="st42" d="M345.5,58.3c0.2,0,0.4-0.1,0.6-0.2c0.1-0.1,0.2-0.3,0.2-0.6h1.2l0,0c0,0.5-0.2,0.9-0.6,1.3
			c-0.4,0.3-0.9,0.5-1.5,0.5c-0.8,0-1.3-0.2-1.7-0.7c-0.4-0.5-0.6-1.1-0.6-1.8v-0.1c0-0.7,0.2-1.4,0.6-1.8c0.4-0.5,1-0.7,1.8-0.7
			c0.4,0,0.8,0.1,1.1,0.2c0.3,0.1,0.6,0.3,0.8,0.5l0,1.4h-1.1l-0.2-0.8c-0.1-0.1-0.2-0.1-0.3-0.1c-0.1,0-0.2-0.1-0.3-0.1
			c-0.4,0-0.7,0.1-0.8,0.4s-0.2,0.6-0.2,1.1v0.1c0,0.5,0.1,0.8,0.2,1.1C344.9,58.2,345.1,58.3,345.5,58.3z"/>
		<path class="st42" d="M350.6,59.4c-0.7,0-1.3-0.2-1.8-0.7s-0.7-1.1-0.7-1.8v-0.2c0-0.8,0.2-1.4,0.6-1.9c0.4-0.5,1-0.7,1.7-0.7
			c0.7,0,1.2,0.2,1.6,0.6s0.6,1,0.6,1.7v0.7h-3l0,0c0,0.3,0.1,0.6,0.3,0.8c0.2,0.2,0.5,0.3,0.8,0.3c0.3,0,0.6,0,0.8-0.1
			c0.2-0.1,0.4-0.2,0.7-0.3l0.4,0.8c-0.2,0.2-0.5,0.3-0.8,0.4S351,59.4,350.6,59.4z M350.5,55.2c-0.3,0-0.5,0.1-0.6,0.3
			c-0.1,0.2-0.2,0.4-0.3,0.8l0,0h1.7v-0.1c0-0.3-0.1-0.5-0.2-0.7C351,55.3,350.8,55.2,350.5,55.2z"/>
		<path class="st42" d="M358.7,52.5c0.8,0,1.4,0.2,1.9,0.5s0.7,0.8,0.7,1.4c0,0.3-0.1,0.6-0.2,0.8c-0.2,0.2-0.4,0.4-0.7,0.6
			c0.4,0.1,0.7,0.3,0.9,0.6c0.2,0.3,0.3,0.6,0.3,1c0,0.7-0.2,1.1-0.6,1.5c-0.4,0.3-1,0.5-1.8,0.5h-3.4v-0.8l0.7-0.1v-4.9l-0.7-0.1
			v-0.8h0.7H358.7z M357.7,55.3h1c0.4,0,0.6-0.1,0.8-0.2c0.2-0.2,0.3-0.4,0.3-0.7c0-0.3-0.1-0.5-0.3-0.7s-0.5-0.2-0.9-0.2h-0.9V55.3
			z M357.7,56.3v2h1.3c0.4,0,0.6-0.1,0.8-0.2s0.3-0.4,0.3-0.7c0-0.3-0.1-0.6-0.2-0.8c-0.2-0.2-0.4-0.3-0.8-0.3H357.7z"/>
		<path class="st42" d="M364.4,58.5l1.2-0.1v-4.6h-1.2v-0.8l2.5-0.5v5.9l1.2,0.1v0.8h-3.7V58.5z"/>
		<path class="st42" d="M373.4,56.6c0,0.9-0.2,1.6-0.6,2.1c-0.4,0.5-1,0.7-1.7,0.7c-0.7,0-1.3-0.2-1.7-0.7c-0.4-0.5-0.6-1.2-0.6-2.1
			v-1.5c0-0.9,0.2-1.6,0.6-2.1c0.4-0.5,1-0.7,1.7-0.7c0.7,0,1.3,0.2,1.7,0.7c0.4,0.5,0.6,1.2,0.6,2.1V56.6z M372,55
			c0-0.5-0.1-0.9-0.2-1.2c-0.2-0.3-0.4-0.4-0.7-0.4c-0.3,0-0.5,0.1-0.7,0.4s-0.2,0.6-0.2,1.2v1.8c0,0.5,0.1,0.9,0.2,1.2
			c0.2,0.2,0.4,0.4,0.7,0.4c0.3,0,0.5-0.1,0.7-0.4s0.2-0.6,0.2-1.2V55z"/>
		<path class="st42" d="M375.7,59.3h-1.4v-1.2h1.4V59.3z"/>
		<path class="st42" d="M376.5,58.5l1.2-0.1v-4.6h-1.2v-0.8l2.5-0.5v5.9l1.2,0.1v0.8h-3.7V58.5z"/>
		<path class="st42" d="M385.6,56.6c0,0.9-0.2,1.6-0.6,2.1c-0.4,0.5-1,0.7-1.7,0.7c-0.7,0-1.3-0.2-1.7-0.7c-0.4-0.5-0.6-1.2-0.6-2.1
			v-1.5c0-0.9,0.2-1.6,0.6-2.1c0.4-0.5,1-0.7,1.7-0.7c0.7,0,1.3,0.2,1.7,0.7c0.4,0.5,0.6,1.2,0.6,2.1V56.6z M384.2,55
			c0-0.5-0.1-0.9-0.2-1.2c-0.2-0.3-0.4-0.4-0.7-0.4c-0.3,0-0.5,0.1-0.7,0.4s-0.2,0.6-0.2,1.2v1.8c0,0.5,0.1,0.9,0.2,1.2
			c0.2,0.2,0.4,0.4,0.7,0.4c0.3,0,0.5-0.1,0.7-0.4s0.2-0.6,0.2-1.2V55z"/>
		<path class="st42" d="M387.9,59.3h-1.4v-1.2h1.4V59.3z"/>
		<path class="st42" d="M390.8,58.3c0.4,0,0.7-0.1,0.9-0.4s0.3-0.7,0.3-1.3v-0.1c-0.2,0.2-0.3,0.3-0.5,0.4s-0.4,0.2-0.7,0.2
			c-0.6,0-1.1-0.2-1.5-0.6c-0.4-0.4-0.5-1-0.5-1.7c0-0.7,0.2-1.3,0.6-1.7s1-0.7,1.6-0.7c0.7,0,1.3,0.2,1.7,0.7
			c0.4,0.5,0.7,1.2,0.7,2v1.5c0,0.9-0.2,1.6-0.7,2.1c-0.5,0.5-1.1,0.7-1.9,0.7c-0.2,0-0.5,0-0.7-0.1c-0.3,0-0.5-0.1-0.7-0.2l0.2-1
			c0.2,0.1,0.4,0.1,0.6,0.2C390.3,58.3,390.5,58.3,390.8,58.3z M391,56.2c0.2,0,0.4,0,0.6-0.1c0.2-0.1,0.3-0.2,0.4-0.3V55
			c0-0.5-0.1-0.9-0.3-1.1c-0.2-0.3-0.4-0.4-0.7-0.4c-0.3,0-0.5,0.1-0.7,0.4c-0.2,0.3-0.3,0.6-0.3,1c0,0.4,0.1,0.7,0.2,1
			C390.5,56,390.7,56.2,391,56.2z"/>
		<path class="st42" d="M395.8,59.3h-1.4v-1.2h1.4V59.3z"/>
		<path class="st42" d="M396.6,59.3v-0.9l2.2-2.4c0.3-0.4,0.5-0.7,0.7-0.9c0.1-0.3,0.2-0.5,0.2-0.7c0-0.3-0.1-0.5-0.2-0.7
			c-0.2-0.2-0.4-0.3-0.7-0.3c-0.3,0-0.6,0.1-0.7,0.3c-0.2,0.2-0.2,0.5-0.2,0.9h-1.3l0,0c0-0.6,0.2-1.1,0.6-1.6
			c0.4-0.4,1-0.6,1.7-0.6c0.7,0,1.3,0.2,1.7,0.5s0.6,0.9,0.6,1.5c0,0.4-0.1,0.8-0.3,1.1c-0.2,0.3-0.6,0.8-1.1,1.4l-1.2,1.3l0,0h1.8
			l0.1-0.7h1v1.7H396.6z"/>
	</g>
</g>
<g id="deployments">
	<g>
		<g>
			<circle class="st45" cx="350.2" cy="241.8" r="14.1"/>
			<g>
				<g>
					<path class="st46" d="M354.6,233.5c3,1.6,5,4.7,5,8.3c0,5.2-4.2,9.4-9.4,9.4s-9.4-4.2-9.4-9.4c0-4.1,2.6-7.6,6.3-8.9"/>
					<g>
						<polygon class="st6" points="356,236.4 355,233.7 357.7,232.6 356.1,231.9 353.4,233 354.4,235.6 						"/>
					</g>
				</g>
			</g>
			<g>
				<path class="st6" d="M345,245.5l0.8-0.1l3.3-9.5h2.2l3.3,9.5l0.8,0.1v1.3h-3.7v-1.3l0.8-0.1l-0.5-1.5h-3.5l-0.5,1.5l0.8,0.1v1.3
					H345V245.5z M349,242.3h2.5l-1.2-3.8h0L349,242.3z"/>
			</g>
		</g>
		<g>
			<circle class="st49" cx="369.5" cy="211.5" r="14.1"/>
			<g>
				<g>
					<path class="st46" d="M373.9,203.2c3,1.6,5,4.7,5,8.3c0,5.2-4.2,9.4-9.4,9.4s-9.4-4.2-9.4-9.4c0-4.1,2.6-7.6,6.3-8.9"/>
					<g>
						<polygon class="st6" points="375.3,206.1 374.2,203.4 376.9,202.4 375.4,201.7 372.7,202.7 373.7,205.4 						"/>
					</g>
				</g>
			</g>
			<g>
				<path class="st6" d="M369.7,205.8c1.3,0,2.3,0.2,3,0.7c0.7,0.5,1.1,1.2,1.1,2.2c0,0.5-0.1,1-0.4,1.3c-0.3,0.4-0.7,0.7-1.2,0.9
					c0.7,0.1,1.1,0.4,1.5,0.9s0.5,1,0.5,1.6c0,1-0.3,1.8-1,2.4c-0.7,0.5-1.7,0.8-2.9,0.8h-5.3v-1.3l1.2-0.2v-7.8l-1.2-0.2v-1.3h1.2
					H369.7z M368.2,210.3h1.6c0.6,0,1-0.1,1.3-0.4c0.3-0.2,0.5-0.6,0.5-1c0-0.5-0.2-0.9-0.5-1.1c-0.3-0.2-0.8-0.4-1.4-0.4h-1.5
					V210.3z M368.2,211.8v3.1h2c0.6,0,1-0.1,1.3-0.4c0.3-0.3,0.5-0.6,0.5-1.1c0-0.5-0.1-0.9-0.4-1.2c-0.3-0.3-0.7-0.4-1.2-0.4H368.2
					z"/>
			</g>
		</g>
	</g>
</g>
<g id="containers_x2F_volumes">
	<g>
		<polygon class="st51" points="284.4,101.8 296.3,94.9 308.1,101.8 296.3,108.6 		"/>
		<polygon class="st51" points="284.4,115.4 284.4,101.8 296.3,108.6 296.3,122.3 		"/>
		<polygon class="st51" points="296.3,122.3 296.3,108.6 308.1,101.8 308.1,115.4 		"/>
	</g>
	<g>
		<polygon class="st51" points="283.8,331.5 295.6,324.6 307.5,331.5 295.6,338.3 		"/>
		<polygon class="st51" points="283.8,345.2 283.8,331.5 295.6,338.3 295.6,352 		"/>
		<polygon class="st51" points="295.6,352 295.6,338.3 307.5,331.5 307.5,345.2 		"/>
	</g>
	<g>
		<polygon class="st51" points="388.3,101.8 400.2,94.9 412.1,101.8 400.2,108.6 		"/>
		<polygon class="st51" points="388.3,115.4 388.3,101.8 400.2,108.6 400.2,122.3 		"/>
		<polygon class="st51" points="400.2,122.3 400.2,108.6 412.1,101.8 412.1,115.4 		"/>
	</g>
	<g>
		<polygon class="st51" points="434.8,101.8 446.7,94.9 458.6,101.8 446.7,108.6 		"/>
		<polygon class="st51" points="434.8,115.4 434.8,101.8 446.7,108.6 446.7,122.3 		"/>
		<polygon class="st51" points="446.7,122.3 446.7,108.6 458.6,101.8 458.6,115.4 		"/>
	</g>
</g>
<g id="labels_x2F_selectors">
	<polygon class="st53" points="355.1,335.5 320.4,335.5 315,326.6 320.4,317.7 355.1,317.7 	"/>
	<polygon class="st54" points="353.6,334 318.9,334 313.5,325.1 318.9,316.2 353.6,316.2 	"/>
	<g>
		<g>
			<path class="st42" d="M324.4,328.5c0-0.1-0.1-0.3-0.1-0.4s0-0.2,0-0.3c-0.2,0.2-0.4,0.4-0.7,0.6c-0.3,0.2-0.6,0.2-0.9,0.2
				c-0.5,0-1-0.1-1.3-0.4c-0.3-0.3-0.4-0.6-0.4-1.1c0-0.5,0.2-0.9,0.6-1.2c0.4-0.3,1-0.4,1.7-0.4h1v-0.6c0-0.3-0.1-0.6-0.3-0.7
				c-0.2-0.2-0.5-0.3-0.8-0.3c-0.2,0-0.5,0-0.6,0.1c-0.2,0.1-0.3,0.1-0.4,0.3l-0.1,0.6h-0.7v-1c0.2-0.2,0.5-0.3,0.9-0.5
				c0.3-0.1,0.7-0.2,1.1-0.2c0.6,0,1.1,0.2,1.5,0.5s0.6,0.7,0.6,1.3v2.5c0,0.1,0,0.1,0,0.2c0,0.1,0,0.1,0,0.2l0.4,0.1v0.6H324.4z
				 M322.8,327.8c0.3,0,0.6-0.1,0.9-0.2s0.5-0.3,0.6-0.6v-0.9h-1c-0.4,0-0.7,0.1-0.9,0.3c-0.2,0.2-0.3,0.4-0.3,0.7
				c0,0.2,0.1,0.4,0.2,0.5C322.3,327.7,322.5,327.8,322.8,327.8z"/>
			<path class="st42" d="M326.3,329.9l0.8-0.1V324l-0.8-0.1v-0.6h1.6l0.1,0.6c0.2-0.2,0.4-0.4,0.6-0.6c0.3-0.1,0.5-0.2,0.9-0.2
				c0.7,0,1.2,0.3,1.5,0.8c0.4,0.5,0.5,1.2,0.5,2.1v0.1c0,0.8-0.2,1.4-0.5,1.8c-0.4,0.5-0.9,0.7-1.5,0.7c-0.3,0-0.6-0.1-0.9-0.2
				c-0.2-0.1-0.5-0.3-0.6-0.5v1.8l0.8,0.1v0.6h-2.6V329.9z M330.6,325.9c0-0.6-0.1-1.1-0.4-1.5s-0.6-0.6-1-0.6
				c-0.3,0-0.5,0.1-0.7,0.2s-0.4,0.3-0.5,0.5v2.6c0.1,0.2,0.3,0.4,0.5,0.5c0.2,0.1,0.4,0.2,0.7,0.2c0.5,0,0.8-0.2,1-0.5
				s0.4-0.8,0.4-1.3V325.9z"/>
			<path class="st42" d="M332.4,329.9l0.8-0.1V324l-0.8-0.1v-0.6h1.6l0.1,0.6c0.2-0.2,0.4-0.4,0.6-0.6c0.3-0.1,0.5-0.2,0.9-0.2
				c0.7,0,1.2,0.3,1.5,0.8c0.4,0.5,0.5,1.2,0.5,2.1v0.1c0,0.8-0.2,1.4-0.5,1.8c-0.4,0.5-0.9,0.7-1.5,0.7c-0.3,0-0.6-0.1-0.9-0.2
				c-0.2-0.1-0.5-0.3-0.6-0.5v1.8l0.8,0.1v0.6h-2.6V329.9z M336.7,325.9c0-0.6-0.1-1.1-0.4-1.5s-0.6-0.6-1-0.6
				c-0.3,0-0.5,0.1-0.7,0.2s-0.4,0.3-0.5,0.5v2.6c0.1,0.2,0.3,0.4,0.5,0.5c0.2,0.1,0.4,0.2,0.7,0.2c0.5,0,0.8-0.2,1-0.5
				s0.4-0.8,0.4-1.3V325.9z"/>
			<path class="st42" d="M342.9,324.5h-4.1v-0.8h4.1V324.5z M342.9,326.5h-4.1v-0.8h4.1V326.5z"/>
			<path class="st42" d="M343.9,327.9l0.5-0.1l2.5-6.4h0.8l2.4,6.4l0.5,0.1v0.6h-2v-0.6l0.5-0.1l-0.5-1.3h-2.8l-0.5,1.3l0.5,0.1v0.6
				h-2V327.9z M346.1,325.7h2.3l-1.1-3.1h0L346.1,325.7z"/>
		</g>
	</g>
	<polygon class="st53" points="356.6,132 321.9,132 316.5,123 321.9,114.1 356.6,114.1 	"/>
	<polygon class="st55" points="355.1,130.5 320.4,130.5 315,121.5 320.4,112.6 355.1,112.6 	"/>
	<g>
		<g>
			<path class="st42" d="M325.8,124.9c0-0.1-0.1-0.3-0.1-0.4c0-0.1,0-0.2,0-0.3c-0.2,0.2-0.4,0.4-0.7,0.6c-0.3,0.2-0.6,0.2-0.9,0.2
				c-0.5,0-1-0.1-1.3-0.4s-0.4-0.6-0.4-1.1c0-0.5,0.2-0.9,0.6-1.2c0.4-0.3,1-0.4,1.7-0.4h1v-0.6c0-0.3-0.1-0.6-0.3-0.7
				s-0.5-0.3-0.8-0.3c-0.2,0-0.5,0-0.6,0.1c-0.2,0.1-0.3,0.1-0.4,0.3l-0.1,0.6h-0.7v-1c0.2-0.2,0.5-0.3,0.9-0.5
				c0.3-0.1,0.7-0.2,1.1-0.2c0.6,0,1.1,0.2,1.5,0.5c0.4,0.3,0.6,0.7,0.6,1.3v2.5c0,0.1,0,0.1,0,0.2c0,0.1,0,0.1,0,0.2l0.4,0.1v0.6
				H325.8z M324.3,124.2c0.3,0,0.6-0.1,0.9-0.2c0.3-0.2,0.5-0.3,0.6-0.6v-0.9h-1c-0.4,0-0.7,0.1-0.9,0.3c-0.2,0.2-0.3,0.4-0.3,0.7
				c0,0.2,0.1,0.4,0.2,0.5S324,124.2,324.3,124.2z"/>
			<path class="st42" d="M327.8,126.3l0.8-0.1v-5.8l-0.8-0.1v-0.6h1.6l0.1,0.6c0.2-0.2,0.4-0.4,0.6-0.6c0.3-0.1,0.5-0.2,0.9-0.2
				c0.7,0,1.2,0.3,1.5,0.8c0.4,0.5,0.5,1.2,0.5,2.1v0.1c0,0.8-0.2,1.4-0.5,1.8c-0.4,0.5-0.9,0.7-1.5,0.7c-0.3,0-0.6-0.1-0.9-0.2
				c-0.2-0.1-0.5-0.3-0.6-0.5v1.8l0.8,0.1v0.6h-2.6V126.3z M332.1,122.4c0-0.6-0.1-1.1-0.4-1.5c-0.2-0.4-0.6-0.6-1-0.6
				c-0.3,0-0.5,0.1-0.7,0.2c-0.2,0.1-0.4,0.3-0.5,0.5v2.6c0.1,0.2,0.3,0.4,0.5,0.5c0.2,0.1,0.4,0.2,0.7,0.2c0.5,0,0.8-0.2,1-0.5
				s0.4-0.8,0.4-1.3V122.4z"/>
			<path class="st42" d="M333.8,126.3l0.8-0.1v-5.8l-0.8-0.1v-0.6h1.6l0.1,0.6c0.2-0.2,0.4-0.4,0.6-0.6c0.3-0.1,0.5-0.2,0.9-0.2
				c0.7,0,1.2,0.3,1.5,0.8c0.4,0.5,0.5,1.2,0.5,2.1v0.1c0,0.8-0.2,1.4-0.5,1.8c-0.4,0.5-0.9,0.7-1.5,0.7c-0.3,0-0.6-0.1-0.9-0.2
				c-0.2-0.1-0.5-0.3-0.6-0.5v1.8l0.8,0.1v0.6h-2.6V126.3z M338.2,122.4c0-0.6-0.1-1.1-0.4-1.5c-0.2-0.4-0.6-0.6-1-0.6
				c-0.3,0-0.5,0.1-0.7,0.2c-0.2,0.1-0.4,0.3-0.5,0.5v2.6c0.1,0.2,0.3,0.4,0.5,0.5c0.2,0.1,0.4,0.2,0.7,0.2c0.5,0,0.8-0.2,1-0.5
				s0.4-0.8,0.4-1.3V122.4z"/>
			<path class="st42" d="M344.4,120.9h-4.1v-0.8h4.1V120.9z M344.4,122.9h-4.1v-0.8h4.1V122.9z"/>
			<path class="st42" d="M348.5,117.8c0.7,0,1.3,0.2,1.7,0.5c0.4,0.3,0.6,0.8,0.6,1.4c0,0.3-0.1,0.6-0.3,0.8
				c-0.2,0.2-0.5,0.4-0.8,0.6c0.4,0.1,0.8,0.3,1,0.6c0.2,0.3,0.4,0.7,0.4,1.1c0,0.7-0.2,1.1-0.6,1.5c-0.4,0.3-1,0.5-1.7,0.5h-3.4
				v-0.6l0.8-0.1v-5.6l-0.8-0.1v-0.6h0.8H348.5z M347.2,120.8h1.6c0.3,0,0.6-0.1,0.8-0.3c0.2-0.2,0.3-0.5,0.3-0.8
				c0-0.4-0.1-0.7-0.4-0.9s-0.6-0.3-1-0.3h-1.4V120.8z M347.2,121.6v2.6h1.7c0.4,0,0.8-0.1,1-0.3c0.2-0.2,0.4-0.5,0.4-0.9
				c0-0.4-0.1-0.7-0.3-1c-0.2-0.2-0.5-0.4-0.9-0.4H347.2z"/>
		</g>
	</g>
	<polygon class="st53" points="450.8,132 416.1,132 410.7,123 416.1,114.1 450.8,114.1 	"/>
	<polygon class="st55" points="449.3,130.5 414.6,130.5 409.2,121.5 414.6,112.6 449.3,112.6 	"/>
	<g>
		<g>
			<path class="st42" d="M420,124.9c0-0.1-0.1-0.3-0.1-0.4c0-0.1,0-0.2,0-0.3c-0.2,0.2-0.4,0.4-0.7,0.6c-0.3,0.2-0.6,0.2-0.9,0.2
				c-0.5,0-1-0.1-1.3-0.4s-0.4-0.6-0.4-1.1c0-0.5,0.2-0.9,0.6-1.2c0.4-0.3,1-0.4,1.7-0.4h1v-0.6c0-0.3-0.1-0.6-0.3-0.7
				s-0.5-0.3-0.8-0.3c-0.2,0-0.5,0-0.6,0.1c-0.2,0.1-0.3,0.1-0.4,0.3l-0.1,0.6h-0.7v-1c0.2-0.2,0.5-0.3,0.9-0.5
				c0.3-0.1,0.7-0.2,1.1-0.2c0.6,0,1.1,0.2,1.5,0.5c0.4,0.3,0.6,0.7,0.6,1.3v2.5c0,0.1,0,0.1,0,0.2c0,0.1,0,0.1,0,0.2l0.4,0.1v0.6
				H420z M418.5,124.2c0.3,0,0.6-0.1,0.9-0.2c0.3-0.2,0.5-0.3,0.6-0.6v-0.9h-1c-0.4,0-0.7,0.1-0.9,0.3c-0.2,0.2-0.3,0.4-0.3,0.7
				c0,0.2,0.1,0.4,0.2,0.5S418.2,124.2,418.5,124.2z"/>
			<path class="st42" d="M422,126.3l0.8-0.1v-5.8l-0.8-0.1v-0.6h1.6l0.1,0.6c0.2-0.2,0.4-0.4,0.6-0.6c0.3-0.1,0.5-0.2,0.9-0.2
				c0.7,0,1.2,0.3,1.5,0.8c0.4,0.5,0.5,1.2,0.5,2.1v0.1c0,0.8-0.2,1.4-0.5,1.8c-0.4,0.5-0.9,0.7-1.5,0.7c-0.3,0-0.6-0.1-0.9-0.2
				c-0.2-0.1-0.5-0.3-0.6-0.5v1.8l0.8,0.1v0.6H422V126.3z M426.3,122.4c0-0.6-0.1-1.1-0.4-1.5c-0.2-0.4-0.6-0.6-1-0.6
				c-0.3,0-0.5,0.1-0.7,0.2c-0.2,0.1-0.4,0.3-0.5,0.5v2.6c0.1,0.2,0.3,0.4,0.5,0.5c0.2,0.1,0.4,0.2,0.7,0.2c0.5,0,0.8-0.2,1-0.5
				s0.4-0.8,0.4-1.3V122.4z"/>
			<path class="st42" d="M428,126.3l0.8-0.1v-5.8l-0.8-0.1v-0.6h1.6l0.1,0.6c0.2-0.2,0.4-0.4,0.6-0.6c0.3-0.1,0.5-0.2,0.9-0.2
				c0.7,0,1.2,0.3,1.5,0.8c0.4,0.5,0.5,1.2,0.5,2.1v0.1c0,0.8-0.2,1.4-0.5,1.8c-0.4,0.5-0.9,0.7-1.5,0.7c-0.3,0-0.6-0.1-0.9-0.2
				c-0.2-0.1-0.5-0.3-0.6-0.5v1.8l0.8,0.1v0.6H428V126.3z M432.4,122.4c0-0.6-0.1-1.1-0.4-1.5c-0.2-0.4-0.6-0.6-1-0.6
				c-0.3,0-0.5,0.1-0.7,0.2c-0.2,0.1-0.4,0.3-0.5,0.5v2.6c0.1,0.2,0.3,0.4,0.5,0.5c0.2,0.1,0.4,0.2,0.7,0.2c0.5,0,0.8-0.2,1-0.5
				s0.4-0.8,0.4-1.3V122.4z"/>
			<path class="st42" d="M438.6,120.9h-4.1v-0.8h4.1V120.9z M438.6,122.9h-4.1v-0.8h4.1V122.9z"/>
			<path class="st42" d="M442.7,117.8c0.7,0,1.3,0.2,1.7,0.5c0.4,0.3,0.6,0.8,0.6,1.4c0,0.3-0.1,0.6-0.3,0.8
				c-0.2,0.2-0.5,0.4-0.8,0.6c0.4,0.1,0.8,0.3,1,0.6c0.2,0.3,0.4,0.7,0.4,1.1c0,0.7-0.2,1.1-0.6,1.5c-0.4,0.3-1,0.5-1.7,0.5h-3.4
				v-0.6l0.8-0.1v-5.6l-0.8-0.1v-0.6h0.8H442.7z M441.4,120.8h1.6c0.3,0,0.6-0.1,0.8-0.3c0.2-0.2,0.3-0.5,0.3-0.8
				c0-0.4-0.1-0.7-0.4-0.9s-0.6-0.3-1-0.3h-1.4V120.8z M441.4,121.6v2.6h1.7c0.4,0,0.8-0.1,1-0.3c0.2-0.2,0.4-0.5,0.4-0.9
				c0-0.4-0.1-0.7-0.3-1c-0.2-0.2-0.5-0.4-0.9-0.4H441.4z"/>
		</g>
	</g>
	<polygon class="st53" points="494.2,107.5 459.5,107.5 454.1,98.5 459.5,89.6 494.2,89.6 	"/>
	<polygon class="st55" points="492.7,106 458,106 452.6,97 458,88.1 492.7,88.1 	"/>
	<g>
		<g>
			<path class="st42" d="M463.5,100.4c0-0.1-0.1-0.3-0.1-0.4c0-0.1,0-0.2,0-0.3c-0.2,0.2-0.4,0.4-0.7,0.6c-0.3,0.2-0.6,0.2-0.9,0.2
				c-0.5,0-1-0.1-1.3-0.4s-0.4-0.6-0.4-1.1c0-0.5,0.2-0.9,0.6-1.2c0.4-0.3,1-0.4,1.7-0.4h1v-0.6c0-0.3-0.1-0.6-0.3-0.7
				s-0.5-0.3-0.8-0.3c-0.2,0-0.5,0-0.6,0.1c-0.2,0.1-0.3,0.1-0.4,0.3l-0.1,0.6h-0.7v-1c0.2-0.2,0.5-0.3,0.9-0.5
				c0.3-0.1,0.7-0.2,1.1-0.2c0.6,0,1.1,0.2,1.5,0.5c0.4,0.3,0.6,0.7,0.6,1.3v2.5c0,0.1,0,0.1,0,0.2c0,0.1,0,0.1,0,0.2l0.4,0.1v0.6
				H463.5z M461.9,99.7c0.3,0,0.6-0.1,0.9-0.2c0.3-0.2,0.5-0.3,0.6-0.6v-0.9h-1c-0.4,0-0.7,0.1-0.9,0.3c-0.2,0.2-0.3,0.4-0.3,0.7
				c0,0.2,0.1,0.4,0.2,0.5S461.6,99.7,461.9,99.7z"/>
			<path class="st42" d="M465.4,101.8l0.8-0.1v-5.8l-0.8-0.1v-0.6h1.6l0.1,0.6c0.2-0.2,0.4-0.4,0.6-0.6c0.3-0.1,0.5-0.2,0.9-0.2
				c0.7,0,1.2,0.3,1.5,0.8c0.4,0.5,0.5,1.2,0.5,2.1V98c0,0.8-0.2,1.4-0.5,1.8c-0.4,0.5-0.9,0.7-1.5,0.7c-0.3,0-0.6-0.1-0.9-0.2
				c-0.2-0.1-0.5-0.3-0.6-0.5v1.8l0.8,0.1v0.6h-2.6V101.8z M469.7,97.9c0-0.6-0.1-1.1-0.4-1.5c-0.2-0.4-0.6-0.6-1-0.6
				c-0.3,0-0.5,0.1-0.7,0.2c-0.2,0.1-0.4,0.3-0.5,0.5v2.6c0.1,0.2,0.3,0.4,0.5,0.5c0.2,0.1,0.4,0.2,0.7,0.2c0.5,0,0.8-0.2,1-0.5
				s0.4-0.8,0.4-1.3V97.9z"/>
			<path class="st42" d="M471.5,101.8l0.8-0.1v-5.8l-0.8-0.1v-0.6h1.6l0.1,0.6c0.2-0.2,0.4-0.4,0.6-0.6c0.3-0.1,0.5-0.2,0.9-0.2
				c0.7,0,1.2,0.3,1.5,0.8c0.4,0.5,0.5,1.2,0.5,2.1V98c0,0.8-0.2,1.4-0.5,1.8c-0.4,0.5-0.9,0.7-1.5,0.7c-0.3,0-0.6-0.1-0.9-0.2
				c-0.2-0.1-0.5-0.3-0.6-0.5v1.8l0.8,0.1v0.6h-2.6V101.8z M475.8,97.9c0-0.6-0.1-1.1-0.4-1.5c-0.2-0.4-0.6-0.6-1-0.6
				c-0.3,0-0.5,0.1-0.7,0.2c-0.2,0.1-0.4,0.3-0.5,0.5v2.6c0.1,0.2,0.3,0.4,0.5,0.5c0.2,0.1,0.4,0.2,0.7,0.2c0.5,0,0.8-0.2,1-0.5
				s0.4-0.8,0.4-1.3V97.9z"/>
			<path class="st42" d="M482,96.4h-4.1v-0.8h4.1V96.4z M482,98.4h-4.1v-0.8h4.1V98.4z"/>
			<path class="st42" d="M486.2,93.3c0.7,0,1.3,0.2,1.7,0.5c0.4,0.3,0.6,0.8,0.6,1.4c0,0.3-0.1,0.6-0.3,0.8
				c-0.2,0.2-0.5,0.4-0.8,0.6c0.4,0.1,0.8,0.3,1,0.6c0.2,0.3,0.4,0.7,0.4,1.1c0,0.7-0.2,1.1-0.6,1.5c-0.4,0.3-1,0.5-1.7,0.5H483
				v-0.6l0.8-0.1v-5.6l-0.8-0.1v-0.6h0.8H486.2z M484.8,96.3h1.6c0.3,0,0.6-0.1,0.8-0.3c0.2-0.2,0.3-0.5,0.3-0.8
				c0-0.4-0.1-0.7-0.4-0.9s-0.6-0.3-1-0.3h-1.4V96.3z M484.8,97.1v2.6h1.7c0.4,0,0.8-0.1,1-0.3c0.2-0.2,0.4-0.5,0.4-0.9
				c0-0.4-0.1-0.7-0.3-1c-0.2-0.2-0.5-0.4-0.9-0.4H484.8z"/>
		</g>
	</g>
	<polygon class="st53" points="422.5,229.9 381.1,229.9 375.6,221 381.1,212 422.5,212 	"/>
	<polygon class="st56" points="421,228.4 379.6,228.4 374.1,219.5 379.6,210.5 421,210.5 	"/>
	<g>
		<path class="st42" d="M385.2,219.2h-0.7l-0.2-0.6c-0.1-0.1-0.3-0.2-0.4-0.3c-0.2-0.1-0.4-0.1-0.6-0.1c-0.3,0-0.6,0.1-0.8,0.2
			s-0.2,0.3-0.2,0.5c0,0.2,0.1,0.4,0.2,0.5s0.4,0.2,0.9,0.3c0.7,0.1,1.2,0.3,1.5,0.6s0.5,0.6,0.5,1c0,0.5-0.2,0.8-0.6,1.1
			c-0.4,0.3-0.9,0.4-1.5,0.4c-0.4,0-0.8,0-1.1-0.1s-0.6-0.2-0.9-0.4l0-1.2h0.7l0.2,0.7c0.1,0.1,0.3,0.2,0.5,0.2
			c0.2,0,0.4,0.1,0.6,0.1c0.3,0,0.6-0.1,0.8-0.2c0.2-0.1,0.3-0.3,0.3-0.5c0-0.2-0.1-0.4-0.2-0.5c-0.2-0.1-0.5-0.3-0.9-0.4
			c-0.6-0.1-1.1-0.3-1.5-0.6s-0.5-0.6-0.5-1c0-0.4,0.2-0.8,0.5-1.1c0.4-0.3,0.8-0.5,1.4-0.5c0.4,0,0.8,0.1,1.1,0.2s0.6,0.2,0.8,0.4
			L385.2,219.2z"/>
		<path class="st42" d="M387.5,218.5h-1v-1h1V218.5z M387.5,222.8h-1v-1h1V222.8z"/>
		<path class="st42" d="M391.7,222.8c0-0.1-0.1-0.3-0.1-0.4s0-0.2,0-0.3c-0.2,0.2-0.4,0.4-0.7,0.6c-0.3,0.2-0.6,0.2-0.9,0.2
			c-0.5,0-1-0.1-1.3-0.4s-0.4-0.6-0.4-1.1c0-0.5,0.2-0.9,0.6-1.2c0.4-0.3,1-0.4,1.7-0.4h1v-0.6c0-0.3-0.1-0.6-0.3-0.7
			s-0.5-0.3-0.8-0.3c-0.2,0-0.5,0-0.6,0.1c-0.2,0.1-0.3,0.1-0.4,0.3l-0.1,0.6h-0.7v-1c0.2-0.2,0.5-0.3,0.9-0.5s0.7-0.2,1.1-0.2
			c0.6,0,1.1,0.2,1.5,0.5s0.6,0.7,0.6,1.3v2.5c0,0.1,0,0.1,0,0.2c0,0.1,0,0.1,0,0.2l0.4,0.1v0.6H391.7z M390.2,222.1
			c0.3,0,0.6-0.1,0.9-0.2s0.5-0.3,0.6-0.6v-0.9h-1c-0.4,0-0.7,0.1-0.9,0.3c-0.2,0.2-0.3,0.4-0.3,0.7c0,0.2,0.1,0.4,0.2,0.5
			S389.9,222.1,390.2,222.1z"/>
		<path class="st42" d="M393.7,224.2l0.8-0.1v-5.8l-0.8-0.1v-0.6h1.6l0.1,0.6c0.2-0.2,0.4-0.4,0.6-0.6c0.3-0.1,0.5-0.2,0.9-0.2
			c0.7,0,1.2,0.3,1.5,0.8c0.4,0.5,0.5,1.2,0.5,2.1v0.1c0,0.8-0.2,1.4-0.5,1.8s-0.9,0.7-1.5,0.7c-0.3,0-0.6-0.1-0.9-0.2
			c-0.2-0.1-0.5-0.3-0.6-0.5v1.8l0.8,0.1v0.6h-2.6V224.2z M398,220.3c0-0.6-0.1-1.1-0.4-1.5s-0.6-0.6-1-0.6c-0.3,0-0.5,0.1-0.7,0.2
			s-0.4,0.3-0.5,0.5v2.6c0.1,0.2,0.3,0.4,0.5,0.5c0.2,0.1,0.4,0.2,0.7,0.2c0.5,0,0.8-0.2,1-0.5s0.4-0.8,0.4-1.3V220.3z"/>
		<path class="st42" d="M399.7,224.2l0.8-0.1v-5.8l-0.8-0.1v-0.6h1.6l0.1,0.6c0.2-0.2,0.4-0.4,0.6-0.6c0.3-0.1,0.5-0.2,0.9-0.2
			c0.7,0,1.2,0.3,1.5,0.8c0.4,0.5,0.5,1.2,0.5,2.1v0.1c0,0.8-0.2,1.4-0.5,1.8s-0.9,0.7-1.5,0.7c-0.3,0-0.6-0.1-0.9-0.2
			c-0.2-0.1-0.5-0.3-0.6-0.5v1.8l0.8,0.1v0.6h-2.6V224.2z M404,220.3c0-0.6-0.1-1.1-0.4-1.5s-0.6-0.6-1-0.6c-0.3,0-0.5,0.1-0.7,0.2
			s-0.4,0.3-0.5,0.5v2.6c0.1,0.2,0.3,0.4,0.5,0.5c0.2,0.1,0.4,0.2,0.7,0.2c0.5,0,0.8-0.2,1-0.5s0.4-0.8,0.4-1.3V220.3z"/>
		<path class="st42" d="M410.2,218.8h-4.1V218h4.1V218.8z M410.2,220.8h-4.1V220h4.1V220.8z"/>
		<path class="st42" d="M414.4,215.7c0.7,0,1.3,0.2,1.7,0.5c0.4,0.3,0.6,0.8,0.6,1.4c0,0.3-0.1,0.6-0.3,0.8
			c-0.2,0.2-0.5,0.4-0.8,0.6c0.4,0.1,0.8,0.3,1,0.6s0.4,0.7,0.4,1.1c0,0.7-0.2,1.1-0.6,1.5s-1,0.5-1.7,0.5h-3.4v-0.6l0.8-0.1v-5.6
			l-0.8-0.1v-0.6h0.8H414.4z M413.1,218.7h1.6c0.3,0,0.6-0.1,0.8-0.3c0.2-0.2,0.3-0.5,0.3-0.8c0-0.4-0.1-0.7-0.4-0.9s-0.6-0.3-1-0.3
			h-1.4V218.7z M413.1,219.5v2.6h1.7c0.4,0,0.8-0.1,1-0.3c0.2-0.2,0.4-0.5,0.4-0.9c0-0.4-0.1-0.7-0.3-1c-0.2-0.2-0.5-0.4-0.9-0.4
			H413.1z"/>
	</g>
	<polygon class="st53" points="403.9,258.7 362.4,258.7 357,249.8 362.4,240.8 403.9,240.8 	"/>
	<polygon class="st57" points="402.4,257.2 360.9,257.2 355.5,248.3 360.9,239.3 402.4,239.3 	"/>
	<g>
		<path class="st42" d="M366.6,248h-0.7l-0.2-0.6c-0.1-0.1-0.3-0.2-0.4-0.3c-0.2-0.1-0.4-0.1-0.6-0.1c-0.3,0-0.6,0.1-0.8,0.2
			s-0.2,0.3-0.2,0.5c0,0.2,0.1,0.4,0.2,0.5s0.4,0.2,0.9,0.3c0.7,0.1,1.2,0.3,1.5,0.6s0.5,0.6,0.5,1c0,0.5-0.2,0.8-0.6,1.1
			c-0.4,0.3-0.9,0.4-1.5,0.4c-0.4,0-0.8,0-1.1-0.1s-0.6-0.2-0.9-0.4l0-1.2h0.7l0.2,0.7c0.1,0.1,0.3,0.2,0.5,0.2
			c0.2,0,0.4,0.1,0.6,0.1c0.3,0,0.6-0.1,0.8-0.2c0.2-0.1,0.3-0.3,0.3-0.5c0-0.2-0.1-0.4-0.2-0.5c-0.2-0.1-0.5-0.3-0.9-0.4
			c-0.6-0.1-1.1-0.3-1.5-0.6s-0.5-0.6-0.5-1c0-0.4,0.2-0.8,0.5-1.1c0.4-0.3,0.8-0.5,1.4-0.5c0.4,0,0.8,0.1,1.1,0.2s0.6,0.2,0.8,0.4
			L366.6,248z"/>
		<path class="st42" d="M368.8,247.3h-1v-1h1V247.3z M368.8,251.6h-1v-1h1V251.6z"/>
		<path class="st42" d="M373.1,251.6c0-0.1-0.1-0.3-0.1-0.4s0-0.2,0-0.3c-0.2,0.2-0.4,0.4-0.7,0.6c-0.3,0.2-0.6,0.2-0.9,0.2
			c-0.5,0-1-0.1-1.3-0.4s-0.4-0.6-0.4-1.1c0-0.5,0.2-0.9,0.6-1.2c0.4-0.3,1-0.4,1.7-0.4h1V248c0-0.3-0.1-0.6-0.3-0.7
			s-0.5-0.3-0.8-0.3c-0.2,0-0.5,0-0.6,0.1c-0.2,0.1-0.3,0.1-0.4,0.3l-0.1,0.6H370v-1c0.2-0.2,0.5-0.3,0.9-0.5s0.7-0.2,1.1-0.2
			c0.6,0,1.1,0.2,1.5,0.5s0.6,0.7,0.6,1.3v2.5c0,0.1,0,0.1,0,0.2c0,0.1,0,0.1,0,0.2l0.4,0.1v0.6H373.1z M371.6,250.9
			c0.3,0,0.6-0.1,0.9-0.2s0.5-0.3,0.6-0.6v-0.9h-1c-0.4,0-0.7,0.1-0.9,0.3c-0.2,0.2-0.3,0.4-0.3,0.7c0,0.2,0.1,0.4,0.2,0.5
			S371.3,250.9,371.6,250.9z"/>
		<path class="st42" d="M375,253l0.8-0.1v-5.8L375,247v-0.6h1.6l0.1,0.6c0.2-0.2,0.4-0.4,0.6-0.6c0.3-0.1,0.5-0.2,0.9-0.2
			c0.7,0,1.2,0.3,1.5,0.8c0.4,0.5,0.5,1.2,0.5,2.1v0.1c0,0.8-0.2,1.4-0.5,1.8s-0.9,0.7-1.5,0.7c-0.3,0-0.6-0.1-0.9-0.2
			c-0.2-0.1-0.5-0.3-0.6-0.5v1.8l0.8,0.1v0.6H375V253z M379.4,249.1c0-0.6-0.1-1.1-0.4-1.5s-0.6-0.6-1-0.6c-0.3,0-0.5,0.1-0.7,0.2
			s-0.4,0.3-0.5,0.5v2.6c0.1,0.2,0.3,0.4,0.5,0.5c0.2,0.1,0.4,0.2,0.7,0.2c0.5,0,0.8-0.2,1-0.5s0.4-0.8,0.4-1.3V249.1z"/>
		<path class="st42" d="M381.1,253l0.8-0.1v-5.8l-0.8-0.1v-0.6h1.6l0.1,0.6c0.2-0.2,0.4-0.4,0.6-0.6c0.3-0.1,0.5-0.2,0.9-0.2
			c0.7,0,1.2,0.3,1.5,0.8c0.4,0.5,0.5,1.2,0.5,2.1v0.1c0,0.8-0.2,1.4-0.5,1.8s-0.9,0.7-1.5,0.7c-0.3,0-0.6-0.1-0.9-0.2
			c-0.2-0.1-0.5-0.3-0.6-0.5v1.8l0.8,0.1v0.6h-2.6V253z M385.4,249.1c0-0.6-0.1-1.1-0.4-1.5s-0.6-0.6-1-0.6c-0.3,0-0.5,0.1-0.7,0.2
			s-0.4,0.3-0.5,0.5v2.6c0.1,0.2,0.3,0.4,0.5,0.5c0.2,0.1,0.4,0.2,0.7,0.2c0.5,0,0.8-0.2,1-0.5s0.4-0.8,0.4-1.3V249.1z"/>
		<path class="st42" d="M391.6,247.6h-4.1v-0.8h4.1V247.6z M391.6,249.6h-4.1v-0.8h4.1V249.6z"/>
		<path class="st42" d="M392.6,251l0.5-0.1l2.5-6.4h0.8l2.4,6.4l0.5,0.1v0.6h-2V251l0.5-0.1l-0.5-1.3h-2.8l-0.5,1.3l0.5,0.1v0.6h-2
			V251z M394.9,248.8h2.3l-1.1-3.1h0L394.9,248.8z"/>
	</g>
	<polygon class="st53" points="372,376.4 330.5,376.4 325.1,367.5 330.5,358.6 372,358.6 	"/>
	<polygon class="st57" points="370.5,374.9 329,374.9 323.6,366 329,357.1 370.5,357.1 	"/>
	<g>
		<path class="st42" d="M334.6,365.8h-0.7l-0.2-0.6c-0.1-0.1-0.3-0.2-0.4-0.3c-0.2-0.1-0.4-0.1-0.6-0.1c-0.3,0-0.6,0.1-0.8,0.2
			s-0.2,0.3-0.2,0.5c0,0.2,0.1,0.4,0.2,0.5s0.4,0.2,0.9,0.3c0.7,0.1,1.2,0.3,1.5,0.6c0.3,0.2,0.5,0.6,0.5,1c0,0.5-0.2,0.8-0.6,1.1
			c-0.4,0.3-0.9,0.4-1.5,0.4c-0.4,0-0.8,0-1.1-0.1c-0.3-0.1-0.6-0.2-0.9-0.4l0-1.2h0.7l0.2,0.7c0.1,0.1,0.3,0.2,0.5,0.2
			c0.2,0,0.4,0.1,0.6,0.1c0.3,0,0.6-0.1,0.8-0.2c0.2-0.1,0.3-0.3,0.3-0.5c0-0.2-0.1-0.4-0.2-0.5c-0.2-0.1-0.5-0.3-0.9-0.4
			c-0.6-0.1-1.1-0.3-1.5-0.6s-0.5-0.6-0.5-1c0-0.4,0.2-0.8,0.5-1.1c0.4-0.3,0.8-0.5,1.4-0.5c0.4,0,0.8,0.1,1.1,0.2s0.6,0.2,0.8,0.4
			L334.6,365.8z"/>
		<path class="st42" d="M336.9,365.1h-1v-1h1V365.1z M336.9,369.4h-1v-1h1V369.4z"/>
		<path class="st42" d="M341.2,369.4c0-0.1-0.1-0.3-0.1-0.4s0-0.2,0-0.3c-0.2,0.2-0.4,0.4-0.7,0.6c-0.3,0.2-0.6,0.2-0.9,0.2
			c-0.5,0-1-0.1-1.3-0.4c-0.3-0.3-0.4-0.6-0.4-1.1c0-0.5,0.2-0.9,0.6-1.2c0.4-0.3,1-0.4,1.7-0.4h1v-0.6c0-0.3-0.1-0.6-0.3-0.7
			c-0.2-0.2-0.5-0.3-0.8-0.3c-0.2,0-0.5,0-0.6,0.1c-0.2,0.1-0.3,0.1-0.4,0.3l-0.1,0.6H338v-1c0.2-0.2,0.5-0.3,0.9-0.5
			c0.3-0.1,0.7-0.2,1.1-0.2c0.6,0,1.1,0.2,1.5,0.5s0.6,0.7,0.6,1.3v2.5c0,0.1,0,0.1,0,0.2c0,0.1,0,0.1,0,0.2l0.4,0.1v0.6H341.2z
			 M339.6,368.7c0.3,0,0.6-0.1,0.9-0.2s0.5-0.3,0.6-0.6V367h-1c-0.4,0-0.7,0.1-0.9,0.3c-0.2,0.2-0.3,0.4-0.3,0.7
			c0,0.2,0.1,0.4,0.2,0.5C339.1,368.6,339.3,368.7,339.6,368.7z"/>
		<path class="st42" d="M343.1,370.8l0.8-0.1v-5.8l-0.8-0.1v-0.6h1.6l0.1,0.6c0.2-0.2,0.4-0.4,0.6-0.6c0.3-0.1,0.5-0.2,0.9-0.2
			c0.7,0,1.2,0.3,1.5,0.8c0.4,0.5,0.5,1.2,0.5,2.1v0.1c0,0.8-0.2,1.4-0.5,1.8c-0.4,0.5-0.9,0.7-1.5,0.7c-0.3,0-0.6-0.1-0.9-0.2
			c-0.2-0.1-0.5-0.3-0.6-0.5v1.8l0.8,0.1v0.6h-2.6V370.8z M347.4,366.9c0-0.6-0.1-1.1-0.4-1.5s-0.6-0.6-1-0.6
			c-0.3,0-0.5,0.1-0.7,0.2s-0.4,0.3-0.5,0.5v2.6c0.1,0.2,0.3,0.4,0.5,0.5c0.2,0.1,0.4,0.2,0.7,0.2c0.5,0,0.8-0.2,1-0.5
			s0.4-0.8,0.4-1.3V366.9z"/>
		<path class="st42" d="M349.2,370.8l0.8-0.1v-5.8l-0.8-0.1v-0.6h1.6l0.1,0.6c0.2-0.2,0.4-0.4,0.6-0.6c0.3-0.1,0.5-0.2,0.9-0.2
			c0.7,0,1.2,0.3,1.5,0.8c0.4,0.5,0.5,1.2,0.5,2.1v0.1c0,0.8-0.2,1.4-0.5,1.8c-0.4,0.5-0.9,0.7-1.5,0.7c-0.3,0-0.6-0.1-0.9-0.2
			c-0.2-0.1-0.5-0.3-0.6-0.5v1.8l0.8,0.1v0.6h-2.6V370.8z M353.5,366.9c0-0.6-0.1-1.1-0.4-1.5s-0.6-0.6-1-0.6
			c-0.3,0-0.5,0.1-0.7,0.2s-0.4,0.3-0.5,0.5v2.6c0.1,0.2,0.3,0.4,0.5,0.5c0.2,0.1,0.4,0.2,0.7,0.2c0.5,0,0.8-0.2,1-0.5
			s0.4-0.8,0.4-1.3V366.9z"/>
		<path class="st42" d="M359.7,365.4h-4.1v-0.8h4.1V365.4z M359.7,367.4h-4.1v-0.8h4.1V367.4z"/>
		<path class="st42" d="M360.7,368.8l0.5-0.1l2.5-6.4h0.8l2.4,6.4l0.5,0.1v0.6h-2v-0.6l0.5-0.1l-0.5-1.3h-2.8l-0.5,1.3l0.5,0.1v0.6
			h-2V368.8z M362.9,366.6h2.3l-1.1-3.1h0L362.9,366.6z"/>
	</g>
	<polygon class="st53" points="513.9,157.7 472.4,157.7 467,148.7 472.4,139.8 513.9,139.8 	"/>
	<g>
		<polygon class="st6" points="512.4,156.2 470.9,156.2 465.5,147.2 470.9,138.3 512.4,138.3 		"/>
		<g>
			<polyline class="st18" points="512.4,155 512.4,156.2 511.2,156.2 			"/>
			<line class="st58" x1="509.5" y1="156.2" x2="472.9" y2="156.2"/>
			<polyline class="st18" points="472.1,156.2 470.9,156.2 470.3,155.1 			"/>
			<line class="st59" x1="469.6" y1="154" x2="466.5" y2="148.8"/>
			<polyline class="st18" points="466.1,148.3 465.5,147.2 466.1,146.2 			"/>
			<line class="st59" x1="466.8" y1="145.1" x2="469.9" y2="139.9"/>
			<polyline class="st18" points="470.3,139.3 470.9,138.3 472.1,138.3 			"/>
			<line class="st58" x1="473.8" y1="138.3" x2="510.4" y2="138.3"/>
			<polyline class="st18" points="511.2,138.3 512.4,138.3 512.4,139.5 			"/>
			<line class="st60" x1="512.4" y1="141.3" x2="512.4" y2="154"/>
		</g>
	</g>
	<g>
		<path class="st42" d="M476.5,147h-0.7l-0.2-0.6c-0.1-0.1-0.3-0.2-0.4-0.3c-0.2-0.1-0.4-0.1-0.6-0.1c-0.3,0-0.6,0.1-0.8,0.2
			s-0.2,0.3-0.2,0.5c0,0.2,0.1,0.4,0.2,0.5s0.4,0.2,0.9,0.3c0.7,0.1,1.2,0.3,1.5,0.6s0.5,0.6,0.5,1c0,0.5-0.2,0.8-0.6,1.1
			c-0.4,0.3-0.9,0.4-1.5,0.4c-0.4,0-0.8,0-1.1-0.1s-0.6-0.2-0.9-0.4l0-1.2h0.7l0.2,0.7c0.1,0.1,0.3,0.2,0.5,0.2
			c0.2,0,0.4,0.1,0.6,0.1c0.3,0,0.6-0.1,0.8-0.2c0.2-0.1,0.3-0.3,0.3-0.5c0-0.2-0.1-0.4-0.2-0.5c-0.2-0.1-0.5-0.3-0.9-0.4
			c-0.6-0.1-1.1-0.3-1.5-0.6s-0.5-0.6-0.5-1c0-0.4,0.2-0.8,0.5-1.1c0.4-0.3,0.8-0.5,1.4-0.5c0.4,0,0.8,0.1,1.1,0.2s0.6,0.2,0.8,0.4
			L476.5,147z"/>
		<path class="st42" d="M478.8,146.3h-1v-1h1V146.3z M478.8,150.6h-1v-1h1V150.6z"/>
		<path class="st42" d="M483.1,150.6c0-0.1-0.1-0.3-0.1-0.4s0-0.2,0-0.3c-0.2,0.2-0.4,0.4-0.7,0.6c-0.3,0.2-0.6,0.2-0.9,0.2
			c-0.5,0-1-0.1-1.3-0.4s-0.4-0.6-0.4-1.1c0-0.5,0.2-0.9,0.6-1.2c0.4-0.3,1-0.4,1.7-0.4h1V147c0-0.3-0.1-0.6-0.3-0.7
			s-0.5-0.3-0.8-0.3c-0.2,0-0.5,0-0.6,0.1c-0.2,0.1-0.3,0.1-0.4,0.3l-0.1,0.6h-0.7v-1c0.2-0.2,0.5-0.3,0.9-0.5s0.7-0.2,1.1-0.2
			c0.6,0,1.1,0.2,1.5,0.5s0.6,0.7,0.6,1.3v2.5c0,0.1,0,0.1,0,0.2c0,0.1,0,0.1,0,0.2l0.4,0.1v0.6H483.1z M481.5,149.9
			c0.3,0,0.6-0.1,0.9-0.2s0.5-0.3,0.6-0.6v-0.9h-1c-0.4,0-0.7,0.1-0.9,0.3c-0.2,0.2-0.3,0.4-0.3,0.7c0,0.2,0.1,0.4,0.2,0.5
			S481.2,149.9,481.5,149.9z"/>
		<path class="st42" d="M485,152l0.8-0.1v-5.8l-0.8-0.1v-0.6h1.6l0.1,0.6c0.2-0.2,0.4-0.4,0.6-0.6c0.3-0.1,0.5-0.2,0.9-0.2
			c0.7,0,1.2,0.3,1.5,0.8c0.4,0.5,0.5,1.2,0.5,2.1v0.1c0,0.8-0.2,1.4-0.5,1.8s-0.9,0.7-1.5,0.7c-0.3,0-0.6-0.1-0.9-0.2
			c-0.2-0.1-0.5-0.3-0.6-0.5v1.8l0.8,0.1v0.6H485V152z M489.3,148.1c0-0.6-0.1-1.1-0.4-1.5s-0.6-0.6-1-0.6c-0.3,0-0.5,0.1-0.7,0.2
			s-0.4,0.3-0.5,0.5v2.6c0.1,0.2,0.3,0.4,0.5,0.5c0.2,0.1,0.4,0.2,0.7,0.2c0.5,0,0.8-0.2,1-0.5s0.4-0.8,0.4-1.3V148.1z"/>
		<path class="st42" d="M491.1,152l0.8-0.1v-5.8l-0.8-0.1v-0.6h1.6l0.1,0.6c0.2-0.2,0.4-0.4,0.6-0.6c0.3-0.1,0.5-0.2,0.9-0.2
			c0.7,0,1.2,0.3,1.5,0.8c0.4,0.5,0.5,1.2,0.5,2.1v0.1c0,0.8-0.2,1.4-0.5,1.8s-0.9,0.7-1.5,0.7c-0.3,0-0.6-0.1-0.9-0.2
			c-0.2-0.1-0.5-0.3-0.6-0.5v1.8l0.8,0.1v0.6h-2.6V152z M495.4,148.1c0-0.6-0.1-1.1-0.4-1.5s-0.6-0.6-1-0.6c-0.3,0-0.5,0.1-0.7,0.2
			s-0.4,0.3-0.5,0.5v2.6c0.1,0.2,0.3,0.4,0.5,0.5c0.2,0.1,0.4,0.2,0.7,0.2c0.5,0,0.8-0.2,1-0.5s0.4-0.8,0.4-1.3V148.1z"/>
		<path class="st42" d="M501.6,146.6h-4.1v-0.8h4.1V146.6z M501.6,148.6h-4.1v-0.8h4.1V148.6z"/>
		<path class="st42" d="M505.8,143.5c0.7,0,1.3,0.2,1.7,0.5c0.4,0.3,0.6,0.8,0.6,1.4c0,0.3-0.1,0.6-0.3,0.8
			c-0.2,0.2-0.5,0.4-0.8,0.6c0.4,0.1,0.8,0.3,1,0.6s0.4,0.7,0.4,1.1c0,0.7-0.2,1.1-0.6,1.5s-1,0.5-1.7,0.5h-3.4V150l0.8-0.1v-5.6
			l-0.8-0.1v-0.6h0.8H505.8z M504.4,146.5h1.6c0.3,0,0.6-0.1,0.8-0.3c0.2-0.2,0.3-0.5,0.3-0.8c0-0.4-0.1-0.7-0.4-0.9s-0.6-0.3-1-0.3
			h-1.4V146.5z M504.4,147.3v2.6h1.7c0.4,0,0.8-0.1,1-0.3c0.2-0.2,0.4-0.5,0.4-0.9c0-0.4-0.1-0.7-0.3-1c-0.2-0.2-0.5-0.4-0.9-0.4
			H504.4z"/>
	</g>
</g>
<g id="description">
	<g>
		<path class="st42" d="M470.5,256.6v-0.7l1-0.2V249l-1-0.2v-0.7h1h1.2h1v0.7l-1,0.2v6.7h3l0.1-1h1v1.9H470.5z"/>
		<path class="st42" d="M481.7,256.6c0-0.2-0.1-0.3-0.1-0.5s0-0.3,0-0.4c-0.2,0.3-0.5,0.5-0.8,0.7s-0.7,0.3-1.1,0.3
			c-0.7,0-1.2-0.2-1.5-0.5s-0.5-0.8-0.5-1.4c0-0.6,0.2-1.1,0.7-1.4s1.2-0.5,2-0.5h1.2v-0.7c0-0.4-0.1-0.7-0.4-0.9s-0.6-0.3-1-0.3
			c-0.3,0-0.5,0-0.8,0.1s-0.4,0.2-0.5,0.3l-0.1,0.7H478v-1.2c0.3-0.2,0.6-0.4,1-0.6s0.9-0.2,1.3-0.2c0.7,0,1.3,0.2,1.7,0.6
			s0.7,0.9,0.7,1.6v3.1c0,0.1,0,0.2,0,0.2s0,0.2,0,0.2l0.5,0.1v0.7H481.7z M479.9,255.8c0.4,0,0.7-0.1,1-0.3s0.5-0.4,0.7-0.7v-1
			h-1.2c-0.5,0-0.8,0.1-1.1,0.3s-0.4,0.5-0.4,0.8c0,0.3,0.1,0.5,0.3,0.6S479.5,255.8,479.9,255.8z"/>
		<path class="st42" d="M490,253.7c0,0.9-0.2,1.7-0.7,2.2s-1,0.8-1.8,0.8c-0.4,0-0.8-0.1-1.1-0.2s-0.6-0.4-0.8-0.7l-0.1,0.8h-1v-8.2
			l-1-0.2v-0.7h2.1v3.6c0.2-0.3,0.4-0.5,0.7-0.6s0.6-0.2,1-0.2c0.8,0,1.4,0.3,1.8,0.9s0.7,1.4,0.7,2.5V253.7z M488.8,253.6
			c0-0.7-0.1-1.3-0.4-1.8s-0.7-0.7-1.2-0.7c-0.4,0-0.7,0.1-0.9,0.3s-0.4,0.4-0.6,0.7v2.8c0.1,0.3,0.3,0.5,0.6,0.7s0.5,0.3,0.9,0.3
			c0.5,0,0.9-0.2,1.2-0.6s0.4-0.9,0.4-1.5V253.6z"/>
		<path class="st42" d="M494,256.7c-0.9,0-1.6-0.3-2.1-0.9s-0.8-1.4-0.8-2.3v-0.3c0-0.9,0.3-1.7,0.8-2.3s1.2-0.9,1.9-0.9
			c0.9,0,1.5,0.3,1.9,0.8s0.7,1.2,0.7,2.1v0.7h-4.1l0,0c0,0.6,0.2,1.1,0.5,1.5s0.7,0.6,1.2,0.6c0.4,0,0.7-0.1,1-0.2s0.5-0.3,0.8-0.5
			l0.5,0.8c-0.2,0.2-0.5,0.4-0.9,0.6S494.6,256.7,494,256.7z M493.9,251.1c-0.4,0-0.7,0.2-1,0.5s-0.4,0.7-0.5,1.2l0,0h2.9v-0.2
			c0-0.5-0.1-0.8-0.4-1.1S494.3,251.1,493.9,251.1z"/>
		<path class="st42" d="M497.4,248.2v-0.7h2.1v8.2l1,0.2v0.7h-3.1v-0.7l1-0.2v-7.3L497.4,248.2z"/>
		<path class="st42" d="M510.4,250.6h-0.9l-0.2-1.2c-0.2-0.1-0.4-0.3-0.7-0.4s-0.6-0.1-1-0.1c-0.6,0-1.1,0.1-1.4,0.4s-0.5,0.6-0.5,1
			c0,0.4,0.2,0.7,0.5,0.9s0.9,0.5,1.6,0.7c0.9,0.2,1.6,0.6,2,1s0.7,1,0.7,1.6c0,0.7-0.3,1.2-0.8,1.7s-1.3,0.6-2.2,0.6
			c-0.7,0-1.2-0.1-1.7-0.3s-0.9-0.5-1.2-0.8V254h0.9l0.2,1.2c0.2,0.2,0.5,0.3,0.8,0.5s0.7,0.2,1.1,0.2c0.6,0,1-0.1,1.4-0.4
			s0.5-0.6,0.5-1c0-0.4-0.1-0.7-0.4-1s-0.8-0.5-1.6-0.7c-0.9-0.2-1.6-0.5-2.1-0.9s-0.8-0.9-0.8-1.6c0-0.7,0.3-1.2,0.8-1.7
			s1.3-0.7,2.2-0.7c0.6,0,1.1,0.1,1.6,0.3s0.9,0.5,1.2,0.7V250.6z"/>
		<path class="st42" d="M514.6,256.7c-0.9,0-1.6-0.3-2.1-0.9c-0.5-0.6-0.8-1.4-0.8-2.3v-0.3c0-0.9,0.3-1.7,0.8-2.3
			c0.5-0.6,1.2-0.9,1.9-0.9c0.9,0,1.5,0.3,1.9,0.8s0.7,1.2,0.7,2.1v0.7h-4.1l0,0c0,0.6,0.2,1.1,0.5,1.5s0.7,0.6,1.2,0.6
			c0.4,0,0.7-0.1,1-0.2s0.5-0.3,0.8-0.5l0.5,0.8c-0.2,0.2-0.5,0.4-0.9,0.6S515.1,256.7,514.6,256.7z M514.4,251.1
			c-0.4,0-0.7,0.2-1,0.5s-0.4,0.7-0.5,1.2l0,0h2.9v-0.2c0-0.5-0.1-0.8-0.4-1.1S514.9,251.1,514.4,251.1z"/>
		<path class="st42" d="M518,248.2v-0.7h2.1v8.2l1,0.2v0.7H518v-0.7l1-0.2v-7.3L518,248.2z"/>
		<path class="st42" d="M524.8,256.7c-0.9,0-1.6-0.3-2.1-0.9s-0.8-1.4-0.8-2.3v-0.3c0-0.9,0.3-1.7,0.8-2.3s1.2-0.9,1.9-0.9
			c0.9,0,1.5,0.3,1.9,0.8s0.7,1.2,0.7,2.1v0.7h-4.1l0,0c0,0.6,0.2,1.1,0.5,1.5s0.7,0.6,1.2,0.6c0.4,0,0.7-0.1,1-0.2s0.5-0.3,0.8-0.5
			l0.5,0.8c-0.2,0.2-0.5,0.4-0.9,0.6S525.3,256.7,524.8,256.7z M524.6,251.1c-0.4,0-0.7,0.2-1,0.5s-0.4,0.7-0.5,1.2l0,0h2.9v-0.2
			c0-0.5-0.1-0.8-0.4-1.1S525.1,251.1,524.6,251.1z"/>
		<path class="st42" d="M531.2,255.8c0.4,0,0.7-0.1,1-0.4s0.4-0.5,0.4-0.9h1l0,0c0,0.5-0.2,1-0.7,1.5s-1.1,0.6-1.8,0.6
			c-0.9,0-1.6-0.3-2.1-0.9s-0.7-1.4-0.7-2.3v-0.2c0-0.9,0.2-1.7,0.7-2.3s1.2-0.9,2.1-0.9c0.5,0,1,0.1,1.4,0.3s0.7,0.4,1,0.7l0.1,1.4
			h-0.9l-0.3-1c-0.1-0.1-0.3-0.2-0.5-0.3s-0.5-0.1-0.7-0.1c-0.6,0-1,0.2-1.3,0.7s-0.4,1-0.4,1.6v0.2c0,0.6,0.1,1.2,0.4,1.6
			S530.6,255.8,531.2,255.8z"/>
		<path class="st42" d="M536.8,248.7v1.5h1.2v0.9h-1.2v3.8c0,0.3,0.1,0.5,0.2,0.6s0.3,0.2,0.5,0.2c0.1,0,0.2,0,0.3,0s0.2,0,0.3-0.1
			l0.2,0.8c-0.1,0.1-0.3,0.1-0.5,0.2s-0.4,0.1-0.6,0.1c-0.5,0-0.8-0.1-1.1-0.4s-0.4-0.7-0.4-1.3v-3.8h-1v-0.9h1v-1.5H536.8z"/>
		<path class="st42" d="M539.1,253.4c0-0.9,0.3-1.7,0.8-2.3s1.2-0.9,2.1-0.9c0.9,0,1.6,0.3,2.1,0.9s0.8,1.4,0.8,2.3v0.1
			c0,0.9-0.3,1.7-0.8,2.3s-1.2,0.9-2.1,0.9c-0.9,0-1.6-0.3-2.1-0.9s-0.8-1.4-0.8-2.3V253.4z M540.3,253.5c0,0.7,0.1,1.2,0.4,1.7
			s0.7,0.7,1.3,0.7c0.5,0,1-0.2,1.2-0.7s0.4-1,0.4-1.7v-0.1c0-0.7-0.1-1.2-0.4-1.7s-0.7-0.7-1.3-0.7s-1,0.2-1.3,0.7s-0.4,1-0.4,1.7
			V253.5z"/>
		<path class="st42" d="M545.8,251v-0.7h2l0.1,0.9c0.2-0.3,0.4-0.6,0.7-0.8s0.6-0.3,0.9-0.3c0.1,0,0.2,0,0.3,0s0.2,0,0.2,0l-0.2,1.1
			l-0.7,0c-0.3,0-0.6,0.1-0.8,0.2s-0.4,0.3-0.5,0.6v3.6l1,0.2v0.7h-3.1v-0.7l1-0.2v-4.5L545.8,251z"/>
	</g>
	<line class="st63" x1="468.5" y1="254.2" x2="399.1" y2="254.2"/>
	<g>
		<path class="st42" d="M519.4,105.4v-0.7l1-0.2v-6.7l-1-0.2v-0.7h1h1.2h1v0.7l-1,0.2v6.7h3l0.1-1h1v1.9H519.4z"/>
		<path class="st42" d="M530.6,105.4c0-0.2-0.1-0.3-0.1-0.5s0-0.3,0-0.4c-0.2,0.3-0.5,0.5-0.8,0.7s-0.7,0.3-1.1,0.3
			c-0.7,0-1.2-0.2-1.5-0.5s-0.5-0.8-0.5-1.4c0-0.6,0.2-1.1,0.7-1.4s1.2-0.5,2-0.5h1.2V101c0-0.4-0.1-0.7-0.4-0.9s-0.6-0.3-1-0.3
			c-0.3,0-0.5,0-0.8,0.1s-0.4,0.2-0.5,0.3l-0.1,0.7h-0.9v-1.2c0.3-0.2,0.6-0.4,1-0.6s0.9-0.2,1.3-0.2c0.7,0,1.3,0.2,1.7,0.6
			s0.7,0.9,0.7,1.6v3.1c0,0.1,0,0.2,0,0.2s0,0.2,0,0.2l0.5,0.1v0.7H530.6z M528.8,104.5c0.4,0,0.7-0.1,1-0.3s0.5-0.4,0.7-0.7v-1
			h-1.2c-0.5,0-0.8,0.1-1.1,0.3s-0.4,0.5-0.4,0.8c0,0.3,0.1,0.5,0.3,0.6S528.4,104.5,528.8,104.5z"/>
		<path class="st42" d="M538.9,102.4c0,0.9-0.2,1.7-0.7,2.2s-1,0.8-1.8,0.8c-0.4,0-0.8-0.1-1.1-0.2s-0.6-0.4-0.8-0.7l-0.1,0.8h-1
			v-8.2l-1-0.2v-0.7h2.1v3.6c0.2-0.3,0.4-0.5,0.7-0.6s0.6-0.2,1-0.2c0.8,0,1.4,0.3,1.8,0.9s0.7,1.4,0.7,2.5V102.4z M537.7,102.3
			c0-0.7-0.1-1.3-0.4-1.8s-0.7-0.7-1.2-0.7c-0.4,0-0.7,0.1-0.9,0.3s-0.4,0.4-0.6,0.7v2.8c0.1,0.3,0.3,0.5,0.6,0.7s0.5,0.3,0.9,0.3
			c0.5,0,0.9-0.2,1.2-0.6s0.4-0.9,0.4-1.5V102.3z"/>
		<path class="st42" d="M542.9,105.5c-0.9,0-1.6-0.3-2.1-0.9s-0.8-1.4-0.8-2.3V102c0-0.9,0.3-1.7,0.8-2.3s1.2-0.9,1.9-0.9
			c0.9,0,1.5,0.3,1.9,0.8s0.7,1.2,0.7,2.1v0.7h-4.1l0,0c0,0.6,0.2,1.1,0.5,1.5s0.7,0.6,1.2,0.6c0.4,0,0.7-0.1,1-0.2s0.5-0.3,0.8-0.5
			l0.5,0.8c-0.2,0.2-0.5,0.4-0.9,0.6S543.5,105.5,542.9,105.5z M542.8,99.8c-0.4,0-0.7,0.2-1,0.5s-0.4,0.7-0.5,1.2l0,0h2.9v-0.2
			c0-0.5-0.1-0.8-0.4-1.1S543.2,99.8,542.8,99.8z"/>
		<path class="st42" d="M546.3,97v-0.7h2.1v8.2l1,0.2v0.7h-3.1v-0.7l1-0.2v-7.3L546.3,97z"/>
	</g>
	<line class="st62" x1="516.9" y1="103" x2="487.6" y2="103"/>
</g>
<g id="Layer_14">
</g>
</svg>
