<svg xmlns="http://www.w3.org/2000/svg" viewBox="0 0 720.4 440.4"><defs><style>.cls-1,.cls-13,.cls-2{fill:#fff;}.cls-1,.cls-2{stroke:#326de6;}.cls-1,.cls-12,.cls-14,.cls-16{stroke-linecap:round;stroke-linejoin:round;}.cls-1{stroke-width:3.2px;}.cls-11,.cls-2,.cls-3,.cls-4,.cls-8{stroke-miterlimit:10;}.cls-2{stroke-width:1.6px;}.cls-12,.cls-16,.cls-3,.cls-4,.cls-8{fill:none;}.cls-11,.cls-3,.cls-4,.cls-8{stroke:#eef406;}.cls-11,.cls-3,.cls-4{stroke-width:2px;}.cls-4{stroke-dasharray:2.39 1.6;}.cls-5{font-size:9.6px;font-family:RobotoSlab-Bold, Roboto Slab;font-weight:700;}.cls-6{letter-spacing:0.01em;}.cls-7{fill:#eef406;}.cls-10,.cls-7{opacity:0.1;}.cls-8{stroke-width:2.46px;}.cls-10,.cls-9{font-size:7.2px;font-family:RobotoSlab-Light, Roboto Slab;}.cls-10,.cls-15,.cls-9{fill:#011f38;}.cls-11{fill:#326de6;}.cls-12{stroke:#fff;stroke-width:1.2px;}.cls-14{fill:#8115ff;stroke-width:0.8px;}.cls-14,.cls-16{stroke:#011f38;}.cls-15{font-size:12px;font-family:RobotoSlab-Regular, Roboto Slab;}.cls-16{stroke-width:0.3px;}.cls-17{letter-spacing:0.01em;}.cls-18{letter-spacing:0em;}.cls-19{letter-spacing:-0.01em;}.cls-20{letter-spacing:-0.01em;}.cls-21{letter-spacing:-0.01em;}</style></defs><title>16.07.28_k8s_diagrams_all</title><g id="master"><polygon class="cls-1" points="340.49 265.88 316.34 235.6 324.96 197.84 359.86 181.03 394.75 197.84 403.37 235.6 379.22 265.88 340.49 265.88"/></g><g id="Node"><polygon class="cls-2" points="423.45 179.76 365.35 146.22 365.35 79.13 423.45 45.59 481.54 79.13 481.54 146.22 423.45 179.76"/><polygon class="cls-2" points="296.26 179.68 238.17 146.14 238.17 79.06 296.26 45.52 354.36 79.06 354.36 146.14 296.26 179.68"/><polygon class="cls-2" points="296.26 401.41 238.17 367.87 238.17 300.79 296.26 267.25 354.36 300.79 354.36 367.87 296.26 401.41"/></g><g id="service"><path class="cls-3" d="M286.72,329.13v1.2h0q0,.6,0,1.2"/><path class="cls-4" d="M286.84,333.12a32.52,32.52,0,0,0,32.68,29.68c17.88-.17,32.16-15,32.16-32.89V181.79A22.37,22.37,0,0,1,374,159.42h68A28.38,28.38,0,0,0,470.43,131V93.84h0A28.41,28.41,0,0,0,442,65.45H319.2a32.48,32.48,0,0,0-32.48,32.48h0v230.4"/><text class="cls-5" transform="translate(334.53 61.44)">Se<tspan class="cls-6" x="10.94" y="0">r</tspan><tspan x="15.06" y="0">vice A 10.3.250.236</tspan></text></g><g id="pods"><circle class="cls-3" cx="404.84" cy="93.83" r="16.38"/><circle class="cls-3" cx="442.05" cy="93.83" r="16.38"/><circle class="cls-7" cx="442.05" cy="93.83" r="16.38"/><circle class="cls-7" cx="404.84" cy="93.83" r="16.38"/><circle class="cls-8" cx="319.04" cy="329.93" r="20.14"/><circle class="cls-7" cx="319.04" cy="329.93" r="20.14"/><circle class="cls-8" cx="319.04" cy="108.53" r="20.14"/><circle class="cls-7" cx="319.04" cy="108.53" r="20.14"/></g><g id="IP"><text class="cls-9" transform="matrix(0.61, -0.79, 0.79, 0.61, 300.53, 317.5)">1</text><text class="cls-9" transform="matrix(0.72, -0.69, 0.69, 0.72, 302.18, 315.28)">0</text><text class="cls-9" transform="matrix(0.8, -0.61, 0.61, 0.8, 305.05, 312.6)">.</text><text class="cls-9" transform="translate(306.21 311.62) rotate(-30.45)">0</text><text class="cls-9" transform="matrix(0.92, -0.4, 0.4, 0.92, 309.61, 309.69)">.</text><text class="cls-9" transform="translate(311 309.05) rotate(-18.2)">1</text><text class="cls-9" transform="translate(313.7 308.19) rotate(-12.67)">.</text><text class="cls-9" transform="translate(315.14 307.78) rotate(-5.99)">6</text><text class="cls-9" transform="matrix(0.45, -0.89, 0.89, 0.45, 387.81, 86.99)">1</text><text class="cls-9" transform="translate(388.96 84.52) rotate(-53.19)">0</text><text class="cls-9" transform="matrix(0.71, -0.71, 0.71, 0.71, 391.37, 81.44)">.</text><text class="cls-9" transform="translate(392.35 80.31) rotate(-36.47)">0</text><text class="cls-9" transform="translate(395.5 78.08) rotate(-28.2)">.</text><text class="cls-9" transform="translate(396.77 77.29) rotate(-19.97)">2</text><text class="cls-9" transform="matrix(0.98, -0.2, 0.2, 0.98, 400.3, 76.08)">.</text><text class="cls-9" transform="matrix(1, -0.06, 0.06, 1, 401.76, 75.68)">6</text><text class="cls-9" transform="matrix(0.62, -0.78, 0.78, 0.62, 426.81, 83.6)">1</text><text class="cls-9" transform="translate(428.46 81.41) rotate(-41.25)">0</text><text class="cls-9" transform="matrix(0.84, -0.54, 0.54, 0.84, 431.46, 78.89)">.</text><text class="cls-9" transform="translate(432.62 78.02) rotate(-24.54)">0</text><text class="cls-9" transform="translate(436.2 76.47) rotate(-16.07)">.</text><text class="cls-9" transform="translate(437.61 75.97) rotate(-7.81)">2</text><text class="cls-9" transform="translate(441.35 75.52) rotate(0.93)">.</text><text class="cls-9" transform="translate(442.81 75.44) rotate(8.44)">7</text><text class="cls-10" transform="matrix(0.45, -0.89, 0.89, 0.45, 387.81, 86.99)">1</text><text class="cls-10" transform="translate(388.96 84.52) rotate(-53.19)">0</text><text class="cls-10" transform="matrix(0.71, -0.71, 0.71, 0.71, 391.37, 81.44)">.</text><text class="cls-10" transform="translate(392.4 80.34) rotate(-38.18)">1</text><text class="cls-10" transform="matrix(0.85, -0.52, 0.52, 0.85, 394.62, 78.64)">.</text><text class="cls-10" transform="matrix(0.92, -0.4, 0.4, 0.92, 395.8, 77.81)">3</text><text class="cls-9" transform="matrix(0.61, -0.79, 0.79, 0.61, 300.05, 95.54)">1</text><text class="cls-9" transform="translate(301.7 93.32) rotate(-43.98)">0</text><text class="cls-9" transform="translate(304.57 90.64) rotate(-37.24)">.</text><text class="cls-9" transform="translate(305.73 89.66) rotate(-30.45)">0</text><text class="cls-9" transform="translate(309.14 87.73) rotate(-23.66)">.</text><text class="cls-9" transform="translate(310.5 87.05) rotate(-16.78)">0</text><text class="cls-9" transform="matrix(0.98, -0.17, 0.17, 0.98, 314.26, 85.98)">.</text><text class="cls-9" transform="matrix(1, -0.06, 0.06, 1, 315.75, 85.64)">6</text></g><g id="deployments"><circle class="cls-11" cx="369.49" cy="211.2" r="14.1"/><path class="cls-12" d="M373.92,202.91a9.43,9.43,0,1,1-7.55-.57"/><polygon class="cls-13" points="375.27 205.75 374.24 203.06 376.93 202.04 375.35 201.33 372.67 202.35 373.69 205.04 375.27 205.75"/><path class="cls-13" d="M364.3,214.93l.78-.11,3.31-9.46h2.23l3.29,9.46.78.11v1.31H371v-1.31l.75-.13-.48-1.49h-3.53l-.48,1.49.75.13v1.31H364.3Zm3.94-3.23h2.5l-1.22-3.83h0Z"/></g><g id="containers_volumes" data-name="containers/volumes"><polygon class="cls-14" points="307.66 323.48 319.52 316.63 331.37 323.48 319.52 330.33 307.66 323.48"/><polygon class="cls-14" points="307.66 337.18 307.66 323.48 319.52 330.33 319.52 344.02 307.66 337.18"/><polygon class="cls-14" points="319.52 344.02 319.52 330.33 331.37 323.48 331.37 337.18 319.52 344.02"/><polygon class="cls-14" points="395.36 88.35 404.85 82.88 414.33 88.35 404.85 93.84 395.36 88.35"/><polygon class="cls-14" points="395.36 99.31 395.36 88.35 404.85 93.84 404.85 104.79 395.36 99.31"/><polygon class="cls-14" points="404.85 104.79 404.85 93.84 414.33 88.35 414.33 99.31 404.85 104.79"/><polygon class="cls-14" points="432.56 88.35 442.05 82.88 451.53 88.35 442.05 93.84 432.56 88.35"/><polygon class="cls-14" points="432.56 99.31 432.56 88.35 442.05 93.84 442.05 104.79 432.56 99.31"/><polygon class="cls-14" points="442.05 104.79 442.05 93.84 451.53 88.35 451.53 99.31 442.05 104.79"/><polygon class="cls-14" points="307.19 101.52 319.04 94.67 330.9 101.52 319.04 108.37 307.19 101.52"/><polygon class="cls-14" points="307.19 115.22 307.19 101.52 319.04 108.37 319.04 122.06 307.19 115.22"/><polygon class="cls-14" points="319.04 122.06 319.04 108.37 330.9 101.52 330.9 115.22 319.04 122.06"/></g><g id="description"><text class="cls-15" transform="translate(505.07 101.65)">updated app</text><line class="cls-16" x1="445.13" y1="99.25" x2="503.47" y2="99.25"/><text class="cls-15" transform="translate(171.78 136.37)">Se<tspan class="cls-17" x="13.76" y="0">r</tspan><tspan x="18.83" y="0">vice</tspan></text><line class="cls-16" x1="293.3" y1="133.97" x2="217.37" y2="133.97"/><text class="cls-15" transform="translate(505.07 77.46)"><tspan class="cls-18">n</tspan><tspan x="7.66" y="0">ew IP add</tspan><tspan class="cls-19" x="62.51" y="0">r</tspan><tspan x="67.37" y="0">ess</tspan></text><line class="cls-16" x1="446.79" y1="75.06" x2="503.47" y2="75.06"/><text class="cls-15" transform="translate(432.05 205.36)">De<tspan class="cls-18" x="14.77" y="0">p</tspan><tspan class="cls-20" x="21.97" y="0">l</tspan><tspan class="cls-21" x="25.63" y="0">o</tspan><tspan x="32.28" y="0">y</tspan><tspan class="cls-18" x="39.09" y="0">m</tspan><tspan x="50.37" y="0">ent</tspan></text><line class="cls-16" x1="430.01" y1="202.96" x2="369.49" y2="202.96"/></g></svg>