<?xml version="1.0" encoding="utf-8"?>
<!-- Generator: Adobe Illustrator 19.2.1, SVG Export Plug-In . SVG Version: 6.00 Build 0)  -->
<svg version="1.1" xmlns="http://www.w3.org/2000/svg" xmlns:xlink="http://www.w3.org/1999/xlink" x="0px" y="0px"
	 viewBox="0 0 720.4 440.4" style="enable-background:new 0 0 720.4 440.4;" xml:space="preserve">
<style type="text/css">
	.st0{fill:#FFFFFF;stroke:#326DE6;stroke-width:2;stroke-linecap:round;stroke-linejoin:round;stroke-miterlimit:10;}
	.st1{opacity:0.71;fill:#326CE6;}
	.st2{opacity:0.45;fill:#FFFFFF;}
	.st3{fill:#FFFFFF;stroke:#006DE9;stroke-width:2;stroke-linecap:round;stroke-linejoin:round;stroke-miterlimit:10;}
	.st4{fill:#006DE9;}
	.st5{fill:#A0CAEA;}
	.st6{fill:#FFFFFF;}
	.st7{opacity:0.13;}
	.st8{fill:url(#SVGID_1_);}
	.st9{fill:url(#SVGID_2_);}
	.st10{fill:#FFFFFF;stroke:#006DE9;stroke-linecap:round;stroke-linejoin:round;stroke-miterlimit:10;}
	.st11{fill:#FFFFFF;stroke:#006DE9;stroke-width:6;stroke-linecap:round;stroke-linejoin:round;stroke-miterlimit:10;}
	.st12{fill:#FFFFFF;stroke:#326DE6;stroke-width:3.2;stroke-linecap:round;stroke-linejoin:round;stroke-miterlimit:10;}
	.st13{fill:#326DE6;}
	.st14{fill:none;stroke:#326DE6;stroke-width:2.4;stroke-miterlimit:10;}
	.st15{fill:#A0CAE9;}
	.st16{fill:#FFFFFF;stroke:#326DE6;stroke-width:1.6;stroke-linecap:round;stroke-linejoin:round;stroke-miterlimit:10;}
	.st17{fill:#FFFFFF;stroke:#326DE6;stroke-width:1.6;stroke-miterlimit:10;}
	.st18{fill:none;stroke:#06F7C9;stroke-width:2;stroke-miterlimit:10;}
	.st19{fill:none;stroke:#06F7C9;stroke-width:2;stroke-miterlimit:10;stroke-dasharray:2.3749,1.5832;}
	.st20{fill:none;stroke:#06F7C9;stroke-width:2;stroke-miterlimit:10;stroke-dasharray:2.4006,1.6004;}
	.st21{fill:none;stroke:#EEF406;stroke-width:2;stroke-miterlimit:10;stroke-dasharray:2.4,1.6;}
	.st22{fill:none;stroke:#EEF406;stroke-width:2;stroke-miterlimit:10;}
	.st23{fill:none;stroke:#EEF406;stroke-width:2;stroke-miterlimit:10;stroke-dasharray:2.3975,1.5984;}
	.st24{fill:none;stroke:#EEF406;stroke-width:2;stroke-miterlimit:10;stroke-dasharray:2.395,1.5966;}
	.st25{fill:none;stroke:#EEF406;stroke-width:2;stroke-miterlimit:10;stroke-dasharray:2.3963,1.5976;}
	.st26{opacity:0.1;fill:#EEF406;}
	.st27{opacity:2.000000e-02;fill:#EEF406;}
	.st28{opacity:0.1;fill:#06F7C9;}
	.st29{fill:none;stroke:#006DE9;stroke-width:0.8;stroke-miterlimit:10;}
	.st30{opacity:0.1;fill:url(#SVGID_3_);}
	.st31{opacity:0.1;fill:url(#SVGID_4_);}
	.st32{opacity:0.1;fill:url(#SVGID_5_);}
	.st33{opacity:0.1;fill:url(#SVGID_6_);}
	.st34{fill:none;stroke:#326DE6;stroke-width:1.2;stroke-miterlimit:10;}
	.st35{opacity:0.1;fill:url(#SVGID_7_);}
	.st36{opacity:0.1;fill:url(#SVGID_8_);}
	.st37{opacity:0.1;fill:url(#SVGID_9_);}
	.st38{opacity:0.1;fill:url(#SVGID_10_);}
	.st39{fill:none;stroke:#326DE6;stroke-width:2;stroke-miterlimit:10;}
	.st40{opacity:0.4;fill:none;stroke:#EEF406;stroke-width:2;stroke-miterlimit:10;}
	.st41{fill:none;stroke:#EEF406;stroke-width:2.4596;stroke-miterlimit:10;}
	.st42{fill:#011F38;}
	.st43{opacity:0.4;}
	.st44{opacity:0.1;}
	.st45{fill:#326DE6;stroke:#EEF406;stroke-width:2;stroke-miterlimit:10;}
	.st46{fill:none;stroke:#FFFFFF;stroke-width:1.2;stroke-linecap:round;stroke-linejoin:round;}
	.st47{fill:#06F7C9;stroke:#FFFFFF;stroke-width:0.3;stroke-linecap:round;stroke-linejoin:round;stroke-miterlimit:10;}
	.st48{fill:none;stroke:#011F38;stroke-width:1.2;stroke-linecap:round;stroke-linejoin:round;}
	.st49{fill:#326DE6;stroke:#06F7C9;stroke-width:2;stroke-miterlimit:10;}
	.st50{fill:#06F7C9;stroke:#011F38;stroke-width:0.8;stroke-linecap:round;stroke-linejoin:round;stroke-miterlimit:10;}
	.st51{fill:#8115FF;stroke:#011F38;stroke-width:0.8;stroke-linecap:round;stroke-linejoin:round;stroke-miterlimit:10;}
	.st52{opacity:0.3;}
	.st53{opacity:0.2;fill:#6D6E71;}
	.st54{fill:#EEF406;}
	.st55{fill:#06F7C9;}
	.st56{fill:#FFFFFF;stroke:#06F7C9;stroke-width:2;stroke-miterlimit:10;stroke-dasharray:2.4,1.6;}
	.st57{fill:#FFFFFF;stroke:#EEF406;stroke-width:1.6;stroke-miterlimit:10;stroke-dasharray:2.4,1.6;}
	.st58{fill:none;stroke:#06F7C9;stroke-width:2;stroke-miterlimit:10;stroke-dasharray:2.4938,1.6626;}
	.st59{fill:none;stroke:#06F7C9;stroke-width:2;stroke-miterlimit:10;stroke-dasharray:2.0084,1.3389;}
	.st60{fill:none;stroke:#06F7C9;stroke-width:2;stroke-miterlimit:10;stroke-dasharray:2.724,1.816;}
	.st61{fill:#011F38;stroke:#414042;stroke-width:0.3;stroke-linecap:round;stroke-linejoin:round;stroke-miterlimit:10;}
	.st62{fill:none;stroke:#011F38;stroke-width:0.3;stroke-linecap:round;stroke-linejoin:round;stroke-miterlimit:10;}
	.st63{fill:none;stroke:#011F38;stroke-width:0.2813;stroke-linecap:round;stroke-linejoin:round;stroke-miterlimit:10;}
</style>
<symbol  id="node_high_level" viewBox="-81 -93 162 186.1">
	<polygon class="st0" points="-80,-46 -80,46 0,92 80,46 80,-46 0,-92 	"/>
	<g id="Isolation_Mode_3_">
	</g>
</symbol>
<symbol  id="node_x5F_empty" viewBox="-87.5 -100.6 175.1 201.1">
	
		<use xlink:href="#node_high_level"  width="162" height="186.1" id="XMLID_201_" x="-81" y="-93" transform="matrix(1.0808 0 0 1.0808 -3.292006e-05 -3.749943e-05)" style="overflow:visible;"/>
	<g>
		<polygon class="st1" points="76.8,-28.1 -14,-80.3 0,-88.3 76.7,-44.4 		"/>
		<polygon class="st2" points="76.8,-28.1 32.1,-53.8 38.8,-66.1 76.7,-44.4 		"/>
	</g>
</symbol>
<symbol  id="node_x5F_new" viewBox="-87.6 -101 175.2 202">
	<polygon class="st3" points="0,-100 -86.6,-50 -86.6,50 0,100 86.6,50 86.6,-50 	"/>
	<polygon class="st4" points="-86.6,-20.2 -86.6,-50 0,-100 25.8,-85.1 	"/>
	<polygon class="st5" points="-40.8,-70.7 -32.9,-57 15.7,-85.1 0,-94.3 	"/>
	
		<text transform="matrix(0.866 -0.5 -0.5 -0.866 -33.9256 -70.7388)" class="st6" style="font-family:'RobotoSlab-Regular'; font-size:11.3632px;">Docker</text>
	
		<text transform="matrix(0.866 -0.5 -0.5 -0.866 -76.0668 -46.4087)" class="st6" style="font-family:'RobotoSlab-Regular'; font-size:11.3632px;">Kubelt</text>
</symbol>
<g id="CLUSTER">
</g>
<g id="master">
	<g id="master_x5F_level1">
	</g>
	<polygon class="st12" points="340.5,265.9 316.3,235.6 325,197.8 359.9,181 394.8,197.8 403.4,235.6 379.2,265.9 	"/>
</g>
<g id="Node">
	<g id="Node_x5F_level3_x5F_1">
		<g id="Isolation_Mode">
		</g>
	</g>
	<g>
		<polygon class="st17" points="423.4,179.8 365.3,146.2 365.3,79.1 423.4,45.6 481.5,79.1 481.5,146.2 		"/>
	</g>
	<g>
		<polygon class="st17" points="296.3,179.7 238.2,146.1 238.2,79.1 296.3,45.5 354.4,79.1 354.4,146.1 		"/>
	</g>
	<g>
		<polygon class="st17" points="296.3,401.4 238.2,367.9 238.2,300.8 296.3,267.2 354.4,300.8 354.4,367.9 		"/>
	</g>
</g>
<g id="service">
	<g>
		<g>
			<path class="st18" d="M295.1,154.7c0.4,0,0.8,0,1.2,0v0h1.2"/>
			<line class="st19" x1="299" y1="154.7" x2="444.7" y2="154.7"/>
			<path class="st18" d="M445.5,154.7h1.2v0c0.4,0,0.8,0,1.2,0"/>
			<path class="st20" d="M449.5,154.7c24.1-1.5,43.3-21.5,43.3-46c0-25.4-20.7-46.1-46.1-46.1H296.3c-25.4,0-46.1,20.7-46.1,46.1
				c0,24.8,19.6,45,44.1,46.1"/>
		</g>
	</g>
	<path class="st21" d="M295.6,384.5c-25.4,0-46.1-20.7-46.1-46.1c0-25.4,20.7-46.1,46.1-46.1c25.4,0,46.1,20.7,46.1,46.1
		C341.8,363.8,321.1,384.5,295.6,384.5z"/>
</g>
<g id="pods">
	<circle class="st26" cx="295.6" cy="338.3" r="34.1"/>
	<circle class="st22" cx="295.6" cy="338.3" r="34.1"/>
	<circle class="st28" cx="400.2" cy="108.6" r="20.5"/>
	<circle class="st28" cx="446.7" cy="108.6" r="20.5"/>
	<circle class="st28" cx="296.3" cy="108.6" r="34.1"/>
	<circle class="st18" cx="400.2" cy="108.6" r="20.5"/>
	<circle class="st18" cx="446.7" cy="108.6" r="20.5"/>
	<circle class="st18" cx="296.3" cy="108.6" r="34.1"/>
</g>
<g id="IP">
	<g>
		<path class="st42" d="M247.8,313.2l-0.4,0.9l-0.9-0.2c-0.1,0.1-0.3,0.2-0.4,0.4c-0.1,0.2-0.3,0.4-0.4,0.6
			c-0.2,0.3-0.2,0.6-0.2,0.9s0.2,0.4,0.4,0.5c0.2,0.1,0.4,0.1,0.7,0c0.2-0.1,0.5-0.4,0.9-0.8c0.5-0.6,1-1,1.5-1.2s1-0.2,1.5,0
			c0.5,0.2,0.8,0.7,1,1.2c0.1,0.6,0,1.2-0.3,1.9c-0.2,0.5-0.5,0.9-0.9,1.2s-0.7,0.5-1.1,0.7l-1.3-0.6l0.5-1l0.9,0.3
			c0.2-0.1,0.3-0.2,0.5-0.4c0.2-0.2,0.3-0.4,0.4-0.7c0.2-0.3,0.2-0.6,0.2-0.9c-0.1-0.2-0.2-0.4-0.4-0.5c-0.2-0.1-0.5-0.1-0.7,0
			c-0.2,0.1-0.5,0.3-0.8,0.7c-0.6,0.6-1.1,1.1-1.5,1.3c-0.5,0.2-1,0.2-1.5,0c-0.5-0.2-0.8-0.6-0.9-1.2c-0.1-0.6,0-1.2,0.3-1.8
			c0.2-0.5,0.5-0.9,0.8-1.2c0.3-0.3,0.7-0.6,1-0.7L247.8,313.2z"/>
		<path class="st42" d="M253.6,312.7c-0.4,0.6-0.9,1-1.5,1.1c-0.6,0.1-1.2,0-1.9-0.4l-0.2-0.1c-0.6-0.4-1.1-0.9-1.3-1.5
			c-0.2-0.6-0.1-1.2,0.2-1.8c0.4-0.6,0.8-0.9,1.4-1c0.5-0.1,1.1,0,1.7,0.4l0.6,0.4l-1.6,2.6l0,0c0.3,0.2,0.6,0.2,0.9,0.1
			c0.3-0.1,0.5-0.2,0.7-0.5c0.2-0.3,0.3-0.5,0.3-0.7s0.1-0.4,0.1-0.7l0.9,0.1c0,0.3,0,0.6-0.1,0.9C254,312,253.8,312.3,253.6,312.7z
			 M250,310.6c-0.1,0.2-0.2,0.4-0.1,0.7s0.3,0.4,0.5,0.6h0l0.9-1.4l-0.1-0.1c-0.2-0.2-0.5-0.2-0.7-0.2S250.1,310.4,250,310.6z"/>
		<path class="st42" d="M254.3,309.9l0.3-0.6l-2.5-1.9l-0.5,0.5l-0.7-0.5l1.2-1.6l0.6,0.4c-0.1-0.3-0.2-0.5-0.2-0.7s0.1-0.5,0.2-0.7
			c0-0.1,0.1-0.1,0.1-0.2c0.1-0.1,0.1-0.1,0.2-0.1l0.9,0.9l-0.3,0.4c-0.1,0.2-0.2,0.3-0.2,0.5c0,0.2,0,0.3,0.1,0.4l2,1.5l0.5-0.4
			l0.7,0.5l-1.6,2.2L254.3,309.9z"/>
		<path class="st42" d="M255.5,302.8l-0.3,0.4l2.1,1l0.4,0.3l0,0l-0.3-0.4l-1.2-2l-0.4,0.3l-0.6-0.6l1.5-1.7l0.6,0.6l-0.2,0.4
			l2.1,3.9l-0.9,1l-4.1-1.7l-0.3,0.3l-0.6-0.6l1.5-1.7L255.5,302.8z"/>
		<path class="st42" d="M258,297.4l-1,0.9l-0.7-0.7l1-0.9L258,297.4z M260.3,302.8l0.4-0.6l-2.2-2.3l-0.6,0.4l-0.6-0.6l1.5-1.4
			l2.8,3l0.6-0.3l0.6,0.6l-2,1.8L260.3,302.8z"/>
		<path class="st42" d="M264.3,299c0.2-0.2,0.3-0.3,0.3-0.5c0-0.2,0-0.4-0.2-0.6l1-0.8l0,0c0.3,0.4,0.5,0.8,0.4,1.4
			c-0.1,0.5-0.4,1-0.8,1.3c-0.6,0.5-1.2,0.7-1.8,0.5c-0.6-0.1-1.2-0.5-1.6-1.1l-0.1-0.1c-0.5-0.6-0.7-1.2-0.7-1.8
			c0-0.6,0.3-1.2,0.9-1.7c0.3-0.3,0.6-0.4,1-0.5c0.3-0.1,0.6-0.1,1-0.1l0.9,1l-0.9,0.7l-0.7-0.5c-0.1,0-0.2,0-0.3,0
			s-0.2,0.1-0.3,0.2c-0.3,0.2-0.4,0.5-0.4,0.8c0.1,0.3,0.2,0.7,0.5,1l0.1,0.1c0.3,0.4,0.6,0.6,0.9,0.7
			C263.7,299.3,264,299.3,264.3,299z"/>
		<path class="st42" d="M268.9,297c-0.6,0.4-1.2,0.5-1.9,0.4c-0.6-0.2-1.1-0.5-1.5-1.1l-0.1-0.2c-0.4-0.6-0.6-1.3-0.5-1.9
			s0.4-1.1,1-1.5c0.6-0.4,1.1-0.5,1.7-0.4c0.5,0.1,1,0.5,1.4,1.1l0.4,0.6l-2.5,1.7l0,0c0.2,0.3,0.4,0.4,0.7,0.5
			c0.3,0.1,0.6,0,0.9-0.2c0.3-0.2,0.4-0.3,0.6-0.5c0.1-0.2,0.3-0.4,0.4-0.6l0.8,0.5c-0.1,0.3-0.2,0.5-0.5,0.8
			C269.5,296.5,269.2,296.8,268.9,297z M266.5,293.5c-0.2,0.1-0.3,0.3-0.3,0.6c0,0.2,0,0.5,0.2,0.8l0,0l1.4-0.9l-0.1-0.1
			c-0.2-0.2-0.3-0.4-0.6-0.5C267,293.3,266.7,293.4,266.5,293.5z"/>
		<path class="st42" d="M272.5,293.7l0.4-0.3l-0.5-6.3l1.3-0.6l4.3,4.6l0.5-0.1l0.3,0.8l-2.1,0.9l-0.3-0.8l0.4-0.3l-0.7-0.7l-2,0.9
			l0.1,1l0.5-0.1l0.3,0.8l-2.1,0.9L272.5,293.7z M274,290.9l1.4-0.6l-1.7-1.9l0,0L274,290.9z"/>
		<path class="st42" d="M283.3,289.7l1.1-0.4l-1-4.5l-1.1,0.2l-0.2-0.8l2.4-1l1.2,5.7l1.2-0.1l0.2,0.8l-3.6,0.8L283.3,289.7z"/>
		<path class="st42" d="M291.9,286.4c0.1,0.9,0,1.6-0.4,2.1c-0.4,0.5-0.9,0.8-1.6,0.9c-0.7,0.1-1.3-0.1-1.8-0.5
			c-0.5-0.4-0.8-1.1-0.9-2l-0.2-1.5c-0.1-0.9,0-1.6,0.4-2.1s0.9-0.8,1.6-0.9c0.7-0.1,1.3,0.1,1.8,0.5c0.5,0.4,0.8,1.1,0.9,2
			L291.9,286.4z M290.4,284.9c-0.1-0.5-0.2-0.9-0.4-1.2c-0.2-0.2-0.4-0.3-0.7-0.3c-0.3,0-0.5,0.2-0.7,0.5s-0.2,0.7-0.1,1.2l0.2,1.8
			c0.1,0.5,0.2,0.9,0.4,1.2s0.4,0.3,0.7,0.3c0.3,0,0.5-0.2,0.7-0.5c0.1-0.3,0.2-0.7,0.1-1.2L290.4,284.9z"/>
		<path class="st42" d="M294.5,289l-1.4,0.1l0-1.2l1.4-0.1L294.5,289z"/>
		<path class="st42" d="M295.2,288.1l1.2-0.1l0.1-4.6l-1.2,0l0-0.8l2.5-0.4l-0.2,5.9l1.1,0.2l0,0.8l-3.7-0.1L295.2,288.1z"/>
		<path class="st42" d="M304.3,287c-0.1,0.9-0.4,1.6-0.9,2c-0.5,0.4-1.1,0.6-1.8,0.5c-0.7-0.1-1.2-0.4-1.6-0.9s-0.5-1.2-0.4-2.1
			l0.2-1.5c0.1-0.9,0.4-1.5,0.9-2c0.5-0.4,1.1-0.6,1.8-0.5c0.7,0.1,1.2,0.4,1.6,0.9c0.4,0.5,0.5,1.2,0.4,2.1L304.3,287z
			 M303.2,285.2c0.1-0.5,0-0.9-0.1-1.2c-0.1-0.3-0.3-0.4-0.7-0.5c-0.3,0-0.6,0.1-0.7,0.3c-0.2,0.2-0.3,0.6-0.4,1.2l-0.2,1.8
			c-0.1,0.5,0,1,0.1,1.2c0.1,0.3,0.3,0.4,0.7,0.5c0.3,0,0.5-0.1,0.7-0.3c0.2-0.2,0.3-0.6,0.4-1.2L303.2,285.2z"/>
		<path class="st42" d="M306.2,290.1l-1.3-0.3l0.2-1.2l1.3,0.3L306.2,290.1z"/>
		<path class="st42" d="M309.1,289.9c0.4,0.1,0.7,0,1-0.2c0.3-0.2,0.5-0.6,0.7-1.1l0-0.1c-0.2,0.1-0.4,0.2-0.7,0.3
			c-0.2,0-0.5,0-0.7,0c-0.6-0.2-1-0.5-1.3-1c-0.2-0.5-0.3-1.1,0-1.8c0.2-0.7,0.6-1.2,1.1-1.5c0.5-0.3,1.1-0.4,1.8-0.2
			c0.7,0.2,1.1,0.6,1.4,1.2c0.3,0.6,0.3,1.3,0.1,2.1l-0.4,1.4c-0.2,0.9-0.7,1.4-1.3,1.8c-0.6,0.3-1.3,0.4-2,0.2
			c-0.2-0.1-0.5-0.2-0.7-0.3c-0.2-0.1-0.4-0.2-0.6-0.4l0.4-0.9c0.2,0.1,0.4,0.2,0.5,0.3C308.7,289.7,308.9,289.8,309.1,289.9z
			 M309.9,287.8c0.2,0.1,0.4,0.1,0.6,0c0.2,0,0.3-0.1,0.5-0.2l0.2-0.7c0.1-0.5,0.2-0.9,0.1-1.2c-0.1-0.3-0.3-0.5-0.6-0.6
			c-0.3-0.1-0.5,0-0.8,0.2c-0.2,0.2-0.4,0.5-0.5,0.9c-0.1,0.4-0.1,0.7,0,1C309.4,287.6,309.6,287.8,309.9,287.8z"/>
		<path class="st42" d="M313.4,292.3l-1.3-0.5l0.4-1.1l1.3,0.5L313.4,292.3z"/>
		<path class="st42" d="M314.4,291.8l1.1,0.3l1.9-4.2l-1.1-0.5l0.3-0.7l2.5,0.6l-2.4,5.4l1,0.6l-0.3,0.7l-3.3-1.5L314.4,291.8z"/>
	</g>
	<g>
		<path class="st42" d="M324.6,54.6h-1l-0.2-0.9c-0.1-0.1-0.3-0.1-0.5-0.2c-0.2-0.1-0.5-0.1-0.7-0.1c-0.4,0-0.7,0.1-0.9,0.2
			c-0.2,0.2-0.3,0.4-0.3,0.6c0,0.2,0.1,0.4,0.3,0.6s0.6,0.3,1.1,0.5c0.8,0.2,1.3,0.5,1.7,0.8c0.4,0.3,0.6,0.8,0.6,1.4
			c0,0.6-0.2,1-0.7,1.4s-1.1,0.5-1.8,0.5c-0.5,0-1-0.1-1.5-0.3s-0.8-0.4-1.1-0.7V57h1.1l0.1,1c0.1,0.1,0.3,0.2,0.6,0.3
			c0.2,0.1,0.5,0.1,0.8,0.1c0.4,0,0.7-0.1,0.9-0.2c0.2-0.2,0.3-0.4,0.3-0.6c0-0.3-0.1-0.5-0.3-0.6c-0.2-0.2-0.5-0.3-1-0.5
			c-0.8-0.2-1.4-0.5-1.8-0.8c-0.4-0.3-0.6-0.8-0.6-1.3c0-0.6,0.2-1,0.7-1.4s1.1-0.5,1.8-0.5c0.5,0,1,0.1,1.4,0.2s0.8,0.4,1.1,0.6
			V54.6z"/>
		<path class="st42" d="M327.7,59.4c-0.7,0-1.3-0.2-1.8-0.7s-0.7-1.1-0.7-1.8v-0.2c0-0.8,0.2-1.4,0.6-1.9c0.4-0.5,1-0.7,1.7-0.7
			c0.7,0,1.2,0.2,1.6,0.6s0.6,1,0.6,1.7v0.7h-3l0,0c0,0.3,0.1,0.6,0.3,0.8c0.2,0.2,0.5,0.3,0.8,0.3c0.3,0,0.6,0,0.8-0.1
			c0.2-0.1,0.4-0.2,0.7-0.3l0.4,0.8c-0.2,0.2-0.5,0.3-0.8,0.4S328.1,59.4,327.7,59.4z M327.6,55.2c-0.3,0-0.5,0.1-0.6,0.3
			c-0.1,0.2-0.2,0.4-0.3,0.8l0,0h1.7v-0.1c0-0.3-0.1-0.5-0.2-0.7C328.1,55.3,327.9,55.2,327.6,55.2z"/>
		<path class="st42" d="M330.5,58.5l0.7-0.1v-3.1l-0.7-0.1v-0.8h2l0.1,0.7c0.1-0.3,0.3-0.5,0.5-0.6s0.4-0.2,0.7-0.2
			c0.1,0,0.1,0,0.2,0c0.1,0,0.1,0,0.2,0l-0.1,1.2l-0.6,0c-0.2,0-0.4,0-0.5,0.1c-0.1,0.1-0.2,0.2-0.3,0.3v2.5l0.7,0.1v0.8h-2.7V58.5z
			"/>
		<path class="st42" d="M336.7,55l-0.5,0.1l0.7,2.3l0.1,0.5h0l0.1-0.5l0.7-2.3l-0.5-0.1v-0.8h2.3V55l-0.4,0.1l-1.5,4.2h-1.3
			l-1.5-4.2l-0.4-0.1v-0.8h2.3V55z"/>
		<path class="st42" d="M340,58.5l0.7-0.1v-3.1l-0.7-0.1v-0.8h2.1v4.1l0.7,0.1v0.8H340V58.5z M342,53h-1.4v-1h1.4V53z"/>
		<path class="st42" d="M345.5,58.3c0.2,0,0.4-0.1,0.6-0.2c0.1-0.1,0.2-0.3,0.2-0.6h1.2l0,0c0,0.5-0.2,0.9-0.6,1.3
			c-0.4,0.3-0.9,0.5-1.5,0.5c-0.8,0-1.3-0.2-1.7-0.7c-0.4-0.5-0.6-1.1-0.6-1.8v-0.1c0-0.7,0.2-1.4,0.6-1.8c0.4-0.5,1-0.7,1.8-0.7
			c0.4,0,0.8,0.1,1.1,0.2c0.3,0.1,0.6,0.3,0.8,0.5l0,1.4h-1.1l-0.2-0.8c-0.1-0.1-0.2-0.1-0.3-0.1c-0.1,0-0.2-0.1-0.3-0.1
			c-0.4,0-0.7,0.1-0.8,0.4s-0.2,0.6-0.2,1.1v0.1c0,0.5,0.1,0.8,0.2,1.1C344.9,58.2,345.1,58.3,345.5,58.3z"/>
		<path class="st42" d="M350.6,59.4c-0.7,0-1.3-0.2-1.8-0.7s-0.7-1.1-0.7-1.8v-0.2c0-0.8,0.2-1.4,0.6-1.9c0.4-0.5,1-0.7,1.7-0.7
			c0.7,0,1.2,0.2,1.6,0.6s0.6,1,0.6,1.7v0.7h-3l0,0c0,0.3,0.1,0.6,0.3,0.8c0.2,0.2,0.5,0.3,0.8,0.3c0.3,0,0.6,0,0.8-0.1
			c0.2-0.1,0.4-0.2,0.7-0.3l0.4,0.8c-0.2,0.2-0.5,0.3-0.8,0.4S351,59.4,350.6,59.4z M350.5,55.2c-0.3,0-0.5,0.1-0.6,0.3
			c-0.1,0.2-0.2,0.4-0.3,0.8l0,0h1.7v-0.1c0-0.3-0.1-0.5-0.2-0.7C351,55.3,350.8,55.2,350.5,55.2z"/>
		<path class="st42" d="M358.7,52.5c0.8,0,1.4,0.2,1.9,0.5s0.7,0.8,0.7,1.4c0,0.3-0.1,0.6-0.2,0.8c-0.2,0.2-0.4,0.4-0.7,0.6
			c0.4,0.1,0.7,0.3,0.9,0.6c0.2,0.3,0.3,0.6,0.3,1c0,0.7-0.2,1.1-0.6,1.5c-0.4,0.3-1,0.5-1.8,0.5h-3.4v-0.8l0.7-0.1v-4.9l-0.7-0.1
			v-0.8h0.7H358.7z M357.7,55.3h1c0.4,0,0.6-0.1,0.8-0.2c0.2-0.2,0.3-0.4,0.3-0.7c0-0.3-0.1-0.5-0.3-0.7s-0.5-0.2-0.9-0.2h-0.9V55.3
			z M357.7,56.3v2h1.3c0.4,0,0.6-0.1,0.8-0.2s0.3-0.4,0.3-0.7c0-0.3-0.1-0.6-0.2-0.8c-0.2-0.2-0.4-0.3-0.8-0.3H357.7z"/>
		<path class="st42" d="M364.4,58.5l1.2-0.1v-4.6h-1.2v-0.8l2.5-0.5v5.9l1.2,0.1v0.8h-3.7V58.5z"/>
		<path class="st42" d="M373.4,56.6c0,0.9-0.2,1.6-0.6,2.1c-0.4,0.5-1,0.7-1.7,0.7c-0.7,0-1.3-0.2-1.7-0.7c-0.4-0.5-0.6-1.2-0.6-2.1
			v-1.5c0-0.9,0.2-1.6,0.6-2.1c0.4-0.5,1-0.7,1.7-0.7c0.7,0,1.3,0.2,1.7,0.7c0.4,0.5,0.6,1.2,0.6,2.1V56.6z M372,55
			c0-0.5-0.1-0.9-0.2-1.2c-0.2-0.3-0.4-0.4-0.7-0.4c-0.3,0-0.5,0.1-0.7,0.4s-0.2,0.6-0.2,1.2v1.8c0,0.5,0.1,0.9,0.2,1.2
			c0.2,0.2,0.4,0.4,0.7,0.4c0.3,0,0.5-0.1,0.7-0.4s0.2-0.6,0.2-1.2V55z"/>
		<path class="st42" d="M375.7,59.3h-1.4v-1.2h1.4V59.3z"/>
		<path class="st42" d="M376.5,58.5l1.2-0.1v-4.6h-1.2v-0.8l2.5-0.5v5.9l1.2,0.1v0.8h-3.7V58.5z"/>
		<path class="st42" d="M385.6,56.6c0,0.9-0.2,1.6-0.6,2.1c-0.4,0.5-1,0.7-1.7,0.7c-0.7,0-1.3-0.2-1.7-0.7c-0.4-0.5-0.6-1.2-0.6-2.1
			v-1.5c0-0.9,0.2-1.6,0.6-2.1c0.4-0.5,1-0.7,1.7-0.7c0.7,0,1.3,0.2,1.7,0.7c0.4,0.5,0.6,1.2,0.6,2.1V56.6z M384.2,55
			c0-0.5-0.1-0.9-0.2-1.2c-0.2-0.3-0.4-0.4-0.7-0.4c-0.3,0-0.5,0.1-0.7,0.4s-0.2,0.6-0.2,1.2v1.8c0,0.5,0.1,0.9,0.2,1.2
			c0.2,0.2,0.4,0.4,0.7,0.4c0.3,0,0.5-0.1,0.7-0.4s0.2-0.6,0.2-1.2V55z"/>
		<path class="st42" d="M387.9,59.3h-1.4v-1.2h1.4V59.3z"/>
		<path class="st42" d="M390.8,58.3c0.4,0,0.7-0.1,0.9-0.4s0.3-0.7,0.3-1.3v-0.1c-0.2,0.2-0.3,0.3-0.5,0.4s-0.4,0.2-0.7,0.2
			c-0.6,0-1.1-0.2-1.5-0.6c-0.4-0.4-0.5-1-0.5-1.7c0-0.7,0.2-1.3,0.6-1.7s1-0.7,1.6-0.7c0.7,0,1.3,0.2,1.7,0.7
			c0.4,0.5,0.7,1.2,0.7,2v1.5c0,0.9-0.2,1.6-0.7,2.1c-0.5,0.5-1.1,0.7-1.9,0.7c-0.2,0-0.5,0-0.7-0.1c-0.3,0-0.5-0.1-0.7-0.2l0.2-1
			c0.2,0.1,0.4,0.1,0.6,0.2C390.3,58.3,390.5,58.3,390.8,58.3z M391,56.2c0.2,0,0.4,0,0.6-0.1c0.2-0.1,0.3-0.2,0.4-0.3V55
			c0-0.5-0.1-0.9-0.3-1.1c-0.2-0.3-0.4-0.4-0.7-0.4c-0.3,0-0.5,0.1-0.7,0.4c-0.2,0.3-0.3,0.6-0.3,1c0,0.4,0.1,0.7,0.2,1
			C390.5,56,390.7,56.2,391,56.2z"/>
		<path class="st42" d="M395.8,59.3h-1.4v-1.2h1.4V59.3z"/>
		<path class="st42" d="M396.6,59.3v-0.9l2.2-2.4c0.3-0.4,0.5-0.7,0.7-0.9c0.1-0.3,0.2-0.5,0.2-0.7c0-0.3-0.1-0.5-0.2-0.7
			c-0.2-0.2-0.4-0.3-0.7-0.3c-0.3,0-0.6,0.1-0.7,0.3c-0.2,0.2-0.2,0.5-0.2,0.9h-1.3l0,0c0-0.6,0.2-1.1,0.6-1.6
			c0.4-0.4,1-0.6,1.7-0.6c0.7,0,1.3,0.2,1.7,0.5s0.6,0.9,0.6,1.5c0,0.4-0.1,0.8-0.3,1.1c-0.2,0.3-0.6,0.8-1.1,1.4l-1.2,1.3l0,0h1.8
			l0.1-0.7h1v1.7H396.6z"/>
	</g>
	<g>
		<path class="st42" d="M381.2,95.3l0.5-0.8l-3.4-2.6l-0.5,0.9l-0.2-0.2l0.6-1.3l3.8,2.9l0.6-0.7l0.2,0.2l-1.4,1.8L381.2,95.3z"/>
		<path class="st42" d="M384.1,89.6c0.5,0.5,0.7,0.9,0.8,1.4c0,0.5-0.1,0.8-0.5,1.2c-0.4,0.3-0.8,0.5-1.2,0.4s-0.9-0.3-1.4-0.8
			L381,91c-0.5-0.5-0.7-0.9-0.8-1.4c0-0.5,0.1-0.9,0.5-1.2c0.4-0.3,0.8-0.5,1.2-0.4s0.9,0.3,1.4,0.8L384.1,89.6z M382.9,89
			c-0.4-0.4-0.7-0.6-1.1-0.7c-0.3-0.1-0.6,0-0.9,0.3c-0.3,0.3-0.4,0.6-0.3,0.9s0.3,0.7,0.6,1.1l0.9,0.9c0.4,0.4,0.7,0.6,1.1,0.7
			c0.3,0.1,0.7,0,0.9-0.3c0.3-0.3,0.4-0.6,0.3-0.9c-0.1-0.3-0.3-0.7-0.6-1.1L382.9,89z"/>
		<path class="st42" d="M386.5,90.3l-0.4,0.3l-0.3-0.5l0.4-0.3L386.5,90.3z"/>
		<path class="st42" d="M387.1,89.4l0.8-0.5l-2.3-3.7l-0.8,0.7l-0.2-0.3l1.1-1l2.5,4.1l0.8-0.4l0.2,0.3l-1.9,1.2L387.1,89.4z"/>
		<path class="st42" d="M391.8,85.2c0.3,0.6,0.3,1.1,0.2,1.6s-0.4,0.8-0.9,1c-0.5,0.2-0.9,0.2-1.3,0s-0.7-0.6-1-1.2l-0.5-1
			c-0.3-0.6-0.3-1.1-0.2-1.6c0.1-0.4,0.4-0.8,0.9-1c0.5-0.2,0.9-0.2,1.3,0c0.4,0.2,0.7,0.6,1,1.2L391.8,85.2z M390.9,84.2
			c-0.2-0.5-0.5-0.8-0.8-1c-0.3-0.2-0.6-0.2-1,0c-0.3,0.2-0.6,0.4-0.6,0.7c-0.1,0.3,0,0.7,0.2,1.2l0.5,1.2c0.2,0.5,0.5,0.8,0.8,1
			c0.3,0.2,0.6,0.2,1,0c0.3-0.2,0.6-0.4,0.6-0.7c0.1-0.3,0-0.8-0.2-1.2L390.9,84.2z"/>
		<path class="st42" d="M393.8,86.6l-0.5,0.1l-0.2-0.6l0.5-0.1L393.8,86.6z"/>
		<path class="st42" d="M394.7,86.1l0.9-0.2l-0.8-4.2l-1,0.3l-0.1-0.3l1.3-0.6l0.9,4.7l0.9-0.1l0.1,0.3l-2.2,0.4L394.7,86.1z"/>
		<path class="st42" d="M400.5,83.7c0,0.7-0.1,1.2-0.3,1.5c-0.3,0.4-0.6,0.6-1.1,0.6c-0.5,0-0.9-0.1-1.2-0.5
			c-0.3-0.3-0.5-0.8-0.5-1.5l-0.1-1.1c0-0.7,0.1-1.2,0.3-1.5c0.3-0.4,0.6-0.6,1.1-0.6c0.5,0,0.9,0.1,1.2,0.5s0.5,0.8,0.5,1.5
			L400.5,83.7z M400,82.5c0-0.5-0.1-0.9-0.4-1.2c-0.2-0.3-0.5-0.4-0.9-0.4c-0.4,0-0.7,0.2-0.8,0.5c-0.2,0.3-0.3,0.7-0.2,1.2l0.1,1.3
			c0,0.5,0.1,0.9,0.4,1.2s0.5,0.4,0.9,0.4c0.4,0,0.7-0.2,0.8-0.5c0.2-0.3,0.3-0.7,0.2-1.2L400,82.5z"/>
		<path class="st42" d="M401.9,85.8l-0.5,0l0-0.6l0.5,0L401.9,85.8z"/>
		<path class="st42" d="M405.7,84.7l0.8,0.1l-0.1,0.3l-0.8-0.1l-0.2,0.9l0.6,0.2l-0.1,0.3l-1.5-0.3l0.1-0.3l0.6,0.1l0.2-0.9
			l-2.4-0.4l0-0.2l3-3.1l0.5,0.1L405.7,84.7z M403.5,84.3l1.9,0.4l0.5-2.9l0,0l-0.2,0.3L403.5,84.3z"/>
	</g>
	<g>
		<path class="st42" d="M427.7,95.3l0.5-0.8l-3.4-2.6l-0.5,0.9l-0.2-0.2l0.6-1.3l3.8,2.9l0.6-0.7l0.2,0.2l-1.4,1.8L427.7,95.3z"/>
		<path class="st42" d="M430.6,89.6c0.5,0.5,0.7,0.9,0.8,1.4c0,0.5-0.1,0.8-0.5,1.2c-0.4,0.3-0.8,0.5-1.2,0.4s-0.9-0.3-1.4-0.8
			l-0.8-0.8c-0.5-0.5-0.7-0.9-0.8-1.4c0-0.5,0.1-0.9,0.5-1.2c0.4-0.3,0.8-0.5,1.2-0.4s0.9,0.3,1.4,0.8L430.6,89.6z M429.4,89
			c-0.4-0.4-0.7-0.6-1.1-0.7c-0.3-0.1-0.6,0-0.9,0.3c-0.3,0.3-0.4,0.6-0.3,0.9s0.3,0.7,0.6,1.1l0.9,0.9c0.4,0.4,0.7,0.6,1.1,0.7
			c0.3,0.1,0.7,0,0.9-0.3c0.3-0.3,0.4-0.6,0.3-0.9c-0.1-0.3-0.3-0.7-0.6-1.1L429.4,89z"/>
		<path class="st42" d="M433,90.3l-0.4,0.3l-0.3-0.5l0.4-0.3L433,90.3z"/>
		<path class="st42" d="M433.6,89.4l0.8-0.5l-2.3-3.7l-0.8,0.7l-0.2-0.3l1.1-1l2.5,4.1l0.8-0.4l0.2,0.3l-1.9,1.2L433.6,89.4z"/>
		<path class="st42" d="M438.3,85.2c0.3,0.6,0.3,1.1,0.2,1.6s-0.4,0.8-0.9,1c-0.5,0.2-0.9,0.2-1.3,0s-0.7-0.6-1-1.2l-0.5-1
			c-0.3-0.6-0.3-1.1-0.2-1.6c0.1-0.4,0.4-0.8,0.9-1c0.5-0.2,0.9-0.2,1.3,0c0.4,0.2,0.7,0.6,1,1.2L438.3,85.2z M437.4,84.2
			c-0.2-0.5-0.5-0.8-0.8-1c-0.3-0.2-0.6-0.2-1,0c-0.3,0.2-0.6,0.4-0.6,0.7c-0.1,0.3,0,0.7,0.2,1.2l0.5,1.2c0.2,0.5,0.5,0.8,0.8,1
			c0.3,0.2,0.6,0.2,1,0c0.3-0.2,0.6-0.4,0.6-0.7c0.1-0.3,0-0.8-0.2-1.2L437.4,84.2z"/>
		<path class="st42" d="M440.3,86.6l-0.5,0.1l-0.2-0.6l0.5-0.1L440.3,86.6z"/>
		<path class="st42" d="M441.2,86.1l0.9-0.2l-0.8-4.2l-1,0.3l-0.1-0.3l1.3-0.6l0.9,4.7l0.9-0.1l0.1,0.3l-2.2,0.4L441.2,86.1z"/>
		<path class="st42" d="M447,83.7c0,0.7-0.1,1.2-0.3,1.5c-0.3,0.4-0.6,0.6-1.1,0.6c-0.5,0-0.9-0.1-1.2-0.5c-0.3-0.3-0.5-0.8-0.5-1.5
			l-0.1-1.1c0-0.7,0.1-1.2,0.3-1.5c0.3-0.4,0.6-0.6,1.1-0.6c0.5,0,0.9,0.1,1.2,0.5s0.5,0.8,0.5,1.5L447,83.7z M446.5,82.5
			c0-0.5-0.1-0.9-0.4-1.2c-0.2-0.3-0.5-0.4-0.9-0.4c-0.4,0-0.7,0.2-0.8,0.5c-0.2,0.3-0.3,0.7-0.2,1.2l0.1,1.3c0,0.5,0.1,0.9,0.4,1.2
			s0.5,0.4,0.9,0.4c0.4,0,0.7-0.2,0.8-0.5c0.2-0.3,0.3-0.7,0.2-1.2L446.5,82.5z"/>
		<path class="st42" d="M448.4,85.8l-0.5,0l0-0.6l0.5,0L448.4,85.8z"/>
		<path class="st42" d="M450.7,83.2l0.5,0.1c0.4,0.1,0.7,0,0.9-0.1s0.4-0.4,0.4-0.7c0.1-0.3,0-0.6-0.1-0.8c-0.1-0.2-0.4-0.4-0.7-0.4
			c-0.3-0.1-0.6,0-0.8,0.1s-0.4,0.4-0.4,0.7l-0.4-0.1l0,0c0.1-0.4,0.3-0.7,0.6-0.9c0.3-0.2,0.7-0.3,1.2-0.2c0.4,0.1,0.8,0.3,1,0.6
			c0.2,0.3,0.3,0.7,0.2,1.1c0,0.2-0.2,0.4-0.3,0.6c-0.2,0.2-0.4,0.3-0.7,0.4c0.3,0.1,0.5,0.3,0.6,0.6c0.1,0.2,0.1,0.5,0.1,0.8
			c-0.1,0.4-0.3,0.8-0.6,1c-0.3,0.2-0.7,0.3-1.2,0.2c-0.4-0.1-0.8-0.3-1.1-0.6c-0.3-0.3-0.4-0.7-0.3-1.1l0,0l0.4,0.1
			c-0.1,0.3,0,0.6,0.2,0.8c0.2,0.2,0.5,0.4,0.8,0.5c0.4,0.1,0.7,0,0.9-0.1c0.2-0.1,0.4-0.4,0.4-0.7c0.1-0.4,0-0.6-0.2-0.8
			c-0.2-0.2-0.5-0.3-0.9-0.4l-0.5-0.1L450.7,83.2z"/>
	</g>
	<g>
		<path class="st42" d="M262.8,93.2l0.4-0.8l-3.9-1.9l-0.3,1l-0.3-0.1l0.4-1.4l4.3,2.1l0.5-0.8l0.3,0.1l-1,2L262.8,93.2z"/>
		<path class="st42" d="M264.3,87c0.6,0.3,0.9,0.7,1.1,1.2c0.2,0.4,0.1,0.9-0.2,1.3c-0.3,0.4-0.6,0.7-1.1,0.7
			c-0.5,0.1-1-0.1-1.5-0.4l-1-0.6c-0.6-0.3-0.9-0.7-1.1-1.2c-0.2-0.4-0.1-0.9,0.2-1.3c0.3-0.4,0.6-0.7,1.1-0.7
			c0.5-0.1,1,0.1,1.5,0.4L264.3,87z M263.1,86.7c-0.4-0.3-0.8-0.4-1.2-0.4c-0.3,0-0.6,0.2-0.8,0.5c-0.2,0.3-0.2,0.6-0.1,1
			c0.1,0.3,0.4,0.6,0.9,0.9l1.1,0.7c0.4,0.3,0.8,0.4,1.2,0.4c0.4,0,0.6-0.2,0.8-0.5c0.2-0.3,0.2-0.6,0.1-1c-0.1-0.3-0.4-0.6-0.9-0.9
			L263.1,86.7z"/>
		<path class="st42" d="M266.8,87l-0.3,0.4l-0.5-0.3l0.3-0.4L266.8,87z"/>
		<path class="st42" d="M267.2,86l0.5-0.7l-3.3-2.7l-0.5,0.9l-0.2-0.2l0.7-1.3l3.7,3l0.6-0.7l0.2,0.2l-1.4,1.7L267.2,86z"/>
		<path class="st42" d="M270.1,80.3c0.5,0.5,0.7,0.9,0.8,1.4c0.1,0.4-0.1,0.9-0.4,1.2c-0.3,0.4-0.8,0.5-1.2,0.5
			c-0.5-0.1-0.9-0.3-1.4-0.8l-0.8-0.8c-0.5-0.5-0.7-0.9-0.8-1.4c-0.1-0.5,0.1-0.9,0.4-1.2c0.4-0.4,0.8-0.5,1.2-0.5
			c0.5,0.1,0.9,0.3,1.4,0.8L270.1,80.3z M268.9,79.8c-0.4-0.4-0.7-0.6-1.1-0.6c-0.3-0.1-0.6,0.1-0.9,0.3c-0.3,0.3-0.4,0.6-0.3,0.9
			c0.1,0.3,0.3,0.7,0.6,1.1l0.9,0.9c0.4,0.4,0.7,0.6,1.1,0.6c0.3,0.1,0.7,0,0.9-0.3c0.3-0.3,0.4-0.6,0.3-0.9
			c-0.1-0.3-0.3-0.7-0.6-1.1L268.9,79.8z"/>
		<path class="st42" d="M272.5,80.9l-0.4,0.3l-0.4-0.4l0.4-0.3L272.5,80.9z"/>
		<path class="st42" d="M273.1,80l0.7-0.6l-2.6-3.4l-0.7,0.7l-0.2-0.2l0.9-1.1l2.9,3.8l0.8-0.5l0.2,0.2l-1.8,1.4L273.1,80z"/>
		<path class="st42" d="M277.1,75.1c0.4,0.6,0.5,1.1,0.5,1.5c0,0.5-0.3,0.8-0.7,1.1c-0.4,0.3-0.8,0.3-1.3,0.2
			c-0.4-0.2-0.8-0.5-1.2-1.1l-0.6-1c-0.4-0.6-0.5-1.1-0.5-1.5s0.3-0.8,0.7-1.1c0.4-0.3,0.8-0.3,1.3-0.2c0.4,0.2,0.8,0.5,1.2,1.1
			L277.1,75.1z M276.1,74.3c-0.3-0.4-0.6-0.7-0.9-0.9c-0.3-0.1-0.6-0.1-1,0.1c-0.3,0.2-0.5,0.5-0.5,0.8c0,0.3,0.1,0.7,0.4,1.2
			l0.7,1.1c0.3,0.4,0.6,0.7,0.9,0.9c0.3,0.1,0.6,0.1,1-0.1c0.3-0.2,0.5-0.5,0.5-0.8c0-0.3-0.1-0.7-0.4-1.2L276.1,74.3z"/>
		<path class="st42" d="M279.4,76.2l-0.4,0.2l-0.3-0.5l0.4-0.2L279.4,76.2z"/>
		<path class="st42" d="M280.2,75.7l-0.1-0.3l0.8-2.4c0.1-0.4,0.2-0.8,0.3-1.1c0-0.3,0-0.5-0.1-0.7c-0.1-0.3-0.3-0.5-0.6-0.6
			c-0.2-0.1-0.5-0.1-0.8,0c-0.4,0.2-0.6,0.4-0.7,0.7c-0.1,0.3-0.1,0.6,0.1,0.9l-0.4,0.2l0,0c-0.2-0.4-0.2-0.8-0.1-1.2
			c0.1-0.4,0.4-0.7,0.9-0.9c0.4-0.2,0.8-0.2,1.1-0.1s0.6,0.4,0.8,0.8c0.1,0.3,0.1,0.6,0.1,0.9c0,0.3-0.1,0.7-0.3,1.2l-0.7,2l0,0
			l2-0.9l-0.3-0.7l0.3-0.1l0.4,1L280.2,75.7z"/>
	</g>
	<g>
		<path class="st42" d="M262.2,322.9l0.4-0.8l-3.9-1.9l-0.3,1l-0.3-0.1l0.4-1.4l4.3,2.1l0.5-0.8l0.3,0.1l-1,2L262.2,322.9z"/>
		<path class="st42" d="M263.7,316.7c0.6,0.3,0.9,0.7,1.1,1.2s0.1,0.9-0.2,1.3c-0.3,0.4-0.6,0.7-1.1,0.7c-0.5,0.1-1-0.1-1.5-0.4
			l-1-0.6c-0.6-0.3-0.9-0.7-1.1-1.2c-0.2-0.4-0.1-0.9,0.2-1.3c0.3-0.4,0.6-0.7,1.1-0.7c0.5-0.1,1,0.1,1.5,0.4L263.7,316.7z
			 M262.5,316.5c-0.4-0.3-0.8-0.4-1.2-0.4c-0.3,0-0.6,0.2-0.8,0.5c-0.2,0.3-0.2,0.6-0.1,1c0.1,0.3,0.4,0.6,0.9,0.9l1.1,0.7
			c0.4,0.3,0.8,0.4,1.2,0.4c0.4,0,0.6-0.2,0.8-0.5c0.2-0.3,0.2-0.6,0.1-1s-0.4-0.6-0.9-0.9L262.5,316.5z"/>
		<path class="st42" d="M266.2,316.7l-0.3,0.4l-0.5-0.3l0.3-0.4L266.2,316.7z"/>
		<path class="st42" d="M266.5,315.7l0.5-0.7l-3.3-2.7l-0.5,0.9l-0.2-0.2l0.7-1.3l3.7,3l0.6-0.7l0.2,0.2l-1.4,1.7L266.5,315.7z"/>
		<path class="st42" d="M269.4,310.1c0.5,0.5,0.7,0.9,0.8,1.4c0.1,0.4-0.1,0.9-0.4,1.2c-0.3,0.4-0.8,0.5-1.2,0.5
			c-0.5-0.1-0.9-0.3-1.4-0.8l-0.8-0.8c-0.5-0.5-0.7-0.9-0.8-1.4c-0.1-0.5,0.1-0.9,0.4-1.2c0.4-0.4,0.8-0.5,1.2-0.5
			c0.5,0.1,0.9,0.3,1.4,0.8L269.4,310.1z M268.3,309.5c-0.4-0.4-0.7-0.6-1.1-0.6c-0.3-0.1-0.6,0-0.9,0.3c-0.3,0.3-0.4,0.6-0.3,0.9
			c0.1,0.3,0.3,0.7,0.6,1.1l0.9,0.9c0.4,0.4,0.7,0.6,1.1,0.6c0.3,0.1,0.7,0,0.9-0.3c0.3-0.3,0.4-0.6,0.3-0.9s-0.3-0.7-0.6-1.1
			L268.3,309.5z"/>
		<path class="st42" d="M271.9,310.6l-0.4,0.3l-0.4-0.4l0.4-0.3L271.9,310.6z"/>
		<path class="st42" d="M272.4,309.7l0.7-0.6l-2.6-3.4l-0.7,0.7l-0.2-0.2l0.9-1.1l2.9,3.8l0.8-0.5l0.2,0.2l-1.8,1.4L272.4,309.7z"/>
		<path class="st42" d="M276.5,304.9c0.4,0.6,0.5,1.1,0.5,1.5c0,0.5-0.3,0.8-0.7,1.1c-0.4,0.3-0.8,0.3-1.3,0.2s-0.8-0.5-1.2-1.1
			l-0.6-1c-0.4-0.6-0.5-1.1-0.5-1.5c0-0.5,0.3-0.8,0.7-1.1c0.4-0.3,0.8-0.3,1.3-0.2c0.4,0.2,0.8,0.5,1.2,1.1L276.5,304.9z
			 M275.5,304.1c-0.3-0.4-0.6-0.7-0.9-0.9c-0.3-0.1-0.6-0.1-1,0.1c-0.3,0.2-0.5,0.5-0.5,0.8c0,0.3,0.1,0.7,0.4,1.2l0.7,1.1
			c0.3,0.4,0.6,0.7,0.9,0.9s0.6,0.1,1-0.1c0.3-0.2,0.5-0.5,0.5-0.8c0-0.3-0.1-0.7-0.4-1.2L275.5,304.1z"/>
		<path class="st42" d="M278.8,305.9l-0.4,0.2l-0.3-0.5l0.4-0.2L278.8,305.9z"/>
		<path class="st42" d="M279.5,305.2l0.8-0.4l-1.8-3.9l-0.9,0.5l-0.1-0.3l1.2-0.9l2,4.4l0.9-0.3l0.1,0.3l-2.1,0.9L279.5,305.2z"/>
	</g>
</g>
<g id="deployments">
	<g>
		<g>
			<circle class="st45" cx="350.2" cy="241.8" r="14.1"/>
			<g>
				<g>
					<path class="st46" d="M354.6,233.5c3,1.6,5,4.7,5,8.3c0,5.2-4.2,9.4-9.4,9.4s-9.4-4.2-9.4-9.4c0-4.1,2.6-7.6,6.3-8.9"/>
					<g>
						<polygon class="st6" points="356,236.4 355,233.7 357.7,232.6 356.1,231.9 353.4,233 354.4,235.6 						"/>
					</g>
				</g>
			</g>
			<g>
				<path class="st6" d="M345,245.5l0.8-0.1l3.3-9.5h2.2l3.3,9.5l0.8,0.1v1.3h-3.7v-1.3l0.8-0.1l-0.5-1.5h-3.5l-0.5,1.5l0.8,0.1v1.3
					H345V245.5z M349,242.3h2.5l-1.2-3.8h0L349,242.3z"/>
			</g>
		</g>
		<g>
			<circle class="st49" cx="369.5" cy="211.5" r="14.1"/>
			<g>
				<g>
					<path class="st46" d="M373.9,203.2c3,1.6,5,4.7,5,8.3c0,5.2-4.2,9.4-9.4,9.4s-9.4-4.2-9.4-9.4c0-4.1,2.6-7.6,6.3-8.9"/>
					<g>
						<polygon class="st6" points="375.3,206.1 374.2,203.4 376.9,202.4 375.4,201.7 372.7,202.7 373.7,205.4 						"/>
					</g>
				</g>
			</g>
			<g>
				<path class="st6" d="M369.7,205.8c1.3,0,2.3,0.2,3,0.7c0.7,0.5,1.1,1.2,1.1,2.2c0,0.5-0.1,1-0.4,1.3c-0.3,0.4-0.7,0.7-1.2,0.9
					c0.7,0.1,1.1,0.4,1.5,0.9c0.3,0.5,0.5,1,0.5,1.6c0,1-0.3,1.8-1,2.4c-0.7,0.5-1.7,0.8-2.9,0.8h-5.3v-1.3l1.2-0.2v-7.8l-1.2-0.2
					v-1.3h1.2H369.7z M368.2,210.3h1.6c0.6,0,1-0.1,1.3-0.4c0.3-0.2,0.5-0.6,0.5-1c0-0.5-0.2-0.9-0.5-1.1c-0.3-0.2-0.8-0.4-1.4-0.4
					h-1.5V210.3z M368.2,211.8v3.1h2c0.6,0,1-0.1,1.3-0.4c0.3-0.3,0.5-0.6,0.5-1.1c0-0.5-0.1-0.9-0.4-1.2c-0.3-0.3-0.7-0.4-1.2-0.4
					H368.2z"/>
			</g>
		</g>
	</g>
</g>
<g id="containers_x2F_volumes">
	<g>
		<polygon class="st51" points="284.4,101.8 296.3,94.9 308.1,101.8 296.3,108.6 		"/>
		<polygon class="st51" points="284.4,115.4 284.4,101.8 296.3,108.6 296.3,122.3 		"/>
		<polygon class="st51" points="296.3,122.3 296.3,108.6 308.1,101.8 308.1,115.4 		"/>
	</g>
	<g>
		<polygon class="st51" points="283.8,331.5 295.6,324.6 307.5,331.5 295.6,338.3 		"/>
		<polygon class="st51" points="283.8,345.2 283.8,331.5 295.6,338.3 295.6,352 		"/>
		<polygon class="st51" points="295.6,352 295.6,338.3 307.5,331.5 307.5,345.2 		"/>
	</g>
	<g>
		<polygon class="st51" points="388.3,101.7 400.2,94.9 412.1,101.7 400.2,108.6 		"/>
		<polygon class="st51" points="388.3,115.4 388.3,101.7 400.2,108.6 400.2,122.3 		"/>
		<polygon class="st51" points="400.2,122.3 400.2,108.6 412.1,101.7 412.1,115.4 		"/>
	</g>
	<g>
		<polygon class="st51" points="434.8,101.7 446.7,94.9 458.6,101.7 446.7,108.6 		"/>
		<polygon class="st51" points="434.8,115.4 434.8,101.7 446.7,108.6 446.7,122.3 		"/>
		<polygon class="st51" points="446.7,122.3 446.7,108.6 458.6,101.7 458.6,115.4 		"/>
	</g>
</g>
<g id="labels_x2F_selectors">
</g>
<g id="description">
	<g>
		<path class="st42" d="M525.5,138.6h-0.9l-0.2-1.2c-0.2-0.1-0.4-0.3-0.7-0.4s-0.6-0.1-1-0.1c-0.6,0-1.1,0.1-1.4,0.4s-0.5,0.6-0.5,1
			c0,0.4,0.2,0.7,0.5,0.9s0.9,0.5,1.6,0.7c0.9,0.2,1.6,0.6,2,1s0.7,1,0.7,1.6c0,0.7-0.3,1.2-0.8,1.7s-1.3,0.6-2.2,0.6
			c-0.7,0-1.2-0.1-1.7-0.3s-0.9-0.5-1.2-0.8V142h0.9l0.2,1.2c0.2,0.2,0.5,0.3,0.8,0.5s0.7,0.2,1.1,0.2c0.6,0,1-0.1,1.4-0.4
			s0.5-0.6,0.5-1c0-0.4-0.1-0.7-0.4-1s-0.8-0.5-1.6-0.7c-0.9-0.2-1.6-0.5-2.1-0.9s-0.8-0.9-0.8-1.6c0-0.7,0.3-1.2,0.8-1.7
			s1.3-0.7,2.2-0.7c0.6,0,1.1,0.1,1.6,0.3s0.9,0.5,1.2,0.7V138.6z"/>
		<path class="st42" d="M529.7,144.7c-0.9,0-1.6-0.3-2.1-0.9s-0.8-1.4-0.8-2.3v-0.3c0-0.9,0.3-1.7,0.8-2.3s1.2-0.9,1.9-0.9
			c0.9,0,1.5,0.3,1.9,0.8s0.7,1.2,0.7,2.1v0.7H528l0,0c0,0.6,0.2,1.1,0.5,1.5s0.7,0.6,1.2,0.6c0.4,0,0.7-0.1,1-0.2s0.5-0.3,0.8-0.5
			l0.5,0.8c-0.2,0.2-0.5,0.4-0.9,0.6S530.2,144.7,529.7,144.7z M529.5,139c-0.4,0-0.7,0.2-1,0.5s-0.4,0.7-0.5,1.2l0,0h2.9v-0.2
			c0-0.5-0.1-0.8-0.4-1.1S530,139,529.5,139z"/>
		<path class="st42" d="M533.2,139v-0.7h2l0.1,0.9c0.2-0.3,0.4-0.6,0.7-0.8s0.6-0.3,0.9-0.3c0.1,0,0.2,0,0.3,0s0.2,0,0.2,0l-0.2,1.1
			l-0.7,0c-0.3,0-0.6,0.1-0.8,0.2s-0.4,0.3-0.5,0.6v3.6l1,0.2v0.7h-3.1v-0.7l1-0.2v-4.5L533.2,139z"/>
		<path class="st42" d="M540.5,139l-0.8,0.1l1.3,3.6l0.1,0.5h0l0.1-0.5l1.3-3.6l-0.8-0.1v-0.7h2.4v0.7l-0.5,0.1l-2.1,5.5h-0.9
			l-2.2-5.5L538,139v-0.7h2.4V139z"/>
		<path class="st42" d="M545,143.8l1-0.2v-4.5l-1-0.2v-0.7h2.1v5.4l1,0.2v0.7H545V143.8z M547.1,136.6h-1.2v-1.2h1.2V136.6z"/>
		<path class="st42" d="M551.8,143.8c0.4,0,0.7-0.1,1-0.4s0.4-0.5,0.4-0.9h1l0,0c0,0.5-0.2,1-0.7,1.5s-1.1,0.6-1.8,0.6
			c-0.9,0-1.6-0.3-2.1-0.9s-0.7-1.4-0.7-2.3v-0.2c0-0.9,0.2-1.7,0.7-2.3s1.2-0.9,2.1-0.9c0.5,0,1,0.1,1.4,0.3s0.7,0.4,1,0.7l0.1,1.4
			h-0.9l-0.3-1c-0.1-0.1-0.3-0.2-0.5-0.3s-0.5-0.1-0.7-0.1c-0.6,0-1,0.2-1.3,0.7s-0.4,1-0.4,1.6v0.2c0,0.6,0.1,1.2,0.4,1.6
			S551.2,143.8,551.8,143.8z"/>
		<path class="st42" d="M558.3,144.7c-0.9,0-1.6-0.3-2.1-0.9s-0.8-1.4-0.8-2.3v-0.3c0-0.9,0.3-1.7,0.8-2.3s1.2-0.9,1.9-0.9
			c0.9,0,1.5,0.3,1.9,0.8s0.7,1.2,0.7,2.1v0.7h-4.1l0,0c0,0.6,0.2,1.1,0.5,1.5s0.7,0.6,1.2,0.6c0.4,0,0.7-0.1,1-0.2s0.5-0.3,0.8-0.5
			l0.5,0.8c-0.2,0.2-0.5,0.4-0.9,0.6S558.8,144.7,558.3,144.7z M558.1,139c-0.4,0-0.7,0.2-1,0.5s-0.4,0.7-0.5,1.2l0,0h2.9v-0.2
			c0-0.5-0.1-0.8-0.4-1.1S558.6,139,558.1,139z"/>
	</g>
	<line class="st62" x1="516.9" y1="142.2" x2="459.5" y2="142.2"/>
	<g>
		<path class="st42" d="M522.9,235c1.1,0,2,0.3,2.7,1s1,1.6,1,2.7v1.2c0,1.1-0.3,2-1,2.7s-1.6,1-2.7,1h-3.6v-0.7l1-0.2v-6.7l-1-0.2
			V235h1H522.9z M521.5,235.9v6.7h1.5c0.8,0,1.4-0.3,1.9-0.8s0.7-1.2,0.7-2v-1.2c0-0.8-0.2-1.5-0.7-2s-1.1-0.8-1.9-0.8H521.5z"/>
		<path class="st42" d="M530.7,243.6c-0.9,0-1.6-0.3-2.1-0.9s-0.8-1.4-0.8-2.3v-0.3c0-0.9,0.3-1.7,0.8-2.3s1.2-0.9,1.9-0.9
			c0.9,0,1.5,0.3,1.9,0.8s0.7,1.2,0.7,2.1v0.7H529l0,0c0,0.6,0.2,1.1,0.5,1.5s0.7,0.6,1.2,0.6c0.4,0,0.7-0.1,1-0.2s0.5-0.3,0.8-0.5
			l0.5,0.8c-0.2,0.2-0.5,0.4-0.9,0.6S531.2,243.6,530.7,243.6z M530.5,237.9c-0.4,0-0.7,0.2-1,0.5s-0.4,0.7-0.5,1.2l0,0h2.9v-0.2
			c0-0.5-0.1-0.8-0.4-1.1S531,237.9,530.5,237.9z"/>
		<path class="st42" d="M534.1,245.2l1-0.2v-7l-1-0.2v-0.7h1.9l0.1,0.8c0.2-0.3,0.5-0.5,0.8-0.7s0.7-0.2,1.1-0.2
			c0.8,0,1.4,0.3,1.8,0.9s0.7,1.4,0.7,2.5v0.1c0,0.9-0.2,1.7-0.7,2.2s-1,0.8-1.8,0.8c-0.4,0-0.7-0.1-1-0.2s-0.5-0.3-0.8-0.6v2.2
			l1,0.2v0.7h-3.1V245.2z M539.3,240.4c0-0.7-0.1-1.3-0.4-1.8s-0.7-0.7-1.3-0.7c-0.3,0-0.6,0.1-0.8,0.2s-0.4,0.4-0.6,0.6v3.1
			c0.1,0.3,0.3,0.5,0.6,0.6s0.5,0.2,0.9,0.2c0.5,0,1-0.2,1.2-0.6s0.4-0.9,0.4-1.6V240.4z"/>
		<path class="st42" d="M541.3,235.1v-0.7h2.1v8.2l1,0.2v0.7h-3.1v-0.7l1-0.2v-7.3L541.3,235.1z"/>
		<path class="st42" d="M545.1,240.3c0-0.9,0.3-1.7,0.8-2.3s1.2-0.9,2.1-0.9c0.9,0,1.6,0.3,2.1,0.9s0.8,1.4,0.8,2.3v0.1
			c0,0.9-0.3,1.7-0.8,2.3s-1.2,0.9-2.1,0.9c-0.9,0-1.6-0.3-2.1-0.9s-0.8-1.4-0.8-2.3V240.3z M546.3,240.4c0,0.7,0.1,1.2,0.4,1.7
			s0.7,0.7,1.3,0.7c0.5,0,1-0.2,1.2-0.7s0.4-1,0.4-1.7v-0.1c0-0.7-0.1-1.2-0.4-1.7s-0.7-0.7-1.3-0.7s-1,0.2-1.3,0.7s-0.4,1-0.4,1.7
			V240.4z"/>
		<path class="st42" d="M557.8,237.9l-0.6,0.1l-2.4,6.5c-0.2,0.4-0.4,0.8-0.7,1.1s-0.7,0.5-1.2,0.5c-0.1,0-0.2,0-0.4,0
			s-0.3,0-0.3-0.1l0.1-0.9c0,0,0,0,0.2,0s0.3,0,0.3,0c0.2,0,0.4-0.1,0.6-0.3s0.3-0.5,0.4-0.7l0.3-0.7L552,238l-0.6-0.1v-0.7h2.6v0.7
			l-0.7,0.1l1.1,3.1l0.2,0.8h0l1.3-3.9l-0.7-0.1v-0.7h2.6V237.9z"/>
		<path class="st42" d="M558.3,242.8l1-0.2v-4.5l-1-0.2v-0.7h2l0.1,0.8c0.2-0.3,0.5-0.5,0.8-0.7s0.7-0.2,1.1-0.2s0.8,0.1,1.1,0.3
			s0.5,0.5,0.7,0.9c0.2-0.4,0.5-0.6,0.8-0.9s0.7-0.3,1.1-0.3c0.6,0,1.2,0.2,1.5,0.7s0.6,1.1,0.6,2v2.9l1,0.2v0.7H566v-0.7l1-0.2
			v-2.9c0-0.6-0.1-1.1-0.3-1.3s-0.5-0.4-1-0.4c-0.4,0-0.7,0.1-1,0.4s-0.4,0.6-0.4,1.1v3.1l1,0.2v0.7h-3.1v-0.7l1-0.2v-2.9
			c0-0.6-0.1-1-0.3-1.3s-0.5-0.4-1-0.4c-0.4,0-0.6,0.1-0.9,0.2s-0.4,0.3-0.5,0.6v3.8l1,0.2v0.7h-3.1V242.8z"/>
		<path class="st42" d="M572.7,243.6c-0.9,0-1.6-0.3-2.1-0.9s-0.8-1.4-0.8-2.3v-0.3c0-0.9,0.3-1.7,0.8-2.3s1.2-0.9,1.9-0.9
			c0.9,0,1.5,0.3,1.9,0.8s0.7,1.2,0.7,2.1v0.7H571l0,0c0,0.6,0.2,1.1,0.5,1.5s0.7,0.6,1.2,0.6c0.4,0,0.7-0.1,1-0.2s0.5-0.3,0.8-0.5
			l0.5,0.8c-0.2,0.2-0.5,0.4-0.9,0.6S573.3,243.6,572.7,243.6z M572.6,237.9c-0.4,0-0.7,0.2-1,0.5s-0.4,0.7-0.5,1.2l0,0h2.9v-0.2
			c0-0.5-0.1-0.8-0.4-1.1S573,237.9,572.6,237.9z"/>
		<path class="st42" d="M576.1,242.8l1-0.2v-4.5l-1-0.2v-0.7h2l0.1,0.9c0.2-0.3,0.5-0.6,0.8-0.8s0.7-0.3,1.1-0.3
			c0.7,0,1.2,0.2,1.6,0.6s0.6,1,0.6,1.9v3.1l1,0.2v0.7h-3.1v-0.7l1-0.2v-3.1c0-0.6-0.1-1-0.3-1.2s-0.6-0.4-1-0.4
			c-0.3,0-0.6,0.1-0.9,0.2s-0.5,0.4-0.6,0.7v3.7l1,0.2v0.7h-3.1V242.8z"/>
		<path class="st42" d="M586,235.6v1.5h1.2v0.9H586v3.8c0,0.3,0.1,0.5,0.2,0.6s0.3,0.2,0.5,0.2c0.1,0,0.2,0,0.3,0s0.2,0,0.3-0.1
			l0.2,0.8c-0.1,0.1-0.3,0.1-0.5,0.2s-0.4,0.1-0.6,0.1c-0.5,0-0.8-0.1-1.1-0.4s-0.4-0.7-0.4-1.3V238h-1v-0.9h1v-1.5H586z"/>
	</g>
	<line class="st62" x1="516.9" y1="241.1" x2="354.6" y2="241.1"/>
</g>
<g id="Layer_14">
</g>
</svg>
