<svg xmlns="http://www.w3.org/2000/svg" xmlns:xlink="http://www.w3.org/1999/xlink" viewBox="0 0 720.4 440.4"><defs><style>.cls-1,.cls-2,.cls-5,.cls-8{fill:#fff;}.cls-1,.cls-11,.cls-2{stroke:#006de9;}.cls-1,.cls-12,.cls-13,.cls-15,.cls-19,.cls-2,.cls-5{stroke-linecap:round;stroke-linejoin:round;}.cls-2{stroke-width:6px;}.cls-3{opacity:0.13;}.cls-4{fill:url(#linear-gradient);}.cls-5{stroke:#326de6;stroke-width:1.6px;}.cls-6{fill:#326de6;}.cls-7{fill:#a0caea;}.cls-8{font-size:4.67px;}.cls-16,.cls-8{font-family:RobotoSlab-Regular, Roboto Slab;}.cls-9{letter-spacing:-0.01em;}.cls-10{letter-spacing:-0.01em;}.cls-11,.cls-13,.cls-19{fill:none;}.cls-11{stroke-miterlimit:10;}.cls-11,.cls-15{stroke-width:0.8px;}.cls-12,.cls-15{fill:#06f7c9;}.cls-12{stroke:#fff;}.cls-12,.cls-19{stroke-width:0.3px;}.cls-13,.cls-15,.cls-19{stroke:#011f38;}.cls-13{stroke-width:1.2px;}.cls-14,.cls-16,.cls-22{fill:#011f38;}.cls-16{font-size:12px;}.cls-17{letter-spacing:0em;}.cls-18{letter-spacing:-0.01em;}.cls-20{letter-spacing:-0.01em;}.cls-21{letter-spacing:-0.01em;}.cls-22{font-size:13.6px;font-family:RobotoSlab-Bold, Roboto Slab;font-weight:700;}.cls-23{letter-spacing:-0.01em;}.cls-24{letter-spacing:0em;}</style><linearGradient id="linear-gradient" x1="202.12" y1="220.42" x2="516.58" y2="220.42" gradientUnits="userSpaceOnUse"><stop offset="0" stop-color="#326de6"/><stop offset="1" stop-color="#10ffc6"/></linearGradient><symbol id="master_level1-2" data-name="master_level1" viewBox="0 0 137.18 133.89"><line class="cls-1" x1="68.59" y1="78.04" x2="68.59" y2="66.22"/><line class="cls-1" x1="74.5" y1="72.13" x2="62.68" y2="72.13"/><polygon class="cls-2" points="39.4 130.89 3 85.25 15.99 28.33 68.59 3 121.19 28.33 134.18 85.25 97.78 130.89 39.4 130.89"/></symbol></defs><title>16.07.28_k8s_diagrams_all</title><g id="CLUSTER"><g class="cls-3"><polygon class="cls-4" points="485.44 127.86 516.58 264.29 429.32 373.7 289.38 373.7 202.12 264.29 233.26 127.86 359.35 67.14 485.44 127.86"/></g></g><g id="master"><use width="137.18" height="133.89" transform="translate(331.91 195.6) scale(0.4)" xlink:href="#master_level1-2"/></g><g id="Node"><polygon class="cls-5" points="398.75 195.57 363.12 175 363.12 133.86 398.75 113.29 434.38 133.86 434.38 175 398.75 195.57"/><polygon class="cls-6" points="363.12 162.75 363.12 175 398.75 195.57 409.35 189.43 363.12 162.75"/><polygon class="cls-7" points="381.97 183.5 385.21 177.88 405.23 189.44 398.75 193.19 381.97 183.5"/><text class="cls-8" transform="translate(384.86 183.52) rotate(30)">Doc<tspan class="cls-9" x="8.38" y="0">k</tspan><tspan x="11.18" y="0">er</tspan></text><text class="cls-8" transform="translate(366.62 173) rotate(30)">kubelet</text><polygon class="cls-5" points="356.38 175 320.75 195.57 285.12 175 285.12 133.86 320.75 113.29 356.38 133.86 356.38 175"/><polygon class="cls-6" points="310.14 189.45 320.75 195.57 356.38 175 356.37 162.76 310.14 189.45"/><polygon class="cls-7" points="337.54 183.5 334.29 177.89 354.31 166.33 354.32 173.81 337.54 183.5"/><text class="cls-8" transform="translate(339.03 181.1) rotate(-30)">Doc<tspan class="cls-10" x="8.38" y="0">k</tspan><tspan x="11.18" y="0">er</tspan></text><text class="cls-8" transform="translate(320.79 191.63) rotate(-30)">kubelet</text><polygon class="cls-5" points="320.36 331.56 284.73 310.99 284.73 269.84 320.36 249.27 355.99 269.84 355.99 310.99 320.36 331.56"/><polygon class="cls-6" points="309.75 255.4 320.36 249.27 355.99 269.84 355.97 282.08 309.75 255.4"/><polygon class="cls-7" points="337.14 261.34 333.9 266.96 353.92 278.52 353.93 271.03 337.14 261.34"/><text class="cls-8" transform="translate(318.2 256.49) rotate(30)">kubelet</text><text class="cls-8" transform="translate(337.18 267.51) rotate(30)">Doc<tspan class="cls-9" x="8.38" y="0">k</tspan><tspan x="11.18" y="0">er</tspan></text></g><g id="pods"><circle class="cls-11" cx="320.35" cy="154.43" r="20.93"/></g><g id="deployments"><circle class="cls-12" cx="351.49" cy="216.6" r="10.07"/><path class="cls-13" d="M355,210.89a6.73,6.73,0,1,1-5.74-.61"/><polygon class="cls-14" points="356.21 213.8 355.3 211.07 358.03 210.16 356.49 209.38 353.76 210.29 354.67 213.02 356.21 213.8"/><path class="cls-14" d="M348.92,220v-6.73h2.31a2.78,2.78,0,0,1,2,.79,2.72,2.72,0,0,1,.8,2v1.11a2.71,2.71,0,0,1-.8,2,2.79,2.79,0,0,1-2,.78Zm1.35-5.69v4.65h.89a1.41,1.41,0,0,0,1.14-.49,1.92,1.92,0,0,0,.41-1.28V216a1.91,1.91,0,0,0-.41-1.27,1.41,1.41,0,0,0-1.14-.49Z"/></g><g id="containers_volumes" data-name="containers/volumes"><polygon class="cls-15" points="310.65 148.83 320.35 143.24 330.04 148.83 320.35 154.44 310.65 148.83"/><polygon class="cls-15" points="310.65 160.03 310.65 148.83 320.35 154.44 320.35 165.63 310.65 160.03"/><polygon class="cls-15" points="320.35 165.63 320.35 154.44 330.04 148.83 330.04 160.03 320.35 165.63"/></g><g id="description"><text class="cls-16" transform="translate(539.16 242.55)">Master</text><text class="cls-16" transform="translate(539.16 265.93)"><tspan class="cls-17">n</tspan><tspan x="7.66" y="0">ode p</tspan><tspan class="cls-18" x="38.3" y="0">r</tspan><tspan x="43.14" y="0">ocesses</tspan></text><text class="cls-16" transform="translate(539.16 155.43)">Node</text><line class="cls-19" x1="534.1" y1="238.82" x2="362.72" y2="238.82"/><text class="cls-16" transform="translate(539.16 220.31)">De<tspan class="cls-17" x="14.77" y="0">p</tspan><tspan class="cls-18" x="21.97" y="0">l</tspan><tspan class="cls-20" x="25.63" y="0">o</tspan><tspan x="32.28" y="0">y</tspan><tspan class="cls-17" x="39.09" y="0">m</tspan><tspan x="50.37" y="0">ent</tspan></text><line class="cls-19" x1="534.1" y1="216.58" x2="355.59" y2="216.58"/><line class="cls-19" x1="534.1" y1="263.93" x2="333.5" y2="263.93"/><line class="cls-19" x1="534.1" y1="153.43" x2="416.93" y2="153.43"/><text class="cls-16" transform="translate(94.06 155.43)">contai<tspan class="cls-17" x="35.87" y="0">n</tspan><tspan x="43.54" y="0">eri</tspan><tspan class="cls-21" x="58.89" y="0">z</tspan><tspan x="65.15" y="0">ed app</tspan></text><line class="cls-19" x1="315.5" y1="153.43" x2="201.96" y2="153.43"/><text class="cls-22" transform="translate(294.69 392.94)"><tspan class="cls-23">K</tspan><tspan x="9.57" y="0">uber</tspan><tspan class="cls-24" x="38.87" y="0">n</tspan><tspan x="47.43" y="0">eters Cluster</tspan></text></g></svg>