<?xml version="1.0" encoding="utf-8"?>
<!-- Generator: Adobe Illustrator 19.2.1, SVG Export Plug-In . SVG Version: 6.00 Build 0)  -->
<svg version="1.1" xmlns="http://www.w3.org/2000/svg" xmlns:xlink="http://www.w3.org/1999/xlink" x="0px" y="0px"
	 viewBox="0 0 720.4 400" style="enable-background:new 0 0 720.4 400;" xml:space="preserve">
<style type="text/css">
	.st0{fill:#FFFFFF;stroke:#326DE6;stroke-width:2;stroke-linecap:round;stroke-linejoin:round;stroke-miterlimit:10;}
	.st1{opacity:0.71;fill:#326CE6;}
	.st2{opacity:0.45;fill:#FFFFFF;}
	.st3{fill:#FFFFFF;stroke:#006DE9;stroke-width:2;stroke-linecap:round;stroke-linejoin:round;stroke-miterlimit:10;}
	.st4{fill:#006DE9;}
	.st5{fill:#A0CAEA;}
	.st6{fill:#FFFFFF;}
	.st7{opacity:0.13;}
	.st8{fill:url(#SVGID_1_);}
	.st9{fill:url(#SVGID_2_);}
	.st10{fill:#FFFFFF;stroke:#006DE9;stroke-linecap:round;stroke-linejoin:round;stroke-miterlimit:10;}
	.st11{fill:#FFFFFF;stroke:#006DE9;stroke-width:6;stroke-linecap:round;stroke-linejoin:round;stroke-miterlimit:10;}
	.st12{fill:#FFFFFF;stroke:#326DE6;stroke-width:3.2;stroke-linecap:round;stroke-linejoin:round;stroke-miterlimit:10;}
	.st13{fill:#326DE6;}
	.st14{fill:none;stroke:#326DE6;stroke-width:2.4;stroke-miterlimit:10;}
	.st15{fill:#A0CAE9;}
	.st16{fill:#FFFFFF;stroke:#326DE6;stroke-width:1.6;stroke-linecap:round;stroke-linejoin:round;stroke-miterlimit:10;}
	.st17{fill:#FFFFFF;stroke:#326DE6;stroke-width:1.6;stroke-miterlimit:10;}
	.st18{fill:none;stroke:#06F7C9;stroke-width:2;stroke-miterlimit:10;}
	.st19{fill:none;stroke:#06F7C9;stroke-width:2;stroke-miterlimit:10;stroke-dasharray:2.3749,1.5832;}
	.st20{fill:none;stroke:#06F7C9;stroke-width:2;stroke-miterlimit:10;stroke-dasharray:2.4006,1.6004;}
	.st21{fill:none;stroke:#EEF406;stroke-width:2;stroke-miterlimit:10;stroke-dasharray:2.4,1.6;}
	.st22{fill:none;stroke:#EEF406;stroke-width:2;stroke-miterlimit:10;}
	.st23{fill:none;stroke:#EEF406;stroke-width:2;stroke-miterlimit:10;stroke-dasharray:2.3975,1.5984;}
	.st24{fill:none;stroke:#EEF406;stroke-width:2;stroke-miterlimit:10;stroke-dasharray:2.395,1.5966;}
	.st25{fill:none;stroke:#EEF406;stroke-width:2;stroke-miterlimit:10;stroke-dasharray:2.3963,1.5976;}
	.st26{opacity:0.1;fill:#EEF406;}
	.st27{opacity:2.000000e-02;fill:#EEF406;}
	.st28{opacity:0.1;fill:#06F7C9;}
	.st29{fill:none;stroke:#006DE9;stroke-width:0.8;stroke-miterlimit:10;}
	.st30{opacity:0.1;fill:url(#SVGID_3_);}
	.st31{opacity:0.1;fill:url(#SVGID_4_);}
	.st32{opacity:0.1;fill:url(#SVGID_5_);}
	.st33{opacity:0.1;fill:url(#SVGID_6_);}
	.st34{fill:none;stroke:#326DE6;stroke-width:1.2;stroke-miterlimit:10;}
	.st35{opacity:0.1;fill:url(#SVGID_7_);}
	.st36{opacity:0.1;fill:url(#SVGID_8_);}
	.st37{opacity:0.1;fill:url(#SVGID_9_);}
	.st38{opacity:0.1;fill:url(#SVGID_10_);}
	.st39{fill:none;stroke:#326DE6;stroke-width:2;stroke-miterlimit:10;}
	.st40{opacity:0.4;fill:none;stroke:#EEF406;stroke-width:2;stroke-miterlimit:10;}
	.st41{fill:none;stroke:#EEF406;stroke-width:2.4596;stroke-miterlimit:10;}
	.st42{fill:#011F38;}
	.st43{opacity:0.4;}
	.st44{opacity:0.1;}
	.st45{fill:#326DE6;stroke:#EEF406;stroke-width:2;stroke-miterlimit:10;}
	.st46{fill:none;stroke:#FFFFFF;stroke-width:1.2;stroke-linecap:round;stroke-linejoin:round;}
	.st47{fill:#06F7C9;stroke:#FFFFFF;stroke-width:0.3;stroke-linecap:round;stroke-linejoin:round;stroke-miterlimit:10;}
	.st48{fill:none;stroke:#011F38;stroke-width:1.2;stroke-linecap:round;stroke-linejoin:round;}
	.st49{fill:#326DE6;stroke:#06F7C9;stroke-width:2;stroke-miterlimit:10;}
	.st50{fill:#06F7C9;stroke:#011F38;stroke-width:0.8;stroke-linecap:round;stroke-linejoin:round;stroke-miterlimit:10;}
	.st51{fill:#8115FF;stroke:#011F38;stroke-width:0.8;stroke-linecap:round;stroke-linejoin:round;stroke-miterlimit:10;}
	.st52{opacity:0.3;}
	.st53{opacity:0.2;fill:#6D6E71;}
	.st54{fill:#EEF406;}
	.st55{fill:#06F7C9;}
	.st56{fill:#FFFFFF;stroke:#06F7C9;stroke-width:2;stroke-miterlimit:10;stroke-dasharray:2.4,1.6;}
	.st57{fill:#FFFFFF;stroke:#EEF406;stroke-width:1.6;stroke-miterlimit:10;stroke-dasharray:2.4,1.6;}
	.st58{fill:none;stroke:#06F7C9;stroke-width:2;stroke-miterlimit:10;stroke-dasharray:2.4938,1.6626;}
	.st59{fill:none;stroke:#06F7C9;stroke-width:2;stroke-miterlimit:10;stroke-dasharray:2.0084,1.3389;}
	.st60{fill:none;stroke:#06F7C9;stroke-width:2;stroke-miterlimit:10;stroke-dasharray:2.724,1.816;}
	.st61{fill:#011F38;stroke:#414042;stroke-width:0.3;stroke-linecap:round;stroke-linejoin:round;stroke-miterlimit:10;}
	.st62{fill:none;stroke:#011F38;stroke-width:0.3;stroke-linecap:round;stroke-linejoin:round;stroke-miterlimit:10;}
	.st63{fill:none;stroke:#011F38;stroke-width:0.2813;stroke-linecap:round;stroke-linejoin:round;stroke-miterlimit:10;}
</style>
<symbol  id="node_high_level" viewBox="-81 -93 162 186.1">
	<polygon class="st0" points="-80,-46 -80,46 0,92 80,46 80,-46 0,-92 	"/>
	<g id="Isolation_Mode_3_">
	</g>
</symbol>
<symbol  id="node_x5F_empty" viewBox="-87.5 -100.6 175.1 201.1">
	
		<use xlink:href="#node_high_level"  width="162" height="186.1" id="XMLID_201_" x="-81" y="-93" transform="matrix(1.0808 0 0 1.0808 -3.292006e-05 -3.749943e-05)" style="overflow:visible;"/>
	<g>
		<polygon class="st1" points="76.8,-28.1 -14,-80.3 0,-88.3 76.7,-44.4 		"/>
		<polygon class="st2" points="76.8,-28.1 32.1,-53.8 38.8,-66.1 76.7,-44.4 		"/>
	</g>
</symbol>
<symbol  id="node_x5F_new" viewBox="-87.6 -101 175.2 202">
	<polygon class="st3" points="0,-100 -86.6,-50 -86.6,50 0,100 86.6,50 86.6,-50 	"/>
	<polygon class="st4" points="-86.6,-20.2 -86.6,-50 0,-100 25.8,-85.1 	"/>
	<polygon class="st5" points="-40.8,-70.7 -32.9,-57 15.7,-85.1 0,-94.3 	"/>
	
		<text transform="matrix(0.866 -0.5 -0.5 -0.866 -33.9256 -70.7388)" class="st6" style="font-family:'RobotoSlab-Regular'; font-size:11.3632px;">Docker</text>
	
		<text transform="matrix(0.866 -0.5 -0.5 -0.866 -76.0668 -46.4087)" class="st6" style="font-family:'RobotoSlab-Regular'; font-size:11.3632px;">Kubelt</text>
</symbol>
<g id="CLUSTER">
</g>
<g id="master">
	<g id="master_x5F_level1">
	</g>
</g>
<g id="Node">
	<g id="Node_x5F_level3_x5F_1">
		<g id="Isolation_Mode">
		</g>
	</g>
</g>
<g id="service">
</g>
<g id="pods">
	<linearGradient id="SVGID_1_" gradientUnits="userSpaceOnUse" x1="163.8029" y1="200" x2="245.7519" y2="200">
		<stop  offset="0" style="stop-color:#326DE6"/>
		<stop  offset="1" style="stop-color:#10FFC6"/>
	</linearGradient>
	<circle style="opacity:0.1;fill:url(#SVGID_1_);" cx="204.8" cy="200" r="41"/>
	<linearGradient id="SVGID_2_" gradientUnits="userSpaceOnUse" x1="279.9008" y1="200" x2="389.1661" y2="200">
		<stop  offset="0" style="stop-color:#326DE6"/>
		<stop  offset="1" style="stop-color:#10FFC6"/>
	</linearGradient>
	<circle style="opacity:0.1;fill:url(#SVGID_2_);" cx="334.5" cy="200" r="54.6"/>
	<linearGradient id="SVGID_3_" gradientUnits="userSpaceOnUse" x1="432.1327" y1="149.8255" x2="559.3264" y2="252.4203">
		<stop  offset="0" style="stop-color:#326DE6"/>
		<stop  offset="1" style="stop-color:#10FFC6"/>
	</linearGradient>
	<circle class="st30" cx="494.3" cy="200" r="71"/>
	<linearGradient id="SVGID_4_" gradientUnits="userSpaceOnUse" x1="57.9488" y1="200" x2="119.4105" y2="200">
		<stop  offset="0" style="stop-color:#326DE6"/>
		<stop  offset="1" style="stop-color:#10FFC6"/>
	</linearGradient>
	<circle class="st31" cx="88.7" cy="200" r="30.7"/>
	<circle class="st39" cx="204.8" cy="200" r="41"/>
	<circle class="st39" cx="88.7" cy="200" r="30.7"/>
	<circle class="st39" cx="334.5" cy="200" r="54.6"/>
	<circle class="st39" cx="494.3" cy="200" r="71"/>
</g>
<g id="IP">
	<g>
		<path class="st42" d="M163.3,183.2l0.6-1.4l-6.6-3l-0.5,1.6l-0.4-0.2l0.5-2.4l7.3,3.3l0.7-1.4l0.5,0.2l-1.6,3.4L163.3,183.2z"/>
		<path class="st42" d="M165.7,172.9c0.9,0.6,1.5,1.2,1.8,1.9c0.3,0.7,0.2,1.4-0.3,2.1c-0.4,0.7-1,1.1-1.8,1.2
			c-0.8,0.1-1.6-0.2-2.5-0.7l-1.6-1c-0.9-0.6-1.5-1.2-1.8-1.9c-0.3-0.7-0.2-1.4,0.3-2.1c0.4-0.7,1-1.1,1.8-1.2
			c0.8-0.1,1.6,0.2,2.5,0.7L165.7,172.9z M163.6,172.5c-0.7-0.5-1.4-0.7-2-0.6c-0.6,0-1,0.3-1.4,0.9c-0.3,0.5-0.4,1.1-0.2,1.6
			c0.2,0.5,0.7,1,1.5,1.5l1.8,1.1c0.7,0.5,1.4,0.7,2,0.6c0.6,0,1-0.3,1.4-0.9c0.3-0.5,0.4-1.1,0.2-1.6c-0.2-0.5-0.7-1-1.5-1.5
			L163.6,172.5z"/>
		<path class="st42" d="M169.9,172.9l-0.5,0.6l-0.8-0.6l0.5-0.6L169.9,172.9z"/>
		<path class="st42" d="M170.5,171.3l1-1.2l-5.3-4.8l-1,1.4l-0.4-0.3l1.2-2.1l5.9,5.3l1.1-1.1l0.4,0.3l-2.5,2.8L170.5,171.3z"/>
		<path class="st42" d="M175.9,162.3c0.7,0.8,1.1,1.6,1.1,2.4c0,0.8-0.3,1.4-0.9,1.9c-0.6,0.5-1.3,0.7-2.1,0.6
			c-0.7-0.1-1.5-0.6-2.2-1.5l-1.2-1.4c-0.7-0.8-1.1-1.6-1.1-2.4c0-0.8,0.3-1.4,0.9-1.9c0.6-0.5,1.3-0.7,2.1-0.6
			c0.7,0.1,1.5,0.6,2.2,1.5L175.9,162.3z M174,161.2c-0.6-0.7-1.1-1.1-1.7-1.2c-0.6-0.1-1.1,0-1.6,0.4c-0.5,0.4-0.7,0.9-0.6,1.5
			c0.1,0.6,0.4,1.2,0.9,1.9l1.4,1.6c0.6,0.7,1.1,1.1,1.7,1.2c0.6,0.1,1.1,0,1.6-0.4c0.5-0.4,0.7-0.9,0.6-1.5
			c-0.1-0.6-0.4-1.2-0.9-1.9L174,161.2z"/>
		<path class="st42" d="M179.9,163.5l-0.7,0.5l-0.5-0.8l0.7-0.5L179.9,163.5z"/>
		<path class="st42" d="M180.9,162.2l1.3-0.8l-3.6-6.2l-1.3,1.1l-0.2-0.4l1.8-1.6l4,6.9l1.4-0.7l0.3,0.4l-3.3,1.9L180.9,162.2z"/>
		<path class="st42" d="M188.8,155.2c0.4,1,0.5,1.9,0.3,2.6c-0.2,0.7-0.7,1.3-1.5,1.6c-0.8,0.3-1.5,0.3-2.1-0.1
			c-0.7-0.4-1.2-1.1-1.6-2.1l-0.7-1.8c-0.4-1-0.5-1.9-0.3-2.6s0.7-1.3,1.4-1.6c0.8-0.3,1.5-0.3,2.1,0.1c0.7,0.4,1.2,1.1,1.6,2.1
			L188.8,155.2z M187.4,153.6c-0.3-0.8-0.8-1.4-1.2-1.7c-0.5-0.3-1-0.3-1.6-0.1c-0.6,0.2-0.9,0.7-1.1,1.2c-0.1,0.6,0,1.2,0.3,2.1
			l0.8,2c0.3,0.8,0.8,1.4,1.2,1.7c0.5,0.3,1,0.3,1.6,0.1c0.6-0.2,0.9-0.7,1.1-1.2c0.1-0.6,0-1.3-0.3-2.1L187.4,153.6z"/>
		<path class="st42" d="M192.2,157.6l-0.8,0.2l-0.3-0.9l0.8-0.2L192.2,157.6z"/>
		<path class="st42" d="M193.6,157.2l-0.1-0.5l2.1-3.6c0.4-0.7,0.7-1.2,0.8-1.6s0.2-0.8,0.1-1.2c-0.1-0.5-0.3-0.9-0.7-1.2
			c-0.4-0.3-0.8-0.3-1.3-0.2c-0.6,0.1-1.1,0.4-1.3,0.8c-0.3,0.4-0.3,0.9-0.2,1.5l-0.6,0.1l0,0c-0.2-0.7,0-1.3,0.3-1.9
			c0.4-0.6,1-0.9,1.8-1.1c0.7-0.1,1.3,0,1.8,0.3s0.8,0.8,1,1.5c0.1,0.5,0,1-0.2,1.5s-0.5,1.1-0.9,1.8l-1.8,3.1l0,0l3.7-0.7l-0.2-1.2
			l0.6-0.1l0.3,1.8L193.6,157.2z"/>
	</g>
	<g>
		<path class="st42" d="M57.5,187.3l0.6-1.4l-6.5-3.1l-0.5,1.6l-0.4-0.2l0.6-2.4l7.2,3.4l0.7-1.3l0.5,0.2l-1.6,3.4L57.5,187.3z"/>
		<path class="st42" d="M60.2,177.1c0.9,0.6,1.5,1.3,1.7,2c0.2,0.7,0.1,1.4-0.4,2.1c-0.5,0.7-1.1,1-1.8,1.1s-1.6-0.2-2.5-0.9
			l-1.6-1.1c-0.9-0.6-1.5-1.3-1.7-2s-0.1-1.4,0.4-2.1c0.5-0.7,1.1-1,1.9-1.1c0.8,0,1.6,0.2,2.5,0.9L60.2,177.1z M58.2,176.5
			c-0.7-0.5-1.4-0.7-1.9-0.7s-1,0.3-1.4,0.8c-0.4,0.5-0.4,1.1-0.2,1.6s0.7,1.1,1.4,1.6l1.7,1.2c0.7,0.5,1.4,0.7,1.9,0.7
			s1.1-0.3,1.4-0.8c0.4-0.5,0.4-1.1,0.2-1.6c-0.2-0.5-0.7-1.1-1.4-1.6L58.2,176.5z"/>
		<path class="st42" d="M64.5,177.4l-0.5,0.6l-0.7-0.6l0.5-0.6L64.5,177.4z"/>
		<path class="st42" d="M65.2,175.9l1.1-1.1l-4.8-5.4l-1.1,1.3l-0.3-0.4l1.5-2l5.3,6l1.2-1l0.3,0.4l-2.8,2.5L65.2,175.9z"/>
		<path class="st42" d="M71.7,167.6c0.6,0.9,0.8,1.8,0.7,2.5c-0.1,0.8-0.5,1.3-1.2,1.8c-0.7,0.4-1.4,0.5-2.1,0.3s-1.4-0.9-1.9-1.8
			l-1-1.6c-0.6-0.9-0.8-1.8-0.7-2.5c0.1-0.8,0.5-1.3,1.2-1.8c0.7-0.4,1.4-0.5,2.1-0.3c0.7,0.3,1.4,0.9,1.9,1.8L71.7,167.6z
			 M70,166.3c-0.5-0.7-1-1.2-1.5-1.4c-0.5-0.2-1.1-0.2-1.6,0.2c-0.5,0.3-0.8,0.8-0.9,1.4c0,0.6,0.2,1.2,0.6,2l1.1,1.8
			c0.5,0.7,1,1.2,1.5,1.4c0.5,0.2,1.1,0.2,1.6-0.2c0.5-0.3,0.8-0.8,0.9-1.4s-0.2-1.2-0.6-2L70,166.3z"/>
		<path class="st42" d="M75.5,169.6l-0.7,0.3l-0.4-0.9l0.7-0.3L75.5,169.6z"/>
		<path class="st42" d="M76.7,168.5l1.4-0.5l-2.2-6.8l-1.5,0.7l-0.2-0.5l2.1-1.2l2.4,7.6l1.5-0.4l0.2,0.5l-3.6,1.2L76.7,168.5z"/>
		<path class="st42" d="M86,163.6c0.2,1.1,0.1,2-0.3,2.6c-0.4,0.7-1,1-1.8,1.2c-0.8,0.1-1.5-0.1-2.1-0.6s-0.9-1.3-1.1-2.4l-0.3-1.9
			c-0.2-1.1,0-2,0.3-2.6c0.4-0.7,1-1,1.8-1.2c0.8-0.1,1.5,0.1,2.1,0.6c0.6,0.5,0.9,1.3,1.1,2.4L86,163.6z M85,161.7
			c-0.1-0.9-0.4-1.5-0.8-1.9s-0.9-0.6-1.5-0.5c-0.6,0.1-1.1,0.4-1.3,0.9c-0.3,0.5-0.3,1.2-0.2,2.1l0.3,2.1c0.1,0.9,0.4,1.5,0.8,1.9
			c0.4,0.4,0.9,0.6,1.5,0.5c0.6-0.1,1.1-0.4,1.3-0.9s0.3-1.2,0.2-2.1L85,161.7z"/>
		<path class="st42" d="M88.6,166.9l-0.8,0l0-1l0.8,0L88.6,166.9z"/>
		<path class="st42" d="M90.2,166.3l1.5,0.1l0.7-7.2l-1.7,0.1l0-0.5l2.4-0.3l-0.8,7.9l1.5,0.2l-0.1,0.5l-3.7-0.4L90.2,166.3z"/>
	</g>
	<g>
		<path class="st42" d="M288.5,164.2l0.9-1.2l-5.5-4.6l-0.9,1.4l-0.4-0.3l1.1-2.2l6.1,5.1l1-1.1l0.4,0.3l-2.4,2.9L288.5,164.2z"/>
		<path class="st42" d="M293.3,154.8c0.8,0.8,1.2,1.5,1.3,2.3c0.1,0.8-0.2,1.4-0.8,2c-0.6,0.6-1.3,0.8-2,0.7
			c-0.8-0.1-1.5-0.5-2.3-1.3l-1.3-1.4c-0.8-0.8-1.2-1.5-1.3-2.3c-0.1-0.8,0.2-1.4,0.7-2c0.6-0.6,1.3-0.8,2-0.7
			c0.8,0.1,1.5,0.5,2.3,1.3L293.3,154.8z M291.4,153.9c-0.6-0.6-1.2-1-1.8-1.1c-0.6-0.1-1.1,0.1-1.5,0.5c-0.4,0.4-0.6,1-0.5,1.5
			c0.1,0.6,0.5,1.2,1.1,1.8l1.5,1.5c0.6,0.6,1.2,1,1.8,1.1c0.6,0.1,1.1-0.1,1.5-0.5c0.4-0.4,0.6-1,0.5-1.5s-0.5-1.2-1.1-1.8
			L291.4,153.9z"/>
		<path class="st42" d="M297.4,155.7l-0.6,0.5l-0.6-0.7l0.6-0.5L297.4,155.7z"/>
		<path class="st42" d="M298.3,154.2l1.2-1l-4.3-5.8l-1.2,1.2l-0.3-0.4l1.6-1.8l4.8,6.4l1.3-0.9l0.3,0.4l-3,2.2L298.3,154.2z"/>
		<path class="st42" d="M305.2,146.3c0.6,0.9,0.8,1.8,0.7,2.5c-0.1,0.7-0.5,1.3-1.2,1.8c-0.7,0.4-1.4,0.5-2.1,0.2
			c-0.7-0.3-1.3-0.9-1.9-1.8l-1-1.6c-0.6-0.9-0.8-1.8-0.7-2.5c0.1-0.8,0.5-1.3,1.2-1.8c0.7-0.4,1.4-0.5,2.1-0.2
			c0.7,0.3,1.4,0.9,1.9,1.8L305.2,146.3z M303.6,144.9c-0.5-0.7-0.9-1.2-1.5-1.5s-1.1-0.2-1.6,0.1c-0.5,0.3-0.8,0.8-0.9,1.4
			c0,0.6,0.2,1.2,0.6,2l1.1,1.8c0.4,0.7,0.9,1.2,1.5,1.5c0.5,0.2,1.1,0.2,1.6-0.1c0.5-0.3,0.8-0.8,0.9-1.4c0-0.6-0.2-1.2-0.6-2
			L303.6,144.9z"/>
		<path class="st42" d="M309,148.1l-0.7,0.4l-0.4-0.9l0.7-0.4L309,148.1z"/>
		<path class="st42" d="M310.3,146.9l1.4-0.7l-2.8-6.6l-1.5,0.9l-0.2-0.5l2-1.4l3.1,7.3l1.4-0.5l0.2,0.5l-3.5,1.5L310.3,146.9z"/>
		<path class="st42" d="M318.9,140.8c0.3,1.1,0.4,1.9,0.1,2.6c-0.3,0.7-0.8,1.2-1.6,1.4c-0.8,0.2-1.5,0.2-2.1-0.3
			c-0.6-0.4-1.1-1.2-1.4-2.2l-0.6-1.8c-0.3-1-0.4-1.9-0.1-2.6c0.3-0.7,0.8-1.2,1.6-1.4c0.8-0.2,1.5-0.2,2.1,0.3
			c0.6,0.4,1.1,1.2,1.4,2.2L318.9,140.8z M317.6,139.1c-0.3-0.8-0.6-1.4-1.1-1.8s-1-0.4-1.6-0.2c-0.6,0.2-1,0.6-1.2,1.1
			c-0.2,0.6-0.1,1.2,0.1,2.1l0.6,2c0.3,0.8,0.6,1.4,1.1,1.8c0.5,0.4,1,0.4,1.6,0.3c0.6-0.2,1-0.6,1.2-1.1s0.1-1.2-0.1-2.1
			L317.6,139.1z"/>
		<path class="st42" d="M322.1,143.5l-0.8,0.2l-0.2-0.9l0.8-0.2L322.1,143.5z"/>
		<path class="st42" d="M324.5,138.3l0.8-0.1c0.6-0.1,1.1-0.3,1.3-0.7c0.3-0.4,0.4-0.8,0.3-1.3c-0.1-0.5-0.3-0.9-0.6-1.2
			c-0.3-0.3-0.8-0.4-1.4-0.3c-0.5,0.1-1,0.3-1.3,0.7c-0.3,0.4-0.4,0.8-0.3,1.3l-0.6,0.1l0,0c-0.1-0.7,0-1.2,0.5-1.7
			c0.4-0.5,1-0.8,1.7-0.9c0.8-0.1,1.4,0,1.9,0.4c0.5,0.3,0.8,0.9,0.9,1.6c0.1,0.4,0,0.8-0.2,1.2c-0.2,0.4-0.5,0.7-0.9,0.9
			c0.5,0.1,1,0.3,1.3,0.6c0.3,0.3,0.5,0.7,0.6,1.2c0.1,0.7,0,1.4-0.5,1.9c-0.4,0.5-1,0.8-1.8,0.9c-0.7,0.1-1.4,0-2-0.4
			c-0.6-0.3-0.9-0.9-1-1.6l0,0l0.6-0.1c0.1,0.5,0.3,0.9,0.8,1.2c0.4,0.3,0.9,0.4,1.5,0.3c0.6-0.1,1-0.3,1.3-0.7s0.4-0.8,0.3-1.4
			c-0.1-0.6-0.3-1-0.7-1.2c-0.4-0.2-0.9-0.3-1.6-0.2l-0.8,0.1L324.5,138.3z"/>
	</g>
	<g>
		<path class="st42" d="M438.8,150.1l1-1.2l-5.2-4.9l-1,1.4l-0.4-0.3l1.3-2.1l5.8,5.5l1.1-1.1l0.4,0.4l-2.6,2.7L438.8,150.1z"/>
		<path class="st42" d="M444.1,140.9c0.7,0.8,1.1,1.6,1.2,2.4c0.1,0.8-0.2,1.4-0.8,2c-0.6,0.6-1.3,0.8-2,0.7s-1.5-0.6-2.2-1.4
			l-1.3-1.4c-0.7-0.8-1.1-1.6-1.2-2.4s0.2-1.4,0.8-2c0.6-0.6,1.3-0.8,2-0.7c0.8,0.1,1.5,0.6,2.2,1.4L444.1,140.9z M442.2,139.9
			c-0.6-0.6-1.2-1-1.7-1.2c-0.6-0.1-1.1,0-1.6,0.5c-0.5,0.4-0.7,0.9-0.6,1.5c0.1,0.6,0.4,1.2,1,1.8l1.4,1.6c0.6,0.6,1.2,1,1.7,1.2
			c0.6,0.1,1.1,0,1.6-0.4c0.5-0.4,0.7-0.9,0.6-1.5c-0.1-0.6-0.4-1.2-1-1.8L442.2,139.9z"/>
		<path class="st42" d="M448.1,142l-0.6,0.5l-0.6-0.7l0.6-0.5L448.1,142z"/>
		<path class="st42" d="M449.1,140.5l1.2-1l-4.2-5.8l-1.2,1.2l-0.3-0.4l1.6-1.8l4.7,6.4l1.3-0.8l0.3,0.4l-3,2.2L449.1,140.5z"/>
		<path class="st42" d="M456.1,132.5c0.6,0.9,0.8,1.8,0.7,2.5c-0.1,0.8-0.5,1.3-1.2,1.8c-0.7,0.4-1.4,0.5-2.1,0.3
			c-0.7-0.3-1.4-0.9-1.9-1.8l-1-1.6c-0.6-0.9-0.8-1.8-0.7-2.5c0.1-0.8,0.5-1.3,1.2-1.8c0.7-0.4,1.4-0.5,2.1-0.3
			c0.7,0.3,1.4,0.9,1.9,1.8L456.1,132.5z M454.4,131.2c-0.5-0.7-1-1.2-1.5-1.5c-0.5-0.2-1.1-0.2-1.6,0.2c-0.5,0.3-0.8,0.8-0.9,1.4
			c0,0.6,0.2,1.2,0.6,2l1.1,1.8c0.5,0.7,1,1.2,1.5,1.5c0.5,0.2,1.1,0.2,1.6-0.1c0.5-0.3,0.8-0.8,0.9-1.4s-0.2-1.2-0.6-2L454.4,131.2
			z"/>
		<path class="st42" d="M459.8,134.3l-0.7,0.4l-0.5-0.8l0.7-0.4L459.8,134.3z"/>
		<path class="st42" d="M461.1,133.1l1.4-0.7l-3.1-6.5l-1.4,0.9l-0.2-0.4l1.9-1.5l3.4,7.2l1.4-0.6l0.2,0.5l-3.4,1.6L461.1,133.1z"/>
		<path class="st42" d="M469.4,126.5c0.4,1,0.5,1.9,0.2,2.6s-0.7,1.2-1.5,1.5c-0.8,0.3-1.5,0.2-2.1-0.1c-0.7-0.4-1.2-1.1-1.6-2.1
			l-0.7-1.8c-0.4-1-0.5-1.9-0.2-2.6c0.2-0.7,0.7-1.2,1.5-1.5c0.8-0.3,1.5-0.2,2.1,0.1c0.7,0.4,1.2,1.1,1.6,2.1L469.4,126.5z
			 M468,124.9c-0.3-0.8-0.7-1.4-1.2-1.7c-0.5-0.3-1-0.4-1.6-0.1c-0.6,0.2-1,0.6-1.1,1.2c-0.1,0.6-0.1,1.2,0.2,2.1l0.8,2
			c0.3,0.8,0.7,1.4,1.2,1.7s1,0.4,1.6,0.2c0.6-0.2,1-0.6,1.1-1.2s0.1-1.3-0.3-2.1L468,124.9z"/>
		<path class="st42" d="M472.8,129l-0.8,0.2l-0.3-0.9l0.8-0.2L472.8,129z"/>
		<path class="st42" d="M477.9,124.8l1.3-0.3l0.1,0.6l-1.3,0.3l0.4,1.5l0.9-0.1l0.1,0.5l-2.5,0.6l-0.1-0.5l0.9-0.3l-0.4-1.5
			l-3.9,0.9l-0.1-0.4l2.4-6.7l0.7-0.2L477.9,124.8z M474.2,125.7l3.1-0.7l-1.1-4.7l0,0l-0.1,0.7L474.2,125.7z"/>
	</g>
</g>
<g id="deployments">
</g>
<g id="containers_x2F_volumes">
	<g>
		<g>
			<polygon class="st50" points="179.7,193.3 190.3,187.2 200.8,193.3 190.3,199.4 			"/>
			<polygon class="st50" points="179.7,205.5 179.7,193.3 190.3,199.4 190.3,211.6 			"/>
			<polygon class="st50" points="190.3,211.6 190.3,199.4 200.8,193.3 200.8,205.5 			"/>
		</g>
		<g>
			<path class="st51" d="M229.9,204.7C229.9,204.7,229.9,204.6,229.9,204.7C229.9,204.6,229.9,204.6,229.9,204.7V194h-21.1v10.6
				c0,0,0,0,0,0c0,0,0,0,0,0v0.2h0c0.2,2.9,4.9,5.2,10.5,5.2c5.7,0,10.3-2.3,10.5-5.2h0V204.7z"/>
			<ellipse class="st51" cx="219.3" cy="194.1" rx="10.6" ry="5.4"/>
		</g>
	</g>
	<g>
		<g>
			<polygon class="st50" points="78.1,193.9 88.7,187.8 99.2,193.9 88.7,200 			"/>
			<polygon class="st50" points="78.1,206.1 78.1,193.9 88.7,200 88.7,212.2 			"/>
			<polygon class="st50" points="88.7,212.2 88.7,200 99.2,193.9 99.2,206.1 			"/>
		</g>
	</g>
	<g>
		<g>
			<polygon class="st50" points="324,181.2 334.5,175.1 345.1,181.2 334.5,187.3 			"/>
			<polygon class="st50" points="324,193.4 324,181.2 334.5,187.3 334.5,199.5 			"/>
			<polygon class="st50" points="334.5,199.5 334.5,187.3 345.1,181.2 345.1,193.4 			"/>
		</g>
		<g>
			<polygon class="st50" points="312.1,204.4 320,199.9 327.9,204.4 320,209 			"/>
			<polygon class="st50" points="312.1,213.6 312.1,204.4 320,209 320,218.2 			"/>
			<polygon class="st50" points="320,218.2 320,209 327.9,204.4 327.9,213.6 			"/>
		</g>
		<g>
			<path class="st51" d="M359.6,214.3C359.6,214.3,359.6,214.3,359.6,214.3C359.6,214.3,359.6,214.2,359.6,214.3v-10.6h-21.1v10.6
				c0,0,0,0,0,0c0,0,0,0,0,0v0.2h0c0.2,2.9,4.9,5.2,10.5,5.2s10.3-2.3,10.5-5.2h0V214.3z"/>
			<ellipse class="st51" cx="349" cy="203.8" rx="10.6" ry="5.4"/>
		</g>
	</g>
	<g>
		<g>
			<path class="st51" d="M477.3,206C477.3,206,477.3,206,477.3,206C477.3,206,477.3,206,477.3,206v-10.6h-21.1V206c0,0,0,0,0,0
				c0,0,0,0,0,0v0.2h0c0.2,2.9,4.9,5.2,10.5,5.2s10.3-2.3,10.5-5.2h0V206z"/>
			<ellipse class="st51" cx="466.7" cy="195.5" rx="10.6" ry="5.4"/>
		</g>
		<g>
			<path class="st51" d="M520.7,184.3C520.7,184.3,520.7,184.3,520.7,184.3C520.7,184.3,520.7,184.3,520.7,184.3v-10.6h-21.1v10.6
				c0,0,0,0,0,0c0,0,0,0,0,0v0.2h0c0.2,2.9,4.9,5.2,10.5,5.2c5.7,0,10.3-2.3,10.5-5.2h0V184.3z"/>
			<ellipse class="st51" cx="510.1" cy="173.8" rx="10.6" ry="5.4"/>
		</g>
		<g>
			<polygon class="st50" points="485,194.7 495.6,188.6 506.2,194.7 495.6,200.8 			"/>
			<polygon class="st50" points="485,206.9 485,194.7 495.6,200.8 495.6,212.9 			"/>
			<polygon class="st50" points="495.6,212.9 495.6,200.8 506.2,194.7 506.2,206.9 			"/>
		</g>
		<g>
			<polygon class="st50" points="516.7,196.2 524.6,191.6 532.5,196.2 524.6,200.8 			"/>
			<polygon class="st50" points="516.7,205.3 516.7,196.2 524.6,200.8 524.6,209.9 			"/>
			<polygon class="st50" points="524.6,209.9 524.6,200.8 532.5,196.2 532.5,205.3 			"/>
		</g>
	</g>
	<g>
		<g>
			<polygon class="st50" points="484.2,219.3 478.9,216.3 473.6,219.3 478.9,222.4 			"/>
			<polygon class="st50" points="484.2,225.4 484.2,219.3 478.9,222.4 478.9,228.5 			"/>
			<polygon class="st50" points="478.9,228.5 478.9,222.4 473.6,219.3 473.6,225.4 			"/>
		</g>
	</g>
</g>
<g id="labels_x2F_selectors">
</g>
<g id="description">
	<g>
		<path class="st42" d="M192.1,293.1c1.1,0,2,0.3,2.6,0.9s1,1.3,1,2.2c0,0.9-0.3,1.7-1,2.2c-0.6,0.6-1.5,0.8-2.6,0.8h-1.6v2.1l1,0.2
			v1.2h-4v-1.2l1-0.2v-6.9l-1-0.2v-1.2h1H192.1z M190.5,297.8h1.6c0.5,0,0.9-0.1,1.2-0.4c0.3-0.3,0.4-0.7,0.4-1.1
			c0-0.5-0.1-0.8-0.4-1.2c-0.3-0.3-0.7-0.5-1.2-0.5h-1.6V297.8z"/>
		<path class="st42" d="M196.3,299.1c0-1.1,0.3-1.9,0.9-2.6c0.6-0.7,1.4-1,2.5-1c1.1,0,1.9,0.3,2.5,1c0.6,0.7,0.9,1.6,0.9,2.6v0.1
			c0,1.1-0.3,2-0.9,2.6c-0.6,0.7-1.4,1-2.5,1c-1.1,0-1.9-0.3-2.5-1c-0.6-0.7-0.9-1.6-0.9-2.6V299.1z M198.2,299.2
			c0,0.7,0.1,1.2,0.3,1.6c0.2,0.4,0.6,0.6,1.1,0.6c0.5,0,0.9-0.2,1.1-0.6s0.3-0.9,0.3-1.6v-0.1c0-0.6-0.1-1.2-0.4-1.6
			c-0.2-0.4-0.6-0.6-1.1-0.6c-0.5,0-0.9,0.2-1.1,0.6c-0.2,0.4-0.3,0.9-0.3,1.6V299.2z"/>
		<path class="st42" d="M208.6,301.9c-0.2,0.3-0.5,0.6-0.8,0.8c-0.3,0.2-0.7,0.3-1.1,0.3c-0.9,0-1.6-0.3-2.1-1s-0.7-1.5-0.7-2.6
			v-0.1c0-1.1,0.2-2,0.7-2.7c0.5-0.7,1.2-1,2.1-1c0.4,0,0.7,0.1,1,0.2c0.3,0.2,0.5,0.4,0.8,0.7v-2.6l-1-0.2v-1.2h1h1.9v9l0.9,0.2
			v1.2h-2.6L208.6,301.9z M205.9,299.4c0,0.6,0.1,1.1,0.3,1.5s0.6,0.5,1,0.5c0.3,0,0.5-0.1,0.7-0.2s0.4-0.3,0.5-0.5v-3
			c-0.1-0.2-0.3-0.4-0.5-0.5c-0.2-0.1-0.4-0.2-0.7-0.2c-0.5,0-0.8,0.2-1,0.6s-0.3,1-0.3,1.6V299.4z"/>
		<path class="st42" d="M215.4,302.8v-1.3l3.1-3.4c0.5-0.5,0.8-1,1-1.3c0.2-0.4,0.3-0.7,0.3-1c0-0.4-0.1-0.7-0.3-1
			c-0.2-0.3-0.5-0.4-0.9-0.4c-0.4,0-0.8,0.2-1,0.5c-0.2,0.3-0.3,0.7-0.3,1.2h-1.9l0,0c0-0.9,0.3-1.6,0.9-2.2
			c0.6-0.6,1.4-0.9,2.4-0.9c1,0,1.8,0.3,2.4,0.8s0.9,1.2,0.9,2.1c0,0.6-0.2,1.1-0.5,1.6c-0.3,0.5-0.9,1.1-1.6,1.9l-1.7,1.9l0,0h2.5
			l0.1-1h1.5v2.4H215.4z"/>
	</g>
	<g>
		<path class="st42" d="M76.8,293.1c1.1,0,2,0.3,2.6,0.9s1,1.3,1,2.2c0,0.9-0.3,1.7-1,2.2c-0.6,0.6-1.5,0.8-2.6,0.8h-1.6v2.1l1,0.2
			v1.2h-4v-1.2l1-0.2v-6.9l-1-0.2v-1.2h1H76.8z M75.2,297.8h1.6c0.5,0,0.9-0.1,1.2-0.4c0.3-0.3,0.4-0.7,0.4-1.1
			c0-0.5-0.1-0.8-0.4-1.2c-0.3-0.3-0.7-0.5-1.2-0.5h-1.6V297.8z"/>
		<path class="st42" d="M80.9,299.1c0-1.1,0.3-1.9,0.9-2.6c0.6-0.7,1.4-1,2.5-1c1.1,0,1.9,0.3,2.5,1c0.6,0.7,0.9,1.6,0.9,2.6v0.1
			c0,1.1-0.3,2-0.9,2.6c-0.6,0.7-1.4,1-2.5,1c-1.1,0-1.9-0.3-2.5-1c-0.6-0.7-0.9-1.6-0.9-2.6V299.1z M82.9,299.2
			c0,0.7,0.1,1.2,0.3,1.6c0.2,0.4,0.6,0.6,1.1,0.6c0.5,0,0.9-0.2,1.1-0.6s0.3-0.9,0.3-1.6v-0.1c0-0.6-0.1-1.2-0.4-1.6
			c-0.2-0.4-0.6-0.6-1.1-0.6c-0.5,0-0.9,0.2-1.1,0.6c-0.2,0.4-0.3,0.9-0.3,1.6V299.2z"/>
		<path class="st42" d="M93.2,301.9c-0.2,0.3-0.5,0.6-0.8,0.8c-0.3,0.2-0.7,0.3-1.1,0.3c-0.9,0-1.6-0.3-2.1-1s-0.7-1.5-0.7-2.6v-0.1
			c0-1.1,0.2-2,0.7-2.7c0.5-0.7,1.2-1,2.1-1c0.4,0,0.7,0.1,1,0.2c0.3,0.2,0.5,0.4,0.8,0.7v-2.6l-1-0.2v-1.2h1h1.9v9l0.9,0.2v1.2
			h-2.6L93.2,301.9z M90.5,299.4c0,0.6,0.1,1.1,0.3,1.5s0.6,0.5,1,0.5c0.3,0,0.5-0.1,0.7-0.2s0.4-0.3,0.5-0.5v-3
			c-0.1-0.2-0.3-0.4-0.5-0.5c-0.2-0.1-0.4-0.2-0.7-0.2c-0.5,0-0.8,0.2-1,0.6s-0.3,1-0.3,1.6V299.4z"/>
		<path class="st42" d="M100,301.6l1.6-0.2v-6.5h-1.7v-1.1l3.6-0.7v8.3l1.6,0.2v1.2H100V301.6z"/>
	</g>
	<g>
		<path class="st42" d="M322,293.1c1.1,0,2,0.3,2.6,0.9s1,1.3,1,2.2c0,0.9-0.3,1.7-1,2.2c-0.6,0.6-1.5,0.8-2.6,0.8h-1.6v2.1l1,0.2
			v1.2h-4v-1.2l1-0.2v-6.9l-1-0.2v-1.2h1H322z M320.3,297.8h1.6c0.5,0,0.9-0.1,1.2-0.4c0.3-0.3,0.4-0.7,0.4-1.1
			c0-0.5-0.1-0.8-0.4-1.2c-0.3-0.3-0.7-0.5-1.2-0.5h-1.6V297.8z"/>
		<path class="st42" d="M326.1,299.1c0-1.1,0.3-1.9,0.9-2.6c0.6-0.7,1.4-1,2.5-1c1.1,0,1.9,0.3,2.5,1c0.6,0.7,0.9,1.6,0.9,2.6v0.1
			c0,1.1-0.3,2-0.9,2.6c-0.6,0.7-1.4,1-2.5,1c-1.1,0-1.9-0.3-2.5-1c-0.6-0.7-0.9-1.6-0.9-2.6V299.1z M328.1,299.2
			c0,0.7,0.1,1.2,0.3,1.6c0.2,0.4,0.6,0.6,1.1,0.6c0.5,0,0.9-0.2,1.1-0.6s0.3-0.9,0.3-1.6v-0.1c0-0.6-0.1-1.2-0.4-1.6
			c-0.2-0.4-0.6-0.6-1.1-0.6c-0.5,0-0.9,0.2-1.1,0.6c-0.2,0.4-0.3,0.9-0.3,1.6V299.2z"/>
		<path class="st42" d="M338.4,301.9c-0.2,0.3-0.5,0.6-0.8,0.8c-0.3,0.2-0.7,0.3-1.1,0.3c-0.9,0-1.6-0.3-2.1-1s-0.7-1.5-0.7-2.6
			v-0.1c0-1.1,0.2-2,0.7-2.7c0.5-0.7,1.2-1,2.1-1c0.4,0,0.7,0.1,1,0.2c0.3,0.2,0.5,0.4,0.8,0.7v-2.6l-1-0.2v-1.2h1h1.9v9l0.9,0.2
			v1.2h-2.6L338.4,301.9z M335.7,299.4c0,0.6,0.1,1.1,0.3,1.5s0.6,0.5,1,0.5c0.3,0,0.5-0.1,0.7-0.2s0.4-0.3,0.5-0.5v-3
			c-0.1-0.2-0.3-0.4-0.5-0.5c-0.2-0.1-0.4-0.2-0.7-0.2c-0.5,0-0.8,0.2-1,0.6s-0.3,1-0.3,1.6V299.4z"/>
		<path class="st42" d="M347.2,297.1h1.1c0.5,0,0.8-0.1,1-0.4s0.3-0.6,0.3-1c0-0.4-0.1-0.7-0.3-0.9c-0.2-0.2-0.5-0.4-1-0.4
			c-0.4,0-0.7,0.1-0.9,0.3c-0.2,0.2-0.4,0.5-0.4,0.8h-1.9l0,0c0-0.8,0.3-1.4,0.9-1.9c0.6-0.5,1.4-0.7,2.3-0.7c1,0,1.8,0.2,2.4,0.7
			c0.6,0.5,0.9,1.2,0.9,2c0,0.4-0.1,0.8-0.4,1.2s-0.6,0.7-1.1,0.9c0.5,0.2,0.9,0.5,1.2,0.9s0.4,0.9,0.4,1.4c0,0.9-0.3,1.6-1,2.1
			c-0.6,0.5-1.5,0.8-2.5,0.8c-0.9,0-1.7-0.2-2.3-0.7c-0.6-0.5-1-1.1-0.9-2l0,0h1.9c0,0.4,0.1,0.7,0.4,0.9s0.6,0.4,1,0.4
			c0.4,0,0.8-0.1,1.1-0.4c0.3-0.2,0.4-0.6,0.4-1c0-0.5-0.1-0.9-0.4-1.1c-0.3-0.2-0.6-0.4-1.1-0.4h-1.1V297.1z"/>
	</g>
	<g>
		<path class="st42" d="M481.8,293.1c1.1,0,2,0.3,2.6,0.9s1,1.3,1,2.2c0,0.9-0.3,1.7-1,2.2c-0.6,0.6-1.5,0.8-2.6,0.8h-1.6v2.1l1,0.2
			v1.2h-4v-1.2l1-0.2v-6.9l-1-0.2v-1.2h1H481.8z M480.2,297.8h1.6c0.5,0,0.9-0.1,1.2-0.4c0.3-0.3,0.4-0.7,0.4-1.1
			c0-0.5-0.1-0.8-0.4-1.2c-0.3-0.3-0.7-0.5-1.2-0.5h-1.6V297.8z"/>
		<path class="st42" d="M486,299.1c0-1.1,0.3-1.9,0.9-2.6c0.6-0.7,1.4-1,2.5-1c1.1,0,1.9,0.3,2.5,1c0.6,0.7,0.9,1.6,0.9,2.6v0.1
			c0,1.1-0.3,2-0.9,2.6c-0.6,0.7-1.4,1-2.5,1c-1.1,0-1.9-0.3-2.5-1c-0.6-0.7-0.9-1.6-0.9-2.6V299.1z M487.9,299.2
			c0,0.7,0.1,1.2,0.3,1.6c0.2,0.4,0.6,0.6,1.1,0.6c0.5,0,0.9-0.2,1.1-0.6s0.3-0.9,0.3-1.6v-0.1c0-0.6-0.1-1.2-0.4-1.6
			c-0.2-0.4-0.6-0.6-1.1-0.6c-0.5,0-0.9,0.2-1.1,0.6c-0.2,0.4-0.3,0.9-0.3,1.6V299.2z"/>
		<path class="st42" d="M498.3,301.9c-0.2,0.3-0.5,0.6-0.8,0.8c-0.3,0.2-0.7,0.3-1.1,0.3c-0.9,0-1.6-0.3-2.1-1s-0.7-1.5-0.7-2.6
			v-0.1c0-1.1,0.2-2,0.7-2.7c0.5-0.7,1.2-1,2.1-1c0.4,0,0.7,0.1,1,0.2c0.3,0.2,0.5,0.4,0.8,0.7v-2.6l-1-0.2v-1.2h1h1.9v9l0.9,0.2
			v1.2h-2.6L498.3,301.9z M495.6,299.4c0,0.6,0.1,1.1,0.3,1.5s0.6,0.5,1,0.5c0.3,0,0.5-0.1,0.7-0.2s0.4-0.3,0.5-0.5v-3
			c-0.1-0.2-0.3-0.4-0.5-0.5c-0.2-0.1-0.4-0.2-0.7-0.2c-0.5,0-0.8,0.2-1,0.6s-0.3,1-0.3,1.6V299.4z"/>
		<path class="st42" d="M510.8,299.2h1.1v1.3h-1.1v0.9l1,0.2v1.2h-4v-1.2l1-0.2v-0.9h-3.9l-0.1-0.9l4-6.4h2V299.2z M506.6,299.2h2.2
			v-3.5l0,0l-0.2,0.3L506.6,299.2z"/>
	</g>
	<g>
		<path class="st42" d="M601.8,204.1c0.4,0,0.7-0.1,1-0.4s0.4-0.5,0.4-0.9h1l0,0c0,0.5-0.2,1-0.7,1.5s-1.1,0.6-1.8,0.6
			c-0.9,0-1.6-0.3-2.1-0.9s-0.7-1.4-0.7-2.3v-0.2c0-0.9,0.2-1.7,0.7-2.3s1.2-0.9,2.1-0.9c0.5,0,1,0.1,1.4,0.3s0.7,0.4,1,0.7l0.1,1.4
			h-0.9l-0.3-1c-0.1-0.1-0.3-0.2-0.5-0.3s-0.5-0.1-0.7-0.1c-0.6,0-1,0.2-1.3,0.7s-0.4,1-0.4,1.6v0.2c0,0.6,0.1,1.2,0.4,1.6
			S601.2,204.1,601.8,204.1z"/>
		<path class="st42" d="M605.4,201.7c0-0.9,0.3-1.7,0.8-2.3s1.2-0.9,2.1-0.9c0.9,0,1.6,0.3,2.1,0.9s0.8,1.4,0.8,2.3v0.1
			c0,0.9-0.3,1.7-0.8,2.3s-1.2,0.9-2.1,0.9c-0.9,0-1.6-0.3-2.1-0.9s-0.8-1.4-0.8-2.3V201.7z M606.6,201.8c0,0.7,0.1,1.2,0.4,1.7
			s0.7,0.7,1.3,0.7c0.5,0,1-0.2,1.2-0.7s0.4-1,0.4-1.7v-0.1c0-0.7-0.1-1.2-0.4-1.7s-0.7-0.7-1.3-0.7s-1,0.2-1.3,0.7s-0.4,1-0.4,1.7
			V201.8z"/>
		<path class="st42" d="M612,204.2l1-0.2v-4.5l-1-0.2v-0.7h2l0.1,0.9c0.2-0.3,0.5-0.6,0.8-0.8s0.7-0.3,1.1-0.3
			c0.7,0,1.2,0.2,1.6,0.6s0.6,1,0.6,1.9v3.1l1,0.2v0.7H616v-0.7l1-0.2v-3.1c0-0.6-0.1-1-0.3-1.2s-0.6-0.4-1-0.4
			c-0.3,0-0.6,0.1-0.9,0.2s-0.5,0.4-0.6,0.7v3.7l1,0.2v0.7H612V204.2z"/>
		<path class="st42" d="M621.9,197.1v1.5h1.2v0.9h-1.2v3.8c0,0.3,0.1,0.5,0.2,0.6s0.3,0.2,0.5,0.2c0.1,0,0.2,0,0.3,0s0.2,0,0.3-0.1
			l0.2,0.8c-0.1,0.1-0.3,0.1-0.5,0.2s-0.4,0.1-0.6,0.1c-0.5,0-0.8-0.1-1.1-0.4s-0.4-0.7-0.4-1.3v-3.8h-1v-0.9h1v-1.5H621.9z"/>
		<path class="st42" d="M628.4,204.9c0-0.2-0.1-0.3-0.1-0.5s0-0.3,0-0.4c-0.2,0.3-0.5,0.5-0.8,0.7s-0.7,0.3-1.1,0.3
			c-0.7,0-1.2-0.2-1.5-0.5s-0.5-0.8-0.5-1.4c0-0.6,0.2-1.1,0.7-1.4s1.2-0.5,2-0.5h1.2v-0.7c0-0.4-0.1-0.7-0.4-0.9s-0.6-0.3-1-0.3
			c-0.3,0-0.5,0-0.8,0.1s-0.4,0.2-0.5,0.3l-0.1,0.7h-0.9v-1.2c0.3-0.2,0.6-0.4,1-0.6s0.9-0.2,1.3-0.2c0.7,0,1.3,0.2,1.7,0.6
			s0.7,0.9,0.7,1.6v3.1c0,0.1,0,0.2,0,0.2s0,0.2,0,0.2l0.5,0.1v0.7H628.4z M626.6,204.1c0.4,0,0.7-0.1,1-0.3s0.5-0.4,0.7-0.7v-1
			h-1.2c-0.5,0-0.8,0.1-1.1,0.3s-0.4,0.5-0.4,0.8c0,0.3,0.1,0.5,0.3,0.6S626.2,204.1,626.6,204.1z"/>
		<path class="st42" d="M630.9,204.2l1-0.2v-4.5l-1-0.2v-0.7h2.1v5.4l1,0.2v0.7h-3.1V204.2z M633,197h-1.2v-1.2h1.2V197z"/>
		<path class="st42" d="M634.7,204.2l1-0.2v-4.5l-1-0.2v-0.7h2l0.1,0.9c0.2-0.3,0.5-0.6,0.8-0.8s0.7-0.3,1.1-0.3
			c0.7,0,1.2,0.2,1.6,0.6s0.6,1,0.6,1.9v3.1l1,0.2v0.7h-3.1v-0.7l1-0.2v-3.1c0-0.6-0.1-1-0.3-1.2s-0.6-0.4-1-0.4
			c-0.3,0-0.6,0.1-0.9,0.2s-0.5,0.4-0.6,0.7v3.7l1,0.2v0.7h-3.1V204.2z"/>
		<path class="st42" d="M645.4,205c-0.9,0-1.6-0.3-2.1-0.9s-0.8-1.4-0.8-2.3v-0.3c0-0.9,0.3-1.7,0.8-2.3s1.2-0.9,1.9-0.9
			c0.9,0,1.5,0.3,1.9,0.8s0.7,1.2,0.7,2.1v0.7h-4.1l0,0c0,0.6,0.2,1.1,0.5,1.5s0.7,0.6,1.2,0.6c0.4,0,0.7-0.1,1-0.2s0.5-0.3,0.8-0.5
			l0.5,0.8c-0.2,0.2-0.5,0.4-0.9,0.6S645.9,205,645.4,205z M645.2,199.4c-0.4,0-0.7,0.2-1,0.5s-0.4,0.7-0.5,1.2l0,0h2.9V201
			c0-0.5-0.1-0.8-0.4-1.1S645.7,199.4,645.2,199.4z"/>
		<path class="st42" d="M649,199.3v-0.7h2l0.1,0.9c0.2-0.3,0.4-0.6,0.7-0.8s0.6-0.3,0.9-0.3c0.1,0,0.2,0,0.3,0s0.2,0,0.2,0l-0.2,1.1
			l-0.7,0c-0.3,0-0.6,0.1-0.8,0.2s-0.4,0.3-0.5,0.6v3.6l1,0.2v0.7H649v-0.7l1-0.2v-4.5L649,199.3z"/>
		<path class="st42" d="M653.9,204.2l1-0.2v-4.5l-1-0.2v-0.7h2.1v5.4l1,0.2v0.7h-3.1V204.2z M656,197h-1.2v-1.2h1.2V197z"/>
		<path class="st42" d="M659.4,204h2.6l0.1-1h1v1.9h-5v-0.8l3.4-4.6h-2.3l-0.1,1h-1v-1.9h4.8v0.8L659.4,204z"/>
		<path class="st42" d="M667,205c-0.9,0-1.6-0.3-2.1-0.9s-0.8-1.4-0.8-2.3v-0.3c0-0.9,0.3-1.7,0.8-2.3s1.2-0.9,1.9-0.9
			c0.9,0,1.5,0.3,1.9,0.8s0.7,1.2,0.7,2.1v0.7h-4.1l0,0c0,0.6,0.2,1.1,0.5,1.5s0.7,0.6,1.2,0.6c0.4,0,0.7-0.1,1-0.2s0.5-0.3,0.8-0.5
			l0.5,0.8c-0.2,0.2-0.5,0.4-0.9,0.6S667.5,205,667,205z M666.8,199.4c-0.4,0-0.7,0.2-1,0.5s-0.4,0.7-0.5,1.2l0,0h2.9V201
			c0-0.5-0.1-0.8-0.4-1.1S667.3,199.4,666.8,199.4z"/>
		<path class="st42" d="M674.8,204.2c-0.2,0.3-0.5,0.5-0.8,0.7s-0.6,0.2-1,0.2c-0.8,0-1.4-0.3-1.8-0.8s-0.7-1.3-0.7-2.2v-0.1
			c0-1,0.2-1.8,0.7-2.5s1-0.9,1.8-0.9c0.4,0,0.7,0.1,1,0.2s0.5,0.3,0.7,0.6v-2.6l-1-0.2v-0.7h1h1.2v8.2l1,0.2v0.7h-2L674.8,204.2z
			 M671.7,202c0,0.6,0.1,1.1,0.4,1.5s0.7,0.6,1.2,0.6c0.3,0,0.6-0.1,0.9-0.2s0.4-0.4,0.6-0.7v-2.9c-0.1-0.3-0.3-0.5-0.6-0.6
			s-0.5-0.2-0.9-0.2c-0.6,0-1,0.2-1.2,0.7s-0.4,1.1-0.4,1.8V202z"/>
		<path class="st42" d="M684.9,204.9c0-0.2-0.1-0.3-0.1-0.5s0-0.3,0-0.4c-0.2,0.3-0.5,0.5-0.8,0.7s-0.7,0.3-1.1,0.3
			c-0.7,0-1.2-0.2-1.5-0.5s-0.5-0.8-0.5-1.4c0-0.6,0.2-1.1,0.7-1.4s1.2-0.5,2-0.5h1.2v-0.7c0-0.4-0.1-0.7-0.4-0.9s-0.6-0.3-1-0.3
			c-0.3,0-0.5,0-0.8,0.1s-0.4,0.2-0.5,0.3l-0.1,0.7h-0.9v-1.2c0.3-0.2,0.6-0.4,1-0.6s0.9-0.2,1.3-0.2c0.7,0,1.3,0.2,1.7,0.6
			s0.7,0.9,0.7,1.6v3.1c0,0.1,0,0.2,0,0.2s0,0.2,0,0.2l0.5,0.1v0.7H684.9z M683,204.1c0.4,0,0.7-0.1,1-0.3s0.5-0.4,0.7-0.7v-1h-1.2
			c-0.5,0-0.8,0.1-1.1,0.3s-0.4,0.5-0.4,0.8c0,0.3,0.1,0.5,0.3,0.6S682.7,204.1,683,204.1z"/>
		<path class="st42" d="M687.2,206.6l1-0.2v-7l-1-0.2v-0.7h1.9l0.1,0.8c0.2-0.3,0.5-0.5,0.8-0.7s0.7-0.2,1.1-0.2
			c0.8,0,1.4,0.3,1.8,0.9s0.7,1.4,0.7,2.5v0.1c0,0.9-0.2,1.7-0.7,2.2s-1,0.8-1.8,0.8c-0.4,0-0.7-0.1-1-0.2s-0.5-0.3-0.8-0.6v2.2
			l1,0.2v0.7h-3.1V206.6z M692.4,201.9c0-0.7-0.1-1.3-0.4-1.8s-0.7-0.7-1.3-0.7c-0.3,0-0.6,0.1-0.8,0.2s-0.4,0.4-0.6,0.6v3.1
			c0.1,0.3,0.3,0.5,0.6,0.6s0.5,0.2,0.9,0.2c0.5,0,1-0.2,1.2-0.6s0.4-0.9,0.4-1.6V201.9z"/>
		<path class="st42" d="M694.5,206.6l1-0.2v-7l-1-0.2v-0.7h1.9l0.1,0.8c0.2-0.3,0.5-0.5,0.8-0.7s0.7-0.2,1.1-0.2
			c0.8,0,1.4,0.3,1.8,0.9s0.7,1.4,0.7,2.5v0.1c0,0.9-0.2,1.7-0.7,2.2s-1,0.8-1.8,0.8c-0.4,0-0.7-0.1-1-0.2s-0.5-0.3-0.8-0.6v2.2
			l1,0.2v0.7h-3.1V206.6z M699.7,201.9c0-0.7-0.1-1.3-0.4-1.8s-0.7-0.7-1.3-0.7c-0.3,0-0.6,0.1-0.8,0.2s-0.4,0.4-0.6,0.6v3.1
			c0.1,0.3,0.3,0.5,0.6,0.6s0.5,0.2,0.9,0.2c0.5,0,1-0.2,1.2-0.6s0.4-0.9,0.4-1.6V201.9z"/>
	</g>
	<line class="st61" x1="596.4" y1="202.5" x2="523.3" y2="202.5"/>
	<g>
		<path class="st42" d="M601.1,179.3l-0.8,0.1l1.3,3.6l0.1,0.5h0l0.1-0.5l1.3-3.6l-0.8-0.1v-0.7h2.4v0.7l-0.5,0.1l-2.1,5.5h-0.9
			l-2.2-5.5l-0.5-0.1v-0.7h2.4V179.3z"/>
		<path class="st42" d="M605.6,181.6c0-0.9,0.3-1.7,0.8-2.3s1.2-0.9,2.1-0.9c0.9,0,1.6,0.3,2.1,0.9s0.8,1.4,0.8,2.3v0.1
			c0,0.9-0.3,1.7-0.8,2.3s-1.2,0.9-2.1,0.9c-0.9,0-1.6-0.3-2.1-0.9s-0.8-1.4-0.8-2.3V181.6z M606.7,181.7c0,0.7,0.1,1.2,0.4,1.7
			s0.7,0.7,1.3,0.7c0.5,0,1-0.2,1.2-0.7s0.4-1,0.4-1.7v-0.1c0-0.7-0.1-1.2-0.4-1.7s-0.7-0.7-1.3-0.7s-1,0.2-1.3,0.7s-0.4,1-0.4,1.7
			V181.7z"/>
		<path class="st42" d="M612,176.5v-0.7h2.1v8.2l1,0.2v0.7H612v-0.7l1-0.2v-7.3L612,176.5z"/>
		<path class="st42" d="M620.5,183.9c-0.2,0.3-0.5,0.6-0.8,0.8s-0.7,0.3-1.1,0.3c-0.7,0-1.2-0.2-1.6-0.7s-0.6-1.1-0.6-2.1v-2.8
			l-0.7-0.2v-0.7h0.7h1.2v3.8c0,0.7,0.1,1.1,0.3,1.4s0.5,0.4,0.9,0.4c0.4,0,0.7-0.1,1-0.2s0.5-0.4,0.6-0.7v-3.7l-0.8-0.2v-0.7h0.8
			h1.2v5.4l0.7,0.2v0.7h-1.8L620.5,183.9z"/>
		<path class="st42" d="M623,184.1l1-0.2v-4.5l-1-0.2v-0.7h2l0.1,0.8c0.2-0.3,0.5-0.5,0.8-0.7s0.7-0.2,1.1-0.2s0.8,0.1,1.1,0.3
			s0.5,0.5,0.7,0.9c0.2-0.4,0.5-0.6,0.8-0.9s0.7-0.3,1.1-0.3c0.6,0,1.2,0.2,1.5,0.7s0.6,1.1,0.6,2v2.9l1,0.2v0.7h-3.1v-0.7l1-0.2
			V181c0-0.6-0.1-1.1-0.3-1.3s-0.5-0.4-1-0.4c-0.4,0-0.7,0.1-1,0.4s-0.4,0.6-0.4,1.1v3.1l1,0.2v0.7h-3.1v-0.7l1-0.2V181
			c0-0.6-0.1-1-0.3-1.3s-0.5-0.4-1-0.4c-0.4,0-0.6,0.1-0.9,0.2s-0.4,0.3-0.5,0.6v3.8l1,0.2v0.7H623V184.1z"/>
		<path class="st42" d="M637.4,185c-0.9,0-1.6-0.3-2.1-0.9s-0.8-1.4-0.8-2.3v-0.3c0-0.9,0.3-1.7,0.8-2.3s1.2-0.9,1.9-0.9
			c0.9,0,1.5,0.3,1.9,0.8s0.7,1.2,0.7,2.1v0.7h-4.1l0,0c0,0.6,0.2,1.1,0.5,1.5s0.7,0.6,1.2,0.6c0.4,0,0.7-0.1,1-0.2s0.5-0.3,0.8-0.5
			l0.5,0.8c-0.2,0.2-0.5,0.4-0.9,0.6S638,185,637.4,185z M637.3,179.3c-0.4,0-0.7,0.2-1,0.5s-0.4,0.7-0.5,1.2l0,0h2.9v-0.2
			c0-0.5-0.1-0.8-0.4-1.1S637.7,179.3,637.3,179.3z"/>
	</g>
	<line class="st61" x1="596.4" y1="182.4" x2="510" y2="182.4"/>
	<g>
		<path class="st42" d="M598.9,119.2v-0.7h3.1v0.7l-1,0.2v6.7l1,0.2v0.7h-3.1v-0.7l1-0.2v-6.7L598.9,119.2z"/>
		<path class="st42" d="M606.7,118.4c0.9,0,1.6,0.2,2.1,0.7s0.8,1.1,0.8,1.9c0,0.8-0.3,1.4-0.8,1.9s-1.2,0.7-2.1,0.7h-1.8v2.5l1,0.2
			v0.7h-3.1v-0.7l1-0.2v-6.7l-1-0.2v-0.7h1H606.7z M604.9,122.7h1.8c0.6,0,1-0.2,1.3-0.5s0.4-0.7,0.4-1.2s-0.1-0.9-0.4-1.2
			s-0.7-0.5-1.3-0.5h-1.8V122.7z"/>
		<path class="st42" d="M617.6,127c0-0.2-0.1-0.3-0.1-0.5s0-0.3,0-0.4c-0.2,0.3-0.5,0.5-0.8,0.7s-0.7,0.3-1.1,0.3
			c-0.7,0-1.2-0.2-1.5-0.5s-0.5-0.8-0.5-1.4c0-0.6,0.2-1.1,0.7-1.4s1.2-0.5,2-0.5h1.2v-0.7c0-0.4-0.1-0.7-0.4-0.9s-0.6-0.3-1-0.3
			c-0.3,0-0.5,0-0.8,0.1s-0.4,0.2-0.5,0.3l-0.1,0.7h-0.9v-1.2c0.3-0.2,0.6-0.4,1-0.6s0.9-0.2,1.3-0.2c0.7,0,1.3,0.2,1.7,0.6
			s0.7,0.9,0.7,1.6v3.1c0,0.1,0,0.2,0,0.2s0,0.2,0,0.2l0.5,0.1v0.7H617.6z M615.7,126.1c0.4,0,0.7-0.1,1-0.3s0.5-0.4,0.7-0.7v-1
			h-1.2c-0.5,0-0.8,0.1-1.1,0.3s-0.4,0.5-0.4,0.8c0,0.3,0.1,0.5,0.3,0.6S615.4,126.1,615.7,126.1z"/>
		<path class="st42" d="M624.3,126.2c-0.2,0.3-0.5,0.5-0.8,0.7s-0.6,0.2-1,0.2c-0.8,0-1.4-0.3-1.8-0.8s-0.7-1.3-0.7-2.2v-0.1
			c0-1,0.2-1.8,0.7-2.5s1-0.9,1.8-0.9c0.4,0,0.7,0.1,1,0.2s0.5,0.3,0.7,0.6v-2.6l-1-0.2v-0.7h1h1.2v8.2l1,0.2v0.7h-2L624.3,126.2z
			 M621.2,124c0,0.6,0.1,1.1,0.4,1.5s0.7,0.6,1.2,0.6c0.3,0,0.6-0.1,0.9-0.2s0.4-0.4,0.6-0.7v-2.9c-0.1-0.3-0.3-0.5-0.6-0.6
			s-0.5-0.2-0.9-0.2c-0.6,0-1,0.2-1.2,0.7s-0.4,1.1-0.4,1.8V124z"/>
		<path class="st42" d="M631.5,126.2c-0.2,0.3-0.5,0.5-0.8,0.7s-0.6,0.2-1,0.2c-0.8,0-1.4-0.3-1.8-0.8s-0.7-1.3-0.7-2.2v-0.1
			c0-1,0.2-1.8,0.7-2.5s1-0.9,1.8-0.9c0.4,0,0.7,0.1,1,0.2s0.5,0.3,0.7,0.6v-2.6l-1-0.2v-0.7h1h1.2v8.2l1,0.2v0.7h-2L631.5,126.2z
			 M628.4,124c0,0.6,0.1,1.1,0.4,1.5s0.7,0.6,1.2,0.6c0.3,0,0.6-0.1,0.9-0.2s0.4-0.4,0.6-0.7v-2.9c-0.1-0.3-0.3-0.5-0.6-0.6
			s-0.5-0.2-0.9-0.2c-0.6,0-1,0.2-1.2,0.7s-0.4,1.1-0.4,1.8V124z"/>
		<path class="st42" d="M634.5,121.4v-0.7h2l0.1,0.9c0.2-0.3,0.4-0.6,0.7-0.8s0.6-0.3,0.9-0.3c0.1,0,0.2,0,0.3,0s0.2,0,0.2,0
			l-0.2,1.1l-0.7,0c-0.3,0-0.6,0.1-0.8,0.2s-0.4,0.3-0.5,0.6v3.6l1,0.2v0.7h-3.1v-0.7l1-0.2v-4.5L634.5,121.4z"/>
		<path class="st42" d="M642.2,127.1c-0.9,0-1.6-0.3-2.1-0.9s-0.8-1.4-0.8-2.3v-0.3c0-0.9,0.3-1.7,0.8-2.3s1.2-0.9,1.9-0.9
			c0.9,0,1.5,0.3,1.9,0.8s0.7,1.2,0.7,2.1v0.7h-4.1l0,0c0,0.6,0.2,1.1,0.5,1.5s0.7,0.6,1.2,0.6c0.4,0,0.7-0.1,1-0.2s0.5-0.3,0.8-0.5
			l0.5,0.8c-0.2,0.2-0.5,0.4-0.9,0.6S642.7,127.1,642.2,127.1z M642,121.4c-0.4,0-0.7,0.2-1,0.5s-0.4,0.7-0.5,1.2l0,0h2.9V123
			c0-0.5-0.1-0.8-0.4-1.1S642.5,121.4,642,121.4z"/>
		<path class="st42" d="M650.6,122.6h-0.9l-0.2-0.8c-0.1-0.1-0.3-0.2-0.5-0.3s-0.5-0.1-0.7-0.1c-0.4,0-0.7,0.1-0.9,0.3
			s-0.3,0.4-0.3,0.7c0,0.2,0.1,0.4,0.3,0.6s0.5,0.3,1.1,0.4c0.8,0.2,1.4,0.4,1.8,0.7s0.6,0.7,0.6,1.2c0,0.6-0.2,1-0.7,1.4
			s-1,0.5-1.8,0.5c-0.5,0-0.9-0.1-1.3-0.2s-0.7-0.3-1-0.5l0-1.4h0.9l0.2,0.8c0.1,0.1,0.3,0.2,0.5,0.3s0.5,0.1,0.7,0.1
			c0.4,0,0.7-0.1,1-0.2s0.3-0.4,0.3-0.7c0-0.3-0.1-0.5-0.3-0.6s-0.6-0.3-1.1-0.4c-0.8-0.2-1.3-0.4-1.7-0.7s-0.6-0.7-0.6-1.2
			c0-0.5,0.2-1,0.7-1.3s1-0.5,1.7-0.5c0.5,0,0.9,0.1,1.3,0.2s0.7,0.3,1,0.5L650.6,122.6z"/>
		<path class="st42" d="M656.7,122.6h-0.9l-0.2-0.8c-0.1-0.1-0.3-0.2-0.5-0.3s-0.5-0.1-0.7-0.1c-0.4,0-0.7,0.1-0.9,0.3
			s-0.3,0.4-0.3,0.7c0,0.2,0.1,0.4,0.3,0.6s0.5,0.3,1.1,0.4c0.8,0.2,1.4,0.4,1.8,0.7s0.6,0.7,0.6,1.2c0,0.6-0.2,1-0.7,1.4
			s-1,0.5-1.8,0.5c-0.5,0-0.9-0.1-1.3-0.2s-0.7-0.3-1-0.5l0-1.4h0.9l0.2,0.8c0.1,0.1,0.3,0.2,0.5,0.3s0.5,0.1,0.7,0.1
			c0.4,0,0.7-0.1,1-0.2s0.3-0.4,0.3-0.7c0-0.3-0.1-0.5-0.3-0.6s-0.6-0.3-1.1-0.4c-0.8-0.2-1.3-0.4-1.7-0.7s-0.6-0.7-0.6-1.2
			c0-0.5,0.2-1,0.7-1.3s1-0.5,1.7-0.5c0.5,0,0.9,0.1,1.3,0.2s0.7,0.3,1,0.5L656.7,122.6z"/>
	</g>
	<line class="st61" x1="596.4" y1="124.6" x2="482.2" y2="124.6"/>
</g>
<g id="Layer_14">
</g>
</svg>
