<?xml version="1.0" encoding="utf-8"?>
<!-- Generator: Adobe Illustrator 19.2.1, SVG Export Plug-In . SVG Version: 6.00 Build 0)  -->
<svg version="1.1" xmlns="http://www.w3.org/2000/svg" xmlns:xlink="http://www.w3.org/1999/xlink" x="0px" y="0px"
	 viewBox="0 0 720.4 385.3" style="enable-background:new 0 0 720.4 385.3;" xml:space="preserve">
<style type="text/css">
	.st0{fill:#FFFFFF;stroke:#006DE9;stroke-linecap:round;stroke-linejoin:round;stroke-miterlimit:10;}
	.st1{fill:#FFFFFF;stroke:#006DE9;stroke-width:6;stroke-linecap:round;stroke-linejoin:round;stroke-miterlimit:10;}
	.st2{fill:#FFFFFF;stroke:#326DE6;stroke-width:2;stroke-linecap:round;stroke-linejoin:round;stroke-miterlimit:10;}
	.st3{opacity:0.71;fill:#326CE6;}
	.st4{opacity:0.45;fill:#FFFFFF;}
	.st5{fill:#FFFFFF;stroke:#006DE9;stroke-width:2;stroke-linecap:round;stroke-linejoin:round;stroke-miterlimit:10;}
	.st6{fill:#006DE9;}
	.st7{fill:#A0CAEA;}
	.st8{fill:#FFFFFF;}
	.st9{opacity:0.13;}
	.st10{fill:url(#SVGID_1_);}
	.st11{fill:url(#SVGID_2_);}
	.st12{fill:#FFFFFF;stroke:#326DE6;stroke-width:3.2;stroke-linecap:round;stroke-linejoin:round;stroke-miterlimit:10;}
	.st13{fill:#326DE6;}
	.st14{fill:none;stroke:#326DE6;stroke-width:2.4;stroke-miterlimit:10;}
	.st15{fill:#A0CAE9;}
	.st16{fill:#FFFFFF;stroke:#326DE6;stroke-width:1.6;stroke-linecap:round;stroke-linejoin:round;stroke-miterlimit:10;}
	.st17{fill:#FFFFFF;stroke:#326DE6;stroke-width:1.6;stroke-miterlimit:10;}
	.st18{fill:none;stroke:#06F7C9;stroke-width:2;stroke-miterlimit:10;}
	.st19{fill:none;stroke:#06F7C9;stroke-width:2;stroke-miterlimit:10;stroke-dasharray:2.3749,1.5832;}
	.st20{fill:none;stroke:#06F7C9;stroke-width:2;stroke-miterlimit:10;stroke-dasharray:2.4006,1.6004;}
	.st21{fill:none;stroke:#EEF406;stroke-width:2;stroke-miterlimit:10;stroke-dasharray:2.4,1.6;}
	.st22{fill:none;stroke:#EEF406;stroke-width:2;stroke-miterlimit:10;}
	.st23{fill:none;stroke:#EEF406;stroke-width:2;stroke-miterlimit:10;stroke-dasharray:2.3975,1.5984;}
	.st24{fill:none;stroke:#EEF406;stroke-width:2;stroke-miterlimit:10;stroke-dasharray:2.395,1.5966;}
	.st25{fill:none;stroke:#EEF406;stroke-width:2;stroke-miterlimit:10;stroke-dasharray:2.3963,1.5976;}
	.st26{opacity:0.1;fill:#EEF406;}
	.st27{opacity:2.000000e-02;fill:#EEF406;}
	.st28{opacity:0.1;fill:#06F7C9;}
	.st29{fill:none;stroke:#006DE9;stroke-width:0.8;stroke-miterlimit:10;}
	.st30{opacity:0.1;fill:url(#SVGID_3_);}
	.st31{opacity:0.1;fill:url(#SVGID_4_);}
	.st32{opacity:0.1;fill:url(#SVGID_5_);}
	.st33{opacity:0.1;fill:url(#SVGID_6_);}
	.st34{fill:none;stroke:#326DE6;stroke-width:1.2;stroke-miterlimit:10;}
	.st35{opacity:0.1;fill:url(#SVGID_7_);}
	.st36{opacity:0.1;fill:url(#SVGID_8_);}
	.st37{opacity:0.1;fill:url(#SVGID_9_);}
	.st38{opacity:0.1;fill:url(#SVGID_10_);}
	.st39{fill:none;stroke:#326DE6;stroke-width:2;stroke-miterlimit:10;}
	.st40{opacity:0.4;fill:none;stroke:#EEF406;stroke-width:2;stroke-miterlimit:10;}
	.st41{fill:none;stroke:#EEF406;stroke-width:2.4596;stroke-miterlimit:10;}
	.st42{fill:#011F38;}
	.st43{opacity:0.4;}
	.st44{opacity:0.1;}
	.st45{fill:#326DE6;stroke:#EEF406;stroke-width:2;stroke-miterlimit:10;}
	.st46{fill:none;stroke:#FFFFFF;stroke-width:1.2;stroke-linecap:round;stroke-linejoin:round;}
	.st47{fill:#06F7C9;stroke:#FFFFFF;stroke-width:0.3;stroke-linecap:round;stroke-linejoin:round;stroke-miterlimit:10;}
	.st48{fill:none;stroke:#011F38;stroke-width:1.2;stroke-linecap:round;stroke-linejoin:round;}
	.st49{fill:#326DE6;stroke:#06F7C9;stroke-width:2;stroke-miterlimit:10;}
	.st50{fill:#06F7C9;stroke:#011F38;stroke-width:0.8;stroke-linecap:round;stroke-linejoin:round;stroke-miterlimit:10;}
	.st51{fill:#8115FF;stroke:#011F38;stroke-width:0.8;stroke-linecap:round;stroke-linejoin:round;stroke-miterlimit:10;}
	.st52{opacity:0.3;}
	.st53{opacity:0.2;fill:#6D6E71;}
	.st54{fill:#EEF406;}
	.st55{fill:#06F7C9;}
	.st56{fill:#FFFFFF;stroke:#06F7C9;stroke-width:2;stroke-miterlimit:10;stroke-dasharray:2.4,1.6;}
	.st57{fill:#FFFFFF;stroke:#EEF406;stroke-width:1.6;stroke-miterlimit:10;stroke-dasharray:2.4,1.6;}
	.st58{fill:none;stroke:#06F7C9;stroke-width:2;stroke-miterlimit:10;stroke-dasharray:2.4938,1.6626;}
	.st59{fill:none;stroke:#06F7C9;stroke-width:2;stroke-miterlimit:10;stroke-dasharray:2.0084,1.3389;}
	.st60{fill:none;stroke:#06F7C9;stroke-width:2;stroke-miterlimit:10;stroke-dasharray:2.724,1.816;}
	.st61{fill:#011F38;stroke:#414042;stroke-width:0.3;stroke-linecap:round;stroke-linejoin:round;stroke-miterlimit:10;}
	.st62{fill:none;stroke:#011F38;stroke-width:0.3;stroke-linecap:round;stroke-linejoin:round;stroke-miterlimit:10;}
	.st63{fill:none;stroke:#011F38;stroke-width:0.2813;stroke-linecap:round;stroke-linejoin:round;stroke-miterlimit:10;}
</style>
<symbol  id="master_x5F_level1_1_" viewBox="-68.6 -66.9 137.2 133.9">
	<g>
		<g>
			<line class="st0" x1="0" y1="-11.1" x2="0" y2="0.7"/>
			<line class="st0" x1="5.9" y1="-5.2" x2="-5.9" y2="-5.2"/>
		</g>
		<polygon class="st1" points="-29.2,-63.9 -65.6,-18.3 -52.6,38.6 0,63.9 52.6,38.6 65.6,-18.3 29.2,-63.9 		"/>
	</g>
</symbol>
<symbol  id="node_high_level" viewBox="-81 -93 162 186.1">
	<polygon class="st2" points="-80,-46 -80,46 0,92 80,46 80,-46 0,-92 	"/>
	<g id="Isolation_Mode_3_">
	</g>
</symbol>
<symbol  id="node_x5F_empty" viewBox="-87.5 -100.6 175.1 201.1">
	
		<use xlink:href="#node_high_level"  width="162" height="186.1" id="XMLID_201_" x="-81" y="-93" transform="matrix(1.0808 0 0 1.0808 -3.292006e-05 -3.749943e-05)" style="overflow:visible;"/>
	<g>
		<polygon class="st3" points="76.8,-28.1 -14,-80.3 0,-88.3 76.7,-44.4 		"/>
		<polygon class="st4" points="76.8,-28.1 32.1,-53.8 38.8,-66.1 76.7,-44.4 		"/>
	</g>
</symbol>
<symbol  id="node_x5F_new" viewBox="-87.6 -101 175.2 202">
	<polygon class="st5" points="0,-100 -86.6,-50 -86.6,50 0,100 86.6,50 86.6,-50 	"/>
	<polygon class="st6" points="-86.6,-20.2 -86.6,-50 0,-100 25.8,-85.1 	"/>
	<polygon class="st7" points="-40.8,-70.7 -32.9,-57 15.7,-85.1 0,-94.3 	"/>
	
		<text transform="matrix(0.866 -0.5 -0.5 -0.866 -33.9256 -70.7388)" class="st8" style="font-family:'RobotoSlab-Regular'; font-size:11.3632px;">Docker</text>
	
		<text transform="matrix(0.866 -0.5 -0.5 -0.866 -76.0668 -46.4087)" class="st8" style="font-family:'RobotoSlab-Regular'; font-size:11.3632px;">Kubelt</text>
</symbol>
<g id="CLUSTER">
	<g id="XMLID_8_" class="st9">
		<g>
			<linearGradient id="SVGID_1_" gradientUnits="userSpaceOnUse" x1="202.1227" y1="185.5114" x2="516.5781" y2="185.5114">
				<stop  offset="0" style="stop-color:#326DE6"/>
				<stop  offset="1" style="stop-color:#10FFC6"/>
			</linearGradient>
			<polygon class="st10" points="485.4,92.9 516.6,229.4 429.3,338.8 289.4,338.8 202.1,229.4 233.3,92.9 359.3,32.2 			"/>
		</g>
	</g>
</g>
<g id="master">
	<g id="master_x5F_level1">
	</g>
	
		<use xlink:href="#master_x5F_level1_1_"  width="137.2" height="133.9" x="-68.6" y="-66.9" transform="matrix(0.4 0 0 -0.4 359.3485 187.4709)" style="overflow:visible;"/>
</g>
<g id="Node">
	<g id="Node_x5F_level3_x5F_1">
		<g id="Isolation_Mode">
		</g>
	</g>
	<polygon class="st16" points="398.8,160.7 363.1,140.1 363.1,98.9 398.8,78.4 434.4,98.9 434.4,140.1 	"/>
	<polygon class="st13" points="363.1,127.8 363.1,140.1 398.8,160.7 409.3,154.5 	"/>
	<polygon class="st7" points="382,148.6 385.2,143 405.2,154.5 398.8,158.3 	"/>
	<g>
		<path class="st8" d="M387.9,146.5c0.4,0.2,0.6,0.5,0.7,0.9c0.1,0.4,0,0.7-0.2,1.1l-0.2,0.4c-0.2,0.4-0.5,0.6-0.9,0.7
			c-0.4,0.1-0.7,0-1.1-0.2l-1.2-0.7l0.1-0.2l0.4,0.1l1.3-2.3l-0.3-0.2l0.1-0.3l0.3,0.2L387.9,146.5z M387.2,146.5l-1.3,2.3l0.5,0.3
			c0.3,0.2,0.5,0.2,0.8,0.1c0.3-0.1,0.5-0.3,0.6-0.5l0.2-0.4c0.2-0.3,0.2-0.5,0.2-0.8c-0.1-0.3-0.2-0.5-0.5-0.6L387.2,146.5z"/>
		<path class="st8" d="M388.5,149.2c0.2-0.3,0.4-0.5,0.7-0.6c0.3-0.1,0.6-0.1,0.9,0.1c0.3,0.2,0.5,0.4,0.5,0.7
			c0.1,0.3,0,0.6-0.2,0.9l0,0c-0.2,0.3-0.4,0.5-0.7,0.6c-0.3,0.1-0.6,0.1-0.9-0.1c-0.3-0.2-0.5-0.4-0.5-0.7
			C388.2,149.9,388.3,149.6,388.5,149.2L388.5,149.2z M388.8,149.5c-0.1,0.2-0.2,0.4-0.2,0.6c0,0.2,0.1,0.4,0.3,0.5
			c0.2,0.1,0.4,0.1,0.5,0c0.2-0.1,0.3-0.3,0.5-0.5l0,0c0.1-0.2,0.2-0.4,0.2-0.6c0-0.2-0.1-0.4-0.3-0.5c-0.2-0.1-0.4-0.1-0.6,0
			S389,149.2,388.8,149.5L388.8,149.5z"/>
		<path class="st8" d="M391.2,151.9c0.1,0.1,0.3,0.1,0.4,0.1c0.1,0,0.2-0.1,0.3-0.2l0.4,0.2l0,0c-0.1,0.2-0.3,0.3-0.5,0.3
			c-0.3,0-0.5,0-0.7-0.1c-0.3-0.2-0.5-0.4-0.5-0.7c0-0.3,0-0.6,0.2-0.9l0-0.1c0.2-0.3,0.4-0.5,0.7-0.6c0.3-0.1,0.6-0.1,0.9,0.1
			c0.2,0.1,0.3,0.2,0.4,0.4c0.1,0.1,0.2,0.3,0.2,0.4l-0.3,0.5l-0.3-0.2l0.1-0.4c0-0.1-0.1-0.1-0.1-0.2c-0.1-0.1-0.1-0.1-0.2-0.2
			c-0.2-0.1-0.4-0.1-0.6,0c-0.2,0.1-0.3,0.3-0.4,0.5l0,0.1c-0.1,0.2-0.2,0.4-0.2,0.6C390.9,151.7,391,151.8,391.2,151.9z"/>
		<path class="st8" d="M393.9,150l0.1-0.3l0.7,0.4l-1,1.8l0.2,0.1l0.8-0.3l-0.2-0.1l0.1-0.3l0.9,0.5l-0.1,0.3l-0.3-0.1l-1,0.3
			l0.2,1.3l0.2,0.2l-0.1,0.2l-0.9-0.5l0.1-0.2l0.2,0.1l-0.2-1l-0.3-0.1l-0.4,0.7l0.3,0.2l-0.1,0.2l-1-0.6l0.1-0.2l0.4,0.1l1.4-2.5
			L393.9,150z"/>
		<path class="st8" d="M395.7,154.9c-0.3-0.2-0.5-0.4-0.5-0.7s0-0.6,0.2-0.9l0-0.1c0.2-0.3,0.4-0.5,0.7-0.6c0.3-0.1,0.6-0.1,0.8,0.1
			c0.3,0.2,0.5,0.4,0.5,0.6c0,0.3,0,0.5-0.2,0.8l-0.1,0.2l-1.4-0.8l0,0c-0.1,0.2-0.2,0.4-0.1,0.6c0,0.2,0.1,0.3,0.3,0.4
			c0.1,0.1,0.3,0.1,0.4,0.1c0.1,0,0.2,0,0.3,0l0,0.3c-0.1,0-0.3,0-0.4,0C396,155.1,395.8,155,395.7,154.9z M396.7,153
			c-0.1-0.1-0.3-0.1-0.4,0c-0.2,0.1-0.3,0.2-0.4,0.3l0,0l1,0.6l0-0.1c0.1-0.2,0.1-0.3,0.1-0.5C397,153.2,396.9,153.1,396.7,153z"/>
		<path class="st8" d="M398,153.7l0.1-0.3l0.7,0.4l-0.1,0.3c0.1-0.1,0.2-0.1,0.4-0.1c0.1,0,0.2,0,0.4,0.1c0,0,0.1,0,0.1,0.1
			c0,0,0.1,0,0.1,0.1l-0.3,0.3l-0.2-0.1c-0.1-0.1-0.2-0.1-0.3-0.1c-0.1,0-0.2,0-0.3,0.1l-0.7,1.2l0.3,0.2l-0.1,0.2l-1-0.6l0.1-0.2
			l0.4,0.1l0.9-1.5L398,153.7z"/>
	</g>
	<g>
		<path class="st8" d="M368.4,135.3l0.1-0.3l0.7,0.4l-1,1.8l0.2,0.1l0.8-0.3l-0.2-0.1l0.1-0.3l0.9,0.5l-0.1,0.3l-0.3-0.1l-1,0.3
			l0.2,1.3l0.2,0.2l-0.1,0.2l-0.9-0.5l0.1-0.2l0.2,0.1l-0.2-1l-0.3-0.1l-0.4,0.7l0.3,0.2l-0.1,0.2l-1-0.6l0.1-0.2l0.4,0.1l1.4-2.5
			L368.4,135.3z"/>
		<path class="st8" d="M371,140.2c-0.1,0.1-0.3,0.1-0.4,0.1c-0.1,0-0.3,0-0.4-0.1c-0.2-0.1-0.4-0.3-0.4-0.5c0-0.2,0-0.5,0.2-0.8
			l0.6-1l-0.2-0.2l0.1-0.3l0.2,0.1l0.4,0.2l-0.7,1.3c-0.1,0.2-0.2,0.4-0.2,0.5c0,0.1,0.1,0.2,0.2,0.3c0.1,0.1,0.3,0.1,0.4,0.1
			s0.2,0,0.3-0.1l0.7-1.2l-0.3-0.2l0.1-0.3l0.3,0.2l0.4,0.2l-1.1,1.8l0.2,0.2l-0.1,0.2l-0.6-0.3L371,140.2z"/>
		<path class="st8" d="M374.2,141.2c-0.2,0.3-0.4,0.5-0.7,0.6c-0.3,0.1-0.5,0.1-0.8-0.1c-0.1-0.1-0.2-0.2-0.3-0.3
			c-0.1-0.1-0.1-0.2-0.1-0.4l-0.2,0.3l-0.3-0.2l1.6-2.8l-0.3-0.2l0.1-0.3l0.7,0.4l-0.7,1.2c0.1-0.1,0.2-0.1,0.4-0.1
			c0.1,0,0.3,0,0.4,0.1c0.3,0.2,0.4,0.4,0.4,0.7C374.6,140.5,374.5,140.8,374.2,141.2L374.2,141.2z M373.9,140.9
			c0.1-0.2,0.2-0.5,0.2-0.7c0-0.2-0.1-0.4-0.3-0.5c-0.1-0.1-0.2-0.1-0.4-0.1c-0.1,0-0.2,0.1-0.3,0.1l-0.5,0.9c0,0.1,0,0.2,0.1,0.3
			c0.1,0.1,0.1,0.2,0.3,0.3c0.2,0.1,0.4,0.1,0.5,0C373.6,141.3,373.7,141.2,373.9,140.9L373.9,140.9z"/>
		<path class="st8" d="M375,143c-0.3-0.2-0.5-0.4-0.5-0.7s0-0.6,0.2-0.9l0-0.1c0.2-0.3,0.4-0.5,0.7-0.6c0.3-0.1,0.6-0.1,0.8,0.1
			c0.3,0.2,0.5,0.4,0.5,0.6c0,0.3,0,0.5-0.2,0.8l-0.1,0.2l-1.4-0.8l0,0c-0.1,0.2-0.2,0.4-0.1,0.6c0,0.2,0.1,0.3,0.3,0.4
			c0.1,0.1,0.3,0.1,0.4,0.1c0.1,0,0.2,0,0.3,0l0,0.3c-0.1,0-0.3,0-0.4,0C375.4,143.2,375.2,143.1,375,143z M376.1,141
			c-0.1-0.1-0.3-0.1-0.4,0c-0.2,0.1-0.3,0.2-0.4,0.3l0,0l1,0.6l0-0.1c0.1-0.2,0.1-0.3,0.1-0.5C376.3,141.3,376.2,141.1,376.1,141z"
			/>
		<path class="st8" d="M377.8,140.8l0.1-0.3l0.7,0.4l-1.6,2.8l0.3,0.2l-0.1,0.2l-1-0.6l0.1-0.2l0.4,0.1l1.4-2.5L377.8,140.8z"/>
		<path class="st8" d="M378.5,145c-0.3-0.2-0.5-0.4-0.5-0.7c-0.1-0.3,0-0.6,0.2-0.9l0-0.1c0.2-0.3,0.4-0.5,0.7-0.6
			c0.3-0.1,0.6-0.1,0.8,0.1c0.3,0.2,0.5,0.4,0.5,0.6c0,0.3,0,0.5-0.2,0.8l-0.1,0.2l-1.4-0.8l0,0c-0.1,0.2-0.2,0.4-0.1,0.6
			c0,0.2,0.1,0.3,0.3,0.4c0.1,0.1,0.3,0.1,0.4,0.1s0.2,0,0.3,0l0,0.3c-0.1,0-0.3,0-0.4,0C378.8,145.1,378.6,145.1,378.5,145z
			 M379.5,143c-0.1-0.1-0.3-0.1-0.4,0c-0.2,0.1-0.3,0.2-0.4,0.3l0,0l1,0.6l0-0.1c0.1-0.2,0.1-0.3,0.1-0.5
			C379.8,143.2,379.7,143.1,379.5,143z"/>
		<path class="st8" d="M381.9,143.4l-0.3,0.5l0.4,0.2l-0.2,0.3l-0.4-0.2l-0.8,1.3c-0.1,0.1-0.1,0.2-0.1,0.2c0,0.1,0.1,0.1,0.1,0.2
			c0,0,0.1,0,0.1,0.1c0,0,0.1,0,0.1,0l-0.1,0.3c-0.1,0-0.1,0-0.2,0c-0.1,0-0.2-0.1-0.2-0.1c-0.2-0.1-0.3-0.2-0.3-0.4s0-0.3,0.1-0.5
			l0.8-1.3l-0.3-0.2l0.2-0.3l0.3,0.2l0.3-0.5L381.9,143.4z"/>
	</g>
	<polygon class="st16" points="356.4,140.1 320.8,160.7 285.1,140.1 285.1,99 320.8,78.4 356.4,99 	"/>
	<polygon class="st13" points="310.1,154.5 320.8,160.7 356.4,140.1 356.4,127.9 	"/>
	<polygon class="st7" points="337.5,148.6 334.3,143 354.3,131.4 354.3,138.9 	"/>
	<g>
		<path class="st8" d="M338.7,142.5c0.4-0.2,0.7-0.3,1.1-0.2c0.4,0.1,0.6,0.3,0.9,0.7l0.2,0.4c0.2,0.4,0.3,0.7,0.2,1.1
			c-0.1,0.4-0.3,0.7-0.7,0.9l-1.2,0.7l-0.1-0.2l0.3-0.2l-1.3-2.3l-0.4,0.1l-0.1-0.3l0.3-0.2L338.7,142.5z M338.4,143.1l1.3,2.3
			l0.5-0.3c0.3-0.2,0.4-0.4,0.5-0.6c0.1-0.3,0-0.5-0.2-0.8l-0.2-0.4c-0.2-0.3-0.4-0.5-0.6-0.5c-0.3-0.1-0.5-0.1-0.8,0.1L338.4,143.1
			z"/>
		<path class="st8" d="M341.4,143.4c-0.2-0.3-0.2-0.6-0.2-0.9c0.1-0.3,0.2-0.5,0.5-0.7c0.3-0.2,0.6-0.2,0.9-0.1
			c0.3,0.1,0.5,0.3,0.7,0.6l0,0c0.2,0.3,0.2,0.6,0.2,0.9c-0.1,0.3-0.2,0.5-0.5,0.7c-0.3,0.2-0.6,0.2-0.9,0.1
			C341.8,144,341.6,143.7,341.4,143.4L341.4,143.4z M341.8,143.2c0.1,0.2,0.3,0.4,0.5,0.5s0.4,0.1,0.6,0c0.2-0.1,0.3-0.3,0.3-0.5
			c0-0.2,0-0.4-0.2-0.6l0,0c-0.1-0.2-0.3-0.4-0.5-0.5c-0.2-0.1-0.4-0.1-0.6,0c-0.2,0.1-0.3,0.3-0.3,0.5S341.6,142.9,341.8,143.2
			L341.8,143.2z"/>
		<path class="st8" d="M345.1,142.3c0.1-0.1,0.2-0.2,0.3-0.3c0.1-0.1,0-0.3,0-0.4l0.3-0.2l0,0c0.1,0.2,0.1,0.4,0,0.6
			c-0.1,0.2-0.2,0.4-0.5,0.6c-0.3,0.2-0.6,0.2-0.9,0.1c-0.3-0.1-0.5-0.3-0.7-0.6l0-0.1c-0.2-0.3-0.2-0.6-0.2-0.9
			c0-0.3,0.2-0.5,0.5-0.7c0.2-0.1,0.3-0.2,0.5-0.2s0.3,0,0.5,0l0.3,0.5l-0.3,0.2l-0.3-0.3c-0.1,0-0.2,0-0.2,0c-0.1,0-0.2,0-0.3,0.1
			c-0.2,0.1-0.3,0.3-0.3,0.5c0,0.2,0.1,0.4,0.2,0.6l0,0.1c0.1,0.2,0.3,0.4,0.4,0.5C344.7,142.5,344.9,142.5,345.1,142.3z"/>
		<path class="st8" d="M344.8,139.1l-0.1-0.3l0.7-0.4l1,1.8l0.2-0.1l0.1-0.8l-0.2,0.1l-0.1-0.3l0.9-0.5l0.1,0.3l-0.2,0.2l-0.2,1
			l1.2,0.5l0.3-0.1l0.1,0.2l-0.9,0.5l-0.1-0.2l0.2-0.1l-1-0.4l-0.3,0.1l0.4,0.7l0.4-0.1l0.1,0.2l-1,0.6l-0.1-0.2l0.3-0.2l-1.4-2.5
			L344.8,139.1z"/>
		<path class="st8" d="M349.9,140c-0.3,0.2-0.6,0.2-0.9,0.1c-0.3-0.1-0.5-0.3-0.7-0.6l-0.1-0.1c-0.2-0.3-0.2-0.6-0.2-0.9
			c0.1-0.3,0.2-0.5,0.5-0.7c0.3-0.2,0.6-0.2,0.8-0.1c0.2,0.1,0.5,0.3,0.6,0.6l0.1,0.2l-1.4,0.8v0c0.1,0.2,0.3,0.3,0.4,0.4
			c0.2,0.1,0.4,0.1,0.5,0c0.1-0.1,0.2-0.2,0.3-0.3c0.1-0.1,0.1-0.2,0.2-0.3l0.3,0.2c0,0.1-0.1,0.2-0.2,0.4
			C350.2,139.8,350.1,139.9,349.9,140z M348.7,138.1c-0.1,0.1-0.2,0.2-0.2,0.4c0,0.2,0,0.3,0.1,0.5l0,0l1-0.6l0-0.1
			c-0.1-0.2-0.2-0.3-0.3-0.3C349,138,348.9,138,348.7,138.1z"/>
		<path class="st8" d="M350,137.4l-0.1-0.3l0.7-0.4l0.2,0.3c0-0.1,0-0.3,0.1-0.4c0.1-0.1,0.1-0.2,0.3-0.3c0,0,0.1,0,0.1,0
			c0,0,0.1,0,0.1,0l0.2,0.4l-0.2,0.1c-0.1,0.1-0.2,0.1-0.2,0.2s-0.1,0.2,0,0.3l0.7,1.2l0.4-0.1l0.1,0.2l-1,0.6l-0.1-0.2l0.3-0.2
			l-0.9-1.5L350,137.4z"/>
	</g>
	<g>
		<path class="st8" d="M319.3,153.8l-0.1-0.3l0.7-0.4l1,1.8l0.2-0.1l0.1-0.8l-0.2,0.1l-0.1-0.3l0.9-0.5l0.1,0.3l-0.2,0.2l-0.2,1
			l1.2,0.5l0.3-0.1l0.1,0.2l-0.9,0.5l-0.1-0.2l0.2-0.1l-1-0.4l-0.3,0.1l0.4,0.7l0.4-0.1l0.1,0.2l-1,0.6l-0.1-0.2l0.3-0.2l-1.4-2.5
			L319.3,153.8z"/>
		<path class="st8" d="M324.8,154c0,0.2,0,0.3-0.1,0.4c-0.1,0.1-0.2,0.2-0.3,0.3c-0.2,0.1-0.5,0.2-0.7,0.1c-0.2-0.1-0.4-0.3-0.6-0.6
			l-0.6-1l-0.3,0.1l-0.1-0.3l0.2-0.1l0.4-0.2l0.7,1.3c0.1,0.2,0.3,0.4,0.4,0.4c0.1,0,0.2,0,0.4-0.1c0.1-0.1,0.2-0.2,0.3-0.3
			c0.1-0.1,0.1-0.2,0.1-0.4l-0.7-1.2l-0.3,0.1l-0.1-0.3l0.3-0.2l0.4-0.2l1.1,1.8l0.3-0.1l0.1,0.2l-0.6,0.3L324.8,154z"/>
		<path class="st8" d="M327.3,151.7c0.2,0.3,0.2,0.6,0.2,0.9c0,0.3-0.2,0.5-0.4,0.6c-0.1,0.1-0.3,0.1-0.4,0.1c-0.1,0-0.3,0-0.4-0.1
			l0.1,0.3l-0.3,0.2l-1.6-2.8l-0.4,0.1l-0.1-0.3l0.7-0.4l0.7,1.2c0-0.1,0.1-0.3,0.1-0.4c0.1-0.1,0.2-0.2,0.3-0.3
			c0.3-0.2,0.5-0.2,0.8,0C326.8,151,327,151.3,327.3,151.7L327.3,151.7z M326.9,151.8c-0.1-0.2-0.3-0.4-0.5-0.5s-0.4-0.1-0.5,0
			c-0.1,0.1-0.2,0.2-0.3,0.3c0,0.1-0.1,0.2-0.1,0.3l0.5,0.9c0.1,0.1,0.2,0.1,0.3,0.1c0.1,0,0.2,0,0.4-0.1c0.2-0.1,0.3-0.2,0.3-0.4
			C327.1,152.3,327,152.1,326.9,151.8L326.9,151.8z"/>
		<path class="st8" d="M329.2,151.9c-0.3,0.2-0.6,0.2-0.9,0.1s-0.5-0.3-0.7-0.6l-0.1-0.1c-0.2-0.3-0.2-0.6-0.2-0.9
			c0.1-0.3,0.2-0.5,0.5-0.7c0.3-0.2,0.6-0.2,0.8-0.1c0.2,0.1,0.5,0.3,0.6,0.6l0.1,0.2l-1.4,0.8v0c0.1,0.2,0.3,0.3,0.4,0.4
			c0.2,0.1,0.4,0.1,0.5,0c0.1-0.1,0.2-0.2,0.3-0.3c0.1-0.1,0.1-0.2,0.2-0.3l0.3,0.2c0,0.1-0.1,0.2-0.2,0.4
			C329.5,151.7,329.4,151.8,329.2,151.9z M328.1,150c-0.1,0.1-0.2,0.2-0.2,0.4c0,0.2,0,0.3,0.1,0.5l0,0l1-0.6l0-0.1
			c-0.1-0.2-0.2-0.3-0.3-0.3C328.4,149.9,328.2,149.9,328.1,150z"/>
		<path class="st8" d="M328.7,148.4l-0.1-0.3l0.7-0.4l1.6,2.8l0.4-0.1l0.1,0.2l-1,0.6l-0.1-0.2l0.3-0.2l-1.4-2.5L328.7,148.4z"/>
		<path class="st8" d="M332.7,149.9c-0.3,0.2-0.6,0.2-0.9,0.1c-0.3-0.1-0.5-0.3-0.7-0.6l-0.1-0.1c-0.2-0.3-0.2-0.6-0.2-0.9
			c0.1-0.3,0.2-0.5,0.5-0.7c0.3-0.2,0.6-0.2,0.8-0.1c0.2,0.1,0.5,0.3,0.6,0.6l0.1,0.2l-1.4,0.8v0c0.1,0.2,0.3,0.3,0.4,0.4
			c0.2,0.1,0.4,0.1,0.5,0c0.1-0.1,0.2-0.2,0.3-0.3c0.1-0.1,0.1-0.2,0.2-0.3l0.3,0.2c0,0.1-0.1,0.2-0.2,0.4
			C333,149.7,332.9,149.8,332.7,149.9z M331.5,148c-0.1,0.1-0.2,0.2-0.2,0.4c0,0.2,0,0.3,0.1,0.5l0,0l1-0.6l0-0.1
			c-0.1-0.2-0.2-0.3-0.3-0.3C331.8,147.9,331.7,147.9,331.5,148z"/>
		<path class="st8" d="M333,146.1l0.3,0.5l0.4-0.2l0.2,0.3l-0.4,0.2l0.8,1.3c0.1,0.1,0.1,0.2,0.2,0.2c0.1,0,0.1,0,0.2,0
			c0,0,0.1,0,0.1-0.1c0,0,0.1-0.1,0.1-0.1l0.2,0.2c0,0-0.1,0.1-0.1,0.2c-0.1,0.1-0.1,0.1-0.2,0.1c-0.2,0.1-0.3,0.1-0.5,0.1
			c-0.1,0-0.3-0.2-0.4-0.4l-0.7-1.3l-0.3,0.2l-0.2-0.3l0.3-0.2l-0.3-0.5L333,146.1z"/>
	</g>
	<polygon class="st16" points="320.4,296.6 284.7,276.1 284.7,234.9 320.4,214.4 356,234.9 356,276.1 	"/>
	<polygon class="st13" points="309.7,220.5 320.4,214.4 356,234.9 356,247.2 	"/>
	<polygon class="st7" points="337.1,226.4 333.9,232.1 353.9,243.6 353.9,236.1 	"/>
	<g>
		<path class="st8" d="M320,218.8l0.1-0.3l0.7,0.4l-1,1.8l0.2,0.1l0.8-0.3l-0.2-0.1l0.1-0.3l0.9,0.5l-0.1,0.3l-0.3-0.1l-1,0.3
			l0.2,1.3l0.2,0.2l-0.1,0.2l-0.9-0.5l0.1-0.2l0.2,0.1l-0.2-1l-0.3-0.1l-0.4,0.7l0.3,0.2l-0.1,0.2l-1-0.6l0.1-0.2l0.4,0.1l1.4-2.5
			L320,218.8z"/>
		<path class="st8" d="M322.6,223.7c-0.1,0.1-0.3,0.1-0.4,0.1c-0.1,0-0.3,0-0.4-0.1c-0.2-0.1-0.4-0.3-0.4-0.5c0-0.2,0-0.5,0.2-0.8
			l0.6-1l-0.2-0.2l0.1-0.3l0.2,0.1l0.4,0.2l-0.7,1.3c-0.1,0.2-0.2,0.4-0.2,0.5c0,0.1,0.1,0.2,0.2,0.3c0.1,0.1,0.3,0.1,0.4,0.1
			c0.1,0,0.2,0,0.3-0.1l0.7-1.2l-0.3-0.2l0.1-0.3l0.3,0.2l0.4,0.2l-1.1,1.8l0.2,0.2l-0.1,0.2l-0.6-0.3L322.6,223.7z"/>
		<path class="st8" d="M325.8,224.7c-0.2,0.3-0.4,0.5-0.7,0.6c-0.3,0.1-0.5,0.1-0.8-0.1c-0.1-0.1-0.2-0.2-0.3-0.3
			c-0.1-0.1-0.1-0.2-0.1-0.4l-0.2,0.3l-0.3-0.2l1.6-2.8l-0.3-0.2l0.1-0.3l0.7,0.4l-0.7,1.2c0.1-0.1,0.2-0.1,0.4-0.1
			c0.1,0,0.3,0,0.4,0.1c0.3,0.2,0.4,0.4,0.4,0.7C326.1,224,326,224.3,325.8,224.7L325.8,224.7z M325.5,224.4
			c0.1-0.2,0.2-0.5,0.2-0.7c0-0.2-0.1-0.4-0.3-0.5c-0.1-0.1-0.2-0.1-0.4-0.1c-0.1,0-0.2,0.1-0.3,0.1l-0.5,0.9c0,0.1,0,0.2,0.1,0.3
			c0.1,0.1,0.1,0.2,0.3,0.3c0.2,0.1,0.4,0.1,0.5,0C325.2,224.8,325.3,224.6,325.5,224.4L325.5,224.4z"/>
		<path class="st8" d="M326.6,226.5c-0.3-0.2-0.5-0.4-0.5-0.7s0-0.6,0.2-0.9l0.1-0.1c0.2-0.3,0.4-0.5,0.7-0.6
			c0.3-0.1,0.6-0.1,0.8,0.1c0.3,0.2,0.5,0.4,0.5,0.6c0,0.3,0,0.5-0.2,0.8l-0.1,0.2l-1.4-0.8l0,0c-0.1,0.2-0.2,0.4-0.1,0.6
			c0,0.2,0.1,0.3,0.3,0.4c0.1,0.1,0.3,0.1,0.4,0.1c0.1,0,0.2,0,0.3,0l0,0.3c-0.1,0-0.3,0-0.4,0C326.9,226.6,326.8,226.6,326.6,226.5
			z M327.6,224.5c-0.1-0.1-0.3-0.1-0.4,0c-0.2,0.1-0.3,0.2-0.4,0.3l0,0l1,0.6l0-0.1c0.1-0.2,0.1-0.3,0.1-0.5
			S327.8,224.6,327.6,224.5z"/>
		<path class="st8" d="M329.4,224.3l0.1-0.3l0.7,0.4l-1.6,2.8l0.3,0.2l-0.1,0.2l-1-0.6l0.1-0.2l0.4,0.1l1.4-2.5L329.4,224.3z"/>
		<path class="st8" d="M330,228.5c-0.3-0.2-0.5-0.4-0.5-0.7s0-0.6,0.2-0.9l0-0.1c0.2-0.3,0.4-0.5,0.7-0.6c0.3-0.1,0.6-0.1,0.8,0.1
			c0.3,0.2,0.5,0.4,0.5,0.6c0,0.3,0,0.5-0.2,0.8l-0.1,0.2l-1.4-0.8l0,0c-0.1,0.2-0.2,0.4-0.1,0.6c0,0.2,0.1,0.3,0.3,0.4
			c0.1,0.1,0.3,0.1,0.4,0.1c0.1,0,0.2,0,0.3,0l0,0.3c-0.1,0-0.3,0-0.4,0C330.4,228.6,330.2,228.6,330,228.5z M331.1,226.5
			c-0.1-0.1-0.3-0.1-0.4,0s-0.3,0.2-0.4,0.3l0,0l1,0.6l0-0.1c0.1-0.2,0.1-0.3,0.1-0.5C331.3,226.7,331.3,226.6,331.1,226.5z"/>
		<path class="st8" d="M333.5,226.9l-0.3,0.5l0.4,0.2l-0.2,0.3l-0.4-0.2l-0.8,1.3c-0.1,0.1-0.1,0.2-0.1,0.2c0,0.1,0.1,0.1,0.1,0.2
			c0,0,0.1,0,0.1,0.1c0,0,0.1,0,0.1,0l-0.1,0.3c-0.1,0-0.1,0-0.2,0c-0.1,0-0.2-0.1-0.2-0.1c-0.2-0.1-0.3-0.2-0.3-0.4s0-0.3,0.1-0.5
			l0.8-1.3l-0.3-0.2l0.2-0.3l0.3,0.2l0.3-0.5L333.5,226.9z"/>
	</g>
	<g>
		<path class="st8" d="M340.2,230.5c0.4,0.2,0.6,0.5,0.7,0.9c0.1,0.4,0,0.7-0.2,1.1l-0.2,0.4c-0.2,0.4-0.5,0.6-0.9,0.7
			s-0.7,0-1.1-0.2l-1.2-0.7l0.1-0.2l0.4,0.1l1.3-2.3l-0.3-0.2l0.1-0.3l0.3,0.2L340.2,230.5z M339.5,230.5l-1.3,2.3l0.5,0.3
			c0.3,0.2,0.5,0.2,0.8,0.1c0.3-0.1,0.5-0.3,0.6-0.5l0.2-0.4c0.2-0.3,0.2-0.5,0.2-0.8c-0.1-0.3-0.2-0.5-0.5-0.6L339.5,230.5z"/>
		<path class="st8" d="M340.8,233.2c0.2-0.3,0.4-0.5,0.7-0.6c0.3-0.1,0.6-0.1,0.9,0.1c0.3,0.2,0.5,0.4,0.5,0.7
			c0.1,0.3,0,0.6-0.2,0.9l0,0c-0.2,0.3-0.4,0.5-0.7,0.6c-0.3,0.1-0.6,0.1-0.9-0.1c-0.3-0.2-0.5-0.4-0.5-0.7
			C340.5,233.9,340.6,233.6,340.8,233.2L340.8,233.2z M341.2,233.5c-0.1,0.2-0.2,0.4-0.2,0.6c0,0.2,0.1,0.4,0.3,0.5
			c0.2,0.1,0.4,0.1,0.5,0c0.2-0.1,0.3-0.3,0.5-0.5l0,0c0.1-0.2,0.2-0.4,0.2-0.6c0-0.2-0.1-0.4-0.3-0.5c-0.2-0.1-0.4-0.1-0.6,0
			C341.5,233.1,341.3,233.2,341.2,233.5L341.2,233.5z"/>
		<path class="st8" d="M343.5,235.9c0.1,0.1,0.3,0.1,0.4,0.1s0.2-0.1,0.3-0.2l0.3,0.2l0,0c-0.1,0.2-0.3,0.3-0.5,0.3
			c-0.3,0-0.5,0-0.7-0.1c-0.3-0.2-0.5-0.4-0.5-0.7c0-0.3,0-0.6,0.2-0.9l0-0.1c0.2-0.3,0.4-0.5,0.7-0.6c0.3-0.1,0.6-0.1,0.9,0.1
			c0.2,0.1,0.3,0.2,0.4,0.4c0.1,0.1,0.2,0.3,0.2,0.4l-0.3,0.5l-0.3-0.2l0.1-0.4c0-0.1-0.1-0.1-0.1-0.2c-0.1-0.1-0.1-0.1-0.2-0.2
			c-0.2-0.1-0.4-0.1-0.6,0c-0.2,0.1-0.3,0.3-0.4,0.5l0,0.1c-0.1,0.2-0.2,0.4-0.2,0.6C343.2,235.6,343.3,235.8,343.5,235.9z"/>
		<path class="st8" d="M346.2,234l0.1-0.3l0.7,0.4l-1,1.8l0.2,0.1l0.8-0.3l-0.2-0.1l0.1-0.3l0.9,0.5l-0.1,0.3l-0.3-0.1l-1,0.3
			l0.2,1.3l0.2,0.2l-0.1,0.2l-0.9-0.5l0.1-0.2l0.2,0.1l-0.2-1l-0.3-0.1l-0.4,0.7l0.3,0.2l-0.1,0.2l-1-0.6l0.1-0.2l0.4,0.1l1.4-2.5
			L346.2,234z"/>
		<path class="st8" d="M348,238.9c-0.3-0.2-0.5-0.4-0.5-0.7c-0.1-0.3,0-0.6,0.2-0.9l0-0.1c0.2-0.3,0.4-0.5,0.7-0.6
			c0.3-0.1,0.6-0.1,0.8,0.1c0.3,0.2,0.5,0.4,0.5,0.6c0,0.3,0,0.5-0.2,0.8l-0.1,0.2l-1.4-0.8l0,0c-0.1,0.2-0.2,0.4-0.1,0.6
			c0,0.2,0.1,0.3,0.3,0.4c0.1,0.1,0.3,0.1,0.4,0.1c0.1,0,0.2,0,0.3,0l0,0.3c-0.1,0-0.3,0-0.4,0C348.3,239.1,348.2,239,348,238.9z
			 M349,236.9c-0.1-0.1-0.3-0.1-0.4,0c-0.2,0.1-0.3,0.2-0.4,0.3l0,0l1,0.6l0-0.1c0.1-0.2,0.1-0.3,0.1-0.5
			C349.3,237.2,349.2,237,349,236.9z"/>
		<path class="st8" d="M350.3,237.7l0.1-0.3l0.7,0.4l-0.1,0.3c0.1-0.1,0.2-0.1,0.4-0.1c0.1,0,0.2,0,0.4,0.1c0,0,0.1,0,0.1,0.1
			c0,0,0.1,0,0.1,0.1l-0.3,0.3l-0.2-0.1c-0.1-0.1-0.2-0.1-0.3-0.1c-0.1,0-0.2,0-0.3,0.1l-0.7,1.2l0.3,0.2l-0.1,0.2l-1-0.6l0.1-0.2
			l0.4,0.1l0.9-1.5L350.3,237.7z"/>
	</g>
</g>
<g id="service">
</g>
<g id="pods">
	<circle class="st29" cx="320.3" cy="119.5" r="20.9"/>
</g>
<g id="IP">
</g>
<g id="deployments">
	<g>
		<g>
			<circle class="st47" cx="351.5" cy="181.7" r="10.1"/>
			<g>
				<g>
					<path class="st48" d="M355,176c1.9,1.2,3.2,3.3,3.2,5.8c0,3.7-3,6.7-6.7,6.7c-3.7,0-6.7-3-6.7-6.7c0-2.9,1.9-5.4,4.5-6.4"/>
					<g>
						<polygon class="st42" points="356.2,178.9 355.3,176.2 358,175.3 356.5,174.5 353.8,175.4 354.7,178.1 						"/>
					</g>
				</g>
			</g>
			<g>
				<path class="st42" d="M348.9,185.1v-6.7h2.3c0.8,0,1.5,0.3,2,0.8c0.5,0.5,0.8,1.2,0.8,2v1.1c0,0.8-0.3,1.5-0.8,2
					c-0.5,0.5-1.2,0.8-2,0.8H348.9z M350.3,179.4v4.7h0.9c0.5,0,0.9-0.2,1.1-0.5c0.3-0.3,0.4-0.8,0.4-1.3v-1.1
					c0-0.5-0.1-0.9-0.4-1.3c-0.3-0.3-0.7-0.5-1.1-0.5H350.3z"/>
			</g>
		</g>
	</g>
</g>
<g id="containers_x2F_volumes">
	<g>
		<polygon class="st50" points="310.7,113.9 320.3,108.3 330,113.9 320.3,119.5 		"/>
		<polygon class="st50" points="310.7,125.1 310.7,113.9 320.3,119.5 320.3,130.7 		"/>
		<polygon class="st50" points="320.3,130.7 320.3,119.5 330,113.9 330,125.1 		"/>
	</g>
</g>
<g id="labels_x2F_selectors">
</g>
<g id="description">
	<g>
		<path class="st42" d="M547.9,200.8L547.9,200.8l-2.8,6.8h-0.8l-2.8-6.8l0,0l0.1,3.5v2.5l1,0.2v0.7h-3.1v-0.7l1-0.2V200l-1-0.2
			v-0.7h1h1.5l2.7,6.9h0l2.7-6.9h2.4v0.7l-1,0.2v6.7l1,0.2v0.7h-3.1v-0.7l1-0.2v-2.5L547.9,200.8z"/>
		<path class="st42" d="M555,207.6c0-0.2-0.1-0.3-0.1-0.5s0-0.3,0-0.4c-0.2,0.3-0.5,0.5-0.8,0.7s-0.7,0.3-1.1,0.3
			c-0.7,0-1.2-0.2-1.5-0.5s-0.5-0.8-0.5-1.4c0-0.6,0.2-1.1,0.7-1.4s1.2-0.5,2-0.5h1.2v-0.7c0-0.4-0.1-0.7-0.4-0.9s-0.6-0.3-1-0.3
			c-0.3,0-0.5,0-0.8,0.1s-0.4,0.2-0.5,0.3l-0.1,0.7h-0.9v-1.2c0.3-0.2,0.6-0.4,1-0.6s0.9-0.2,1.3-0.2c0.7,0,1.3,0.2,1.7,0.6
			s0.7,0.9,0.7,1.6v3.1c0,0.1,0,0.2,0,0.2s0,0.2,0,0.2l0.5,0.1v0.7H555z M553.1,206.8c0.4,0,0.7-0.1,1-0.3s0.5-0.4,0.7-0.7v-1h-1.2
			c-0.5,0-0.8,0.1-1.1,0.3s-0.4,0.5-0.4,0.8c0,0.3,0.1,0.5,0.3,0.6S552.8,206.8,553.1,206.8z"/>
		<path class="st42" d="M562.3,203.3h-0.9l-0.2-0.8c-0.1-0.1-0.3-0.2-0.5-0.3s-0.5-0.1-0.7-0.1c-0.4,0-0.7,0.1-0.9,0.3
			s-0.3,0.4-0.3,0.7c0,0.2,0.1,0.4,0.3,0.6s0.5,0.3,1.1,0.4c0.8,0.2,1.4,0.4,1.8,0.7s0.6,0.7,0.6,1.2c0,0.6-0.2,1-0.7,1.4
			s-1,0.5-1.8,0.5c-0.5,0-0.9-0.1-1.3-0.2s-0.7-0.3-1-0.5l0-1.4h0.9l0.2,0.8c0.1,0.1,0.3,0.2,0.5,0.3s0.5,0.1,0.7,0.1
			c0.4,0,0.7-0.1,1-0.2s0.3-0.4,0.3-0.7c0-0.3-0.1-0.5-0.3-0.6s-0.6-0.3-1.1-0.4c-0.8-0.2-1.3-0.4-1.7-0.7s-0.6-0.7-0.6-1.2
			c0-0.5,0.2-1,0.7-1.3s1-0.5,1.7-0.5c0.5,0,0.9,0.1,1.3,0.2s0.7,0.3,1,0.5L562.3,203.3z"/>
		<path class="st42" d="M565.6,199.8v1.5h1.2v0.9h-1.2v3.8c0,0.3,0.1,0.5,0.2,0.6s0.3,0.2,0.5,0.2c0.1,0,0.2,0,0.3,0s0.2,0,0.3-0.1
			l0.2,0.8c-0.1,0.1-0.3,0.1-0.5,0.2s-0.4,0.1-0.6,0.1c-0.5,0-0.8-0.1-1.1-0.4s-0.4-0.7-0.4-1.3v-3.8h-1v-0.9h1v-1.5H565.6z"/>
		<path class="st42" d="M570.9,207.8c-0.9,0-1.6-0.3-2.1-0.9s-0.8-1.4-0.8-2.3v-0.3c0-0.9,0.3-1.7,0.8-2.3s1.2-0.9,1.9-0.9
			c0.9,0,1.5,0.3,1.9,0.8s0.7,1.2,0.7,2.1v0.7h-4.1l0,0c0,0.6,0.2,1.1,0.5,1.5s0.7,0.6,1.2,0.6c0.4,0,0.7-0.1,1-0.2s0.5-0.3,0.8-0.5
			l0.5,0.8c-0.2,0.2-0.5,0.4-0.9,0.6S571.4,207.8,570.9,207.8z M570.7,202.1c-0.4,0-0.7,0.2-1,0.5s-0.4,0.7-0.5,1.2l0,0h2.9v-0.2
			c0-0.5-0.1-0.8-0.4-1.1S571.2,202.1,570.7,202.1z"/>
		<path class="st42" d="M574.4,202v-0.7h2l0.1,0.9c0.2-0.3,0.4-0.6,0.7-0.8s0.6-0.3,0.9-0.3c0.1,0,0.2,0,0.3,0s0.2,0,0.2,0l-0.2,1.1
			l-0.7,0c-0.3,0-0.6,0.1-0.8,0.2s-0.4,0.3-0.5,0.6v3.6l1,0.2v0.7h-3.1v-0.7l1-0.2v-4.5L574.4,202z"/>
	</g>
	<g>
		<path class="st42" d="M539.5,230.3l1-0.2v-4.5l-1-0.2v-0.7h2l0.1,0.9c0.2-0.3,0.5-0.6,0.8-0.8s0.7-0.3,1.1-0.3
			c0.7,0,1.2,0.2,1.6,0.6s0.6,1,0.6,1.9v3.1l1,0.2v0.7h-3.1v-0.7l1-0.2V227c0-0.6-0.1-1-0.3-1.2s-0.6-0.4-1-0.4
			c-0.3,0-0.6,0.1-0.9,0.2s-0.5,0.4-0.6,0.7v3.7l1,0.2v0.7h-3.1V230.3z"/>
		<path class="st42" d="M547.3,227.8c0-0.9,0.3-1.7,0.8-2.3s1.2-0.9,2.1-0.9c0.9,0,1.6,0.3,2.1,0.9s0.8,1.4,0.8,2.3v0.1
			c0,0.9-0.3,1.7-0.8,2.3s-1.2,0.9-2.1,0.9c-0.9,0-1.6-0.3-2.1-0.9s-0.8-1.4-0.8-2.3V227.8z M548.5,227.9c0,0.7,0.1,1.2,0.4,1.7
			s0.7,0.7,1.3,0.7c0.5,0,1-0.2,1.2-0.7s0.4-1,0.4-1.7v-0.1c0-0.7-0.1-1.2-0.4-1.7s-0.7-0.7-1.3-0.7s-1,0.2-1.3,0.7s-0.4,1-0.4,1.7
			V227.9z"/>
		<path class="st42" d="M558.3,230.3c-0.2,0.3-0.5,0.5-0.8,0.7s-0.6,0.2-1,0.2c-0.8,0-1.4-0.3-1.8-0.8s-0.7-1.3-0.7-2.2V228
			c0-1,0.2-1.8,0.7-2.5s1-0.9,1.8-0.9c0.4,0,0.7,0.1,1,0.2s0.5,0.3,0.7,0.6v-2.6l-1-0.2v-0.7h1h1.2v8.2l1,0.2v0.7h-2L558.3,230.3z
			 M555.2,228.1c0,0.6,0.1,1.1,0.4,1.5s0.7,0.6,1.2,0.6c0.3,0,0.6-0.1,0.9-0.2s0.4-0.4,0.6-0.7v-2.9c-0.1-0.3-0.3-0.5-0.6-0.6
			s-0.5-0.2-0.9-0.2c-0.6,0-1,0.2-1.2,0.7s-0.4,1.1-0.4,1.8V228.1z"/>
		<path class="st42" d="M564.2,231.1c-0.9,0-1.6-0.3-2.1-0.9s-0.8-1.4-0.8-2.3v-0.3c0-0.9,0.3-1.7,0.8-2.3s1.2-0.9,1.9-0.9
			c0.9,0,1.5,0.3,1.9,0.8s0.7,1.2,0.7,2.1v0.7h-4.1l0,0c0,0.6,0.2,1.1,0.5,1.5s0.7,0.6,1.2,0.6c0.4,0,0.7-0.1,1-0.2s0.5-0.3,0.8-0.5
			l0.5,0.8c-0.2,0.2-0.5,0.4-0.9,0.6S564.7,231.1,564.2,231.1z M564,225.5c-0.4,0-0.7,0.2-1,0.5s-0.4,0.7-0.5,1.2l0,0h2.9v-0.2
			c0-0.5-0.1-0.8-0.4-1.1S564.5,225.5,564,225.5z"/>
		<path class="st42" d="M570.6,232.7l1-0.2v-7l-1-0.2v-0.7h1.9l0.1,0.8c0.2-0.3,0.5-0.5,0.8-0.7s0.7-0.2,1.1-0.2
			c0.8,0,1.4,0.3,1.8,0.9s0.7,1.4,0.7,2.5v0.1c0,0.9-0.2,1.7-0.7,2.2s-1,0.8-1.8,0.8c-0.4,0-0.7-0.1-1-0.2s-0.5-0.3-0.8-0.6v2.2
			l1,0.2v0.7h-3.1V232.7z M575.8,228c0-0.7-0.1-1.3-0.4-1.8s-0.7-0.7-1.3-0.7c-0.3,0-0.6,0.1-0.8,0.2s-0.4,0.4-0.6,0.6v3.1
			c0.1,0.3,0.3,0.5,0.6,0.6s0.5,0.2,0.9,0.2c0.5,0,1-0.2,1.2-0.6s0.4-0.9,0.4-1.6V228z"/>
		<path class="st42" d="M578,225.4v-0.7h2l0.1,0.9c0.2-0.3,0.4-0.6,0.7-0.8s0.6-0.3,0.9-0.3c0.1,0,0.2,0,0.3,0s0.2,0,0.2,0l-0.2,1.1
			l-0.7,0c-0.3,0-0.6,0.1-0.8,0.2s-0.4,0.3-0.5,0.6v3.6l1,0.2v0.7H578v-0.7l1-0.2v-4.5L578,225.4z"/>
		<path class="st42" d="M582.8,227.8c0-0.9,0.3-1.7,0.8-2.3s1.2-0.9,2.1-0.9c0.9,0,1.6,0.3,2.1,0.9s0.8,1.4,0.8,2.3v0.1
			c0,0.9-0.3,1.7-0.8,2.3s-1.2,0.9-2.1,0.9c-0.9,0-1.6-0.3-2.1-0.9s-0.8-1.4-0.8-2.3V227.8z M584,227.9c0,0.7,0.1,1.2,0.4,1.7
			s0.7,0.7,1.3,0.7c0.5,0,1-0.2,1.2-0.7s0.4-1,0.4-1.7v-0.1c0-0.7-0.1-1.2-0.4-1.7s-0.7-0.7-1.3-0.7s-1,0.2-1.3,0.7s-0.4,1-0.4,1.7
			V227.9z"/>
		<path class="st42" d="M592.4,230.2c0.4,0,0.7-0.1,1-0.4s0.4-0.5,0.4-0.9h1l0,0c0,0.5-0.2,1-0.7,1.5s-1.1,0.6-1.8,0.6
			c-0.9,0-1.6-0.3-2.1-0.9s-0.7-1.4-0.7-2.3v-0.2c0-0.9,0.2-1.7,0.7-2.3s1.2-0.9,2.1-0.9c0.5,0,1,0.1,1.4,0.3s0.7,0.4,1,0.7l0.1,1.4
			h-0.9l-0.3-1c-0.1-0.1-0.3-0.2-0.5-0.3s-0.5-0.1-0.7-0.1c-0.6,0-1,0.2-1.3,0.7s-0.4,1-0.4,1.6v0.2c0,0.6,0.1,1.2,0.4,1.6
			S591.8,230.2,592.4,230.2z"/>
		<path class="st42" d="M598.9,231.1c-0.9,0-1.6-0.3-2.1-0.9s-0.8-1.4-0.8-2.3v-0.3c0-0.9,0.3-1.7,0.8-2.3s1.2-0.9,1.9-0.9
			c0.9,0,1.5,0.3,1.9,0.8s0.7,1.2,0.7,2.1v0.7h-4.1l0,0c0,0.6,0.2,1.1,0.5,1.5s0.7,0.6,1.2,0.6c0.4,0,0.7-0.1,1-0.2s0.5-0.3,0.8-0.5
			l0.5,0.8c-0.2,0.2-0.5,0.4-0.9,0.6S599.4,231.1,598.9,231.1z M598.7,225.5c-0.4,0-0.7,0.2-1,0.5s-0.4,0.7-0.5,1.2l0,0h2.9v-0.2
			c0-0.5-0.1-0.8-0.4-1.1S599.2,225.5,598.7,225.5z"/>
		<path class="st42" d="M607.3,226.7h-0.9l-0.2-0.8c-0.1-0.1-0.3-0.2-0.5-0.3s-0.5-0.1-0.7-0.1c-0.4,0-0.7,0.1-0.9,0.3
			s-0.3,0.4-0.3,0.7c0,0.2,0.1,0.4,0.3,0.6s0.5,0.3,1.1,0.4c0.8,0.2,1.4,0.4,1.8,0.7s0.6,0.7,0.6,1.2c0,0.6-0.2,1-0.7,1.4
			s-1,0.5-1.8,0.5c-0.5,0-0.9-0.1-1.3-0.2s-0.7-0.3-1-0.5l0-1.4h0.9l0.2,0.8c0.1,0.1,0.3,0.2,0.5,0.3s0.5,0.1,0.7,0.1
			c0.4,0,0.7-0.1,1-0.2s0.3-0.4,0.3-0.7c0-0.3-0.1-0.5-0.3-0.6s-0.6-0.3-1.1-0.4c-0.8-0.2-1.3-0.4-1.7-0.7s-0.6-0.7-0.6-1.2
			c0-0.5,0.2-1,0.7-1.3s1-0.5,1.7-0.5c0.5,0,0.9,0.1,1.3,0.2s0.7,0.3,1,0.5L607.3,226.7z"/>
		<path class="st42" d="M613.4,226.7h-0.9l-0.2-0.8c-0.1-0.1-0.3-0.2-0.5-0.3s-0.5-0.1-0.7-0.1c-0.4,0-0.7,0.1-0.9,0.3
			s-0.3,0.4-0.3,0.7c0,0.2,0.1,0.4,0.3,0.6s0.5,0.3,1.1,0.4c0.8,0.2,1.4,0.4,1.8,0.7s0.6,0.7,0.6,1.2c0,0.6-0.2,1-0.7,1.4
			s-1,0.5-1.8,0.5c-0.5,0-0.9-0.1-1.3-0.2s-0.7-0.3-1-0.5l0-1.4h0.9l0.2,0.8c0.1,0.1,0.3,0.2,0.5,0.3s0.5,0.1,0.7,0.1
			c0.4,0,0.7-0.1,1-0.2s0.3-0.4,0.3-0.7c0-0.3-0.1-0.5-0.3-0.6s-0.6-0.3-1.1-0.4c-0.8-0.2-1.3-0.4-1.7-0.7s-0.6-0.7-0.6-1.2
			c0-0.5,0.2-1,0.7-1.3s1-0.5,1.7-0.5c0.5,0,0.9,0.1,1.3,0.2s0.7,0.3,1,0.5L613.4,226.7z"/>
		<path class="st42" d="M617.6,231.1c-0.9,0-1.6-0.3-2.1-0.9s-0.8-1.4-0.8-2.3v-0.3c0-0.9,0.3-1.7,0.8-2.3s1.2-0.9,1.9-0.9
			c0.9,0,1.5,0.3,1.9,0.8s0.7,1.2,0.7,2.1v0.7h-4.1l0,0c0,0.6,0.2,1.1,0.5,1.5s0.7,0.6,1.2,0.6c0.4,0,0.7-0.1,1-0.2s0.5-0.3,0.8-0.5
			l0.5,0.8c-0.2,0.2-0.5,0.4-0.9,0.6S618.1,231.1,617.6,231.1z M617.4,225.5c-0.4,0-0.7,0.2-1,0.5s-0.4,0.7-0.5,1.2l0,0h2.9v-0.2
			c0-0.5-0.1-0.8-0.4-1.1S617.9,225.5,617.4,225.5z"/>
		<path class="st42" d="M626,226.7h-0.9l-0.2-0.8c-0.1-0.1-0.3-0.2-0.5-0.3s-0.5-0.1-0.7-0.1c-0.4,0-0.7,0.1-0.9,0.3
			s-0.3,0.4-0.3,0.7c0,0.2,0.1,0.4,0.3,0.6s0.5,0.3,1.1,0.4c0.8,0.2,1.4,0.4,1.8,0.7s0.6,0.7,0.6,1.2c0,0.6-0.2,1-0.7,1.4
			s-1,0.5-1.8,0.5c-0.5,0-0.9-0.1-1.3-0.2s-0.7-0.3-1-0.5l0-1.4h0.9l0.2,0.8c0.1,0.1,0.3,0.2,0.5,0.3s0.5,0.1,0.7,0.1
			c0.4,0,0.7-0.1,1-0.2s0.3-0.4,0.3-0.7c0-0.3-0.1-0.5-0.3-0.6s-0.6-0.3-1.1-0.4c-0.8-0.2-1.3-0.4-1.7-0.7s-0.6-0.7-0.6-1.2
			c0-0.5,0.2-1,0.7-1.3s1-0.5,1.7-0.5c0.5,0,0.9,0.1,1.3,0.2s0.7,0.3,1,0.5L626,226.7z"/>
	</g>
	<g>
		<path class="st42" d="M547.9,112v0.7l-1,0.2v7.6h-1.2l-4.1-6.6l0,0v5.7l1,0.2v0.7h-3.1v-0.7l1-0.2v-6.7l-1-0.2V112h1h1.2l4.1,6.6
			l0,0v-5.7l-1-0.2V112h2.1H547.9z"/>
		<path class="st42" d="M548.8,117.3c0-0.9,0.3-1.7,0.8-2.3s1.2-0.9,2.1-0.9c0.9,0,1.6,0.3,2.1,0.9s0.8,1.4,0.8,2.3v0.1
			c0,0.9-0.3,1.7-0.8,2.3s-1.2,0.9-2.1,0.9c-0.9,0-1.6-0.3-2.1-0.9s-0.8-1.4-0.8-2.3V117.3z M550,117.4c0,0.7,0.1,1.2,0.4,1.7
			s0.7,0.7,1.3,0.7c0.5,0,1-0.2,1.2-0.7s0.4-1,0.4-1.7v-0.1c0-0.7-0.1-1.2-0.4-1.7s-0.7-0.7-1.3-0.7s-1,0.2-1.3,0.7s-0.4,1-0.4,1.7
			V117.4z"/>
		<path class="st42" d="M559.8,119.8c-0.2,0.3-0.5,0.5-0.8,0.7s-0.6,0.2-1,0.2c-0.8,0-1.4-0.3-1.8-0.8s-0.7-1.3-0.7-2.2v-0.1
			c0-1,0.2-1.8,0.7-2.5s1-0.9,1.8-0.9c0.4,0,0.7,0.1,1,0.2s0.5,0.3,0.7,0.6v-2.6l-1-0.2v-0.7h1h1.2v8.2l1,0.2v0.7h-2L559.8,119.8z
			 M556.7,117.6c0,0.6,0.1,1.1,0.4,1.5s0.7,0.6,1.2,0.6c0.3,0,0.6-0.1,0.9-0.2s0.4-0.4,0.6-0.7v-2.9c-0.1-0.3-0.3-0.5-0.6-0.6
			s-0.5-0.2-0.9-0.2c-0.6,0-1,0.2-1.2,0.7s-0.4,1.1-0.4,1.8V117.6z"/>
		<path class="st42" d="M565.6,120.6c-0.9,0-1.6-0.3-2.1-0.9s-0.8-1.4-0.8-2.3v-0.3c0-0.9,0.3-1.7,0.8-2.3s1.2-0.9,1.9-0.9
			c0.9,0,1.5,0.3,1.9,0.8s0.7,1.2,0.7,2.1v0.7H564l0,0c0,0.6,0.2,1.1,0.5,1.5s0.7,0.6,1.2,0.6c0.4,0,0.7-0.1,1-0.2s0.5-0.3,0.8-0.5
			l0.5,0.8c-0.2,0.2-0.5,0.4-0.9,0.6S566.2,120.6,565.6,120.6z M565.5,115c-0.4,0-0.7,0.2-1,0.5s-0.4,0.7-0.5,1.2l0,0h2.9v-0.2
			c0-0.5-0.1-0.8-0.4-1.1S565.9,115,565.5,115z"/>
	</g>
	<line class="st62" x1="534.1" y1="203.9" x2="362.7" y2="203.9"/>
	<g>
		<path class="st42" d="M543.1,176.9c1.1,0,2,0.3,2.7,1s1,1.6,1,2.7v1.2c0,1.1-0.3,2-1,2.7s-1.6,1-2.7,1h-3.6v-0.7l1-0.2v-6.7
			l-1-0.2v-0.7h1H543.1z M541.7,177.8v6.7h1.5c0.8,0,1.4-0.3,1.9-0.8s0.7-1.2,0.7-2v-1.2c0-0.8-0.2-1.5-0.7-2s-1.1-0.8-1.9-0.8
			H541.7z"/>
		<path class="st42" d="M550.9,185.5c-0.9,0-1.6-0.3-2.1-0.9s-0.8-1.4-0.8-2.3v-0.3c0-0.9,0.3-1.7,0.8-2.3s1.2-0.9,1.9-0.9
			c0.9,0,1.5,0.3,1.9,0.8s0.7,1.2,0.7,2.1v0.7h-4.1l0,0c0,0.6,0.2,1.1,0.5,1.5s0.7,0.6,1.2,0.6c0.4,0,0.7-0.1,1-0.2s0.5-0.3,0.8-0.5
			l0.5,0.8c-0.2,0.2-0.5,0.4-0.9,0.6S551.4,185.5,550.9,185.5z M550.7,179.9c-0.4,0-0.7,0.2-1,0.5s-0.4,0.7-0.5,1.2l0,0h2.9v-0.2
			c0-0.5-0.1-0.8-0.4-1.1S551.2,179.9,550.7,179.9z"/>
		<path class="st42" d="M554.3,187.1l1-0.2v-7l-1-0.2v-0.7h1.9l0.1,0.8c0.2-0.3,0.5-0.5,0.8-0.7s0.7-0.2,1.1-0.2
			c0.8,0,1.4,0.3,1.8,0.9s0.7,1.4,0.7,2.5v0.1c0,0.9-0.2,1.7-0.7,2.2s-1,0.8-1.8,0.8c-0.4,0-0.7-0.1-1-0.2s-0.5-0.3-0.8-0.6v2.2
			l1,0.2v0.7h-3.1V187.1z M559.5,182.3c0-0.7-0.1-1.3-0.4-1.8s-0.7-0.7-1.3-0.7c-0.3,0-0.6,0.1-0.8,0.2s-0.4,0.4-0.6,0.6v3.1
			c0.1,0.3,0.3,0.5,0.6,0.6s0.5,0.2,0.9,0.2c0.5,0,1-0.2,1.2-0.6s0.4-0.9,0.4-1.6V182.3z"/>
		<path class="st42" d="M561.5,177v-0.7h2.1v8.2l1,0.2v0.7h-3.1v-0.7l1-0.2v-7.3L561.5,177z"/>
		<path class="st42" d="M565.3,182.2c0-0.9,0.3-1.7,0.8-2.3s1.2-0.9,2.1-0.9c0.9,0,1.6,0.3,2.1,0.9s0.8,1.4,0.8,2.3v0.1
			c0,0.9-0.3,1.7-0.8,2.3s-1.2,0.9-2.1,0.9c-0.9,0-1.6-0.3-2.1-0.9s-0.8-1.4-0.8-2.3V182.2z M566.5,182.3c0,0.7,0.1,1.2,0.4,1.7
			s0.7,0.7,1.3,0.7c0.5,0,1-0.2,1.2-0.7s0.4-1,0.4-1.7v-0.1c0-0.7-0.1-1.2-0.4-1.7s-0.7-0.7-1.3-0.7s-1,0.2-1.3,0.7s-0.4,1-0.4,1.7
			V182.3z"/>
		<path class="st42" d="M578,179.8l-0.6,0.1l-2.4,6.5c-0.2,0.4-0.4,0.8-0.7,1.1s-0.7,0.5-1.2,0.5c-0.1,0-0.2,0-0.4,0s-0.3,0-0.3-0.1
			l0.1-0.9c0,0,0,0,0.2,0s0.3,0,0.3,0c0.2,0,0.4-0.1,0.6-0.3s0.3-0.5,0.4-0.7l0.3-0.7l-2.1-5.4l-0.6-0.1v-0.7h2.6v0.7l-0.7,0.1
			l1.1,3.1l0.2,0.8h0l1.3-3.9l-0.7-0.1v-0.7h2.6V179.8z"/>
		<path class="st42" d="M578.5,184.7l1-0.2V180l-1-0.2v-0.7h2l0.1,0.8c0.2-0.3,0.5-0.5,0.8-0.7s0.7-0.2,1.1-0.2s0.8,0.1,1.1,0.3
			s0.5,0.5,0.7,0.9c0.2-0.4,0.5-0.6,0.8-0.9s0.7-0.3,1.1-0.3c0.6,0,1.2,0.2,1.5,0.7s0.6,1.1,0.6,2v2.9l1,0.2v0.7h-3.1v-0.7l1-0.2
			v-2.9c0-0.6-0.1-1.1-0.3-1.3s-0.5-0.4-1-0.4c-0.4,0-0.7,0.1-1,0.4s-0.4,0.6-0.4,1.1v3.1l1,0.2v0.7h-3.1v-0.7l1-0.2v-2.9
			c0-0.6-0.1-1-0.3-1.3s-0.5-0.4-1-0.4c-0.4,0-0.6,0.1-0.9,0.2s-0.4,0.3-0.5,0.6v3.8l1,0.2v0.7h-3.1V184.7z"/>
		<path class="st42" d="M592.9,185.5c-0.9,0-1.6-0.3-2.1-0.9s-0.8-1.4-0.8-2.3v-0.3c0-0.9,0.3-1.7,0.8-2.3s1.2-0.9,1.9-0.9
			c0.9,0,1.5,0.3,1.9,0.8s0.7,1.2,0.7,2.1v0.7h-4.1l0,0c0,0.6,0.2,1.1,0.5,1.5s0.7,0.6,1.2,0.6c0.4,0,0.7-0.1,1-0.2s0.5-0.3,0.8-0.5
			l0.5,0.8c-0.2,0.2-0.5,0.4-0.9,0.6S593.5,185.5,592.9,185.5z M592.8,179.9c-0.4,0-0.7,0.2-1,0.5s-0.4,0.7-0.5,1.2l0,0h2.9v-0.2
			c0-0.5-0.1-0.8-0.4-1.1S593.2,179.9,592.8,179.9z"/>
		<path class="st42" d="M596.3,184.7l1-0.2V180l-1-0.2v-0.7h2l0.1,0.9c0.2-0.3,0.5-0.6,0.8-0.8s0.7-0.3,1.1-0.3
			c0.7,0,1.2,0.2,1.6,0.6s0.6,1,0.6,1.9v3.1l1,0.2v0.7h-3.1v-0.7l1-0.2v-3.1c0-0.6-0.1-1-0.3-1.2s-0.6-0.4-1-0.4
			c-0.3,0-0.6,0.1-0.9,0.2s-0.5,0.4-0.6,0.7v3.7l1,0.2v0.7h-3.1V184.7z"/>
		<path class="st42" d="M606.2,177.5v1.5h1.2v0.9h-1.2v3.8c0,0.3,0.1,0.5,0.2,0.6s0.3,0.2,0.5,0.2c0.1,0,0.2,0,0.3,0s0.2,0,0.3-0.1
			l0.2,0.8c-0.1,0.1-0.3,0.1-0.5,0.2s-0.4,0.1-0.6,0.1c-0.5,0-0.8-0.1-1.1-0.4s-0.4-0.7-0.4-1.3v-3.8h-1v-0.9h1v-1.5H606.2z"/>
	</g>
	<line class="st62" x1="534.1" y1="181.7" x2="355.6" y2="181.7"/>
	<line class="st62" x1="534.1" y1="229" x2="333.5" y2="229"/>
	<line class="st62" x1="534.1" y1="118.5" x2="416.9" y2="118.5"/>
	<g>
		<path class="st42" d="M97.4,119.7c0.4,0,0.7-0.1,1-0.4s0.4-0.5,0.4-0.9h1l0,0c0,0.5-0.2,1-0.7,1.5s-1.1,0.6-1.8,0.6
			c-0.9,0-1.6-0.3-2.1-0.9s-0.7-1.4-0.7-2.3v-0.2c0-0.9,0.2-1.7,0.7-2.3s1.2-0.9,2.1-0.9c0.5,0,1,0.1,1.4,0.3s0.7,0.4,1,0.7l0.1,1.4
			h-0.9l-0.3-1c-0.1-0.1-0.3-0.2-0.5-0.3s-0.5-0.1-0.7-0.1c-0.6,0-1,0.2-1.3,0.7s-0.4,1-0.4,1.6v0.2c0,0.6,0.1,1.2,0.4,1.6
			S96.8,119.7,97.4,119.7z"/>
		<path class="st42" d="M101.1,117.3c0-0.9,0.3-1.7,0.8-2.3s1.2-0.9,2.1-0.9c0.9,0,1.6,0.3,2.1,0.9s0.8,1.4,0.8,2.3v0.1
			c0,0.9-0.3,1.7-0.8,2.3s-1.2,0.9-2.1,0.9c-0.9,0-1.6-0.3-2.1-0.9s-0.8-1.4-0.8-2.3V117.3z M102.2,117.4c0,0.7,0.1,1.2,0.4,1.7
			s0.7,0.7,1.3,0.7c0.5,0,1-0.2,1.2-0.7s0.4-1,0.4-1.7v-0.1c0-0.7-0.1-1.2-0.4-1.7s-0.7-0.7-1.3-0.7s-1,0.2-1.3,0.7s-0.4,1-0.4,1.7
			V117.4z"/>
		<path class="st42" d="M107.6,119.8l1-0.2v-4.5l-1-0.2v-0.7h2l0.1,0.9c0.2-0.3,0.5-0.6,0.8-0.8s0.7-0.3,1.1-0.3
			c0.7,0,1.2,0.2,1.6,0.6s0.6,1,0.6,1.9v3.1l1,0.2v0.7h-3.1v-0.7l1-0.2v-3.1c0-0.6-0.1-1-0.3-1.2s-0.6-0.4-1-0.4
			c-0.3,0-0.6,0.1-0.9,0.2s-0.5,0.4-0.6,0.7v3.7l1,0.2v0.7h-3.1V119.8z"/>
		<path class="st42" d="M117.5,112.7v1.5h1.2v0.9h-1.2v3.8c0,0.3,0.1,0.5,0.2,0.6s0.3,0.2,0.5,0.2c0.1,0,0.2,0,0.3,0s0.2,0,0.3-0.1
			l0.2,0.8c-0.1,0.1-0.3,0.1-0.5,0.2s-0.4,0.1-0.6,0.1c-0.5,0-0.8-0.1-1.1-0.4s-0.4-0.7-0.4-1.3V115h-1v-0.9h1v-1.5H117.5z"/>
		<path class="st42" d="M124,120.5c0-0.2-0.1-0.3-0.1-0.5s0-0.3,0-0.4c-0.2,0.3-0.5,0.5-0.8,0.7s-0.7,0.3-1.1,0.3
			c-0.7,0-1.2-0.2-1.5-0.5s-0.5-0.8-0.5-1.4c0-0.6,0.2-1.1,0.7-1.4s1.2-0.5,2-0.5h1.2v-0.7c0-0.4-0.1-0.7-0.4-0.9s-0.6-0.3-1-0.3
			c-0.3,0-0.5,0-0.8,0.1s-0.4,0.2-0.5,0.3l-0.1,0.7h-0.9v-1.2c0.3-0.2,0.6-0.4,1-0.6s0.9-0.2,1.3-0.2c0.7,0,1.3,0.2,1.7,0.6
			s0.7,0.9,0.7,1.6v3.1c0,0.1,0,0.2,0,0.2s0,0.2,0,0.2l0.5,0.1v0.7H124z M122.2,119.7c0.4,0,0.7-0.1,1-0.3s0.5-0.4,0.7-0.7v-1h-1.2
			c-0.5,0-0.8,0.1-1.1,0.3s-0.4,0.5-0.4,0.8c0,0.3,0.1,0.5,0.3,0.6S121.8,119.7,122.2,119.7z"/>
		<path class="st42" d="M126.5,119.8l1-0.2v-4.5l-1-0.2v-0.7h2.1v5.4l1,0.2v0.7h-3.1V119.8z M128.6,112.6h-1.2v-1.2h1.2V112.6z"/>
		<path class="st42" d="M130.3,119.8l1-0.2v-4.5l-1-0.2v-0.7h2l0.1,0.9c0.2-0.3,0.5-0.6,0.8-0.8s0.7-0.3,1.1-0.3
			c0.7,0,1.2,0.2,1.6,0.6s0.6,1,0.6,1.9v3.1l1,0.2v0.7h-3.1v-0.7l1-0.2v-3.1c0-0.6-0.1-1-0.3-1.2s-0.6-0.4-1-0.4
			c-0.3,0-0.6,0.1-0.9,0.2s-0.5,0.4-0.6,0.7v3.7l1,0.2v0.7h-3.1V119.8z"/>
		<path class="st42" d="M141,120.6c-0.9,0-1.6-0.3-2.1-0.9s-0.8-1.4-0.8-2.3v-0.3c0-0.9,0.3-1.7,0.8-2.3s1.2-0.9,1.9-0.9
			c0.9,0,1.5,0.3,1.9,0.8s0.7,1.2,0.7,2.1v0.7h-4.1l0,0c0,0.6,0.2,1.1,0.5,1.5s0.7,0.6,1.2,0.6c0.4,0,0.7-0.1,1-0.2s0.5-0.3,0.8-0.5
			l0.5,0.8c-0.2,0.2-0.5,0.4-0.9,0.6S141.5,120.6,141,120.6z M140.8,115c-0.4,0-0.7,0.2-1,0.5s-0.4,0.7-0.5,1.2l0,0h2.9v-0.2
			c0-0.5-0.1-0.8-0.4-1.1S141.3,115,140.8,115z"/>
		<path class="st42" d="M144.6,114.9v-0.7h2l0.1,0.9c0.2-0.3,0.4-0.6,0.7-0.8s0.6-0.3,0.9-0.3c0.1,0,0.2,0,0.3,0s0.2,0,0.2,0
			l-0.2,1.1l-0.7,0c-0.3,0-0.6,0.1-0.8,0.2s-0.4,0.3-0.5,0.6v3.6l1,0.2v0.7h-3.1v-0.7l1-0.2v-4.5L144.6,114.9z"/>
		<path class="st42" d="M149.5,119.8l1-0.2v-4.5l-1-0.2v-0.7h2.1v5.4l1,0.2v0.7h-3.1V119.8z M151.6,112.6h-1.2v-1.2h1.2V112.6z"/>
		<path class="st42" d="M155,119.6h2.6l0.1-1h1v1.9h-5v-0.8l3.4-4.6h-2.3l-0.1,1h-1v-1.9h4.8v0.8L155,119.6z"/>
		<path class="st42" d="M162.6,120.6c-0.9,0-1.6-0.3-2.1-0.9s-0.8-1.4-0.8-2.3v-0.3c0-0.9,0.3-1.7,0.8-2.3s1.2-0.9,1.9-0.9
			c0.9,0,1.5,0.3,1.9,0.8s0.7,1.2,0.7,2.1v0.7h-4.1l0,0c0,0.6,0.2,1.1,0.5,1.5s0.7,0.6,1.2,0.6c0.4,0,0.7-0.1,1-0.2s0.5-0.3,0.8-0.5
			l0.5,0.8c-0.2,0.2-0.5,0.4-0.9,0.6S163.2,120.6,162.6,120.6z M162.5,115c-0.4,0-0.7,0.2-1,0.5s-0.4,0.7-0.5,1.2l0,0h2.9v-0.2
			c0-0.5-0.1-0.8-0.4-1.1S162.9,115,162.5,115z"/>
		<path class="st42" d="M170.5,119.8c-0.2,0.3-0.5,0.5-0.8,0.7s-0.6,0.2-1,0.2c-0.8,0-1.4-0.3-1.8-0.8s-0.7-1.3-0.7-2.2v-0.1
			c0-1,0.2-1.8,0.7-2.5s1-0.9,1.8-0.9c0.4,0,0.7,0.1,1,0.2s0.5,0.3,0.7,0.6v-2.6l-1-0.2v-0.7h1h1.2v8.2l1,0.2v0.7h-2L170.5,119.8z
			 M167.3,117.6c0,0.6,0.1,1.1,0.4,1.5s0.7,0.6,1.2,0.6c0.3,0,0.6-0.1,0.9-0.2s0.4-0.4,0.6-0.7v-2.9c-0.1-0.3-0.3-0.5-0.6-0.6
			s-0.5-0.2-0.9-0.2c-0.6,0-1,0.2-1.2,0.7s-0.4,1.1-0.4,1.8V117.6z"/>
		<path class="st42" d="M180.5,120.5c0-0.2-0.1-0.3-0.1-0.5s0-0.3,0-0.4c-0.2,0.3-0.5,0.5-0.8,0.7s-0.7,0.3-1.1,0.3
			c-0.7,0-1.2-0.2-1.5-0.5s-0.5-0.8-0.5-1.4c0-0.6,0.2-1.1,0.7-1.4s1.2-0.5,2-0.5h1.2v-0.7c0-0.4-0.1-0.7-0.4-0.9s-0.6-0.3-1-0.3
			c-0.3,0-0.5,0-0.8,0.1s-0.4,0.2-0.5,0.3l-0.1,0.7h-0.9v-1.2c0.3-0.2,0.6-0.4,1-0.6s0.9-0.2,1.3-0.2c0.7,0,1.3,0.2,1.7,0.6
			s0.7,0.9,0.7,1.6v3.1c0,0.1,0,0.2,0,0.2s0,0.2,0,0.2l0.5,0.1v0.7H180.5z M178.6,119.7c0.4,0,0.7-0.1,1-0.3s0.5-0.4,0.7-0.7v-1
			h-1.2c-0.5,0-0.8,0.1-1.1,0.3s-0.4,0.5-0.4,0.8c0,0.3,0.1,0.5,0.3,0.6S178.3,119.7,178.6,119.7z"/>
		<path class="st42" d="M182.8,122.2l1-0.2v-7l-1-0.2v-0.7h1.9l0.1,0.8c0.2-0.3,0.5-0.5,0.8-0.7s0.7-0.2,1.1-0.2
			c0.8,0,1.4,0.3,1.8,0.9s0.7,1.4,0.7,2.5v0.1c0,0.9-0.2,1.7-0.7,2.2s-1,0.8-1.8,0.8c-0.4,0-0.7-0.1-1-0.2s-0.5-0.3-0.8-0.6v2.2
			l1,0.2v0.7h-3.1V122.2z M188,117.5c0-0.7-0.1-1.3-0.4-1.8s-0.7-0.7-1.3-0.7c-0.3,0-0.6,0.1-0.8,0.2s-0.4,0.4-0.6,0.6v3.1
			c0.1,0.3,0.3,0.5,0.6,0.6s0.5,0.2,0.9,0.2c0.5,0,1-0.2,1.2-0.6s0.4-0.9,0.4-1.6V117.5z"/>
		<path class="st42" d="M190.1,122.2l1-0.2v-7l-1-0.2v-0.7h1.9l0.1,0.8c0.2-0.3,0.5-0.5,0.8-0.7s0.7-0.2,1.1-0.2
			c0.8,0,1.4,0.3,1.8,0.9s0.7,1.4,0.7,2.5v0.1c0,0.9-0.2,1.7-0.7,2.2s-1,0.8-1.8,0.8c-0.4,0-0.7-0.1-1-0.2s-0.5-0.3-0.8-0.6v2.2
			l1,0.2v0.7h-3.1V122.2z M195.3,117.5c0-0.7-0.1-1.3-0.4-1.8s-0.7-0.7-1.3-0.7c-0.3,0-0.6,0.1-0.8,0.2s-0.4,0.4-0.6,0.6v3.1
			c0.1,0.3,0.3,0.5,0.6,0.6s0.5,0.2,0.9,0.2c0.5,0,1-0.2,1.2-0.6s0.4-0.9,0.4-1.6V117.5z"/>
	</g>
	<line class="st62" x1="315.5" y1="118.5" x2="202" y2="118.5"/>
	<g>
		<path class="st42" d="M295.1,356.9l1-0.2v-6.9l-1-0.2v-1.2h4v1.2l-1,0.2v2.6h0.8l1.9-2.7l-0.6-0.1v-1.2h3.8v1.2l-1,0.2l-2.4,3.2
			l2.7,3.8l1,0.2v1.2h-3.8v-1.2l0.6-0.1l-1.9-2.8H298v2.7l1,0.2v1.2h-4V356.9z"/>
		<path class="st42" d="M309.7,357.1c-0.2,0.3-0.5,0.6-0.9,0.8s-0.7,0.3-1.2,0.3c-0.8,0-1.4-0.2-1.8-0.7c-0.4-0.5-0.6-1.2-0.6-2.3
			v-3l-0.8-0.2v-1.2h0.8h1.9v4.3c0,0.5,0.1,0.9,0.3,1.1s0.4,0.3,0.8,0.3c0.3,0,0.6,0,0.8-0.1s0.4-0.2,0.5-0.4v-3.9l-0.8-0.2v-1.2
			h0.8h1.9v5.8l0.9,0.2v1.2h-2.6L309.7,357.1z"/>
		<path class="st42" d="M320.1,354.6c0,1.1-0.2,1.9-0.7,2.6c-0.5,0.6-1.2,1-2.1,1c-0.4,0-0.8-0.1-1.1-0.3s-0.6-0.4-0.8-0.8l-0.1,0.9
			h-1.7v-9l-1-0.2v-1.2h3v3.9c0.2-0.3,0.5-0.5,0.7-0.7s0.6-0.2,1-0.2c0.9,0,1.6,0.3,2.1,1c0.5,0.7,0.7,1.6,0.7,2.8V354.6z
			 M318.2,354.5c0-0.7-0.1-1.3-0.3-1.7s-0.6-0.6-1.1-0.6c-0.3,0-0.6,0.1-0.8,0.2s-0.4,0.3-0.5,0.5v3c0.1,0.2,0.3,0.4,0.5,0.5
			c0.2,0.1,0.5,0.2,0.8,0.2c0.5,0,0.8-0.2,1-0.5c0.2-0.4,0.3-0.9,0.3-1.5V354.5z"/>
		<path class="st42" d="M324.5,358.2c-1,0-1.9-0.3-2.5-1c-0.6-0.7-0.9-1.5-0.9-2.5v-0.3c0-1.1,0.3-1.9,0.9-2.6c0.6-0.7,1.4-1,2.4-1
			c1,0,1.7,0.3,2.3,0.9c0.5,0.6,0.8,1.4,0.8,2.4v1.1h-4.3l0,0c0,0.5,0.2,0.9,0.5,1.2c0.3,0.3,0.7,0.5,1.1,0.5c0.4,0,0.8,0,1.1-0.1
			s0.6-0.2,0.9-0.4l0.5,1.2c-0.3,0.2-0.7,0.4-1.2,0.6S325,358.2,324.5,358.2z M324.3,352.2c-0.4,0-0.6,0.1-0.8,0.4
			c-0.2,0.3-0.3,0.6-0.4,1.1l0,0h2.4v-0.2c0-0.4-0.1-0.7-0.3-1C325,352.3,324.7,352.2,324.3,352.2z"/>
		<path class="st42" d="M328.4,356.9l0.9-0.2v-4.5l-1-0.2v-1.2h2.8l0.1,1c0.2-0.4,0.4-0.7,0.7-0.9c0.3-0.2,0.6-0.3,0.9-0.3
			c0.1,0,0.2,0,0.3,0c0.1,0,0.2,0,0.3,0.1l-0.2,1.8l-0.8,0c-0.3,0-0.5,0.1-0.7,0.2c-0.2,0.1-0.3,0.3-0.4,0.5v3.5l0.9,0.2v1.2h-3.8
			V356.9z"/>
		<path class="st42" d="M333.9,356.9l0.9-0.2v-4.5l-1-0.2v-1.2h2.8l0.1,1c0.2-0.4,0.5-0.7,0.9-0.9s0.7-0.3,1.2-0.3
			c0.7,0,1.3,0.2,1.7,0.7c0.4,0.5,0.6,1.2,0.6,2.1v3.1l0.9,0.2v1.2h-3.7v-1.2l0.8-0.2v-3.1c0-0.5-0.1-0.8-0.3-1
			c-0.2-0.2-0.5-0.3-0.9-0.3c-0.3,0-0.5,0.1-0.7,0.2c-0.2,0.1-0.4,0.3-0.5,0.4v3.9l0.8,0.2v1.2h-3.7V356.9z"/>
		<path class="st42" d="M346,358.2c-1,0-1.9-0.3-2.5-1c-0.6-0.7-0.9-1.5-0.9-2.5v-0.3c0-1.1,0.3-1.9,0.9-2.6c0.6-0.7,1.4-1,2.4-1
			c1,0,1.7,0.3,2.3,0.9c0.5,0.6,0.8,1.4,0.8,2.4v1.1h-4.3l0,0c0,0.5,0.2,0.9,0.5,1.2c0.3,0.3,0.7,0.5,1.1,0.5c0.4,0,0.8,0,1.1-0.1
			s0.6-0.2,0.9-0.4l0.5,1.2c-0.3,0.2-0.7,0.4-1.2,0.6S346.6,358.2,346,358.2z M345.8,352.2c-0.4,0-0.6,0.1-0.8,0.4
			c-0.2,0.3-0.3,0.6-0.4,1.1l0,0h2.4v-0.2c0-0.4-0.1-0.7-0.3-1C346.5,352.3,346.2,352.2,345.8,352.2z"/>
		<path class="st42" d="M352.7,349.1v1.8h1.3v1.4h-1.3v3.7c0,0.3,0.1,0.5,0.2,0.6c0.1,0.1,0.3,0.2,0.5,0.2c0.1,0,0.2,0,0.3,0
			c0.1,0,0.2,0,0.3-0.1l0.2,1.4c-0.2,0.1-0.4,0.1-0.6,0.1c-0.2,0-0.4,0-0.7,0c-0.7,0-1.2-0.2-1.5-0.6c-0.4-0.4-0.5-0.9-0.5-1.7v-3.7
			h-1.1v-1.4h1.1v-1.8H352.7z"/>
		<path class="st42" d="M358.3,358.2c-1,0-1.9-0.3-2.5-1c-0.6-0.7-0.9-1.5-0.9-2.5v-0.3c0-1.1,0.3-1.9,0.9-2.6c0.6-0.7,1.4-1,2.4-1
			c1,0,1.7,0.3,2.3,0.9c0.5,0.6,0.8,1.4,0.8,2.4v1.1h-4.3l0,0c0,0.5,0.2,0.9,0.5,1.2c0.3,0.3,0.7,0.5,1.1,0.5c0.4,0,0.8,0,1.1-0.1
			s0.6-0.2,0.9-0.4l0.5,1.2c-0.3,0.2-0.7,0.4-1.2,0.6S358.9,358.2,358.3,358.2z M358.1,352.2c-0.4,0-0.6,0.1-0.8,0.4
			c-0.2,0.3-0.3,0.6-0.4,1.1l0,0h2.4v-0.2c0-0.4-0.1-0.7-0.3-1C358.8,352.3,358.5,352.2,358.1,352.2z"/>
		<path class="st42" d="M362.3,356.9l0.9-0.2v-4.5l-1-0.2v-1.2h2.8l0.1,1c0.2-0.4,0.4-0.7,0.7-0.9c0.3-0.2,0.6-0.3,0.9-0.3
			c0.1,0,0.2,0,0.3,0c0.1,0,0.2,0,0.3,0.1l-0.2,1.8l-0.8,0c-0.3,0-0.5,0.1-0.7,0.2c-0.2,0.1-0.3,0.3-0.4,0.5v3.5l0.9,0.2v1.2h-3.8
			V356.9z"/>
		<path class="st42" d="M373.7,353.3h-1.3l-0.2-0.9c-0.1-0.1-0.3-0.2-0.5-0.3c-0.2-0.1-0.4-0.1-0.7-0.1c-0.3,0-0.6,0.1-0.8,0.2
			c-0.2,0.2-0.3,0.3-0.3,0.6c0,0.2,0.1,0.4,0.3,0.5s0.6,0.3,1.1,0.4c0.9,0.2,1.5,0.4,2,0.8s0.6,0.8,0.6,1.4c0,0.6-0.3,1.2-0.8,1.6
			c-0.6,0.4-1.3,0.6-2.2,0.6c-0.6,0-1.1-0.1-1.5-0.2c-0.5-0.2-0.9-0.4-1.2-0.7l0-1.6h1.4l0.3,0.9c0.1,0.1,0.3,0.2,0.5,0.2
			c0.2,0,0.4,0.1,0.6,0.1c0.4,0,0.7-0.1,0.9-0.2s0.3-0.3,0.3-0.6c0-0.2-0.1-0.4-0.3-0.6s-0.6-0.3-1.1-0.4c-0.8-0.2-1.5-0.4-1.9-0.8
			s-0.6-0.8-0.6-1.4c0-0.6,0.2-1.1,0.7-1.6s1.2-0.7,2.1-0.7c0.6,0,1.1,0.1,1.6,0.2s0.9,0.3,1.2,0.6L373.7,353.3z"/>
		<path class="st42" d="M386,351.6h-1.4l-0.2-1.3c-0.2-0.2-0.4-0.3-0.7-0.5s-0.6-0.2-1-0.2c-0.8,0-1.5,0.3-1.9,0.9
			c-0.5,0.6-0.7,1.4-0.7,2.4v0.3c0,1,0.2,1.8,0.7,2.4c0.5,0.6,1.1,0.9,1.9,0.9c0.4,0,0.7-0.1,1-0.2c0.3-0.1,0.6-0.3,0.7-0.5l0.2-1.3
			h1.4v1.9c-0.4,0.5-0.9,0.8-1.5,1.1c-0.6,0.3-1.3,0.4-2,0.4c-1.3,0-2.4-0.4-3.2-1.3s-1.2-2.1-1.2-3.5V353c0-1.4,0.4-2.6,1.2-3.5
			c0.8-0.9,1.9-1.4,3.2-1.4c0.7,0,1.4,0.1,2,0.4c0.6,0.3,1.1,0.6,1.5,1.1V351.6z"/>
		<path class="st42" d="M386.8,348.8v-1.2h3v9l0.9,0.2v1.2h-3.8v-1.2l0.9-0.2V349L386.8,348.8z"/>
		<path class="st42" d="M396.3,357.1c-0.2,0.3-0.5,0.6-0.9,0.8s-0.7,0.3-1.2,0.3c-0.8,0-1.4-0.2-1.8-0.7c-0.4-0.5-0.6-1.2-0.6-2.3
			v-3l-0.8-0.2v-1.2h0.8h1.9v4.3c0,0.5,0.1,0.9,0.3,1.1s0.4,0.3,0.8,0.3c0.3,0,0.6,0,0.8-0.1s0.4-0.2,0.5-0.4v-3.9l-0.8-0.2v-1.2
			h0.8h1.9v5.8l0.9,0.2v1.2h-2.6L396.3,357.1z"/>
		<path class="st42" d="M405.7,353.3h-1.3l-0.2-0.9c-0.1-0.1-0.3-0.2-0.5-0.3c-0.2-0.1-0.4-0.1-0.7-0.1c-0.3,0-0.6,0.1-0.8,0.2
			c-0.2,0.2-0.3,0.3-0.3,0.6c0,0.2,0.1,0.4,0.3,0.5s0.6,0.3,1.1,0.4c0.9,0.2,1.5,0.4,2,0.8s0.6,0.8,0.6,1.4c0,0.6-0.3,1.2-0.8,1.6
			c-0.6,0.4-1.3,0.6-2.2,0.6c-0.6,0-1.1-0.1-1.5-0.2c-0.5-0.2-0.9-0.4-1.2-0.7l0-1.6h1.4l0.3,0.9c0.1,0.1,0.3,0.2,0.5,0.2
			c0.2,0,0.4,0.1,0.6,0.1c0.4,0,0.7-0.1,0.9-0.2s0.3-0.3,0.3-0.6c0-0.2-0.1-0.4-0.3-0.6s-0.6-0.3-1.1-0.4c-0.8-0.2-1.5-0.4-1.9-0.8
			s-0.6-0.8-0.6-1.4c0-0.6,0.2-1.1,0.7-1.6s1.2-0.7,2.1-0.7c0.6,0,1.1,0.1,1.6,0.2s0.9,0.3,1.2,0.6L405.7,353.3z"/>
		<path class="st42" d="M409.7,349.1v1.8h1.3v1.4h-1.3v3.7c0,0.3,0.1,0.5,0.2,0.6c0.1,0.1,0.3,0.2,0.5,0.2c0.1,0,0.2,0,0.3,0
			c0.1,0,0.2,0,0.3-0.1l0.2,1.4c-0.2,0.1-0.4,0.1-0.6,0.1c-0.2,0-0.4,0-0.7,0c-0.7,0-1.2-0.2-1.5-0.6c-0.4-0.4-0.5-0.9-0.5-1.7v-3.7
			h-1.1v-1.4h1.1v-1.8H409.7z"/>
		<path class="st42" d="M415.3,358.2c-1,0-1.9-0.3-2.5-1c-0.6-0.7-0.9-1.5-0.9-2.5v-0.3c0-1.1,0.3-1.9,0.9-2.6c0.6-0.7,1.4-1,2.4-1
			c1,0,1.7,0.3,2.3,0.9c0.5,0.6,0.8,1.4,0.8,2.4v1.1h-4.3l0,0c0,0.5,0.2,0.9,0.5,1.2c0.3,0.3,0.7,0.5,1.1,0.5c0.4,0,0.8,0,1.1-0.1
			s0.6-0.2,0.9-0.4l0.5,1.2c-0.3,0.2-0.7,0.4-1.2,0.6S415.9,358.2,415.3,358.2z M415.1,352.2c-0.4,0-0.6,0.1-0.8,0.4
			c-0.2,0.3-0.3,0.6-0.4,1.1l0,0h2.4v-0.2c0-0.4-0.1-0.7-0.3-1C415.8,352.3,415.5,352.2,415.1,352.2z"/>
		<path class="st42" d="M419.3,356.9l0.9-0.2v-4.5l-1-0.2v-1.2h2.8l0.1,1c0.2-0.4,0.4-0.7,0.7-0.9c0.3-0.2,0.6-0.3,0.9-0.3
			c0.1,0,0.2,0,0.3,0c0.1,0,0.2,0,0.3,0.1l-0.2,1.8l-0.8,0c-0.3,0-0.5,0.1-0.7,0.2c-0.2,0.1-0.3,0.3-0.4,0.5v3.5l0.9,0.2v1.2h-3.8
			V356.9z"/>
	</g>
</g>
<g id="Layer_14">
</g>
</svg>
