<svg xmlns="http://www.w3.org/2000/svg" viewBox="0 0 720.4 440.4"><defs><style>.cls-1,.cls-11,.cls-2{fill:#fff;}.cls-1,.cls-2{stroke:#326de6;}.cls-1,.cls-10,.cls-12,.cls-15{stroke-linecap:round;stroke-linejoin:round;}.cls-1{stroke-width:3.2px;}.cls-2,.cls-3,.cls-4,.cls-9{stroke-miterlimit:10;}.cls-2{stroke-width:1.6px;}.cls-10,.cls-15,.cls-3,.cls-4{fill:none;}.cls-3,.cls-4,.cls-9{stroke:#eef406;stroke-width:2px;}.cls-4{stroke-dasharray:2.4 1.6;}.cls-5{font-size:9.6px;font-family:RobotoSlab-Bold, Roboto Slab;font-weight:700;}.cls-6{letter-spacing:0.01em;}.cls-7{fill:#eef406;opacity:0.1;}.cls-8{font-size:7.2px;font-family:RobotoSlab-Light, Roboto Slab;}.cls-13,.cls-8{fill:#011f38;}.cls-9{fill:#326de6;}.cls-10{stroke:#fff;stroke-width:1.2px;}.cls-12{fill:#06f7c9;stroke-width:0.8px;}.cls-12,.cls-15{stroke:#011f38;}.cls-13{font-size:12px;font-family:RobotoSlab-Regular, Roboto Slab;}.cls-14{letter-spacing:0.01em;}.cls-15{stroke-width:0.3px;}.cls-16{letter-spacing:0em;}.cls-17{letter-spacing:-0.01em;}.cls-18{letter-spacing:-0.01em;}</style></defs><title>16.07.28_k8s_diagrams_all</title><g id="master"><polygon class="cls-1" points="340.49 265.88 316.34 235.6 324.96 197.84 359.86 181.03 394.75 197.84 403.37 235.6 379.22 265.88 340.49 265.88"/></g><g id="Node"><polygon class="cls-2" points="423.45 179.76 365.35 146.22 365.35 79.13 423.45 45.59 481.54 79.13 481.54 146.22 423.45 179.76"/><polygon class="cls-2" points="296.26 179.68 238.17 146.14 238.17 79.06 296.26 45.52 354.36 79.06 354.36 146.14 296.26 179.68"/><polygon class="cls-2" points="296.26 401.41 238.17 367.87 238.17 300.79 296.26 267.25 354.36 300.79 354.36 367.87 296.26 401.41"/></g><g id="service"><path class="cls-3" d="M240.54,329.13v1.2h0q0,.6,0,1.2"/><path class="cls-4" d="M240.66,333.12a32.52,32.52,0,0,0,32.68,29.68c17.88-.17,32.16-15,32.16-32.89V143.41a21.2,21.2,0,0,1,21.2-21.2H442a28.38,28.38,0,1,0,0-56.76H273a32.48,32.48,0,0,0-32.48,32.48h0V328.33"/><text class="cls-5" transform="translate(334.53 61.45)">Se<tspan class="cls-6" x="10.94" y="0">r</tspan><tspan x="15.06" y="0">vice A 10.3.250.236</tspan></text></g><g id="pods"><circle class="cls-7" cx="273.44" cy="108.62" r="20.48"/><circle class="cls-7" cx="272.37" cy="330.33" r="20.48"/><circle class="cls-7" cx="404.84" cy="93.83" r="16.38"/><circle class="cls-7" cx="442.05" cy="93.83" r="16.38"/><circle class="cls-3" cx="273.01" cy="108.63" r="20.48"/><circle class="cls-3" cx="272.37" cy="330.33" r="20.48"/><circle class="cls-3" cx="404.84" cy="93.83" r="16.38"/><circle class="cls-3" cx="442.05" cy="93.83" r="16.38"/></g><g id="IP"><text class="cls-8" transform="matrix(0.45, -0.89, 0.89, 0.45, 387.81, 86.99)">1</text><text class="cls-8" transform="matrix(0.6, -0.8, 0.8, 0.6, 388.96, 84.52)">0</text><text class="cls-8" transform="matrix(0.71, -0.71, 0.71, 0.71, 391.37, 81.44)">.</text><text class="cls-8" transform="translate(392.33 80.34) rotate(-36.55)">0</text><text class="cls-8" transform="translate(395.5 78.08) rotate(-28.2)">.</text><text class="cls-8" transform="translate(396.77 77.29) rotate(-19.97)">2</text><text class="cls-8" transform="translate(400.33 76.08) rotate(-11.69)">.</text><text class="cls-8" transform="translate(401.75 75.68) rotate(-3.18)">4</text><text class="cls-8" transform="translate(426.83 83.57) rotate(-51.4)">1</text><text class="cls-8" transform="translate(428.46 81.41) rotate(-41.25)">0</text><text class="cls-8" transform="matrix(0.84, -0.54, 0.54, 0.84, 431.46, 78.89)">.</text><text class="cls-8" transform="matrix(0.91, -0.42, 0.42, 0.91, 432.62, 78.02)">0</text><text class="cls-8" transform="translate(436.2 76.47) rotate(-16.07)">.</text><text class="cls-8" transform="translate(437.61 75.97) rotate(-7.81)">2</text><text class="cls-8" transform="translate(441.32 75.52) rotate(0.93)">.</text><text class="cls-8" transform="translate(442.8 75.45) rotate(8.17)">5</text><text class="cls-8" transform="matrix(0.61, -0.79, 0.79, 0.61, 254.02, 95.79)">1</text><text class="cls-8" transform="translate(255.67 93.58) rotate(-43.98)">0</text><text class="cls-8" transform="translate(258.54 90.89) rotate(-37.24)">.</text><text class="cls-8" transform="translate(259.7 89.91) rotate(-30.45)">0</text><text class="cls-8" transform="translate(263.11 87.98) rotate(-23.66)">.</text><text class="cls-8" transform="translate(264.47 87.3) rotate(-16.78)">0</text><text class="cls-8" transform="matrix(0.98, -0.17, 0.17, 0.98, 268.23, 86.23)">.</text><text class="cls-8" transform="translate(269.71 85.9) rotate(-3.55)">5</text><text class="cls-8" transform="matrix(0.61, -0.79, 0.79, 0.61, 253.38, 317.5)">1</text><text class="cls-8" transform="matrix(0.72, -0.69, 0.69, 0.72, 255.03, 315.29)">0</text><text class="cls-8" transform="matrix(0.8, -0.61, 0.61, 0.8, 257.9, 312.6)">.</text><text class="cls-8" transform="translate(259.06 311.62) rotate(-30.45)">0</text><text class="cls-8" transform="matrix(0.92, -0.4, 0.4, 0.92, 262.47, 309.69)">.</text><text class="cls-8" transform="translate(263.85 309.05) rotate(-18.2)">1</text><text class="cls-8" transform="translate(266.52 308.2) rotate(-12.76)">.</text><text class="cls-8" transform="matrix(0.99, -0.11, 0.11, 0.99, 267.99, 307.8)">5</text></g><g id="deployments"><circle class="cls-9" cx="369.49" cy="211.2" r="14.1"/><path class="cls-10" d="M373.92,202.91a9.43,9.43,0,1,1-7.55-.57"/><polygon class="cls-11" points="375.27 205.75 374.24 203.06 376.93 202.04 375.35 201.33 372.67 202.35 373.69 205.04 375.27 205.75"/><path class="cls-11" d="M364.3,214.93l.78-.11,3.31-9.46h2.23l3.29,9.46.78.11v1.31H371v-1.31l.75-.13-.48-1.49h-3.53l-.48,1.49.75.13v1.31H364.3Zm3.94-3.23h2.5l-1.22-3.83h0Z"/></g><g id="containers_volumes" data-name="containers/volumes"><polygon class="cls-12" points="395.36 88.35 404.85 82.88 414.33 88.35 404.85 93.84 395.36 88.35"/><polygon class="cls-12" points="395.36 99.31 395.36 88.35 404.85 93.84 404.85 104.79 395.36 99.31"/><polygon class="cls-12" points="404.85 104.79 404.85 93.84 414.33 88.35 414.33 99.31 404.85 104.79"/><polygon class="cls-12" points="432.56 88.35 442.05 82.88 451.53 88.35 442.05 93.84 432.56 88.35"/><polygon class="cls-12" points="432.56 99.31 432.56 88.35 442.05 93.84 442.05 104.79 432.56 99.31"/><polygon class="cls-12" points="442.05 104.79 442.05 93.84 451.53 88.35 451.53 99.31 442.05 104.79"/><polygon class="cls-12" points="261.16 101.78 273.01 94.94 284.87 101.78 273.01 108.64 261.16 101.78"/><polygon class="cls-12" points="261.16 115.48 261.16 101.78 273.01 108.64 273.01 122.33 261.16 115.48"/><polygon class="cls-12" points="273.01 122.33 273.01 108.64 284.87 101.78 284.87 115.48 273.01 122.33"/><polygon class="cls-12" points="260.51 323.48 272.37 316.63 284.23 323.48 272.37 330.33 260.51 323.48"/><polygon class="cls-12" points="260.51 337.18 260.51 323.48 272.37 330.33 272.37 344.02 260.51 337.18"/><polygon class="cls-12" points="272.37 344.02 272.37 330.33 284.23 323.48 284.23 337.18 272.37 344.02"/></g><g id="description"><text class="cls-13" transform="translate(171.78 136.37)">Se<tspan class="cls-14" x="13.76" y="0">r</tspan><tspan x="18.83" y="0">vice</tspan></text><line class="cls-15" x1="273.44" y1="133.97" x2="217.37" y2="133.97"/><text class="cls-13" transform="translate(432.05 205.36)">De<tspan class="cls-16" x="14.77" y="0">p</tspan><tspan class="cls-17" x="21.97" y="0">l</tspan><tspan class="cls-18" x="25.63" y="0">o</tspan><tspan x="32.28" y="0">y</tspan><tspan class="cls-16" x="39.09" y="0">m</tspan><tspan x="50.37" y="0">ent</tspan></text><line class="cls-15" x1="430.01" y1="202.96" x2="369.49" y2="202.96"/></g></svg>