<svg xmlns="http://www.w3.org/2000/svg" viewBox="0 0 720.4 440.4"><defs><style>.cls-1,.cls-16,.cls-2{fill:#fff;}.cls-1,.cls-2{stroke:#326de6;}.cls-1,.cls-15,.cls-17,.cls-19,.cls-22{stroke-linecap:round;stroke-linejoin:round;}.cls-1{stroke-width:3.2px;}.cls-10,.cls-14,.cls-2,.cls-3,.cls-4,.cls-8{stroke-miterlimit:10;}.cls-2{stroke-width:1.6px;}.cls-10,.cls-15,.cls-22,.cls-3,.cls-4,.cls-8{fill:none;}.cls-10,.cls-14,.cls-3,.cls-4,.cls-8{stroke:#eef406;}.cls-14,.cls-3,.cls-4,.cls-8{stroke-width:2px;}.cls-4{stroke-dasharray:2.4 1.6;}.cls-5{font-size:9.6px;font-family:RobotoSlab-Bold, Roboto Slab;font-weight:700;}.cls-6{letter-spacing:0.01em;}.cls-7,.cls-9{fill:#eef406;}.cls-7{opacity:0.02;}.cls-12,.cls-8{opacity:0.4;}.cls-13,.cls-9{opacity:0.1;}.cls-10{stroke-width:2.46px;}.cls-11,.cls-12,.cls-13{font-size:7.2px;font-family:RobotoSlab-Light, Roboto Slab;}.cls-11,.cls-12,.cls-13,.cls-20{fill:#011f38;}.cls-14{fill:#326de6;}.cls-15{stroke:#fff;stroke-width:1.2px;}.cls-17{fill:#8115ff;}.cls-17,.cls-19,.cls-22{stroke:#011f38;}.cls-17,.cls-19{stroke-width:0.8px;}.cls-18{opacity:0.3;}.cls-19{fill:#06f7c9;}.cls-20{font-size:12px;font-family:RobotoSlab-Regular, Roboto Slab;}.cls-21{letter-spacing:0.01em;}.cls-22{stroke-width:0.3px;}.cls-23{letter-spacing:0em;}.cls-24{letter-spacing:-0.01em;}.cls-25{letter-spacing:-0.01em;}.cls-26{letter-spacing:-0.01em;}</style></defs><title>16.07.28_k8s_diagrams_all</title><g id="master"><polygon class="cls-1" points="340.49 265.88 316.34 235.6 324.96 197.84 359.86 181.03 394.75 197.84 403.37 235.6 379.22 265.88 340.49 265.88"/></g><g id="Node"><polygon class="cls-2" points="423.45 179.76 365.35 146.22 365.35 79.13 423.45 45.59 481.54 79.13 481.54 146.22 423.45 179.76"/><polygon class="cls-2" points="296.26 179.68 238.17 146.14 238.17 79.06 296.26 45.52 354.36 79.06 354.36 146.14 296.26 179.68"/><polygon class="cls-2" points="296.26 401.41 238.17 367.87 238.17 300.79 296.26 267.25 354.36 300.79 354.36 367.87 296.26 401.41"/></g><g id="service"><path class="cls-3" d="M240.54,329.13v1.2h0q0,.6,0,1.2"/><path class="cls-4" d="M240.66,333.12a32.52,32.52,0,0,0,32.68,29.68c17.88-.17,32.16-15,32.16-32.89V181.79a22.37,22.37,0,0,1,22.37-22.37H442A28.38,28.38,0,0,0,470.43,131V93.84h0A28.41,28.41,0,0,0,442,65.45H273a32.48,32.48,0,0,0-32.48,32.48h0V328.33"/><text class="cls-5" transform="translate(334.53 61.44)">Se<tspan class="cls-6" x="10.94" y="0">r</tspan><tspan x="15.06" y="0">vice A 10.3.250.236</tspan></text></g><g id="pods"><circle class="cls-7" cx="273.01" cy="108.6" r="20.48"/><circle class="cls-8" cx="273.01" cy="108.76" r="20.48"/><circle class="cls-3" cx="272.37" cy="330.33" r="20.48"/><circle class="cls-3" cx="404.84" cy="93.83" r="16.38"/><circle class="cls-3" cx="442.05" cy="93.83" r="16.38"/><circle class="cls-9" cx="272.37" cy="330.33" r="20.48"/><circle class="cls-9" cx="442.05" cy="93.83" r="16.38"/><circle class="cls-10" cx="319.52" cy="108.76" r="20.14"/><circle class="cls-9" cx="319.52" cy="108.76" r="20.14"/><circle class="cls-9" cx="404.84" cy="93.83" r="16.38"/></g><g id="IP"><text class="cls-11" transform="matrix(0.61, -0.79, 0.79, 0.61, 300.53, 95.77)">1</text><text class="cls-11" transform="translate(302.18 93.55) rotate(-43.98)">0</text><text class="cls-11" transform="translate(305.05 90.87) rotate(-37.24)">.</text><text class="cls-11" transform="translate(306.21 89.89) rotate(-30.45)">0</text><text class="cls-11" transform="matrix(0.92, -0.4, 0.4, 0.92, 309.61, 87.96)">.</text><text class="cls-11" transform="matrix(0.96, -0.29, 0.29, 0.96, 310.97, 87.28)">0</text><text class="cls-11" transform="translate(314.74 86.21) rotate(-9.98)">.</text><text class="cls-11" transform="translate(316.22 85.87) rotate(-3.27)">6</text><text class="cls-12" transform="matrix(0.61, -0.79, 0.79, 0.61, 254.02, 95.77)">1</text><text class="cls-12" transform="translate(255.67 93.55) rotate(-43.98)">0</text><text class="cls-12" transform="translate(258.54 90.87) rotate(-37.24)">.</text><text class="cls-12" transform="translate(259.7 89.89) rotate(-30.45)">0</text><text class="cls-12" transform="translate(263.11 87.96) rotate(-23.66)">.</text><text class="cls-12" transform="translate(264.47 87.28) rotate(-16.78)">0</text><text class="cls-12" transform="matrix(0.98, -0.17, 0.17, 0.98, 268.23, 86.21)">.</text><text class="cls-12" transform="translate(269.71 85.88) rotate(-3.55)">5</text><text class="cls-11" transform="matrix(0.61, -0.79, 0.79, 0.61, 253.38, 317.5)">1</text><text class="cls-11" transform="matrix(0.72, -0.69, 0.69, 0.72, 255.03, 315.28)">0</text><text class="cls-11" transform="matrix(0.8, -0.61, 0.61, 0.8, 257.9, 312.6)">.</text><text class="cls-11" transform="translate(259.06 311.62) rotate(-30.45)">0</text><text class="cls-11" transform="matrix(0.92, -0.4, 0.4, 0.92, 262.47, 309.69)">.</text><text class="cls-11" transform="translate(263.85 309.04) rotate(-18.2)">1</text><text class="cls-11" transform="translate(266.52 308.2) rotate(-12.76)">.</text><text class="cls-11" transform="matrix(0.99, -0.11, 0.11, 0.99, 267.99, 307.79)">5</text><text class="cls-11" transform="matrix(0.45, -0.89, 0.89, 0.45, 387.81, 86.99)">1</text><text class="cls-11" transform="translate(388.96 84.52) rotate(-53.19)">0</text><text class="cls-11" transform="matrix(0.71, -0.71, 0.71, 0.71, 391.37, 81.44)">.</text><text class="cls-11" transform="translate(392.33 80.33) rotate(-36.55)">0</text><text class="cls-11" transform="translate(395.5 78.08) rotate(-28.2)">.</text><text class="cls-11" transform="translate(396.77 77.29) rotate(-19.97)">2</text><text class="cls-11" transform="matrix(0.98, -0.2, 0.2, 0.98, 400.3, 76.08)">.</text><text class="cls-11" transform="translate(401.75 75.67) rotate(-3.18)">4</text><text class="cls-11" transform="translate(426.83 83.57) rotate(-51.4)">1</text><text class="cls-11" transform="translate(428.46 81.41) rotate(-41.25)">0</text><text class="cls-11" transform="matrix(0.84, -0.54, 0.54, 0.84, 431.46, 78.89)">.</text><text class="cls-11" transform="translate(432.62 78.02) rotate(-24.54)">0</text><text class="cls-11" transform="translate(436.2 76.47) rotate(-16.07)">.</text><text class="cls-11" transform="translate(437.61 75.97) rotate(-7.81)">2</text><text class="cls-11" transform="translate(441.32 75.52) rotate(0.93)">.</text><text class="cls-11" transform="translate(442.8 75.45) rotate(8.17)">5</text><text class="cls-13" transform="matrix(0.45, -0.89, 0.89, 0.45, 387.81, 86.99)">1</text><text class="cls-13" transform="translate(388.96 84.52) rotate(-53.19)">0</text><text class="cls-13" transform="matrix(0.75, -0.66, 0.66, 0.75, 391.26, 81.42)">a</text><text class="cls-13" transform="translate(394.07 78.94) rotate(-30.36)">s</text><text class="cls-13" transform="matrix(0.92, -0.38, 0.38, 0.92, 397.08, 77.24)">.</text><text class="cls-13" transform="matrix(0.97, -0.25, 0.25, 0.97, 398.4, 76.59)">3</text></g><g id="deployments"><circle class="cls-14" cx="369.49" cy="211.2" r="14.1"/><path class="cls-15" d="M373.92,202.91a9.43,9.43,0,1,1-7.55-.57"/><polygon class="cls-16" points="375.27 205.75 374.24 203.06 376.93 202.04 375.35 201.33 372.67 202.35 373.69 205.04 375.27 205.75"/><path class="cls-16" d="M364.3,214.93l.78-.11,3.31-9.46h2.23l3.29,9.46.78.11v1.31H371v-1.31l.75-.13-.48-1.49h-3.53l-.48,1.49.75.13v1.31H364.3Zm3.94-3.23h2.5l-1.22-3.83h0Z"/></g><g id="containers_volumes" data-name="containers/volumes"><polygon class="cls-17" points="307.66 101.75 319.52 94.91 331.37 101.75 319.52 108.6 307.66 101.75"/><polygon class="cls-17" points="307.66 115.45 307.66 101.75 319.52 108.6 319.52 122.29 307.66 115.45"/><polygon class="cls-17" points="319.52 122.29 319.52 108.6 331.37 101.75 331.37 115.45 319.52 122.29"/><g class="cls-18"><polygon class="cls-19" points="261.16 101.75 273.01 94.91 284.87 101.75 273.01 108.6 261.16 101.75"/><polygon class="cls-19" points="261.16 115.45 261.16 101.75 273.01 108.6 273.01 122.29 261.16 115.45"/><polygon class="cls-19" points="273.01 122.29 273.01 108.6 284.87 101.75 284.87 115.45 273.01 122.29"/></g><polygon class="cls-19" points="260.51 323.48 272.37 316.63 284.23 323.48 272.37 330.33 260.51 323.48"/><polygon class="cls-19" points="260.51 337.18 260.51 323.48 272.37 330.33 272.37 344.02 260.51 337.18"/><polygon class="cls-19" points="272.37 344.02 272.37 330.33 284.23 323.48 284.23 337.18 272.37 344.02"/><polygon class="cls-19" points="395.36 88.35 404.85 82.88 414.33 88.35 404.85 93.84 395.36 88.35"/><polygon class="cls-19" points="395.36 99.31 395.36 88.35 404.85 93.84 404.85 104.79 395.36 99.31"/><polygon class="cls-19" points="404.85 104.79 404.85 93.84 414.33 88.35 414.33 99.31 404.85 104.79"/><polygon class="cls-19" points="432.56 88.35 442.05 82.88 451.53 88.35 442.05 93.84 432.56 88.35"/><polygon class="cls-19" points="432.56 99.31 432.56 88.35 442.05 93.84 442.05 104.79 432.56 99.31"/><polygon class="cls-19" points="442.05 104.79 442.05 93.84 451.53 88.35 451.53 99.31 442.05 104.79"/></g><g id="description"><text class="cls-20" transform="translate(171.78 136.37)">Se<tspan class="cls-21" x="13.76" y="0">r</tspan><tspan x="18.83" y="0">vice</tspan></text><line class="cls-22" x1="273.44" y1="133.97" x2="217.37" y2="133.97"/><text class="cls-20" transform="translate(128.11 86.92)"><tspan class="cls-23">n</tspan><tspan x="7.66" y="0">ew IP add</tspan><tspan class="cls-24" x="62.51" y="0">r</tspan><tspan x="67.37" y="0">ess</tspan></text><line class="cls-22" x1="300.5" y1="84.52" x2="217.37" y2="84.52"/><text class="cls-20" transform="translate(143.63 111)">updated app</text><line class="cls-22" x1="311.7" y1="108.6" x2="217.37" y2="108.6"/><text class="cls-20" transform="translate(432.05 205.36)">De<tspan class="cls-23" x="14.77" y="0">p</tspan><tspan class="cls-25" x="21.97" y="0">l</tspan><tspan class="cls-26" x="25.63" y="0">o</tspan><tspan x="32.28" y="0">y</tspan><tspan class="cls-23" x="39.09" y="0">m</tspan><tspan x="50.37" y="0">ent</tspan></text><line class="cls-22" x1="430.01" y1="202.96" x2="369.49" y2="202.96"/></g></svg>