<svg xmlns="http://www.w3.org/2000/svg" viewBox="0 0 350 200"><defs><style>.cls-1{opacity:.13}.cls-2{fill:url(#linear-gradient)}.cls-3,.cls-4{fill:#fff}.cls-3,.cls-4,.cls-5,.cls-7{stroke:#326de6}.cls-3,.cls-4,.cls-6,.cls-7{stroke-linecap:round;stroke-linejoin:round}.cls-3,.cls-5,.cls-6,.cls-7{stroke-width:.8px}.cls-4{stroke-width:1.2px}.cls-5,.cls-7{fill:none}.cls-5{stroke-miterlimit:10}.cls-6{fill:#06f7c9;stroke:#011f38}.cls-8{fill:#326de6}</style><linearGradient id="linear-gradient" x1="181.65" y1="100" x2="302.12" y2="100" gradientUnits="userSpaceOnUse"><stop offset="0" stop-color="#326de6"/><stop offset="1" stop-color="#06f7c9"/></linearGradient></defs><title>16.07.28_k8s_visual_diagrams</title><g id="Graphics"><path class="cls-1 cls-2" d="M290.19 64.54l11.93 52.27-33.43 41.91h-53.62l-33.42-41.91 11.93-52.27 48.3-23.26 48.31 23.26z"/><path class="cls-3" d="M257.17 90.84l-13.97-8.07V66.64l13.97-8.06 13.97 8.06v16.13l-13.97 8.07zM225.04 109.43l-13.97 8.06-13.96-8.06V93.3l13.96-8.07 13.97 8.07v16.13zM226.59 90.84l-13.96-8.07V66.64l13.96-8.06 13.97 8.06v16.13l-13.97 8.07zM226.44 144.14l-13.97-8.06v-16.13l13.97-8.06 13.97 8.06v16.13l-13.97 8.06zM257.32 144.14l-13.96-8.06v-16.13l13.96-8.06 13.97 8.06v16.13l-13.97 8.06zM286.66 109.43l-13.97 8.06-13.97-8.06V93.3l13.97-8.07 13.97 8.07v16.13z"/><path class="cls-4" d="M241.82 101.23v1.85M242.75 102.16h-1.85M252.18 104.23l-1.22-5.34-.82-3.59-4.92-2.37-3.34-1.61-8.24 3.97-.02.01-1.02 4.47-.79 3.46-.23 1 2.42 3.03.43.55 2.87 3.59h9.17l2.16-2.71.69-.87 2.86-3.59z"/><circle class="cls-5" cx="68.81" cy="100.33" r="20.93"/><path class="cls-6" d="M59.12 94.72l9.69-5.59 9.7 5.59-9.7 5.61-9.69-5.61z"/><path class="cls-6" d="M59.12 105.92v-11.2l9.69 5.61v11.19l-9.69-5.6zM68.81 111.52v-11.19l9.7-5.61v11.2l-9.7 5.6z"/><path class="cls-7" d="M106.55 100.33h56.47"/><path class="cls-8" d="M160.37 103.6l-.55-.59 2.89-2.68-2.89-2.69.55-.59 3.51 3.28-3.51 3.27z"/></g></svg>