<?xml version="1.0" encoding="utf-8"?>
<!-- Generator: Adobe Illustrator 19.2.1, SVG Export Plug-In . SVG Version: 6.00 Build 0)  -->
<svg version="1.1" xmlns="http://www.w3.org/2000/svg" xmlns:xlink="http://www.w3.org/1999/xlink" x="0px" y="0px"
	 viewBox="0 0 720.4 440.4" style="enable-background:new 0 0 720.4 440.4;" xml:space="preserve">
<style type="text/css">
	.st0{fill:#FFFFFF;stroke:#326DE6;stroke-width:2;stroke-linecap:round;stroke-linejoin:round;stroke-miterlimit:10;}
	.st1{opacity:0.71;fill:#326CE6;}
	.st2{opacity:0.45;fill:#FFFFFF;}
	.st3{fill:#FFFFFF;stroke:#006DE9;stroke-width:2;stroke-linecap:round;stroke-linejoin:round;stroke-miterlimit:10;}
	.st4{fill:#006DE9;}
	.st5{fill:#A0CAEA;}
	.st6{fill:#FFFFFF;}
	.st7{opacity:0.13;}
	.st8{fill:url(#SVGID_1_);}
	.st9{fill:url(#SVGID_2_);}
	.st10{fill:#FFFFFF;stroke:#006DE9;stroke-linecap:round;stroke-linejoin:round;stroke-miterlimit:10;}
	.st11{fill:#FFFFFF;stroke:#006DE9;stroke-width:6;stroke-linecap:round;stroke-linejoin:round;stroke-miterlimit:10;}
	.st12{fill:#FFFFFF;stroke:#326DE6;stroke-width:3.2;stroke-linecap:round;stroke-linejoin:round;stroke-miterlimit:10;}
	.st13{fill:#326DE6;}
	.st14{fill:none;stroke:#326DE6;stroke-width:2.4;stroke-miterlimit:10;}
	.st15{fill:#A0CAE9;}
	.st16{fill:#FFFFFF;stroke:#326DE6;stroke-width:1.6;stroke-linecap:round;stroke-linejoin:round;stroke-miterlimit:10;}
	.st17{fill:#FFFFFF;stroke:#326DE6;stroke-width:1.6;stroke-miterlimit:10;}
	.st18{fill:none;stroke:#06F7C9;stroke-width:2;stroke-miterlimit:10;}
	.st19{fill:none;stroke:#06F7C9;stroke-width:2;stroke-miterlimit:10;stroke-dasharray:2.3749,1.5832;}
	.st20{fill:none;stroke:#06F7C9;stroke-width:2;stroke-miterlimit:10;stroke-dasharray:2.4006,1.6004;}
	.st21{fill:none;stroke:#EEF406;stroke-width:2;stroke-miterlimit:10;stroke-dasharray:2.4,1.6;}
	.st22{fill:none;stroke:#EEF406;stroke-width:2;stroke-miterlimit:10;}
	.st23{fill:none;stroke:#EEF406;stroke-width:2;stroke-miterlimit:10;stroke-dasharray:2.3975,1.5984;}
	.st24{fill:none;stroke:#EEF406;stroke-width:2;stroke-miterlimit:10;stroke-dasharray:2.395,1.5966;}
	.st25{fill:none;stroke:#EEF406;stroke-width:2;stroke-miterlimit:10;stroke-dasharray:2.3963,1.5976;}
	.st26{opacity:0.1;fill:#EEF406;}
	.st27{opacity:2.000000e-02;fill:#EEF406;}
	.st28{opacity:0.1;fill:#06F7C9;}
	.st29{fill:none;stroke:#006DE9;stroke-width:0.8;stroke-miterlimit:10;}
	.st30{opacity:0.1;fill:url(#SVGID_3_);}
	.st31{opacity:0.1;fill:url(#SVGID_4_);}
	.st32{opacity:0.1;fill:url(#SVGID_5_);}
	.st33{opacity:0.1;fill:url(#SVGID_6_);}
	.st34{fill:none;stroke:#326DE6;stroke-width:1.2;stroke-miterlimit:10;}
	.st35{opacity:0.1;fill:url(#SVGID_7_);}
	.st36{opacity:0.1;fill:url(#SVGID_8_);}
	.st37{opacity:0.1;fill:url(#SVGID_9_);}
	.st38{opacity:0.1;fill:url(#SVGID_10_);}
	.st39{fill:none;stroke:#326DE6;stroke-width:2;stroke-miterlimit:10;}
	.st40{opacity:0.4;fill:none;stroke:#EEF406;stroke-width:2;stroke-miterlimit:10;}
	.st41{fill:none;stroke:#EEF406;stroke-width:2.4596;stroke-miterlimit:10;}
	.st42{fill:#011F38;}
	.st43{opacity:0.4;}
	.st44{opacity:0.1;}
	.st45{fill:#326DE6;stroke:#EEF406;stroke-width:2;stroke-miterlimit:10;}
	.st46{fill:none;stroke:#FFFFFF;stroke-width:1.2;stroke-linecap:round;stroke-linejoin:round;}
	.st47{fill:#06F7C9;stroke:#FFFFFF;stroke-width:0.3;stroke-linecap:round;stroke-linejoin:round;stroke-miterlimit:10;}
	.st48{fill:none;stroke:#011F38;stroke-width:1.2;stroke-linecap:round;stroke-linejoin:round;}
	.st49{fill:#326DE6;stroke:#06F7C9;stroke-width:2;stroke-miterlimit:10;}
	.st50{fill:#06F7C9;stroke:#011F38;stroke-width:0.8;stroke-linecap:round;stroke-linejoin:round;stroke-miterlimit:10;}
	.st51{fill:#8115FF;stroke:#011F38;stroke-width:0.8;stroke-linecap:round;stroke-linejoin:round;stroke-miterlimit:10;}
	.st52{opacity:0.3;}
	.st53{opacity:0.2;fill:#6D6E71;}
	.st54{fill:#EEF406;}
	.st55{fill:#06F7C9;}
	.st56{fill:#FFFFFF;stroke:#06F7C9;stroke-width:2;stroke-miterlimit:10;stroke-dasharray:2.4,1.6;}
	.st57{fill:#FFFFFF;stroke:#EEF406;stroke-width:1.6;stroke-miterlimit:10;stroke-dasharray:2.4,1.6;}
	.st58{fill:none;stroke:#06F7C9;stroke-width:2;stroke-miterlimit:10;stroke-dasharray:2.4938,1.6626;}
	.st59{fill:none;stroke:#06F7C9;stroke-width:2;stroke-miterlimit:10;stroke-dasharray:2.0084,1.3389;}
	.st60{fill:none;stroke:#06F7C9;stroke-width:2;stroke-miterlimit:10;stroke-dasharray:2.724,1.816;}
	.st61{fill:#011F38;stroke:#414042;stroke-width:0.3;stroke-linecap:round;stroke-linejoin:round;stroke-miterlimit:10;}
	.st62{fill:none;stroke:#011F38;stroke-width:0.3;stroke-linecap:round;stroke-linejoin:round;stroke-miterlimit:10;}
	.st63{fill:none;stroke:#011F38;stroke-width:0.2813;stroke-linecap:round;stroke-linejoin:round;stroke-miterlimit:10;}
</style>
<symbol  id="node_high_level" viewBox="-81 -93 162 186.1">
	<polygon class="st0" points="-80,-46 -80,46 0,92 80,46 80,-46 0,-92 	"/>
	<g id="Isolation_Mode_3_">
	</g>
</symbol>
<symbol  id="node_x5F_empty" viewBox="-87.5 -100.6 175.1 201.1">
	
		<use xlink:href="#node_high_level"  width="162" height="186.1" id="XMLID_201_" x="-81" y="-93" transform="matrix(1.0808 0 0 1.0808 -3.292006e-05 -3.749943e-05)" style="overflow:visible;"/>
	<g>
		<polygon class="st1" points="76.8,-28.1 -14,-80.3 0,-88.3 76.7,-44.4 		"/>
		<polygon class="st2" points="76.8,-28.1 32.1,-53.8 38.8,-66.1 76.7,-44.4 		"/>
	</g>
</symbol>
<symbol  id="node_x5F_new" viewBox="-87.6 -101 175.2 202">
	<polygon class="st3" points="0,-100 -86.6,-50 -86.6,50 0,100 86.6,50 86.6,-50 	"/>
	<polygon class="st4" points="-86.6,-20.2 -86.6,-50 0,-100 25.8,-85.1 	"/>
	<polygon class="st5" points="-40.8,-70.7 -32.9,-57 15.7,-85.1 0,-94.3 	"/>
	
		<text transform="matrix(0.866 -0.5 -0.5 -0.866 -33.9256 -70.7388)" class="st6" style="font-family:'RobotoSlab-Regular'; font-size:11.3632px;">Docker</text>
	
		<text transform="matrix(0.866 -0.5 -0.5 -0.866 -76.0668 -46.4087)" class="st6" style="font-family:'RobotoSlab-Regular'; font-size:11.3632px;">Kubelt</text>
</symbol>
<g id="CLUSTER">
</g>
<g id="master">
	<g id="master_x5F_level1">
	</g>
</g>
<g id="Node">
	<polygon class="st13" points="186.9,290.9 186.9,311.3 350.9,406 368.6,395.8 	"/>
	<polygon class="st14" points="186.9,311.3 186.9,122 350.9,27.3 514.9,122 514.9,311.3 350.9,406 	"/>
	<polygon class="st15" points="270.1,356.6 276.5,345.4 363.8,395.8 350.9,403.3 	"/>
	<g>
		<path class="st6" d="M304.6,365.7c0.8,0.4,1.3,1,1.5,1.8c0.2,0.7,0.1,1.5-0.4,2.2l-0.5,0.8c-0.4,0.8-1,1.2-1.8,1.4
			c-0.7,0.2-1.5,0.1-2.3-0.4l-2.5-1.4l0.3-0.5l0.7,0.3l2.7-4.7l-0.6-0.5l0.3-0.5l0.7,0.4L304.6,365.7z M303.3,365.7l-2.7,4.7l1,0.6
			c0.5,0.3,1.1,0.4,1.6,0.2c0.5-0.2,0.9-0.5,1.3-1.1l0.5-0.8c0.3-0.6,0.4-1.1,0.3-1.6c-0.1-0.5-0.4-1-1-1.3L303.3,365.7z"/>
		<path class="st6" d="M305.9,371.3c0.4-0.6,0.9-1.1,1.5-1.3c0.6-0.2,1.2-0.2,1.8,0.2c0.6,0.4,1,0.8,1.1,1.5s0,1.3-0.4,1.9l-0.1,0.1
			c-0.4,0.7-0.9,1.1-1.5,1.3c-0.6,0.2-1.2,0.1-1.8-0.2c-0.6-0.4-1-0.8-1.1-1.5S305.4,372,305.9,371.3L305.9,371.3z M306.6,371.8
			c-0.3,0.5-0.4,0.9-0.4,1.3s0.2,0.7,0.6,1c0.4,0.2,0.8,0.2,1.1,0c0.4-0.2,0.7-0.5,1-1l0.1-0.1c0.3-0.5,0.4-0.9,0.4-1.3
			c0-0.4-0.2-0.7-0.6-1c-0.4-0.2-0.8-0.2-1.1,0C307.3,370.9,306.9,371.3,306.6,371.8L306.6,371.8z"/>
		<path class="st6" d="M311.5,376.8c0.3,0.2,0.5,0.2,0.8,0.2c0.3,0,0.5-0.2,0.7-0.4l0.7,0.4l0,0c-0.2,0.4-0.6,0.6-1.1,0.7
			c-0.5,0.1-1,0-1.5-0.3c-0.6-0.4-1-0.9-1.1-1.5c-0.1-0.6,0-1.2,0.4-1.9l0.1-0.2c0.4-0.6,0.8-1,1.4-1.3c0.6-0.2,1.2-0.2,1.8,0.2
			c0.4,0.2,0.6,0.4,0.8,0.7c0.2,0.3,0.4,0.6,0.4,0.9l-0.5,1l-0.6-0.4l0.2-0.8c0-0.1-0.1-0.3-0.2-0.4c-0.1-0.1-0.3-0.3-0.5-0.4
			c-0.4-0.2-0.8-0.3-1.2-0.1c-0.4,0.2-0.7,0.5-0.9,1l-0.1,0.2c-0.3,0.4-0.4,0.9-0.4,1.3S311.1,376.6,311.5,376.8z"/>
		<path class="st6" d="M317,372.9l0.3-0.5l1.5,0.8l-2.1,3.7l0.5,0.3l1.6-0.6l-0.4-0.3l0.3-0.5l1.8,1.1l-0.3,0.5l-0.6-0.2l-2,0.7
			l0.4,2.6l0.4,0.4l-0.3,0.5l-1.8-1.1l0.3-0.5l0.4,0.2l-0.3-2.1l-0.5-0.3l-0.8,1.4l0.6,0.5l-0.3,0.5l-2.1-1.2l0.3-0.5l0.7,0.3
			l2.9-5.1L317,372.9z"/>
		<path class="st6" d="M320.7,382.9c-0.6-0.4-1-0.8-1.1-1.5c-0.1-0.6,0-1.2,0.4-1.9l0.1-0.2c0.4-0.6,0.8-1,1.5-1.2
			c0.6-0.2,1.2-0.2,1.7,0.1c0.6,0.3,0.9,0.8,1,1.3c0.1,0.5,0,1.1-0.4,1.7l-0.3,0.5l-2.8-1.6l0,0c-0.2,0.4-0.3,0.8-0.3,1.2
			s0.3,0.7,0.6,0.9c0.3,0.2,0.5,0.3,0.8,0.3c0.2,0,0.5,0,0.7,0l0,0.7c-0.2,0.1-0.5,0.1-0.8,0C321.4,383.2,321,383.1,320.7,382.9z
			 M322.8,378.9c-0.3-0.2-0.6-0.2-0.9-0.1c-0.3,0.1-0.6,0.3-0.8,0.6l0,0l2,1.2l0.1-0.1c0.2-0.3,0.2-0.6,0.2-0.9
			C323.3,379.3,323.1,379.1,322.8,378.9z"/>
		<path class="st6" d="M325.4,380.4l0.3-0.5l1.4,0.8l-0.3,0.7c0.3-0.2,0.5-0.2,0.8-0.3c0.3,0,0.5,0,0.7,0.2c0.1,0,0.1,0.1,0.2,0.1
			c0.1,0,0.1,0.1,0.1,0.1l-0.5,0.7l-0.4-0.3c-0.2-0.1-0.4-0.2-0.6-0.2c-0.2,0-0.4,0.1-0.6,0.2l-1.5,2.5l0.6,0.5l-0.3,0.5l-2.1-1.2
			l0.3-0.5l0.7,0.3l1.8-3.1L325.4,380.4z"/>
	</g>
	<g>
		<path class="st6" d="M219.1,316.4l0.3-0.5l1.5,0.8l-2.1,3.7l0.5,0.3l1.6-0.6l-0.4-0.3l0.3-0.5l1.8,1.1l-0.3,0.5l-0.6-0.2l-2,0.7
			l0.4,2.6l0.4,0.4l-0.3,0.5l-1.8-1.1l0.3-0.5l0.4,0.2l-0.3-2.1l-0.5-0.3l-0.8,1.4l0.6,0.5l-0.3,0.5l-2.1-1.2l0.3-0.5l0.7,0.3
			l2.9-5.1L219.1,316.4z"/>
		<path class="st6" d="M224.4,326.4c-0.3,0.2-0.6,0.2-0.8,0.2c-0.3,0-0.6-0.1-0.9-0.2c-0.5-0.3-0.8-0.6-0.9-1.1
			c-0.1-0.5,0.1-1,0.4-1.7l1.1-2l-0.4-0.4l0.3-0.5l0.5,0.3l0.8,0.5l-1.5,2.6c-0.3,0.5-0.4,0.8-0.3,1.1c0,0.3,0.2,0.5,0.5,0.6
			c0.3,0.2,0.6,0.2,0.8,0.2c0.3,0,0.5-0.1,0.7-0.2l1.5-2.5l-0.5-0.5l0.3-0.5l0.6,0.3l0.8,0.5l-2.2,3.8l0.4,0.4l-0.3,0.5l-1.2-0.7
			L224.4,326.4z"/>
		<path class="st6" d="M231.1,328.4c-0.4,0.6-0.8,1.1-1.3,1.3c-0.5,0.2-1.1,0.2-1.6-0.1c-0.3-0.2-0.5-0.4-0.7-0.6
			c-0.1-0.2-0.2-0.5-0.2-0.8l-0.4,0.5l-0.7-0.4l3.3-5.7l-0.6-0.5l0.3-0.5l1.5,0.8l-1.4,2.5c0.3-0.1,0.5-0.2,0.8-0.2
			c0.3,0,0.5,0.1,0.8,0.3c0.5,0.3,0.8,0.8,0.9,1.4C231.8,327,231.6,327.6,231.1,328.4L231.1,328.4z M230.4,327.9
			c0.3-0.5,0.4-1,0.4-1.4c0-0.4-0.2-0.7-0.6-1c-0.2-0.1-0.5-0.2-0.7-0.2s-0.5,0.1-0.7,0.2l-1.1,1.9c0,0.3,0,0.5,0.1,0.7
			c0.1,0.2,0.3,0.4,0.5,0.5c0.4,0.2,0.7,0.2,1.1,0.1C229.8,328.7,230.1,328.4,230.4,327.9L230.4,327.9z"/>
		<path class="st6" d="M232.7,332.1c-0.6-0.4-1-0.8-1.1-1.5c-0.1-0.6,0-1.2,0.4-1.9l0.1-0.2c0.4-0.6,0.8-1,1.5-1.2
			c0.6-0.2,1.2-0.2,1.7,0.1c0.6,0.3,0.9,0.8,1,1.3c0.1,0.5,0,1.1-0.4,1.7l-0.3,0.5l-2.9-1.6l0,0c-0.2,0.4-0.3,0.8-0.3,1.2
			c0,0.4,0.3,0.7,0.6,0.9c0.3,0.2,0.5,0.3,0.8,0.3c0.2,0,0.5,0,0.7,0l0,0.7c-0.2,0.1-0.5,0.1-0.8,0
			C233.4,332.5,233.1,332.3,232.7,332.1z M234.9,328.1c-0.3-0.2-0.6-0.2-0.9-0.1s-0.6,0.3-0.8,0.6l0,0l2,1.2l0.1-0.1
			c0.2-0.3,0.2-0.6,0.2-0.9S235.2,328.3,234.9,328.1z"/>
		<path class="st6" d="M238.5,327.6l0.3-0.5l1.5,0.8l-3.3,5.7l0.6,0.5l-0.3,0.5l-2.1-1.2l0.3-0.5l0.7,0.3l2.9-5.1L238.5,327.6z"/>
		<path class="st6" d="M239.8,336.2c-0.6-0.4-1-0.8-1.1-1.5c-0.1-0.6,0-1.2,0.4-1.9l0.1-0.2c0.4-0.6,0.8-1,1.5-1.2
			c0.6-0.2,1.2-0.2,1.7,0.1c0.6,0.3,0.9,0.8,1,1.3c0.1,0.5,0,1.1-0.4,1.7l-0.3,0.5l-2.9-1.6l0,0c-0.2,0.4-0.3,0.8-0.3,1.2
			c0,0.4,0.3,0.7,0.6,0.9c0.3,0.2,0.5,0.3,0.8,0.3c0.2,0,0.5,0,0.7,0l0,0.7c-0.2,0.1-0.5,0.1-0.8,0
			C240.5,336.6,240.2,336.4,239.8,336.2z M242,332.2c-0.3-0.2-0.6-0.2-0.9-0.1s-0.6,0.3-0.8,0.6l0,0l2,1.2l0.1-0.1
			c0.2-0.3,0.2-0.6,0.2-0.9S242.3,332.4,242,332.2z"/>
		<path class="st6" d="M246.9,332.9l-0.6,1.1l0.8,0.5l-0.3,0.6l-0.8-0.5l-1.5,2.7c-0.1,0.2-0.2,0.4-0.1,0.5c0,0.1,0.1,0.2,0.3,0.3
			c0.1,0,0.2,0.1,0.2,0.1c0.1,0,0.2,0.1,0.2,0.1l-0.2,0.6c-0.1,0-0.2,0-0.4-0.1c-0.2-0.1-0.3-0.1-0.5-0.2c-0.3-0.2-0.5-0.4-0.6-0.7
			c-0.1-0.3,0-0.7,0.2-1.1l1.5-2.7l-0.7-0.4l0.3-0.6l0.7,0.4l0.6-1.1L246.9,332.9z"/>
	</g>
	<g id="Node_x5F_level3_x5F_1">
		<g id="Isolation_Mode">
		</g>
	</g>
</g>
<g id="service">
</g>
<g id="pods">
	<linearGradient id="SVGID_1_" gradientUnits="userSpaceOnUse" x1="271.6494" y1="278.8816" x2="333.1111" y2="278.8816">
		<stop  offset="0" style="stop-color:#326DE6"/>
		<stop  offset="1" style="stop-color:#10FFC6"/>
	</linearGradient>
	<circle style="opacity:0.1;fill:url(#SVGID_1_);" cx="302.4" cy="278.9" r="30.7"/>
	<linearGradient id="SVGID_2_" gradientUnits="userSpaceOnUse" x1="308.3078" y1="192.4681" x2="354.4041" y2="192.4681">
		<stop  offset="0" style="stop-color:#326DE6"/>
		<stop  offset="1" style="stop-color:#10FFC6"/>
	</linearGradient>
	<circle style="opacity:0.1;fill:url(#SVGID_2_);" cx="331.4" cy="192.5" r="23"/>
	<linearGradient id="SVGID_3_" gradientUnits="userSpaceOnUse" x1="377.5823" y1="162.705" x2="459.5313" y2="162.705">
		<stop  offset="0" style="stop-color:#326DE6"/>
		<stop  offset="1" style="stop-color:#10FFC6"/>
	</linearGradient>
	<circle class="st30" cx="418.6" cy="162.7" r="41"/>
	<linearGradient id="SVGID_4_" gradientUnits="userSpaceOnUse" x1="365.2899" y1="278.4409" x2="471.8236" y2="278.4409">
		<stop  offset="0" style="stop-color:#326DE6"/>
		<stop  offset="1" style="stop-color:#10FFC6"/>
	</linearGradient>
	<circle class="st31" cx="418.6" cy="278.4" r="53.3"/>
	<circle class="st34" cx="302.4" cy="278.9" r="30.7"/>
	<circle class="st34" cx="331.4" cy="192.5" r="23"/>
	<circle class="st34" cx="418.6" cy="162.7" r="41"/>
	<circle class="st34" cx="418.6" cy="278.4" r="53.3"/>
</g>
<g id="IP">
	<g>
		<path class="st42" d="M271.2,266.2l0.5-1.3l-6.1-2.8l-0.5,1.5l-0.4-0.2l0.5-2.2l6.7,3.1l0.7-1.3l0.4,0.2l-1.5,3.2L271.2,266.2z"/>
		<path class="st42" d="M273.7,256.7c0.9,0.6,1.4,1.2,1.6,1.9c0.2,0.7,0.1,1.3-0.3,2c-0.4,0.6-1,1-1.7,1c-0.7,0.1-1.5-0.2-2.3-0.8
			l-1.5-1c-0.8-0.6-1.4-1.2-1.6-1.9s-0.1-1.3,0.3-2c0.4-0.6,1-1,1.7-1c0.7-0.1,1.5,0.2,2.3,0.8L273.7,256.7z M271.7,256.2
			c-0.7-0.5-1.3-0.7-1.8-0.7c-0.5,0-1,0.3-1.3,0.8c-0.3,0.5-0.4,1-0.2,1.5c0.2,0.5,0.6,1,1.3,1.4l1.6,1.1c0.7,0.5,1.3,0.7,1.8,0.7
			s1-0.3,1.3-0.7c0.3-0.5,0.4-1,0.2-1.5s-0.6-1-1.3-1.4L271.7,256.2z"/>
		<path class="st42" d="M277.6,256.9l-0.5,0.6l-0.7-0.6l0.5-0.6L277.6,256.9z"/>
		<path class="st42" d="M278.2,255.5l1-1l-4.6-4.9l-1,1.2l-0.3-0.3l1.3-1.9l5.1,5.4l1.1-0.9l0.3,0.4l-2.6,2.4L278.2,255.5z"/>
		<path class="st42" d="M284,247.6c0.6,0.8,0.8,1.6,0.8,2.3c0,0.7-0.4,1.3-1,1.7c-0.6,0.4-1.3,0.5-2,0.3c-0.7-0.2-1.3-0.7-1.9-1.6
			l-1-1.5c-0.6-0.8-0.8-1.6-0.8-2.3c0-0.7,0.4-1.3,1-1.7c0.6-0.4,1.3-0.6,2-0.3c0.7,0.2,1.3,0.7,1.9,1.6L284,247.6z M282.4,246.4
			c-0.5-0.7-0.9-1.1-1.4-1.3c-0.5-0.2-1-0.1-1.5,0.2c-0.5,0.3-0.7,0.8-0.7,1.3c0,0.5,0.2,1.1,0.7,1.8l1.1,1.6
			c0.5,0.7,0.9,1.1,1.5,1.3c0.5,0.2,1,0.1,1.5-0.2c0.5-0.3,0.7-0.8,0.7-1.3s-0.2-1.1-0.7-1.8L282.4,246.4z"/>
		<path class="st42" d="M287.6,249.2l-0.7,0.3l-0.4-0.8l0.7-0.3L287.6,249.2z"/>
		<path class="st42" d="M288.7,248.1l1.3-0.6l-2.4-6.3l-1.4,0.8l-0.2-0.4l1.9-1.3l2.7,6.9l1.4-0.5l0.2,0.4l-3.3,1.3L288.7,248.1z"/>
		<path class="st42" d="M297,243c0.2,1,0.2,1.8-0.1,2.5c-0.3,0.6-0.8,1-1.6,1.2c-0.8,0.2-1.4,0-2-0.4c-0.5-0.4-0.9-1.2-1.2-2.2
			l-0.4-1.7c-0.2-1-0.2-1.8,0.1-2.5s0.8-1,1.6-1.2c0.8-0.2,1.4,0,2,0.4c0.5,0.5,0.9,1.2,1.2,2.2L297,243z M296,241.3
			c-0.2-0.8-0.5-1.4-0.9-1.7c-0.4-0.4-0.9-0.5-1.5-0.4c-0.6,0.1-1,0.4-1.2,0.9c-0.2,0.5-0.2,1.1-0.1,1.9l0.4,1.9
			c0.2,0.8,0.5,1.4,0.9,1.7c0.4,0.4,0.9,0.5,1.5,0.4c0.6-0.1,1-0.4,1.2-0.9c0.2-0.5,0.2-1.1,0.1-1.9L296,241.3z"/>
		<path class="st42" d="M299.7,245.9l-0.7,0.1l-0.1-0.9l0.7-0.1L299.7,245.9z"/>
		<path class="st42" d="M301,245.7l0-0.5l2.7-2.9c0.5-0.5,0.9-1,1.1-1.3c0.2-0.4,0.3-0.7,0.3-1c0-0.5-0.1-0.9-0.4-1.2
			c-0.3-0.3-0.7-0.5-1.2-0.5c-0.6,0-1.1,0.1-1.4,0.5c-0.3,0.3-0.5,0.8-0.5,1.3l-0.6,0l0,0c0-0.7,0.2-1.2,0.7-1.7
			c0.5-0.4,1.1-0.7,1.8-0.6c0.7,0,1.2,0.2,1.6,0.6s0.6,0.9,0.6,1.6c0,0.4-0.2,0.9-0.5,1.3c-0.3,0.4-0.7,0.9-1.2,1.5l-2.3,2.4l0,0
			l3.5,0.1l0.1-1.1l0.6,0l-0.1,1.7L301,245.7z"/>
	</g>
	<g>
		<path class="st42" d="M307.9,182.8l0.6-1.3l-6-3l-0.5,1.5l-0.4-0.2l0.6-2.2l6.7,3.3l0.7-1.2l0.4,0.2l-1.5,3.2L307.9,182.8z"/>
		<path class="st42" d="M310.8,173.5c0.8,0.6,1.3,1.3,1.5,2c0.2,0.7,0,1.3-0.5,1.9c-0.5,0.6-1.1,0.9-1.8,0.9c-0.7,0-1.5-0.3-2.3-0.9
			l-1.4-1.1c-0.8-0.6-1.3-1.3-1.5-2c-0.2-0.7,0-1.3,0.4-1.9c0.5-0.6,1.1-0.9,1.8-0.9c0.7,0,1.5,0.3,2.3,0.9L310.8,173.5z
			 M308.9,172.8c-0.6-0.5-1.2-0.8-1.8-0.8s-1,0.2-1.4,0.7c-0.4,0.5-0.5,1-0.3,1.5s0.6,1,1.2,1.5l1.6,1.2c0.6,0.5,1.2,0.8,1.8,0.8
			c0.5,0,1-0.2,1.4-0.7c0.4-0.5,0.5-1,0.3-1.5c-0.2-0.5-0.6-1-1.2-1.5L308.9,172.8z"/>
		<path class="st42" d="M314.7,174.1l-0.5,0.5l-0.6-0.7l0.5-0.5L314.7,174.1z"/>
		<path class="st42" d="M315.4,172.7l1.1-0.9l-3.9-5.5l-1.2,1.1l-0.3-0.4l1.5-1.7l4.3,6.1l1.2-0.8l0.3,0.4l-2.9,2L315.4,172.7z"/>
		<path class="st42" d="M322.4,165.9c0.4,0.9,0.5,1.8,0.4,2.4c-0.2,0.7-0.6,1.2-1.3,1.5c-0.7,0.3-1.4,0.3-2,0
			c-0.6-0.3-1.1-1-1.6-1.9l-0.7-1.6c-0.4-0.9-0.5-1.8-0.4-2.4c0.2-0.7,0.6-1.2,1.3-1.5c0.7-0.3,1.4-0.3,2,0c0.6,0.3,1.1,1,1.6,1.9
			L322.4,165.9z M321.1,164.4c-0.3-0.7-0.7-1.3-1.2-1.5s-1-0.3-1.5-0.1c-0.5,0.2-0.9,0.6-1,1.1c-0.1,0.5,0,1.2,0.3,1.9l0.8,1.8
			c0.3,0.7,0.7,1.3,1.2,1.5c0.5,0.3,1,0.3,1.5,0.1c0.5-0.2,0.9-0.6,1-1.2s0-1.2-0.3-1.9L321.1,164.4z"/>
		<path class="st42" d="M325.6,168.3l-0.7,0.2l-0.2-0.9l0.7-0.2L325.6,168.3z"/>
		<path class="st42" d="M326.8,167.5l1.4-0.2l-0.8-6.7l-1.5,0.4l-0.1-0.5l2.2-0.7l0.8,7.4l1.4-0.1l0.1,0.5l-3.5,0.4L326.8,167.5z"/>
		<path class="st42" d="M336.2,164.9c-0.1,1-0.4,1.8-0.9,2.3s-1.1,0.7-1.9,0.7c-0.8-0.1-1.3-0.4-1.7-1c-0.4-0.6-0.5-1.4-0.4-2.4
			l0.2-1.8c0.1-1,0.4-1.8,0.9-2.3c0.5-0.5,1.1-0.7,1.9-0.7c0.8,0.1,1.4,0.4,1.7,1c0.4,0.6,0.5,1.4,0.4,2.4L336.2,164.9z
			 M335.8,162.9c0.1-0.8,0-1.5-0.3-1.9c-0.3-0.5-0.7-0.7-1.3-0.8c-0.6-0.1-1.1,0.1-1.4,0.5s-0.6,1-0.6,1.8l-0.2,2
			c-0.1,0.8,0,1.4,0.3,1.9c0.3,0.5,0.7,0.7,1.3,0.8c0.6,0.1,1.1-0.1,1.4-0.5c0.3-0.4,0.6-1,0.6-1.8L335.8,162.9z"/>
		<path class="st42" d="M337.9,168.5l-0.7-0.2l0.2-0.9l0.7,0.2L337.9,168.5z"/>
		<path class="st42" d="M339.4,168.4l1.3,0.5l2.5-6.2l-1.5-0.4l0.2-0.4l2.2,0.4l-2.8,6.9l1.3,0.6l-0.2,0.4l-3.3-1.3L339.4,168.4z"/>
	</g>
	<g>
		<path class="st42" d="M384,135.7l0.9-1.1l-5.1-4.3l-0.8,1.3l-0.4-0.3l1.1-2l5.7,4.8l1-1l0.4,0.3l-2.3,2.7L384,135.7z"/>
		<path class="st42" d="M388.7,127.1c0.7,0.8,1.1,1.5,1.1,2.2c0.1,0.7-0.2,1.3-0.8,1.8c-0.6,0.5-1.2,0.7-1.9,0.6
			c-0.7-0.1-1.4-0.5-2.1-1.3l-1.2-1.3c-0.7-0.7-1.1-1.5-1.1-2.2s0.2-1.3,0.8-1.8c0.6-0.5,1.2-0.7,1.9-0.6c0.7,0.1,1.4,0.5,2.1,1.3
			L388.7,127.1z M386.9,126.1c-0.6-0.6-1.1-1-1.6-1.1c-0.5-0.1-1,0-1.4,0.4c-0.4,0.4-0.6,0.9-0.5,1.4c0.1,0.5,0.4,1.1,0.9,1.7
			l1.4,1.5c0.6,0.6,1.1,0.9,1.6,1.1c0.5,0.1,1,0,1.4-0.4c0.4-0.4,0.6-0.9,0.5-1.4c-0.1-0.5-0.4-1.1-0.9-1.7L386.9,126.1z"/>
		<path class="st42" d="M392.4,128.1l-0.6,0.5l-0.5-0.7l0.6-0.5L392.4,128.1z"/>
		<path class="st42" d="M393.4,126.8l1.2-0.8l-3.7-5.6l-1.2,1l-0.2-0.4l1.6-1.6l4,6.2l1.2-0.7l0.3,0.4l-2.9,1.9L393.4,126.8z"/>
		<path class="st42" d="M400.4,119.9c0.5,0.9,0.6,1.7,0.5,2.4c-0.1,0.7-0.6,1.2-1.3,1.5c-0.7,0.3-1.4,0.4-2,0.1
			c-0.6-0.3-1.2-0.9-1.6-1.8l-0.8-1.6c-0.5-0.9-0.6-1.7-0.5-2.4c0.1-0.7,0.6-1.2,1.3-1.5c0.7-0.3,1.4-0.4,2-0.1
			c0.6,0.3,1.2,0.9,1.6,1.8L400.4,119.9z M398.9,118.5c-0.4-0.7-0.8-1.2-1.2-1.5c-0.5-0.3-1-0.3-1.5,0c-0.5,0.3-0.8,0.7-0.9,1.2
			c-0.1,0.5,0.1,1.2,0.4,1.9l0.9,1.8c0.4,0.7,0.8,1.2,1.3,1.5s1,0.3,1.5,0c0.5-0.3,0.8-0.7,0.9-1.2c0.1-0.5-0.1-1.2-0.4-1.9
			L398.9,118.5z"/>
		<path class="st42" d="M403.7,122l-0.7,0.3l-0.3-0.8l0.7-0.3L403.7,122z"/>
		<path class="st42" d="M404.9,121l1.4-0.5l-1.8-6.5l-1.4,0.6l-0.1-0.4l2-1.1l2,7.1l1.4-0.3l0.1,0.5l-3.4,1L404.9,121z"/>
		<path class="st42" d="M413.6,116.4c0.2,1,0.1,1.8-0.3,2.4c-0.3,0.6-0.9,1-1.7,1.1c-0.8,0.1-1.4-0.1-1.9-0.5
			c-0.5-0.5-0.9-1.2-1-2.2l-0.3-1.8c-0.2-1-0.1-1.8,0.3-2.4c0.3-0.6,0.9-1,1.7-1.1c0.8-0.1,1.4,0.1,1.9,0.5c0.5,0.5,0.9,1.2,1,2.2
			L413.6,116.4z M412.7,114.7c-0.1-0.8-0.4-1.4-0.8-1.8c-0.4-0.4-0.9-0.5-1.4-0.4c-0.6,0.1-1,0.4-1.2,0.9s-0.3,1.1-0.2,1.9l0.3,2
			c0.1,0.8,0.4,1.4,0.8,1.8c0.4,0.4,0.9,0.5,1.4,0.4c0.6-0.1,1-0.4,1.2-0.9c0.2-0.5,0.3-1.1,0.2-1.9L412.7,114.7z"/>
		<path class="st42" d="M416.2,119.4l-0.7,0l-0.1-0.9l0.7,0L416.2,119.4z"/>
		<path class="st42" d="M419.2,115l0.8,0c0.6,0,1-0.1,1.3-0.4c0.3-0.3,0.5-0.6,0.5-1.1c0-0.5-0.1-0.9-0.4-1.2
			c-0.3-0.3-0.7-0.5-1.2-0.5c-0.5,0-0.9,0.1-1.3,0.4c-0.3,0.3-0.5,0.7-0.5,1.2l-0.6,0l0,0c0-0.6,0.2-1.1,0.7-1.5
			c0.5-0.4,1-0.6,1.7-0.6c0.7,0,1.3,0.2,1.7,0.6c0.4,0.4,0.6,1,0.6,1.6c0,0.4-0.1,0.7-0.4,1c-0.2,0.3-0.6,0.6-1,0.7
			c0.5,0.2,0.9,0.4,1.1,0.8s0.3,0.7,0.3,1.2c0,0.7-0.3,1.3-0.7,1.6c-0.5,0.4-1.1,0.6-1.8,0.5c-0.7,0-1.3-0.2-1.8-0.7
			c-0.5-0.4-0.7-1-0.7-1.7l0,0l0.6,0c0,0.5,0.1,0.9,0.5,1.3c0.3,0.3,0.8,0.5,1.3,0.5c0.6,0,1-0.1,1.3-0.4c0.3-0.3,0.5-0.7,0.5-1.2
			c0-0.6-0.1-1-0.5-1.3s-0.8-0.4-1.4-0.4l-0.8,0L419.2,115z"/>
	</g>
	<g>
		<path class="st42" d="M376.8,240.9l0.9-1.1l-4.9-4.6l-0.9,1.3l-0.3-0.3l1.2-1.9l5.4,5.1l1-1l0.3,0.3l-2.4,2.5L376.8,240.9z"/>
		<path class="st42" d="M382,232.4c0.7,0.8,1,1.5,1.1,2.2c0,0.7-0.2,1.3-0.8,1.8c-0.6,0.5-1.2,0.7-1.9,0.6c-0.7-0.1-1.4-0.6-2.1-1.4
			l-1.2-1.3c-0.7-0.8-1-1.5-1.1-2.2c0-0.7,0.2-1.3,0.8-1.8c0.6-0.5,1.2-0.7,1.9-0.6s1.4,0.6,2.1,1.4L382,232.4z M380.2,231.4
			c-0.5-0.6-1.1-1-1.6-1.1c-0.5-0.1-1,0-1.5,0.4c-0.4,0.4-0.6,0.8-0.6,1.4s0.3,1.1,0.9,1.7l1.3,1.5c0.5,0.6,1.1,1,1.6,1.1
			c0.5,0.1,1,0,1.5-0.4c0.4-0.4,0.6-0.8,0.6-1.4c-0.1-0.5-0.4-1.1-0.9-1.7L380.2,231.4z"/>
		<path class="st42" d="M385.7,233.5l-0.6,0.4l-0.5-0.7l0.6-0.4L385.7,233.5z"/>
		<path class="st42" d="M386.6,232.2l1.2-0.8l-3.7-5.6l-1.2,1l-0.2-0.4l1.6-1.6l4.1,6.2l1.2-0.7l0.3,0.4l-2.9,1.9L386.6,232.2z"/>
		<path class="st42" d="M393.6,225.2c0.5,0.9,0.7,1.7,0.5,2.4c-0.1,0.7-0.5,1.2-1.2,1.6c-0.7,0.4-1.4,0.4-2,0.1
			c-0.6-0.3-1.2-0.9-1.7-1.8l-0.8-1.6c-0.5-0.9-0.6-1.7-0.5-2.4c0.1-0.7,0.5-1.2,1.2-1.6c0.7-0.4,1.4-0.4,2-0.1
			c0.6,0.3,1.2,0.9,1.7,1.8L393.6,225.2z M392.1,223.8c-0.4-0.7-0.8-1.2-1.3-1.5c-0.5-0.2-1-0.2-1.5,0c-0.5,0.3-0.8,0.7-0.9,1.2
			c-0.1,0.5,0.1,1.2,0.5,1.9l0.9,1.8c0.4,0.7,0.8,1.2,1.3,1.4s1,0.2,1.5,0c0.5-0.3,0.8-0.7,0.9-1.2c0.1-0.5-0.1-1.2-0.5-1.9
			L392.1,223.8z"/>
		<path class="st42" d="M397,227.1l-0.7,0.3l-0.4-0.8l0.7-0.3L397,227.1z"/>
		<path class="st42" d="M398.2,226.1l1.3-0.5l-2.3-6.3l-1.4,0.7l-0.2-0.4l1.9-1.2l2.5,7l1.4-0.4l0.2,0.5l-3.3,1.2L398.2,226.1z"/>
		<path class="st42" d="M406.5,220.9c0.3,1,0.2,1.8-0.1,2.5c-0.3,0.6-0.8,1.1-1.6,1.3c-0.7,0.2-1.4,0.1-2-0.4
			c-0.6-0.4-1-1.1-1.2-2.1l-0.4-1.7c-0.3-1-0.2-1.8,0.1-2.5c0.3-0.6,0.8-1.1,1.6-1.3c0.8-0.2,1.4-0.1,2,0.4s1,1.1,1.2,2.1
			L406.5,220.9z M405.4,219.2c-0.2-0.8-0.5-1.4-0.9-1.7c-0.4-0.3-0.9-0.5-1.5-0.3c-0.6,0.1-1,0.5-1.1,1c-0.2,0.5-0.2,1.1,0,1.9
			l0.5,1.9c0.2,0.8,0.5,1.4,0.9,1.7c0.4,0.4,0.9,0.5,1.5,0.3c0.6-0.1,1-0.5,1.1-1s0.2-1.2,0-1.9L405.4,219.2z"/>
		<path class="st42" d="M409.4,223.5l-0.7,0.1l-0.2-0.9l0.7-0.1L409.4,223.5z"/>
		<path class="st42" d="M414.7,220.3l1.2-0.1l0.1,0.5l-1.2,0.1l0.1,1.5l0.9,0l0,0.5l-2.4,0.2l0-0.5l0.9-0.2l-0.1-1.5l-3.7,0.3l0-0.4
			l3.1-5.9l0.7-0.1L414.7,220.3z M411.1,220.6l2.9-0.3l-0.4-4.5l0,0l-0.2,0.6L411.1,220.6z"/>
	</g>
</g>
<g id="deployments">
</g>
<g id="containers_x2F_volumes">
	<g>
		<g>
			<polygon class="st50" points="283.6,273.8 291.5,269.3 299.4,273.8 291.5,278.4 			"/>
			<polygon class="st50" points="283.6,283 283.6,273.8 291.5,278.4 291.5,287.6 			"/>
			<polygon class="st50" points="291.5,287.6 291.5,278.4 299.4,273.8 299.4,283 			"/>
		</g>
		<g>
			<path class="st51" d="M321.2,282.4C321.2,282.4,321.2,282.4,321.2,282.4C321.2,282.3,321.2,282.3,321.2,282.4v-8h-15.8v7.9
				c0,0,0,0,0,0c0,0,0,0,0,0v0.1h0c0.2,2.2,3.6,3.9,7.9,3.9c4.3,0,7.7-1.7,7.9-3.9h0V282.4z"/>
			<ellipse class="st51" cx="313.3" cy="274.5" rx="7.9" ry="4.1"/>
		</g>
	</g>
	<g>
		<g>
			<polygon class="st50" points="323.4,187.9 331.4,183.3 339.3,187.9 331.4,192.5 			"/>
			<polygon class="st50" points="323.4,197 323.4,187.9 331.4,192.5 331.4,201.6 			"/>
			<polygon class="st50" points="331.4,201.6 331.4,192.5 339.3,187.9 339.3,197 			"/>
		</g>
	</g>
	<g>
		<g>
			<polygon class="st50" points="410.6,148.6 418.6,144 426.5,148.6 418.6,153.2 			"/>
			<polygon class="st50" points="410.6,157.8 410.6,148.6 418.6,153.2 418.6,162.3 			"/>
			<polygon class="st50" points="418.6,162.3 418.6,153.2 426.5,148.6 426.5,157.8 			"/>
		</g>
		<g>
			<polygon class="st50" points="401.7,166 407.6,162.6 413.6,166 407.6,169.5 			"/>
			<polygon class="st50" points="401.7,172.9 401.7,166 407.6,169.5 407.6,176.3 			"/>
			<polygon class="st50" points="407.6,176.3 407.6,169.5 413.6,166 413.6,172.9 			"/>
		</g>
		<g>
			<path class="st51" d="M437.3,173.4C437.3,173.4,437.3,173.4,437.3,173.4C437.3,173.4,437.3,173.4,437.3,173.4v-8h-15.8v7.9
				c0,0,0,0,0,0c0,0,0,0,0,0v0.1h0c0.2,2.2,3.6,3.9,7.9,3.9c4.3,0,7.7-1.7,7.9-3.9h0V173.4z"/>
			<ellipse class="st51" cx="429.4" cy="165.5" rx="7.9" ry="4.1"/>
		</g>
	</g>
	<g>
		<g>
			<path class="st51" d="M401.5,284.5C401.5,284.5,401.5,284.5,401.5,284.5C401.5,284.4,401.5,284.4,401.5,284.5v-10.6h-21.1v10.6
				c0,0,0,0,0,0c0,0,0,0,0,0v0.2h0c0.2,2.9,4.9,5.2,10.5,5.2s10.3-2.3,10.5-5.2h0V284.5z"/>
			<ellipse class="st51" cx="390.9" cy="274" rx="10.6" ry="5.4"/>
		</g>
		<g>
			<path class="st51" d="M444.9,262.8C444.9,262.8,444.9,262.8,444.9,262.8C444.9,262.7,444.9,262.7,444.9,262.8v-10.6h-21.1v10.6
				c0,0,0,0,0,0c0,0,0,0,0,0v0.2h0c0.2,2.9,4.9,5.2,10.5,5.2c5.7,0,10.3-2.3,10.5-5.2h0V262.8z"/>
			<ellipse class="st51" cx="434.3" cy="252.3" rx="10.6" ry="5.4"/>
		</g>
		<g>
			<polygon class="st50" points="409.3,273.1 419.8,267 430.4,273.1 419.8,279.2 			"/>
			<polygon class="st50" points="409.3,285.3 409.3,273.1 419.8,279.2 419.8,291.4 			"/>
			<polygon class="st50" points="419.8,291.4 419.8,279.2 430.4,273.1 430.4,285.3 			"/>
		</g>
		<g>
			<polygon class="st50" points="440.9,274.6 448.8,270 456.8,274.6 448.8,279.2 			"/>
			<polygon class="st50" points="440.9,283.8 440.9,274.6 448.8,279.2 448.8,288.3 			"/>
			<polygon class="st50" points="448.8,288.3 448.8,279.2 456.8,274.6 456.8,283.8 			"/>
		</g>
	</g>
	<g>
		<g>
			<polygon class="st50" points="408.4,297.5 403.1,294.4 397.9,297.5 403.1,300.5 			"/>
			<polygon class="st50" points="408.4,303.6 408.4,297.5 403.1,300.5 403.1,306.6 			"/>
			<polygon class="st50" points="403.1,306.6 403.1,300.5 397.9,297.5 397.9,303.6 			"/>
		</g>
	</g>
</g>
<g id="labels_x2F_selectors">
</g>
<g id="description">
	<g>
		<path class="st42" d="M549.6,257.5l-0.8,0.1l1.3,3.6l0.1,0.5h0l0.1-0.5l1.3-3.6l-0.8-0.1v-0.7h2.4v0.7l-0.5,0.1l-2.1,5.5h-0.9
			l-2.2-5.5l-0.5-0.1v-0.7h2.4V257.5z"/>
		<path class="st42" d="M554.1,259.9c0-0.9,0.3-1.7,0.8-2.3s1.2-0.9,2.1-0.9c0.9,0,1.6,0.3,2.1,0.9s0.8,1.4,0.8,2.3v0.1
			c0,0.9-0.3,1.7-0.8,2.3s-1.2,0.9-2.1,0.9c-0.9,0-1.6-0.3-2.1-0.9s-0.8-1.4-0.8-2.3V259.9z M555.2,260c0,0.7,0.1,1.2,0.4,1.7
			s0.7,0.7,1.3,0.7c0.5,0,1-0.2,1.2-0.7s0.4-1,0.4-1.7v-0.1c0-0.7-0.1-1.2-0.4-1.7s-0.7-0.7-1.3-0.7s-1,0.2-1.3,0.7s-0.4,1-0.4,1.7
			V260z"/>
		<path class="st42" d="M560.5,254.7V254h2.1v8.2l1,0.2v0.7h-3.1v-0.7l1-0.2v-7.3L560.5,254.7z"/>
		<path class="st42" d="M569,262.2c-0.2,0.3-0.5,0.6-0.8,0.8s-0.7,0.3-1.1,0.3c-0.7,0-1.2-0.2-1.6-0.7s-0.6-1.1-0.6-2.1v-2.8
			l-0.7-0.2v-0.7h0.7h1.2v3.8c0,0.7,0.1,1.1,0.3,1.4s0.5,0.4,0.9,0.4c0.4,0,0.7-0.1,1-0.2s0.5-0.4,0.6-0.7v-3.7l-0.8-0.2v-0.7h0.8
			h1.2v5.4l0.7,0.2v0.7h-1.8L569,262.2z"/>
		<path class="st42" d="M571.5,262.4l1-0.2v-4.5l-1-0.2v-0.7h2l0.1,0.8c0.2-0.3,0.5-0.5,0.8-0.7s0.7-0.2,1.1-0.2s0.8,0.1,1.1,0.3
			s0.5,0.5,0.7,0.9c0.2-0.4,0.5-0.6,0.8-0.9s0.7-0.3,1.1-0.3c0.6,0,1.2,0.2,1.5,0.7s0.6,1.1,0.6,2v2.9l1,0.2v0.7h-3.1v-0.7l1-0.2
			v-2.9c0-0.6-0.1-1.1-0.3-1.3s-0.5-0.4-1-0.4c-0.4,0-0.7,0.1-1,0.4s-0.4,0.6-0.4,1.1v3.1l1,0.2v0.7h-3.1v-0.7l1-0.2v-2.9
			c0-0.6-0.1-1-0.3-1.3s-0.5-0.4-1-0.4c-0.4,0-0.6,0.1-0.9,0.2s-0.4,0.3-0.5,0.6v3.8l1,0.2v0.7h-3.1V262.4z"/>
		<path class="st42" d="M585.9,263.2c-0.9,0-1.6-0.3-2.1-0.9s-0.8-1.4-0.8-2.3v-0.3c0-0.9,0.3-1.7,0.8-2.3s1.2-0.9,1.9-0.9
			c0.9,0,1.5,0.3,1.9,0.8s0.7,1.2,0.7,2.1v0.7h-4.1l0,0c0,0.6,0.2,1.1,0.5,1.5s0.7,0.6,1.2,0.6c0.4,0,0.7-0.1,1-0.2s0.5-0.3,0.8-0.5
			l0.5,0.8c-0.2,0.2-0.5,0.4-0.9,0.6S586.5,263.2,585.9,263.2z M585.8,257.6c-0.4,0-0.7,0.2-1,0.5s-0.4,0.7-0.5,1.2l0,0h2.9v-0.2
			c0-0.5-0.1-0.8-0.4-1.1S586.2,257.6,585.8,257.6z"/>
	</g>
	<line class="st62" x1="544.9" y1="260.7" x2="433.6" y2="260.7"/>
	<g>
		<path class="st42" d="M547.3,348.8l1-0.2v-4.5l-1-0.2v-0.7h2l0.1,0.9c0.2-0.3,0.5-0.6,0.8-0.8s0.7-0.3,1.1-0.3
			c0.7,0,1.2,0.2,1.6,0.6s0.6,1,0.6,1.9v3.1l1,0.2v0.7h-3.1v-0.7l1-0.2v-3.1c0-0.6-0.1-1-0.3-1.2s-0.6-0.4-1-0.4
			c-0.3,0-0.6,0.1-0.9,0.2s-0.5,0.4-0.6,0.7v3.7l1,0.2v0.7h-3.1V348.8z"/>
		<path class="st42" d="M555.1,346.3c0-0.9,0.3-1.7,0.8-2.3s1.2-0.9,2.1-0.9c0.9,0,1.6,0.3,2.1,0.9s0.8,1.4,0.8,2.3v0.1
			c0,0.9-0.3,1.7-0.8,2.3s-1.2,0.9-2.1,0.9c-0.9,0-1.6-0.3-2.1-0.9s-0.8-1.4-0.8-2.3V346.3z M556.3,346.5c0,0.7,0.1,1.2,0.4,1.7
			s0.7,0.7,1.3,0.7c0.5,0,1-0.2,1.2-0.7s0.4-1,0.4-1.7v-0.1c0-0.7-0.1-1.2-0.4-1.7s-0.7-0.7-1.3-0.7s-1,0.2-1.3,0.7s-0.4,1-0.4,1.7
			V346.5z"/>
		<path class="st42" d="M566.1,348.8c-0.2,0.3-0.5,0.5-0.8,0.7s-0.6,0.2-1,0.2c-0.8,0-1.4-0.3-1.8-0.8s-0.7-1.3-0.7-2.2v-0.1
			c0-1,0.2-1.8,0.7-2.5s1-0.9,1.8-0.9c0.4,0,0.7,0.1,1,0.2s0.5,0.3,0.7,0.6v-2.6l-1-0.2v-0.7h1h1.2v8.2l1,0.2v0.7h-2L566.1,348.8z
			 M563,346.6c0,0.6,0.1,1.1,0.4,1.5s0.7,0.6,1.2,0.6c0.3,0,0.6-0.1,0.9-0.2s0.4-0.4,0.6-0.7v-2.9c-0.1-0.3-0.3-0.5-0.6-0.6
			s-0.5-0.2-0.9-0.2c-0.6,0-1,0.2-1.2,0.7s-0.4,1.1-0.4,1.8V346.6z"/>
		<path class="st42" d="M572,349.7c-0.9,0-1.6-0.3-2.1-0.9s-0.8-1.4-0.8-2.3v-0.3c0-0.9,0.3-1.7,0.8-2.3s1.2-0.9,1.9-0.9
			c0.9,0,1.5,0.3,1.9,0.8s0.7,1.2,0.7,2.1v0.7h-4.1l0,0c0,0.6,0.2,1.1,0.5,1.5s0.7,0.6,1.2,0.6c0.4,0,0.7-0.1,1-0.2s0.5-0.3,0.8-0.5
			l0.5,0.8c-0.2,0.2-0.5,0.4-0.9,0.6S572.5,349.7,572,349.7z M571.8,344c-0.4,0-0.7,0.2-1,0.5s-0.4,0.7-0.5,1.2l0,0h2.9v-0.2
			c0-0.5-0.1-0.8-0.4-1.1S572.3,344,571.8,344z"/>
		<path class="st42" d="M578.4,351.2l1-0.2v-7l-1-0.2v-0.7h1.9l0.1,0.8c0.2-0.3,0.5-0.5,0.8-0.7s0.7-0.2,1.1-0.2
			c0.8,0,1.4,0.3,1.8,0.9s0.7,1.4,0.7,2.5v0.1c0,0.9-0.2,1.7-0.7,2.2s-1,0.8-1.8,0.8c-0.4,0-0.7-0.1-1-0.2s-0.5-0.3-0.8-0.6v2.2
			l1,0.2v0.7h-3.1V351.2z M583.6,346.5c0-0.7-0.1-1.3-0.4-1.8s-0.7-0.7-1.3-0.7c-0.3,0-0.6,0.1-0.8,0.2s-0.4,0.4-0.6,0.6v3.1
			c0.1,0.3,0.3,0.5,0.6,0.6s0.5,0.2,0.9,0.2c0.5,0,1-0.2,1.2-0.6s0.4-0.9,0.4-1.6V346.5z"/>
		<path class="st42" d="M585.8,344v-0.7h2l0.1,0.9c0.2-0.3,0.4-0.6,0.7-0.8s0.6-0.3,0.9-0.3c0.1,0,0.2,0,0.3,0s0.2,0,0.2,0l-0.2,1.1
			l-0.7,0c-0.3,0-0.6,0.1-0.8,0.2s-0.4,0.3-0.5,0.6v3.6l1,0.2v0.7h-3.1v-0.7l1-0.2v-4.5L585.8,344z"/>
		<path class="st42" d="M590.6,346.3c0-0.9,0.3-1.7,0.8-2.3s1.2-0.9,2.1-0.9c0.9,0,1.6,0.3,2.1,0.9s0.8,1.4,0.8,2.3v0.1
			c0,0.9-0.3,1.7-0.8,2.3s-1.2,0.9-2.1,0.9c-0.9,0-1.6-0.3-2.1-0.9s-0.8-1.4-0.8-2.3V346.3z M591.8,346.5c0,0.7,0.1,1.2,0.4,1.7
			s0.7,0.7,1.3,0.7c0.5,0,1-0.2,1.2-0.7s0.4-1,0.4-1.7v-0.1c0-0.7-0.1-1.2-0.4-1.7s-0.7-0.7-1.3-0.7s-1,0.2-1.3,0.7s-0.4,1-0.4,1.7
			V346.5z"/>
		<path class="st42" d="M600.2,348.8c0.4,0,0.7-0.1,1-0.4s0.4-0.5,0.4-0.9h1l0,0c0,0.5-0.2,1-0.7,1.5s-1.1,0.6-1.8,0.6
			c-0.9,0-1.6-0.3-2.1-0.9s-0.7-1.4-0.7-2.3v-0.2c0-0.9,0.2-1.7,0.7-2.3s1.2-0.9,2.1-0.9c0.5,0,1,0.1,1.4,0.3s0.7,0.4,1,0.7l0.1,1.4
			h-0.9l-0.3-1c-0.1-0.1-0.3-0.2-0.5-0.3s-0.5-0.1-0.7-0.1c-0.6,0-1,0.2-1.3,0.7s-0.4,1-0.4,1.6v0.2c0,0.6,0.1,1.2,0.4,1.6
			S599.6,348.8,600.2,348.8z"/>
		<path class="st42" d="M606.7,349.7c-0.9,0-1.6-0.3-2.1-0.9s-0.8-1.4-0.8-2.3v-0.3c0-0.9,0.3-1.7,0.8-2.3s1.2-0.9,1.9-0.9
			c0.9,0,1.5,0.3,1.9,0.8s0.7,1.2,0.7,2.1v0.7H605l0,0c0,0.6,0.2,1.1,0.5,1.5s0.7,0.6,1.2,0.6c0.4,0,0.7-0.1,1-0.2s0.5-0.3,0.8-0.5
			l0.5,0.8c-0.2,0.2-0.5,0.4-0.9,0.6S607.2,349.7,606.7,349.7z M606.5,344c-0.4,0-0.7,0.2-1,0.5s-0.4,0.7-0.5,1.2l0,0h2.9v-0.2
			c0-0.5-0.1-0.8-0.4-1.1S607,344,606.5,344z"/>
		<path class="st42" d="M615.1,345.2h-0.9l-0.2-0.8c-0.1-0.1-0.3-0.2-0.5-0.3s-0.5-0.1-0.7-0.1c-0.4,0-0.7,0.1-0.9,0.3
			s-0.3,0.4-0.3,0.7c0,0.2,0.1,0.4,0.3,0.6s0.5,0.3,1.1,0.4c0.8,0.2,1.4,0.4,1.8,0.7s0.6,0.7,0.6,1.2c0,0.6-0.2,1-0.7,1.4
			s-1,0.5-1.8,0.5c-0.5,0-0.9-0.1-1.3-0.2s-0.7-0.3-1-0.5l0-1.4h0.9l0.2,0.8c0.1,0.1,0.3,0.2,0.5,0.3s0.5,0.1,0.7,0.1
			c0.4,0,0.7-0.1,1-0.2s0.3-0.4,0.3-0.7c0-0.3-0.1-0.5-0.3-0.6s-0.6-0.3-1.1-0.4c-0.8-0.2-1.3-0.4-1.7-0.7s-0.6-0.7-0.6-1.2
			c0-0.5,0.2-1,0.7-1.3s1-0.5,1.7-0.5c0.5,0,0.9,0.1,1.3,0.2s0.7,0.3,1,0.5L615.1,345.2z"/>
		<path class="st42" d="M621.2,345.2h-0.9l-0.2-0.8c-0.1-0.1-0.3-0.2-0.5-0.3s-0.5-0.1-0.7-0.1c-0.4,0-0.7,0.1-0.9,0.3
			s-0.3,0.4-0.3,0.7c0,0.2,0.1,0.4,0.3,0.6s0.5,0.3,1.1,0.4c0.8,0.2,1.4,0.4,1.8,0.7s0.6,0.7,0.6,1.2c0,0.6-0.2,1-0.7,1.4
			s-1,0.5-1.8,0.5c-0.5,0-0.9-0.1-1.3-0.2s-0.7-0.3-1-0.5l0-1.4h0.9l0.2,0.8c0.1,0.1,0.3,0.2,0.5,0.3s0.5,0.1,0.7,0.1
			c0.4,0,0.7-0.1,1-0.2s0.3-0.4,0.3-0.7c0-0.3-0.1-0.5-0.3-0.6s-0.6-0.3-1.1-0.4c-0.8-0.2-1.3-0.4-1.7-0.7s-0.6-0.7-0.6-1.2
			c0-0.5,0.2-1,0.7-1.3s1-0.5,1.7-0.5c0.5,0,0.9,0.1,1.3,0.2s0.7,0.3,1,0.5L621.2,345.2z"/>
		<path class="st42" d="M625.4,349.7c-0.9,0-1.6-0.3-2.1-0.9s-0.8-1.4-0.8-2.3v-0.3c0-0.9,0.3-1.7,0.8-2.3s1.2-0.9,1.9-0.9
			c0.9,0,1.5,0.3,1.9,0.8s0.7,1.2,0.7,2.1v0.7h-4.1l0,0c0,0.6,0.2,1.1,0.5,1.5s0.7,0.6,1.2,0.6c0.4,0,0.7-0.1,1-0.2s0.5-0.3,0.8-0.5
			l0.5,0.8c-0.2,0.2-0.5,0.4-0.9,0.6S625.9,349.7,625.4,349.7z M625.2,344c-0.4,0-0.7,0.2-1,0.5s-0.4,0.7-0.5,1.2l0,0h2.9v-0.2
			c0-0.5-0.1-0.8-0.4-1.1S625.7,344,625.2,344z"/>
		<path class="st42" d="M633.8,345.2h-0.9l-0.2-0.8c-0.1-0.1-0.3-0.2-0.5-0.3s-0.5-0.1-0.7-0.1c-0.4,0-0.7,0.1-0.9,0.3
			s-0.3,0.4-0.3,0.7c0,0.2,0.1,0.4,0.3,0.6s0.5,0.3,1.1,0.4c0.8,0.2,1.4,0.4,1.8,0.7s0.6,0.7,0.6,1.2c0,0.6-0.2,1-0.7,1.4
			s-1,0.5-1.8,0.5c-0.5,0-0.9-0.1-1.3-0.2s-0.7-0.3-1-0.5l0-1.4h0.9l0.2,0.8c0.1,0.1,0.3,0.2,0.5,0.3s0.5,0.1,0.7,0.1
			c0.4,0,0.7-0.1,1-0.2s0.3-0.4,0.3-0.7c0-0.3-0.1-0.5-0.3-0.6s-0.6-0.3-1.1-0.4c-0.8-0.2-1.3-0.4-1.7-0.7s-0.6-0.7-0.6-1.2
			c0-0.5,0.2-1,0.7-1.3s1-0.5,1.7-0.5c0.5,0,0.9,0.1,1.3,0.2s0.7,0.3,1,0.5L633.8,345.2z"/>
	</g>
	<line class="st62" x1="544.9" y1="347.2" x2="273.7" y2="347.2"/>
	<g>
		<path class="st42" d="M550.3,283.9c0.4,0,0.7-0.1,1-0.4s0.4-0.5,0.4-0.9h1l0,0c0,0.5-0.2,1-0.7,1.5s-1.1,0.6-1.8,0.6
			c-0.9,0-1.6-0.3-2.1-0.9s-0.7-1.4-0.7-2.3v-0.2c0-0.9,0.2-1.7,0.7-2.3s1.2-0.9,2.1-0.9c0.5,0,1,0.1,1.4,0.3s0.7,0.4,1,0.7l0.1,1.4
			h-0.9l-0.3-1c-0.1-0.1-0.3-0.2-0.5-0.3s-0.5-0.1-0.7-0.1c-0.6,0-1,0.2-1.3,0.7s-0.4,1-0.4,1.6v0.2c0,0.6,0.1,1.2,0.4,1.6
			S549.7,283.9,550.3,283.9z"/>
		<path class="st42" d="M553.9,281.4c0-0.9,0.3-1.7,0.8-2.3s1.2-0.9,2.1-0.9c0.9,0,1.6,0.3,2.1,0.9s0.8,1.4,0.8,2.3v0.1
			c0,0.9-0.3,1.7-0.8,2.3s-1.2,0.9-2.1,0.9c-0.9,0-1.6-0.3-2.1-0.9s-0.8-1.4-0.8-2.3V281.4z M555.1,281.5c0,0.7,0.1,1.2,0.4,1.7
			s0.7,0.7,1.3,0.7c0.5,0,1-0.2,1.2-0.7s0.4-1,0.4-1.7v-0.1c0-0.7-0.1-1.2-0.4-1.7s-0.7-0.7-1.3-0.7s-1,0.2-1.3,0.7s-0.4,1-0.4,1.7
			V281.5z"/>
		<path class="st42" d="M560.5,283.9l1-0.2v-4.5l-1-0.2v-0.7h2l0.1,0.9c0.2-0.3,0.5-0.6,0.8-0.8s0.7-0.3,1.1-0.3
			c0.7,0,1.2,0.2,1.6,0.6s0.6,1,0.6,1.9v3.1l1,0.2v0.7h-3.1v-0.7l1-0.2v-3.1c0-0.6-0.1-1-0.3-1.2s-0.6-0.4-1-0.4
			c-0.3,0-0.6,0.1-0.9,0.2s-0.5,0.4-0.6,0.7v3.7l1,0.2v0.7h-3.1V283.9z"/>
		<path class="st42" d="M570.4,276.8v1.5h1.2v0.9h-1.2v3.8c0,0.3,0.1,0.5,0.2,0.6s0.3,0.2,0.5,0.2c0.1,0,0.2,0,0.3,0s0.2,0,0.3-0.1
			l0.2,0.8c-0.1,0.1-0.3,0.1-0.5,0.2s-0.4,0.1-0.6,0.1c-0.5,0-0.8-0.1-1.1-0.4s-0.4-0.7-0.4-1.3v-3.8h-1v-0.9h1v-1.5H570.4z"/>
		<path class="st42" d="M576.9,284.6c0-0.2-0.1-0.3-0.1-0.5s0-0.3,0-0.4c-0.2,0.3-0.5,0.5-0.8,0.7s-0.7,0.3-1.1,0.3
			c-0.7,0-1.2-0.2-1.5-0.5s-0.5-0.8-0.5-1.4c0-0.6,0.2-1.1,0.7-1.4s1.2-0.5,2-0.5h1.2v-0.7c0-0.4-0.1-0.7-0.4-0.9s-0.6-0.3-1-0.3
			c-0.3,0-0.5,0-0.8,0.1s-0.4,0.2-0.5,0.3l-0.1,0.7h-0.9v-1.2c0.3-0.2,0.6-0.4,1-0.6s0.9-0.2,1.3-0.2c0.7,0,1.3,0.2,1.7,0.6
			s0.7,0.9,0.7,1.6v3.1c0,0.1,0,0.2,0,0.2s0,0.2,0,0.2l0.5,0.1v0.7H576.9z M575.1,283.8c0.4,0,0.7-0.1,1-0.3s0.5-0.4,0.7-0.7v-1
			h-1.2c-0.5,0-0.8,0.1-1.1,0.3s-0.4,0.5-0.4,0.8c0,0.3,0.1,0.5,0.3,0.6S574.7,283.8,575.1,283.8z"/>
		<path class="st42" d="M579.4,283.9l1-0.2v-4.5l-1-0.2v-0.7h2.1v5.4l1,0.2v0.7h-3.1V283.9z M581.5,276.7h-1.2v-1.2h1.2V276.7z"/>
		<path class="st42" d="M583.2,283.9l1-0.2v-4.5l-1-0.2v-0.7h2l0.1,0.9c0.2-0.3,0.5-0.6,0.8-0.8s0.7-0.3,1.1-0.3
			c0.7,0,1.2,0.2,1.6,0.6s0.6,1,0.6,1.9v3.1l1,0.2v0.7h-3.1v-0.7l1-0.2v-3.1c0-0.6-0.1-1-0.3-1.2s-0.6-0.4-1-0.4
			c-0.3,0-0.6,0.1-0.9,0.2s-0.5,0.4-0.6,0.7v3.7l1,0.2v0.7h-3.1V283.9z"/>
		<path class="st42" d="M593.9,284.8c-0.9,0-1.6-0.3-2.1-0.9s-0.8-1.4-0.8-2.3v-0.3c0-0.9,0.3-1.7,0.8-2.3s1.2-0.9,1.9-0.9
			c0.9,0,1.5,0.3,1.9,0.8s0.7,1.2,0.7,2.1v0.7h-4.1l0,0c0,0.6,0.2,1.1,0.5,1.5s0.7,0.6,1.2,0.6c0.4,0,0.7-0.1,1-0.2s0.5-0.3,0.8-0.5
			l0.5,0.8c-0.2,0.2-0.5,0.4-0.9,0.6S594.4,284.8,593.9,284.8z M593.7,279.1c-0.4,0-0.7,0.2-1,0.5s-0.4,0.7-0.5,1.2l0,0h2.9v-0.2
			c0-0.5-0.1-0.8-0.4-1.1S594.2,279.1,593.7,279.1z"/>
		<path class="st42" d="M597.5,279v-0.7h2l0.1,0.9c0.2-0.3,0.4-0.6,0.7-0.8s0.6-0.3,0.9-0.3c0.1,0,0.2,0,0.3,0s0.2,0,0.2,0l-0.2,1.1
			l-0.7,0c-0.3,0-0.6,0.1-0.8,0.2s-0.4,0.3-0.5,0.6v3.6l1,0.2v0.7h-3.1v-0.7l1-0.2v-4.5L597.5,279z"/>
		<path class="st42" d="M602.4,283.9l1-0.2v-4.5l-1-0.2v-0.7h2.1v5.4l1,0.2v0.7h-3.1V283.9z M604.5,276.7h-1.2v-1.2h1.2V276.7z"/>
		<path class="st42" d="M607.9,283.7h2.6l0.1-1h1v1.9h-5v-0.8l3.4-4.6h-2.3l-0.1,1h-1v-1.9h4.8v0.8L607.9,283.7z"/>
		<path class="st42" d="M615.5,284.8c-0.9,0-1.6-0.3-2.1-0.9s-0.8-1.4-0.8-2.3v-0.3c0-0.9,0.3-1.7,0.8-2.3s1.2-0.9,1.9-0.9
			c0.9,0,1.5,0.3,1.9,0.8s0.7,1.2,0.7,2.1v0.7h-4.1l0,0c0,0.6,0.2,1.1,0.5,1.5s0.7,0.6,1.2,0.6c0.4,0,0.7-0.1,1-0.2s0.5-0.3,0.8-0.5
			l0.5,0.8c-0.2,0.2-0.5,0.4-0.9,0.6S616,284.8,615.5,284.8z M615.3,279.1c-0.4,0-0.7,0.2-1,0.5s-0.4,0.7-0.5,1.2l0,0h2.9v-0.2
			c0-0.5-0.1-0.8-0.4-1.1S615.8,279.1,615.3,279.1z"/>
		<path class="st42" d="M623.3,283.9c-0.2,0.3-0.5,0.5-0.8,0.7s-0.6,0.2-1,0.2c-0.8,0-1.4-0.3-1.8-0.8s-0.7-1.3-0.7-2.2v-0.1
			c0-1,0.2-1.8,0.7-2.5s1-0.9,1.8-0.9c0.4,0,0.7,0.1,1,0.2s0.5,0.3,0.7,0.6v-2.6l-1-0.2v-0.7h1h1.2v8.2l1,0.2v0.7h-2L623.3,283.9z
			 M620.2,281.7c0,0.6,0.1,1.1,0.4,1.5s0.7,0.6,1.2,0.6c0.3,0,0.6-0.1,0.9-0.2s0.4-0.4,0.6-0.7V280c-0.1-0.3-0.3-0.5-0.6-0.6
			s-0.5-0.2-0.9-0.2c-0.6,0-1,0.2-1.2,0.7s-0.4,1.1-0.4,1.8V281.7z"/>
		<path class="st42" d="M633.4,284.6c0-0.2-0.1-0.3-0.1-0.5s0-0.3,0-0.4c-0.2,0.3-0.5,0.5-0.8,0.7s-0.7,0.3-1.1,0.3
			c-0.7,0-1.2-0.2-1.5-0.5s-0.5-0.8-0.5-1.4c0-0.6,0.2-1.1,0.7-1.4s1.2-0.5,2-0.5h1.2v-0.7c0-0.4-0.1-0.7-0.4-0.9s-0.6-0.3-1-0.3
			c-0.3,0-0.5,0-0.8,0.1s-0.4,0.2-0.5,0.3l-0.1,0.7h-0.9v-1.2c0.3-0.2,0.6-0.4,1-0.6s0.9-0.2,1.3-0.2c0.7,0,1.3,0.2,1.7,0.6
			s0.7,0.9,0.7,1.6v3.1c0,0.1,0,0.2,0,0.2s0,0.2,0,0.2l0.5,0.1v0.7H633.4z M631.5,283.8c0.4,0,0.7-0.1,1-0.3s0.5-0.4,0.7-0.7v-1H632
			c-0.5,0-0.8,0.1-1.1,0.3s-0.4,0.5-0.4,0.8c0,0.3,0.1,0.5,0.3,0.6S631.2,283.8,631.5,283.8z"/>
		<path class="st42" d="M635.7,286.3l1-0.2v-7l-1-0.2v-0.7h1.9l0.1,0.8c0.2-0.3,0.5-0.5,0.8-0.7s0.7-0.2,1.1-0.2
			c0.8,0,1.4,0.3,1.8,0.9s0.7,1.4,0.7,2.5v0.1c0,0.9-0.2,1.7-0.7,2.2s-1,0.8-1.8,0.8c-0.4,0-0.7-0.1-1-0.2s-0.5-0.3-0.8-0.6v2.2
			l1,0.2v0.7h-3.1V286.3z M640.9,281.6c0-0.7-0.1-1.3-0.4-1.8s-0.7-0.7-1.3-0.7c-0.3,0-0.6,0.1-0.8,0.2s-0.4,0.4-0.6,0.6v3.1
			c0.1,0.3,0.3,0.5,0.6,0.6s0.5,0.2,0.9,0.2c0.5,0,1-0.2,1.2-0.6s0.4-0.9,0.4-1.6V281.6z"/>
		<path class="st42" d="M643,286.3l1-0.2v-7l-1-0.2v-0.7h1.9l0.1,0.8c0.2-0.3,0.5-0.5,0.8-0.7s0.7-0.2,1.1-0.2
			c0.8,0,1.4,0.3,1.8,0.9s0.7,1.4,0.7,2.5v0.1c0,0.9-0.2,1.7-0.7,2.2s-1,0.8-1.8,0.8c-0.4,0-0.7-0.1-1-0.2s-0.5-0.3-0.8-0.6v2.2
			l1,0.2v0.7H643V286.3z M648.2,281.6c0-0.7-0.1-1.3-0.4-1.8s-0.7-0.7-1.3-0.7c-0.3,0-0.6,0.1-0.8,0.2s-0.4,0.4-0.6,0.6v3.1
			c0.1,0.3,0.3,0.5,0.6,0.6s0.5,0.2,0.9,0.2c0.5,0,1-0.2,1.2-0.6s0.4-0.9,0.4-1.6V281.6z"/>
	</g>
	<line class="st62" x1="544.9" y1="282.2" x2="421.5" y2="282.2"/>
	<g>
		<path class="st42" d="M551.3,178.9c0.9,0,1.6,0.2,2.1,0.7s0.8,1.1,0.8,1.9c0,0.8-0.3,1.4-0.8,1.9s-1.2,0.7-2.1,0.7h-1.8v2.5l1,0.2
			v0.7h-3.1v-0.7l1-0.2v-6.7l-1-0.2v-0.7h1H551.3z M549.5,183.1h1.8c0.6,0,1-0.2,1.3-0.5s0.4-0.7,0.4-1.2s-0.1-0.9-0.4-1.2
			s-0.7-0.5-1.3-0.5h-1.8V183.1z"/>
		<path class="st42" d="M555,184.2c0-0.9,0.3-1.7,0.8-2.3s1.2-0.9,2.1-0.9c0.9,0,1.6,0.3,2.1,0.9s0.8,1.4,0.8,2.3v0.1
			c0,0.9-0.3,1.7-0.8,2.3s-1.2,0.9-2.1,0.9c-0.9,0-1.6-0.3-2.1-0.9s-0.8-1.4-0.8-2.3V184.2z M556.2,184.3c0,0.7,0.1,1.2,0.4,1.7
			s0.7,0.7,1.3,0.7c0.5,0,1-0.2,1.2-0.7s0.4-1,0.4-1.7v-0.1c0-0.7-0.1-1.2-0.4-1.7s-0.7-0.7-1.3-0.7s-1,0.2-1.3,0.7s-0.4,1-0.4,1.7
			V184.3z"/>
		<path class="st42" d="M566,186.6c-0.2,0.3-0.5,0.5-0.8,0.7s-0.6,0.2-1,0.2c-0.8,0-1.4-0.3-1.8-0.8s-0.7-1.3-0.7-2.2v-0.1
			c0-1,0.2-1.8,0.7-2.5s1-0.9,1.8-0.9c0.4,0,0.7,0.1,1,0.2s0.5,0.3,0.7,0.6v-2.6l-1-0.2v-0.7h1h1.2v8.2l1,0.2v0.7h-2L566,186.6z
			 M562.9,184.5c0,0.6,0.1,1.1,0.4,1.5s0.7,0.6,1.2,0.6c0.3,0,0.6-0.1,0.9-0.2s0.4-0.4,0.6-0.7v-2.9c-0.1-0.3-0.3-0.5-0.6-0.6
			s-0.5-0.2-0.9-0.2c-0.6,0-1,0.2-1.2,0.7s-0.4,1.1-0.4,1.8V184.5z"/>
	</g>
	<line class="st62" x1="544.9" y1="185" x2="450.6" y2="185"/>
	<g>
		<path class="st42" d="M555.7,59.1v0.7l-1,0.2v7.6h-1.2l-4.1-6.6l0,0v5.7l1,0.2v0.7h-3.1v-0.7l1-0.2V60l-1-0.2v-0.7h1h1.2l4.1,6.6
			l0,0V60l-1-0.2v-0.7h2.1H555.7z"/>
		<path class="st42" d="M556.6,64.4c0-0.9,0.3-1.7,0.8-2.3s1.2-0.9,2.1-0.9c0.9,0,1.6,0.3,2.1,0.9s0.8,1.4,0.8,2.3v0.1
			c0,0.9-0.3,1.7-0.8,2.3s-1.2,0.9-2.1,0.9c-0.9,0-1.6-0.3-2.1-0.9s-0.8-1.4-0.8-2.3V64.4z M557.8,64.5c0,0.7,0.1,1.2,0.4,1.7
			s0.7,0.7,1.3,0.7c0.5,0,1-0.2,1.2-0.7s0.4-1,0.4-1.7v-0.1c0-0.7-0.1-1.2-0.4-1.7s-0.7-0.7-1.3-0.7s-1,0.2-1.3,0.7s-0.4,1-0.4,1.7
			V64.5z"/>
		<path class="st42" d="M567.6,66.9c-0.2,0.3-0.5,0.5-0.8,0.7s-0.6,0.2-1,0.2c-0.8,0-1.4-0.3-1.8-0.8s-0.7-1.3-0.7-2.2v-0.1
			c0-1,0.2-1.8,0.7-2.5s1-0.9,1.8-0.9c0.4,0,0.7,0.1,1,0.2s0.5,0.3,0.7,0.6v-2.6l-1-0.2v-0.7h1h1.2v8.2l1,0.2v0.7h-2L567.6,66.9z
			 M564.5,64.7c0,0.6,0.1,1.1,0.4,1.5s0.7,0.6,1.2,0.6c0.3,0,0.6-0.1,0.9-0.2s0.4-0.4,0.6-0.7V63c-0.1-0.3-0.3-0.5-0.6-0.6
			s-0.5-0.2-0.9-0.2c-0.6,0-1,0.2-1.2,0.7s-0.4,1.1-0.4,1.8V64.7z"/>
		<path class="st42" d="M573.4,67.7c-0.9,0-1.6-0.3-2.1-0.9s-0.8-1.4-0.8-2.3v-0.3c0-0.9,0.3-1.7,0.8-2.3s1.2-0.9,1.9-0.9
			c0.9,0,1.5,0.3,1.9,0.8s0.7,1.2,0.7,2.1v0.7h-4.1l0,0c0,0.6,0.2,1.1,0.5,1.5s0.7,0.6,1.2,0.6c0.4,0,0.7-0.1,1-0.2s0.5-0.3,0.8-0.5
			l0.5,0.8c-0.2,0.2-0.5,0.4-0.9,0.6S574,67.7,573.4,67.7z M573.3,62.1c-0.4,0-0.7,0.2-1,0.5s-0.4,0.7-0.5,1.2l0,0h2.9v-0.2
			c0-0.5-0.1-0.8-0.4-1.1S573.7,62.1,573.3,62.1z"/>
	</g>
	<line class="st62" x1="544.9" y1="65.2" x2="360.3" y2="65.2"/>
</g>
<g id="Layer_14">
</g>
</svg>
