<?xml version="1.0" encoding="utf-8"?>
<!-- Generator: Adobe Illustrator 19.2.1, SVG Export Plug-In . SVG Version: 6.00 Build 0)  -->
<svg version="1.1" xmlns="http://www.w3.org/2000/svg" xmlns:xlink="http://www.w3.org/1999/xlink" x="0px" y="0px"
	 viewBox="0 0 720.4 440.4" style="enable-background:new 0 0 720.4 440.4;" xml:space="preserve">
<style type="text/css">
	.st0{fill:#FFFFFF;stroke:#326DE6;stroke-width:2;stroke-linecap:round;stroke-linejoin:round;stroke-miterlimit:10;}
	.st1{opacity:0.71;fill:#326CE6;}
	.st2{opacity:0.45;fill:#FFFFFF;}
	.st3{fill:#FFFFFF;stroke:#006DE9;stroke-width:2;stroke-linecap:round;stroke-linejoin:round;stroke-miterlimit:10;}
	.st4{fill:#006DE9;}
	.st5{fill:#A0CAEA;}
	.st6{fill:#FFFFFF;}
	.st7{opacity:0.13;}
	.st8{fill:url(#SVGID_1_);}
	.st9{fill:url(#SVGID_2_);}
	.st10{fill:#FFFFFF;stroke:#006DE9;stroke-linecap:round;stroke-linejoin:round;stroke-miterlimit:10;}
	.st11{fill:#FFFFFF;stroke:#006DE9;stroke-width:6;stroke-linecap:round;stroke-linejoin:round;stroke-miterlimit:10;}
	.st12{fill:#FFFFFF;stroke:#326DE6;stroke-width:3.2;stroke-linecap:round;stroke-linejoin:round;stroke-miterlimit:10;}
	.st13{fill:#326DE6;}
	.st14{fill:none;stroke:#326DE6;stroke-width:2.4;stroke-miterlimit:10;}
	.st15{fill:#A0CAE9;}
	.st16{fill:#FFFFFF;stroke:#326DE6;stroke-width:1.6;stroke-linecap:round;stroke-linejoin:round;stroke-miterlimit:10;}
	.st17{fill:#FFFFFF;stroke:#326DE6;stroke-width:1.6;stroke-miterlimit:10;}
	.st18{fill:none;stroke:#06F7C9;stroke-width:2;stroke-miterlimit:10;}
	.st19{fill:none;stroke:#06F7C9;stroke-width:2;stroke-miterlimit:10;stroke-dasharray:2.3749,1.5832;}
	.st20{fill:none;stroke:#06F7C9;stroke-width:2;stroke-miterlimit:10;stroke-dasharray:2.4006,1.6004;}
	.st21{fill:none;stroke:#EEF406;stroke-width:2;stroke-miterlimit:10;stroke-dasharray:2.4,1.6;}
	.st22{fill:none;stroke:#EEF406;stroke-width:2;stroke-miterlimit:10;}
	.st23{fill:none;stroke:#EEF406;stroke-width:2;stroke-miterlimit:10;stroke-dasharray:2.3975,1.5984;}
	.st24{fill:none;stroke:#EEF406;stroke-width:2;stroke-miterlimit:10;stroke-dasharray:2.395,1.5966;}
	.st25{fill:none;stroke:#EEF406;stroke-width:2;stroke-miterlimit:10;stroke-dasharray:2.3963,1.5976;}
	.st26{opacity:0.1;fill:#EEF406;}
	.st27{opacity:2.000000e-02;fill:#EEF406;}
	.st28{opacity:0.1;fill:#06F7C9;}
	.st29{fill:none;stroke:#006DE9;stroke-width:0.8;stroke-miterlimit:10;}
	.st30{opacity:0.1;fill:url(#SVGID_3_);}
	.st31{opacity:0.1;fill:url(#SVGID_4_);}
	.st32{opacity:0.1;fill:url(#SVGID_5_);}
	.st33{opacity:0.1;fill:url(#SVGID_6_);}
	.st34{fill:none;stroke:#326DE6;stroke-width:1.2;stroke-miterlimit:10;}
	.st35{opacity:0.1;fill:url(#SVGID_7_);}
	.st36{opacity:0.1;fill:url(#SVGID_8_);}
	.st37{opacity:0.1;fill:url(#SVGID_9_);}
	.st38{opacity:0.1;fill:url(#SVGID_10_);}
	.st39{fill:none;stroke:#326DE6;stroke-width:2;stroke-miterlimit:10;}
	.st40{opacity:0.4;fill:none;stroke:#EEF406;stroke-width:2;stroke-miterlimit:10;}
	.st41{fill:none;stroke:#EEF406;stroke-width:2.4596;stroke-miterlimit:10;}
	.st42{fill:#011F38;}
	.st43{opacity:0.4;}
	.st44{opacity:0.1;}
	.st45{fill:#326DE6;stroke:#EEF406;stroke-width:2;stroke-miterlimit:10;}
	.st46{fill:none;stroke:#FFFFFF;stroke-width:1.2;stroke-linecap:round;stroke-linejoin:round;}
	.st47{fill:#06F7C9;stroke:#FFFFFF;stroke-width:0.3;stroke-linecap:round;stroke-linejoin:round;stroke-miterlimit:10;}
	.st48{fill:none;stroke:#011F38;stroke-width:1.2;stroke-linecap:round;stroke-linejoin:round;}
	.st49{fill:#326DE6;stroke:#06F7C9;stroke-width:2;stroke-miterlimit:10;}
	.st50{fill:#06F7C9;stroke:#011F38;stroke-width:0.8;stroke-linecap:round;stroke-linejoin:round;stroke-miterlimit:10;}
	.st51{fill:#8115FF;stroke:#011F38;stroke-width:0.8;stroke-linecap:round;stroke-linejoin:round;stroke-miterlimit:10;}
	.st52{opacity:0.3;}
	.st53{opacity:0.2;fill:#6D6E71;}
	.st54{fill:#EEF406;}
	.st55{fill:#06F7C9;}
	.st56{fill:#FFFFFF;stroke:#06F7C9;stroke-width:2;stroke-miterlimit:10;stroke-dasharray:2.4,1.6;}
	.st57{fill:#FFFFFF;stroke:#EEF406;stroke-width:1.6;stroke-miterlimit:10;stroke-dasharray:2.4,1.6;}
	.st58{fill:none;stroke:#06F7C9;stroke-width:2;stroke-miterlimit:10;stroke-dasharray:2.4938,1.6626;}
	.st59{fill:none;stroke:#06F7C9;stroke-width:2;stroke-miterlimit:10;stroke-dasharray:2.0084,1.3389;}
	.st60{fill:none;stroke:#06F7C9;stroke-width:2;stroke-miterlimit:10;stroke-dasharray:2.724,1.816;}
	.st61{fill:#011F38;stroke:#414042;stroke-width:0.3;stroke-linecap:round;stroke-linejoin:round;stroke-miterlimit:10;}
	.st62{fill:none;stroke:#011F38;stroke-width:0.3;stroke-linecap:round;stroke-linejoin:round;stroke-miterlimit:10;}
	.st63{fill:none;stroke:#011F38;stroke-width:0.2813;stroke-linecap:round;stroke-linejoin:round;stroke-miterlimit:10;}
</style>
<symbol  id="node_high_level" viewBox="-81 -93 162 186.1">
	<polygon class="st0" points="-80,-46 -80,46 0,92 80,46 80,-46 0,-92 	"/>
	<g id="Isolation_Mode_3_">
	</g>
</symbol>
<symbol  id="node_x5F_empty" viewBox="-87.5 -100.6 175.1 201.1">
	
		<use xlink:href="#node_high_level"  width="162" height="186.1" id="XMLID_201_" x="-81" y="-93" transform="matrix(1.0808 0 0 1.0808 -3.292006e-05 -3.749943e-05)" style="overflow:visible;"/>
	<g>
		<polygon class="st1" points="76.8,-28.1 -14,-80.3 0,-88.3 76.7,-44.4 		"/>
		<polygon class="st2" points="76.8,-28.1 32.1,-53.8 38.8,-66.1 76.7,-44.4 		"/>
	</g>
</symbol>
<symbol  id="node_x5F_new" viewBox="-87.6 -101 175.2 202">
	<polygon class="st3" points="0,-100 -86.6,-50 -86.6,50 0,100 86.6,50 86.6,-50 	"/>
	<polygon class="st4" points="-86.6,-20.2 -86.6,-50 0,-100 25.8,-85.1 	"/>
	<polygon class="st5" points="-40.8,-70.7 -32.9,-57 15.7,-85.1 0,-94.3 	"/>
	
		<text transform="matrix(0.866 -0.5 -0.5 -0.866 -33.9256 -70.7388)" class="st6" style="font-family:'RobotoSlab-Regular'; font-size:11.3632px;">Docker</text>
	
		<text transform="matrix(0.866 -0.5 -0.5 -0.866 -76.0668 -46.4087)" class="st6" style="font-family:'RobotoSlab-Regular'; font-size:11.3632px;">Kubelt</text>
</symbol>
<g id="CLUSTER">
</g>
<g id="master">
	<g id="master_x5F_level1">
	</g>
	<polygon class="st12" points="340.5,265.9 316.3,235.6 325,197.8 359.9,181 394.8,197.8 403.4,235.6 379.2,265.9 	"/>
</g>
<g id="Node">
	<g id="Node_x5F_level3_x5F_1">
		<g id="Isolation_Mode">
		</g>
	</g>
	<g>
		<polygon class="st17" points="423.4,179.8 365.3,146.2 365.3,79.1 423.4,45.6 481.5,79.1 481.5,146.2 		"/>
	</g>
	<g>
		<polygon class="st17" points="296.3,179.7 238.2,146.1 238.2,79.1 296.3,45.5 354.4,79.1 354.4,146.1 		"/>
	</g>
	<g>
		<polygon class="st17" points="296.3,401.4 238.2,367.9 238.2,300.8 296.3,267.2 354.4,300.8 354.4,367.9 		"/>
	</g>
</g>
<g id="service">
	<g>
		<g>
			<path class="st22" d="M240.5,329.1v1.2h0v0c0,0.4,0,0.8,0,1.2"/>
			<path class="st23" d="M240.7,333.1c1.4,16.7,15.6,29.8,32.7,29.7c17.9-0.2,32.2-15,32.2-32.9V143.4c0-11.7,9.5-21.2,21.2-21.2
				H442c15.6,0,28.4-12.7,28.4-28.4c0-15.6-12.7-28.4-28.4-28.4H273c-17.9,0-32.5,14.5-32.5,32.5v0v230.4"/>
		</g>
	</g>
	<g>
		<path d="M340,56.8h-1l-0.2-0.9c-0.1-0.1-0.3-0.1-0.5-0.2c-0.2-0.1-0.5-0.1-0.7-0.1c-0.4,0-0.7,0.1-0.9,0.2
			c-0.2,0.2-0.3,0.4-0.3,0.6c0,0.2,0.1,0.4,0.3,0.6s0.6,0.3,1.1,0.5c0.8,0.2,1.3,0.5,1.7,0.8c0.4,0.3,0.6,0.8,0.6,1.4
			c0,0.6-0.2,1-0.7,1.4c-0.5,0.3-1.1,0.5-1.8,0.5c-0.5,0-1-0.1-1.5-0.3s-0.8-0.4-1.1-0.7v-1.4h1.1l0.1,1c0.1,0.1,0.3,0.2,0.6,0.3
			c0.2,0.1,0.5,0.1,0.8,0.1c0.4,0,0.7-0.1,0.9-0.2s0.3-0.4,0.3-0.6c0-0.3-0.1-0.5-0.3-0.6c-0.2-0.2-0.5-0.3-1-0.5
			c-0.8-0.2-1.4-0.5-1.8-0.8c-0.4-0.3-0.6-0.8-0.6-1.3c0-0.6,0.2-1,0.7-1.4s1.1-0.5,1.8-0.5c0.5,0,1,0.1,1.4,0.2s0.8,0.4,1.1,0.6
			V56.8z"/>
		<path d="M343.1,61.5c-0.7,0-1.3-0.2-1.8-0.7s-0.7-1.1-0.7-1.8v-0.2c0-0.8,0.2-1.4,0.6-1.9c0.4-0.5,1-0.7,1.7-0.7
			c0.7,0,1.2,0.2,1.6,0.6s0.6,1,0.6,1.7v0.7h-3l0,0c0,0.3,0.1,0.6,0.3,0.8c0.2,0.2,0.5,0.3,0.8,0.3c0.3,0,0.6,0,0.8-0.1
			c0.2-0.1,0.4-0.2,0.7-0.3L345,61c-0.2,0.2-0.5,0.3-0.8,0.4S343.5,61.5,343.1,61.5z M343,57.3c-0.3,0-0.5,0.1-0.6,0.3
			c-0.1,0.2-0.2,0.4-0.3,0.8l0,0h1.7v-0.1c0-0.3-0.1-0.5-0.2-0.7C343.4,57.4,343.2,57.3,343,57.3z"/>
		<path d="M345.9,60.6l0.7-0.1v-3.1l-0.7-0.1v-0.8h2l0.1,0.7c0.1-0.3,0.3-0.5,0.5-0.6s0.4-0.2,0.7-0.2c0.1,0,0.1,0,0.2,0
			c0.1,0,0.1,0,0.2,0l-0.1,1.2l-0.6,0c-0.2,0-0.4,0-0.5,0.1c-0.1,0.1-0.2,0.2-0.3,0.3v2.5l0.7,0.1v0.8h-2.7V60.6z"/>
		<path d="M352,57.2l-0.5,0.1l0.7,2.3l0.1,0.5h0l0.1-0.5l0.7-2.3l-0.5-0.1v-0.8h2.3v0.8l-0.4,0.1l-1.5,4.2h-1.3l-1.5-4.2l-0.4-0.1
			v-0.8h2.3V57.2z"/>
		<path d="M355.3,60.6l0.7-0.1v-3.1l-0.7-0.1v-0.8h2.1v4.1l0.7,0.1v0.8h-2.7V60.6z M357.3,55.2H356v-1h1.4V55.2z"/>
		<path d="M360.8,60.5c0.2,0,0.4-0.1,0.6-0.2c0.1-0.1,0.2-0.3,0.2-0.6h1.2l0,0c0,0.5-0.2,0.9-0.6,1.3c-0.4,0.3-0.9,0.5-1.5,0.5
			c-0.8,0-1.3-0.2-1.7-0.7c-0.4-0.5-0.6-1.1-0.6-1.8v-0.1c0-0.7,0.2-1.4,0.6-1.8c0.4-0.5,1-0.7,1.8-0.7c0.4,0,0.8,0.1,1.1,0.2
			c0.3,0.1,0.6,0.3,0.8,0.5l0,1.4h-1.1l-0.2-0.8c-0.1-0.1-0.2-0.1-0.3-0.1c-0.1,0-0.2-0.1-0.3-0.1c-0.4,0-0.7,0.1-0.8,0.4
			s-0.2,0.6-0.2,1.1V59c0,0.5,0.1,0.8,0.2,1.1C360.2,60.4,360.5,60.5,360.8,60.5z"/>
		<path d="M365.9,61.5c-0.7,0-1.3-0.2-1.8-0.7s-0.7-1.1-0.7-1.8v-0.2c0-0.8,0.2-1.4,0.6-1.9c0.4-0.5,1-0.7,1.7-0.7
			c0.7,0,1.2,0.2,1.6,0.6s0.6,1,0.6,1.7v0.7h-3l0,0c0,0.3,0.1,0.6,0.3,0.8c0.2,0.2,0.5,0.3,0.8,0.3c0.3,0,0.6,0,0.8-0.1
			c0.2-0.1,0.4-0.2,0.7-0.3l0.4,0.8c-0.2,0.2-0.5,0.3-0.8,0.4S366.3,61.5,365.9,61.5z M365.8,57.3c-0.3,0-0.5,0.1-0.6,0.3
			c-0.1,0.2-0.2,0.4-0.3,0.8l0,0h1.7v-0.1c0-0.3-0.1-0.5-0.2-0.7C366.3,57.4,366.1,57.3,365.8,57.3z"/>
		<path d="M370.9,60.6l0.5-0.1l2.1-5.9h1.4l2.1,5.9l0.5,0.1v0.8h-2.3v-0.8l0.5-0.1l-0.3-0.9H373l-0.3,0.9l0.5,0.1v0.8h-2.3V60.6z
			 M373.4,58.6h1.6l-0.8-2.4h0L373.4,58.6z"/>
		<path d="M380.2,60.6l1.2-0.1v-4.6h-1.2v-0.8l2.5-0.5v5.9l1.2,0.1v0.8h-3.7V60.6z"/>
		<path d="M389.2,58.8c0,0.9-0.2,1.6-0.6,2.1c-0.4,0.5-1,0.7-1.7,0.7c-0.7,0-1.3-0.2-1.7-0.7c-0.4-0.5-0.6-1.2-0.6-2.1v-1.5
			c0-0.9,0.2-1.6,0.6-2.1c0.4-0.5,1-0.7,1.7-0.7c0.7,0,1.3,0.2,1.7,0.7c0.4,0.5,0.6,1.2,0.6,2.1V58.8z M387.9,57.1
			c0-0.5-0.1-0.9-0.2-1.2c-0.2-0.3-0.4-0.4-0.7-0.4c-0.3,0-0.5,0.1-0.7,0.4s-0.2,0.6-0.2,1.2v1.8c0,0.5,0.1,1,0.2,1.2
			c0.2,0.2,0.4,0.4,0.7,0.4c0.3,0,0.5-0.1,0.7-0.4s0.2-0.7,0.2-1.2V57.1z"/>
		<path d="M391.6,61.4h-1.4v-1.2h1.4V61.4z"/>
		<path d="M393.9,57.5h0.8c0.3,0,0.6-0.1,0.7-0.3c0.2-0.2,0.2-0.4,0.2-0.7c0-0.3-0.1-0.5-0.2-0.7c-0.2-0.2-0.4-0.2-0.7-0.2
			c-0.3,0-0.5,0.1-0.6,0.2c-0.2,0.1-0.3,0.3-0.3,0.6h-1.3l0,0c0-0.5,0.2-1,0.6-1.3c0.4-0.3,1-0.5,1.6-0.5c0.7,0,1.3,0.2,1.7,0.5
			c0.4,0.3,0.6,0.8,0.6,1.4c0,0.3-0.1,0.6-0.3,0.8c-0.2,0.3-0.4,0.5-0.8,0.6c0.4,0.1,0.7,0.3,0.9,0.6c0.2,0.3,0.3,0.6,0.3,1
			c0,0.6-0.2,1.1-0.7,1.5c-0.5,0.4-1,0.5-1.7,0.5c-0.6,0-1.2-0.2-1.6-0.5s-0.7-0.8-0.7-1.4l0,0h1.3c0,0.3,0.1,0.5,0.3,0.6
			s0.4,0.3,0.7,0.3c0.3,0,0.6-0.1,0.7-0.3s0.3-0.4,0.3-0.7c0-0.4-0.1-0.6-0.3-0.8c-0.2-0.2-0.4-0.2-0.8-0.2h-0.8V57.5z"/>
		<path d="M399.3,61.4h-1.4v-1.2h1.4V61.4z"/>
		<path d="M400.1,61.4v-0.9l2.2-2.4c0.3-0.4,0.5-0.7,0.7-0.9c0.1-0.3,0.2-0.5,0.2-0.7c0-0.3-0.1-0.5-0.2-0.7s-0.4-0.3-0.7-0.3
			c-0.3,0-0.6,0.1-0.7,0.3s-0.2,0.5-0.2,0.9H400l0,0c0-0.6,0.2-1.1,0.6-1.6c0.4-0.4,1-0.6,1.7-0.6c0.7,0,1.3,0.2,1.7,0.5
			s0.6,0.9,0.6,1.5c0,0.4-0.1,0.8-0.3,1.1c-0.2,0.3-0.6,0.8-1.1,1.4l-1.2,1.3l0,0h1.8l0.1-0.7h1v1.7H400.1z"/>
		<path d="M409,56.2l-0.1-0.5H407l-0.2,1.6c0.1-0.1,0.3-0.2,0.5-0.2c0.2-0.1,0.4-0.1,0.6-0.1c0.7,0,1.2,0.2,1.5,0.6s0.5,1,0.5,1.7
			c0,0.7-0.2,1.2-0.6,1.6c-0.4,0.4-1,0.7-1.7,0.7c-0.6,0-1.2-0.2-1.6-0.5c-0.4-0.3-0.7-0.8-0.6-1.4l0,0l1.3-0.1
			c0,0.3,0.1,0.5,0.3,0.7s0.4,0.3,0.7,0.3c0.3,0,0.6-0.1,0.7-0.3c0.2-0.2,0.2-0.5,0.2-0.9c0-0.4-0.1-0.7-0.2-0.9
			c-0.2-0.2-0.4-0.4-0.7-0.4c-0.3,0-0.5,0-0.6,0.1c-0.1,0.1-0.2,0.2-0.3,0.4l-1.2-0.1l0.4-3.8h3.9v1.6H409z"/>
		<path d="M415.3,58.8c0,0.9-0.2,1.6-0.6,2.1c-0.4,0.5-1,0.7-1.7,0.7c-0.7,0-1.3-0.2-1.7-0.7c-0.4-0.5-0.6-1.2-0.6-2.1v-1.5
			c0-0.9,0.2-1.6,0.6-2.1c0.4-0.5,1-0.7,1.7-0.7c0.7,0,1.3,0.2,1.7,0.7c0.4,0.5,0.6,1.2,0.6,2.1V58.8z M413.9,57.1
			c0-0.5-0.1-0.9-0.2-1.2c-0.2-0.3-0.4-0.4-0.7-0.4c-0.3,0-0.5,0.1-0.7,0.4s-0.2,0.6-0.2,1.2v1.8c0,0.5,0.1,1,0.2,1.2
			c0.2,0.2,0.4,0.4,0.7,0.4c0.3,0,0.5-0.1,0.7-0.4s0.2-0.7,0.2-1.2V57.1z"/>
		<path d="M417.6,61.4h-1.4v-1.2h1.4V61.4z"/>
		<path d="M418.5,61.4v-0.9l2.2-2.4c0.3-0.4,0.5-0.7,0.7-0.9c0.1-0.3,0.2-0.5,0.2-0.7c0-0.3-0.1-0.5-0.2-0.7s-0.4-0.3-0.7-0.3
			c-0.3,0-0.6,0.1-0.7,0.3s-0.2,0.5-0.2,0.9h-1.3l0,0c0-0.6,0.2-1.1,0.6-1.6c0.4-0.4,1-0.6,1.7-0.6c0.7,0,1.3,0.2,1.7,0.5
			s0.6,0.9,0.6,1.5c0,0.4-0.1,0.8-0.3,1.1c-0.2,0.3-0.6,0.8-1.1,1.4l-1.2,1.3l0,0h1.8l0.1-0.7h1v1.7H418.5z"/>
		<path d="M425.2,57.5h0.8c0.3,0,0.6-0.1,0.7-0.3c0.2-0.2,0.2-0.4,0.2-0.7c0-0.3-0.1-0.5-0.2-0.7c-0.2-0.2-0.4-0.2-0.7-0.2
			c-0.3,0-0.5,0.1-0.6,0.2c-0.2,0.1-0.3,0.3-0.3,0.6h-1.3l0,0c0-0.5,0.2-1,0.6-1.3c0.4-0.3,1-0.5,1.6-0.5c0.7,0,1.3,0.2,1.7,0.5
			c0.4,0.3,0.6,0.8,0.6,1.4c0,0.3-0.1,0.6-0.3,0.8c-0.2,0.3-0.4,0.5-0.8,0.6c0.4,0.1,0.7,0.3,0.9,0.6c0.2,0.3,0.3,0.6,0.3,1
			c0,0.6-0.2,1.1-0.7,1.5c-0.5,0.4-1,0.5-1.7,0.5c-0.6,0-1.2-0.2-1.6-0.5s-0.7-0.8-0.7-1.4l0,0h1.3c0,0.3,0.1,0.5,0.3,0.6
			s0.4,0.3,0.7,0.3c0.3,0,0.6-0.1,0.7-0.3s0.3-0.4,0.3-0.7c0-0.4-0.1-0.6-0.3-0.8c-0.2-0.2-0.4-0.2-0.8-0.2h-0.8V57.5z"/>
		<path d="M431.8,54.5c0.3,0,0.5,0,0.7,0.1c0.2,0,0.4,0.1,0.7,0.2l-0.2,1c-0.2-0.1-0.4-0.1-0.5-0.2c-0.2,0-0.4-0.1-0.6-0.1
			c-0.4,0-0.7,0.1-1,0.4s-0.4,0.7-0.4,1.3l0,0c0.2-0.2,0.3-0.3,0.6-0.4c0.2-0.1,0.5-0.1,0.8-0.1c0.6,0,1.1,0.2,1.4,0.6
			s0.5,1,0.5,1.7c0,0.7-0.2,1.3-0.6,1.7c-0.4,0.4-1,0.7-1.7,0.7c-0.7,0-1.3-0.2-1.8-0.7c-0.5-0.5-0.7-1.2-0.7-2v-1.2
			c0-1,0.3-1.7,0.8-2.3C430.3,54.8,431,54.5,431.8,54.5z M431.5,57.9c-0.3,0-0.5,0-0.6,0.1s-0.3,0.2-0.4,0.3v0.5
			c0,0.5,0.1,1,0.3,1.2c0.2,0.3,0.5,0.4,0.8,0.4c0.3,0,0.5-0.1,0.7-0.4c0.2-0.3,0.3-0.6,0.3-0.9c0-0.4-0.1-0.7-0.3-0.9
			S431.8,57.9,431.5,57.9z"/>
	</g>
</g>
<g id="pods">
	<circle class="st26" cx="273.4" cy="108.6" r="20.5"/>
	<circle class="st26" cx="272.4" cy="330.3" r="20.5"/>
	<circle class="st26" cx="404.8" cy="93.8" r="16.4"/>
	<circle class="st26" cx="442" cy="93.8" r="16.4"/>
	<circle class="st22" cx="273" cy="108.6" r="20.5"/>
	<circle class="st22" cx="272.4" cy="330.3" r="20.5"/>
	<circle class="st22" cx="404.8" cy="93.8" r="16.4"/>
	<circle class="st22" cx="442" cy="93.8" r="16.4"/>
</g>
<g id="IP">
	<g>
		<path class="st42" d="M387.7,86.5l0.4-0.8l-3.9-1.9l-0.3,1l-0.3-0.1l0.4-1.4l4.3,2.1l0.5-0.8l0.3,0.1l-1,2L387.7,86.5z"/>
		<path class="st42" d="M389.5,80.4c0.5,0.4,0.9,0.8,1,1.3s0,0.9-0.3,1.3c-0.3,0.4-0.7,0.6-1.1,0.6c-0.5,0-0.9-0.2-1.5-0.6l-0.9-0.7
			c-0.5-0.4-0.9-0.8-1-1.3c-0.1-0.4,0-0.9,0.3-1.3c0.3-0.4,0.7-0.6,1.1-0.6c0.5,0,0.9,0.2,1.5,0.6L389.5,80.4z M388.3,80.1
			c-0.4-0.3-0.8-0.5-1.1-0.5c-0.3,0-0.6,0.1-0.9,0.4c-0.2,0.3-0.3,0.6-0.2,1c0.1,0.3,0.4,0.7,0.8,1l1,0.8c0.4,0.3,0.8,0.5,1.2,0.5
			c0.4,0,0.6-0.1,0.9-0.4c0.2-0.3,0.3-0.6,0.2-1c-0.1-0.3-0.4-0.7-0.8-1L388.3,80.1z"/>
		<path class="st42" d="M392.1,80.7l-0.3,0.3l-0.4-0.4l0.3-0.3L392.1,80.7z"/>
		<path class="st42" d="M394,76.6c0.4,0.5,0.6,1,0.6,1.5s-0.2,0.8-0.6,1.1c-0.4,0.3-0.8,0.4-1.3,0.3c-0.4-0.1-0.9-0.4-1.2-1
			l-0.7-0.9c-0.4-0.5-0.6-1-0.6-1.5c0-0.5,0.2-0.8,0.6-1.1c0.4-0.3,0.8-0.4,1.3-0.3c0.4,0.1,0.9,0.4,1.2,1L394,76.6z M393,75.9
			c-0.3-0.4-0.6-0.7-1-0.8s-0.6,0-1,0.2c-0.3,0.2-0.5,0.5-0.4,0.9s0.2,0.7,0.5,1.1l0.8,1c0.3,0.4,0.6,0.7,1,0.8
			c0.3,0.1,0.7,0.1,1-0.2c0.3-0.2,0.5-0.5,0.4-0.9c0-0.3-0.2-0.7-0.5-1.2L393,75.9z"/>
		<path class="st42" d="M396.4,77.6l-0.4,0.2l-0.3-0.5l0.4-0.2L396.4,77.6z"/>
		<path class="st42" d="M397.1,77.2l-0.1-0.3l0.9-2.4c0.2-0.4,0.3-0.8,0.3-1.1s0-0.5,0-0.7c-0.1-0.3-0.3-0.5-0.5-0.6
			c-0.2-0.1-0.5-0.1-0.8,0c-0.4,0.1-0.6,0.3-0.7,0.6s-0.1,0.6,0,0.9l-0.4,0.1l0,0c-0.2-0.4-0.2-0.8,0-1.2s0.5-0.6,1-0.8
			c0.4-0.2,0.8-0.2,1.1,0c0.3,0.1,0.6,0.4,0.7,0.8c0.1,0.3,0.1,0.6,0,0.9c-0.1,0.3-0.2,0.7-0.4,1.2l-0.8,2l0,0l2.1-0.8l-0.2-0.7
			l0.4-0.1l0.4,1L397.1,77.2z"/>
		<path class="st42" d="M401.3,75.9l-0.5,0.1l-0.1-0.6l0.5-0.1L401.3,75.9z"/>
		<path class="st42" d="M404.7,73.9l0.8,0l0,0.4l-0.8,0l0.1,0.9l0.6,0l0,0.3l-1.6,0.1l0-0.3l0.6-0.1l-0.1-0.9l-2.4,0.1l0-0.2
			l2.2-3.7l0.5,0L404.7,73.9z M402.4,74l1.9-0.1l-0.2-2.9l0,0l-0.2,0.4L402.4,74z"/>
	</g>
	<g>
		<path class="st42" d="M426.8,83.1l0.5-0.7l-3.4-2.7l-0.5,0.9l-0.2-0.2l0.7-1.3l3.7,3l0.6-0.7l0.2,0.2l-1.4,1.8L426.8,83.1z"/>
		<path class="st42" d="M429.9,77.5c0.4,0.5,0.7,1,0.7,1.4c0,0.5-0.2,0.8-0.5,1.2c-0.4,0.3-0.8,0.5-1.2,0.4
			c-0.4-0.1-0.9-0.4-1.3-0.9l-0.8-0.9c-0.4-0.5-0.7-1-0.7-1.4c0-0.5,0.1-0.8,0.5-1.2c0.4-0.3,0.8-0.5,1.2-0.4
			c0.4,0.1,0.9,0.4,1.3,0.9L429.9,77.5z M428.7,76.9c-0.3-0.4-0.7-0.6-1-0.7s-0.6,0-0.9,0.3c-0.3,0.2-0.4,0.5-0.4,0.9
			c0,0.3,0.2,0.7,0.6,1.1l0.8,1c0.3,0.4,0.7,0.6,1,0.7s0.7,0,0.9-0.2c0.3-0.2,0.4-0.5,0.4-0.9c0-0.3-0.2-0.7-0.6-1.1L428.7,76.9z"/>
		<path class="st42" d="M432.3,78.4l-0.4,0.3l-0.3-0.5l0.4-0.3L432.3,78.4z"/>
		<path class="st42" d="M435.1,74.7c0.3,0.6,0.4,1.1,0.3,1.6c-0.1,0.4-0.4,0.8-0.8,1c-0.5,0.2-0.9,0.2-1.3,0c-0.4-0.2-0.7-0.6-1-1.2
			l-0.5-1c-0.3-0.6-0.4-1.1-0.3-1.6c0.1-0.4,0.4-0.8,0.8-1c0.5-0.2,0.9-0.2,1.3,0c0.4,0.2,0.7,0.6,1,1.2L435.1,74.7z M434.2,73.8
			c-0.2-0.5-0.5-0.8-0.8-1c-0.3-0.2-0.6-0.2-1,0c-0.3,0.2-0.5,0.4-0.6,0.7c-0.1,0.3,0,0.7,0.2,1.2l0.5,1.2c0.2,0.5,0.5,0.8,0.8,1
			c0.3,0.2,0.6,0.2,1,0c0.3-0.2,0.5-0.4,0.6-0.8s0-0.8-0.2-1.2L434.2,73.8z"/>
		<path class="st42" d="M437.2,76.2l-0.5,0.1l-0.2-0.6l0.5-0.1L437.2,76.2z"/>
		<path class="st42" d="M438,75.9l0-0.3l1.4-2.1c0.3-0.4,0.4-0.7,0.5-1c0.1-0.2,0.1-0.5,0.1-0.7c0-0.3-0.2-0.6-0.4-0.7
			s-0.5-0.2-0.8-0.2c-0.4,0.1-0.7,0.2-0.8,0.4c-0.2,0.2-0.2,0.5-0.2,0.9l-0.4,0.1l0,0c-0.1-0.4,0-0.8,0.3-1.1
			c0.2-0.3,0.6-0.5,1.1-0.6c0.4-0.1,0.8,0,1.1,0.2c0.3,0.2,0.5,0.5,0.5,1c0,0.3,0,0.6-0.1,0.9c-0.1,0.3-0.3,0.7-0.6,1.1l-1.2,1.8
			l0,0l2.2-0.3l-0.1-0.7l0.4-0.1l0.1,1.1L438,75.9z"/>
		<path class="st42" d="M442.3,75.5l-0.5,0l0-0.6l0.5,0L442.3,75.5z"/>
		<path class="st42" d="M446.3,71.6l0-0.4l-1.8-0.3l-0.4,1.8c0.1-0.1,0.3-0.2,0.5-0.2c0.2,0,0.4,0,0.6,0c0.4,0.1,0.8,0.2,1,0.6
			s0.3,0.8,0.2,1.3c-0.1,0.5-0.3,0.9-0.6,1.2c-0.3,0.3-0.7,0.4-1.2,0.3c-0.4-0.1-0.7-0.2-1-0.5c-0.2-0.3-0.3-0.6-0.2-1.1l0,0
			l0.4,0.1c0,0.3,0,0.6,0.2,0.8c0.2,0.2,0.4,0.3,0.7,0.4c0.4,0.1,0.7,0,0.9-0.2c0.2-0.2,0.4-0.5,0.4-0.9c0.1-0.4,0-0.7-0.1-1
			c-0.2-0.3-0.4-0.4-0.7-0.5c-0.3,0-0.6,0-0.8,0s-0.3,0.2-0.4,0.4l-0.3-0.1l0.7-2.7l2.5,0.4l-0.1,0.8L446.3,71.6z"/>
	</g>
	<g>
		<path class="st42" d="M254,95.3l0.5-0.8l-3.4-2.6l-0.5,0.9l-0.2-0.2l0.6-1.3l3.8,2.9l0.6-0.7l0.2,0.2l-1.4,1.8L254,95.3z"/>
		<path class="st42" d="M256.9,89.6c0.5,0.5,0.7,0.9,0.8,1.4c0,0.5-0.1,0.8-0.5,1.2c-0.4,0.3-0.8,0.5-1.2,0.4
			c-0.5-0.1-0.9-0.3-1.4-0.8l-0.8-0.8c-0.5-0.5-0.7-0.9-0.8-1.4c0-0.5,0.1-0.9,0.5-1.2c0.4-0.3,0.8-0.5,1.2-0.4
			c0.5,0.1,0.9,0.3,1.4,0.8L256.9,89.6z M255.7,89.1c-0.4-0.4-0.7-0.6-1.1-0.7c-0.3-0.1-0.6,0-0.9,0.3c-0.3,0.3-0.4,0.6-0.3,0.9
			s0.3,0.7,0.6,1.1l0.9,0.9c0.4,0.4,0.7,0.6,1.1,0.7c0.3,0.1,0.7,0,0.9-0.3c0.3-0.3,0.4-0.6,0.3-0.9c-0.1-0.3-0.3-0.7-0.6-1.1
			L255.7,89.1z"/>
		<path class="st42" d="M259.3,90.3l-0.4,0.3l-0.3-0.5l0.4-0.3L259.3,90.3z"/>
		<path class="st42" d="M261.8,86.4c0.3,0.6,0.5,1.1,0.4,1.5c-0.1,0.4-0.3,0.8-0.7,1.1c-0.4,0.3-0.9,0.3-1.3,0.1
			c-0.4-0.2-0.8-0.5-1.1-1.1l-0.6-1c-0.3-0.6-0.5-1.1-0.4-1.5s0.3-0.8,0.7-1.1c0.4-0.3,0.9-0.3,1.3-0.1s0.8,0.5,1.1,1.1L261.8,86.4z
			 M260.8,85.5c-0.3-0.5-0.6-0.8-0.9-0.9c-0.3-0.1-0.6-0.1-1,0.1c-0.3,0.2-0.5,0.5-0.5,0.8c0,0.3,0.1,0.7,0.4,1.2l0.6,1.1
			c0.3,0.4,0.6,0.7,0.9,0.9s0.6,0.1,1-0.1c0.3-0.2,0.5-0.5,0.5-0.8c0-0.3-0.1-0.7-0.4-1.2L260.8,85.5z"/>
		<path class="st42" d="M264,87.6l-0.4,0.2l-0.2-0.5l0.4-0.2L264,87.6z"/>
		<path class="st42" d="M267.4,84.4c0.2,0.6,0.2,1.2,0,1.6c-0.2,0.4-0.5,0.7-1,0.8c-0.5,0.1-0.9,0.1-1.3-0.2
			c-0.4-0.3-0.7-0.7-0.8-1.3l-0.3-1.1c-0.2-0.6-0.2-1.2,0-1.6c0.2-0.4,0.5-0.7,1-0.9c0.5-0.1,0.9-0.1,1.3,0.2
			c0.4,0.3,0.7,0.7,0.8,1.3L267.4,84.4z M266.6,83.3c-0.2-0.5-0.4-0.9-0.6-1.1c-0.3-0.2-0.6-0.3-1-0.2c-0.4,0.1-0.6,0.3-0.7,0.7
			c-0.1,0.3-0.1,0.7,0.1,1.2l0.4,1.2c0.2,0.5,0.4,0.9,0.6,1.1c0.3,0.2,0.6,0.3,1,0.2c0.4-0.1,0.6-0.3,0.7-0.7
			c0.1-0.3,0.1-0.7-0.1-1.2L266.6,83.3z"/>
		<path class="st42" d="M269.2,86.1l-0.5,0.1l-0.1-0.6l0.5-0.1L269.2,86.1z"/>
		<path class="st42" d="M272.3,81.4l-0.1-0.4l-1.8,0.1l-0.1,1.8c0.1-0.1,0.3-0.2,0.4-0.3c0.2-0.1,0.4-0.1,0.6-0.1
			c0.4,0,0.8,0.1,1.1,0.4c0.3,0.3,0.4,0.7,0.5,1.2c0,0.5-0.1,0.9-0.3,1.3s-0.6,0.5-1.1,0.5c-0.4,0-0.8-0.1-1.1-0.3s-0.4-0.6-0.5-1
			l0,0l0.4,0c0,0.3,0.1,0.6,0.3,0.8c0.2,0.2,0.5,0.2,0.8,0.2c0.4,0,0.7-0.2,0.8-0.4c0.2-0.2,0.2-0.6,0.2-1c0-0.4-0.1-0.7-0.3-0.9
			c-0.2-0.2-0.5-0.3-0.8-0.3c-0.3,0-0.6,0.1-0.7,0.2c-0.2,0.1-0.3,0.3-0.3,0.5l-0.3,0l0.1-2.8l2.6-0.2l0.1,0.8L272.3,81.4z"/>
	</g>
	<g>
		<path class="st42" d="M253.4,317l0.5-0.8l-3.4-2.6l-0.5,0.9l-0.2-0.2l0.6-1.3l3.8,2.9l0.6-0.7l0.2,0.2l-1.4,1.8L253.4,317z"/>
		<path class="st42" d="M256.2,311.4c0.5,0.5,0.7,0.9,0.8,1.4c0,0.5-0.1,0.8-0.5,1.2c-0.4,0.3-0.8,0.5-1.2,0.4
			c-0.5-0.1-0.9-0.3-1.4-0.8l-0.8-0.8c-0.5-0.5-0.7-0.9-0.8-1.4c0-0.5,0.1-0.9,0.5-1.2c0.4-0.3,0.8-0.5,1.2-0.4
			c0.5,0.1,0.9,0.3,1.4,0.8L256.2,311.4z M255.1,310.8c-0.4-0.4-0.7-0.6-1.1-0.7c-0.3-0.1-0.6,0-0.9,0.3c-0.3,0.3-0.4,0.6-0.3,0.9
			s0.3,0.7,0.6,1.1l0.9,0.9c0.4,0.4,0.7,0.6,1.1,0.7c0.3,0.1,0.7,0,0.9-0.3c0.3-0.3,0.4-0.6,0.3-0.9c-0.1-0.3-0.3-0.7-0.6-1.1
			L255.1,310.8z"/>
		<path class="st42" d="M258.7,312l-0.4,0.3l-0.3-0.5l0.4-0.3L258.7,312z"/>
		<path class="st42" d="M261.2,308.1c0.3,0.6,0.5,1.1,0.4,1.5c-0.1,0.4-0.3,0.8-0.7,1.1c-0.4,0.3-0.9,0.3-1.3,0.1
			c-0.4-0.2-0.8-0.5-1.1-1.1l-0.6-1c-0.3-0.6-0.5-1.1-0.4-1.5s0.3-0.8,0.7-1.1c0.4-0.3,0.9-0.3,1.3-0.1s0.8,0.5,1.1,1.1L261.2,308.1
			z M260.2,307.3c-0.3-0.5-0.6-0.8-0.9-0.9c-0.3-0.1-0.6-0.1-1,0.1c-0.3,0.2-0.5,0.5-0.5,0.8c0,0.3,0.1,0.7,0.4,1.2l0.6,1.1
			c0.3,0.4,0.6,0.7,0.9,0.9s0.6,0.1,1-0.1c0.3-0.2,0.5-0.5,0.5-0.8c0-0.3-0.1-0.7-0.4-1.2L260.2,307.3z"/>
		<path class="st42" d="M263.4,309.3l-0.4,0.2l-0.2-0.5l0.4-0.2L263.4,309.3z"/>
		<path class="st42" d="M264.1,308.6l0.9-0.3l-1.3-4.1l-0.9,0.5l-0.1-0.3l1.3-0.7l1.5,4.5l0.9-0.2l0.1,0.3l-2.1,0.7L264.1,308.6z"/>
		<path class="st42" d="M267.5,308l-0.5,0.1l-0.1-0.6l0.5-0.1L267.5,308z"/>
		<path class="st42" d="M270.4,303.2l-0.1-0.4l-1.8,0.2l0,1.8c0.1-0.1,0.2-0.2,0.4-0.3c0.1-0.1,0.4-0.1,0.6-0.2
			c0.4-0.1,0.8,0.1,1.1,0.3c0.3,0.3,0.5,0.7,0.5,1.2c0.1,0.5,0,0.9-0.3,1.3c-0.2,0.3-0.6,0.5-1.1,0.6c-0.4,0-0.8,0-1.1-0.2
			c-0.3-0.2-0.5-0.5-0.5-1l0,0l0.4,0c0,0.3,0.2,0.6,0.4,0.8c0.2,0.2,0.5,0.2,0.8,0.2c0.4,0,0.7-0.2,0.8-0.4c0.2-0.2,0.2-0.6,0.2-1
			c0-0.4-0.2-0.7-0.4-0.9c-0.2-0.2-0.5-0.3-0.8-0.3c-0.3,0-0.6,0.1-0.7,0.2c-0.2,0.1-0.3,0.3-0.3,0.5l-0.3,0l0-2.8l2.6-0.3l0.1,0.8
			L270.4,303.2z"/>
	</g>
</g>
<g id="deployments">
	<g>
		<g>
			<circle class="st45" cx="369.5" cy="211.2" r="14.1"/>
			<g>
				<g>
					<path class="st46" d="M373.9,202.9c3,1.6,5,4.7,5,8.3c0,5.2-4.2,9.4-9.4,9.4c-5.2,0-9.4-4.2-9.4-9.4c0-4.1,2.6-7.6,6.3-8.9"/>
					<g>
						<polygon class="st6" points="375.3,205.7 374.2,203.1 376.9,202 375.4,201.3 372.7,202.4 373.7,205 						"/>
					</g>
				</g>
			</g>
			<g>
				<path class="st6" d="M364.3,214.9l0.8-0.1l3.3-9.5h2.2l3.3,9.5l0.8,0.1v1.3H371v-1.3l0.8-0.1l-0.5-1.5h-3.5l-0.5,1.5l0.8,0.1
					v1.3h-3.7V214.9z M368.2,211.7h2.5l-1.2-3.8h0L368.2,211.7z"/>
			</g>
		</g>
	</g>
</g>
<g id="containers_x2F_volumes">
	<g>
		<polygon class="st50" points="395.4,88.4 404.8,82.9 414.3,88.4 404.8,93.8 		"/>
		<polygon class="st50" points="395.4,99.3 395.4,88.4 404.8,93.8 404.8,104.8 		"/>
		<polygon class="st50" points="404.8,104.8 404.8,93.8 414.3,88.4 414.3,99.3 		"/>
	</g>
	<g>
		<polygon class="st50" points="432.6,88.4 442,82.9 451.5,88.4 442,93.8 		"/>
		<polygon class="st50" points="432.6,99.3 432.6,88.4 442,93.8 442,104.8 		"/>
		<polygon class="st50" points="442,104.8 442,93.8 451.5,88.4 451.5,99.3 		"/>
	</g>
	<g>
		<polygon class="st50" points="261.2,101.8 273,94.9 284.9,101.8 273,108.6 		"/>
		<polygon class="st50" points="261.2,115.5 261.2,101.8 273,108.6 273,122.3 		"/>
		<polygon class="st50" points="273,122.3 273,108.6 284.9,101.8 284.9,115.5 		"/>
	</g>
	<g>
		<polygon class="st50" points="260.5,323.5 272.4,316.6 284.2,323.5 272.4,330.3 		"/>
		<polygon class="st50" points="260.5,337.2 260.5,323.5 272.4,330.3 272.4,344 		"/>
		<polygon class="st50" points="272.4,344 272.4,330.3 284.2,323.5 284.2,337.2 		"/>
	</g>
</g>
<g id="labels_x2F_selectors">
</g>
<g id="description">
	<g>
		<path class="st42" d="M178.4,130.4h-0.9l-0.2-1.2c-0.2-0.1-0.4-0.3-0.7-0.4s-0.6-0.1-1-0.1c-0.6,0-1.1,0.1-1.4,0.4s-0.5,0.6-0.5,1
			c0,0.4,0.2,0.7,0.5,0.9s0.9,0.5,1.6,0.7c0.9,0.2,1.6,0.6,2,1s0.7,1,0.7,1.6c0,0.7-0.3,1.2-0.8,1.7s-1.3,0.6-2.2,0.6
			c-0.7,0-1.2-0.1-1.7-0.3s-0.9-0.5-1.2-0.8v-1.6h0.9l0.2,1.2c0.2,0.2,0.5,0.3,0.8,0.5s0.7,0.2,1.1,0.2c0.6,0,1-0.1,1.4-0.4
			s0.5-0.6,0.5-1c0-0.4-0.1-0.7-0.4-1s-0.8-0.5-1.6-0.7c-0.9-0.2-1.6-0.5-2.1-0.9s-0.8-0.9-0.8-1.6c0-0.7,0.3-1.2,0.8-1.7
			s1.3-0.7,2.2-0.7c0.6,0,1.1,0.1,1.6,0.3s0.9,0.5,1.2,0.7V130.4z"/>
		<path class="st42" d="M182.5,136.5c-0.9,0-1.6-0.3-2.1-0.9s-0.8-1.4-0.8-2.3v-0.3c0-0.9,0.3-1.7,0.8-2.3s1.2-0.9,1.9-0.9
			c0.9,0,1.5,0.3,1.9,0.8s0.7,1.2,0.7,2.1v0.7h-4.1l0,0c0,0.6,0.2,1.1,0.5,1.5s0.7,0.6,1.2,0.6c0.4,0,0.7-0.1,1-0.2s0.5-0.3,0.8-0.5
			l0.5,0.8c-0.2,0.2-0.5,0.4-0.9,0.6S183,136.5,182.5,136.5z M182.3,130.8c-0.4,0-0.7,0.2-1,0.5s-0.4,0.7-0.5,1.2l0,0h2.9v-0.2
			c0-0.5-0.1-0.8-0.4-1.1S182.8,130.8,182.3,130.8z"/>
		<path class="st42" d="M186.1,130.8V130h2l0.1,0.9c0.2-0.3,0.4-0.6,0.7-0.8s0.6-0.3,0.9-0.3c0.1,0,0.2,0,0.3,0s0.2,0,0.2,0
			l-0.2,1.1l-0.7,0c-0.3,0-0.6,0.1-0.8,0.2s-0.4,0.3-0.5,0.6v3.6l1,0.2v0.7h-3.1v-0.7l1-0.2v-4.5L186.1,130.8z"/>
		<path class="st42" d="M193.3,130.8l-0.8,0.1l1.3,3.6l0.1,0.5h0l0.1-0.5l1.3-3.6l-0.8-0.1V130h2.4v0.7l-0.5,0.1l-2.1,5.5h-0.9
			l-2.2-5.5l-0.5-0.1V130h2.4V130.8z"/>
		<path class="st42" d="M197.8,135.6l1-0.2v-4.5l-1-0.2V130h2.1v5.4l1,0.2v0.7h-3.1V135.6z M199.9,128.4h-1.2v-1.2h1.2V128.4z"/>
		<path class="st42" d="M204.6,135.6c0.4,0,0.7-0.1,1-0.4s0.4-0.5,0.4-0.9h1l0,0c0,0.5-0.2,1-0.7,1.5s-1.1,0.6-1.8,0.6
			c-0.9,0-1.6-0.3-2.1-0.9s-0.7-1.4-0.7-2.3v-0.2c0-0.9,0.2-1.7,0.7-2.3s1.2-0.9,2.1-0.9c0.5,0,1,0.1,1.4,0.3s0.7,0.4,1,0.7l0.1,1.4
			h-0.9l-0.3-1c-0.1-0.1-0.3-0.2-0.5-0.3s-0.5-0.1-0.7-0.1c-0.6,0-1,0.2-1.3,0.7s-0.4,1-0.4,1.6v0.2c0,0.6,0.1,1.2,0.4,1.6
			S204,135.6,204.6,135.6z"/>
		<path class="st42" d="M211.1,136.5c-0.9,0-1.6-0.3-2.1-0.9s-0.8-1.4-0.8-2.3v-0.3c0-0.9,0.3-1.7,0.8-2.3s1.2-0.9,1.9-0.9
			c0.9,0,1.5,0.3,1.9,0.8s0.7,1.2,0.7,2.1v0.7h-4.1l0,0c0,0.6,0.2,1.1,0.5,1.5s0.7,0.6,1.2,0.6c0.4,0,0.7-0.1,1-0.2s0.5-0.3,0.8-0.5
			l0.5,0.8c-0.2,0.2-0.5,0.4-0.9,0.6S211.7,136.5,211.1,136.5z M211,130.8c-0.4,0-0.7,0.2-1,0.5s-0.4,0.7-0.5,1.2l0,0h2.9v-0.2
			c0-0.5-0.1-0.8-0.4-1.1S211.4,130.8,211,130.8z"/>
	</g>
	<line class="st62" x1="273.4" y1="134" x2="217.4" y2="134"/>
	<g>
		<path class="st42" d="M436,196.8c1.1,0,2,0.3,2.7,1s1,1.6,1,2.7v1.2c0,1.1-0.3,2-1,2.7s-1.6,1-2.7,1h-3.6v-0.7l1-0.2v-6.7l-1-0.2
			v-0.7h1H436z M434.6,197.7v6.7h1.5c0.8,0,1.4-0.3,1.9-0.8s0.7-1.2,0.7-2v-1.2c0-0.8-0.2-1.5-0.7-2s-1.1-0.8-1.9-0.8H434.6z"/>
		<path class="st42" d="M443.8,205.5c-0.9,0-1.6-0.3-2.1-0.9s-0.8-1.4-0.8-2.3v-0.3c0-0.9,0.3-1.7,0.8-2.3s1.2-0.9,1.9-0.9
			c0.9,0,1.5,0.3,1.9,0.8s0.7,1.2,0.7,2.1v0.7h-4.1l0,0c0,0.6,0.2,1.1,0.5,1.5s0.7,0.6,1.2,0.6c0.4,0,0.7-0.1,1-0.2s0.5-0.3,0.8-0.5
			l0.5,0.8c-0.2,0.2-0.5,0.4-0.9,0.6S444.3,205.5,443.8,205.5z M443.6,199.8c-0.4,0-0.7,0.2-1,0.5s-0.4,0.7-0.5,1.2l0,0h2.9v-0.2
			c0-0.5-0.1-0.8-0.4-1.1S444.1,199.8,443.6,199.8z"/>
		<path class="st42" d="M447.2,207.1l1-0.2v-7l-1-0.2V199h1.9l0.1,0.8c0.2-0.3,0.5-0.5,0.8-0.7s0.7-0.2,1.1-0.2
			c0.8,0,1.4,0.3,1.8,0.9s0.7,1.4,0.7,2.5v0.1c0,0.9-0.2,1.7-0.7,2.2s-1,0.8-1.8,0.8c-0.4,0-0.7-0.1-1-0.2s-0.5-0.3-0.8-0.6v2.2
			l1,0.2v0.7h-3.1V207.1z M452.4,202.3c0-0.7-0.1-1.3-0.4-1.8s-0.7-0.7-1.3-0.7c-0.3,0-0.6,0.1-0.8,0.2s-0.4,0.4-0.6,0.6v3.1
			c0.1,0.3,0.3,0.5,0.6,0.6s0.5,0.2,0.9,0.2c0.5,0,1-0.2,1.2-0.6s0.4-0.9,0.4-1.6V202.3z"/>
		<path class="st42" d="M454.4,197v-0.7h2.1v8.2l1,0.2v0.7h-3.1v-0.7l1-0.2v-7.3L454.4,197z"/>
		<path class="st42" d="M458.2,202.1c0-0.9,0.3-1.7,0.8-2.3s1.2-0.9,2.1-0.9c0.9,0,1.6,0.3,2.1,0.9s0.8,1.4,0.8,2.3v0.1
			c0,0.9-0.3,1.7-0.8,2.3s-1.2,0.9-2.1,0.9c-0.9,0-1.6-0.3-2.1-0.9s-0.8-1.4-0.8-2.3V202.1z M459.4,202.3c0,0.7,0.1,1.2,0.4,1.7
			s0.7,0.7,1.3,0.7c0.5,0,1-0.2,1.2-0.7s0.4-1,0.4-1.7v-0.1c0-0.7-0.1-1.2-0.4-1.7s-0.7-0.7-1.3-0.7s-1,0.2-1.3,0.7s-0.4,1-0.4,1.7
			V202.3z"/>
		<path class="st42" d="M470.9,199.8l-0.6,0.1l-2.4,6.5c-0.2,0.4-0.4,0.8-0.7,1.1s-0.7,0.5-1.2,0.5c-0.1,0-0.2,0-0.4,0
			s-0.3,0-0.3-0.1l0.1-0.9c0,0,0,0,0.2,0s0.3,0,0.3,0c0.2,0,0.4-0.1,0.6-0.3s0.3-0.5,0.4-0.7l0.3-0.7l-2.1-5.4l-0.6-0.1V199h2.6v0.7
			l-0.7,0.1l1.1,3.1l0.2,0.8h0l1.3-3.9l-0.7-0.1V199h2.6V199.8z"/>
		<path class="st42" d="M471.4,204.6l1-0.2v-4.5l-1-0.2V199h2l0.1,0.8c0.2-0.3,0.5-0.5,0.8-0.7s0.7-0.2,1.1-0.2s0.8,0.1,1.1,0.3
			s0.5,0.5,0.7,0.9c0.2-0.4,0.5-0.6,0.8-0.9s0.7-0.3,1.1-0.3c0.6,0,1.2,0.2,1.5,0.7s0.6,1.1,0.6,2v2.9l1,0.2v0.7h-3.1v-0.7l1-0.2
			v-2.9c0-0.6-0.1-1.1-0.3-1.3s-0.5-0.4-1-0.4c-0.4,0-0.7,0.1-1,0.4s-0.4,0.6-0.4,1.1v3.1l1,0.2v0.7h-3.1v-0.7l1-0.2v-2.9
			c0-0.6-0.1-1-0.3-1.3s-0.5-0.4-1-0.4c-0.4,0-0.6,0.1-0.9,0.2s-0.4,0.3-0.5,0.6v3.8l1,0.2v0.7h-3.1V204.6z"/>
		<path class="st42" d="M485.8,205.5c-0.9,0-1.6-0.3-2.1-0.9s-0.8-1.4-0.8-2.3v-0.3c0-0.9,0.3-1.7,0.8-2.3s1.2-0.9,1.9-0.9
			c0.9,0,1.5,0.3,1.9,0.8s0.7,1.2,0.7,2.1v0.7h-4.1l0,0c0,0.6,0.2,1.1,0.5,1.5s0.7,0.6,1.2,0.6c0.4,0,0.7-0.1,1-0.2s0.5-0.3,0.8-0.5
			l0.5,0.8c-0.2,0.2-0.5,0.4-0.9,0.6S486.4,205.5,485.8,205.5z M485.7,199.8c-0.4,0-0.7,0.2-1,0.5s-0.4,0.7-0.5,1.2l0,0h2.9v-0.2
			c0-0.5-0.1-0.8-0.4-1.1S486.1,199.8,485.7,199.8z"/>
		<path class="st42" d="M489.2,204.6l1-0.2v-4.5l-1-0.2V199h2l0.1,0.9c0.2-0.3,0.5-0.6,0.8-0.8s0.7-0.3,1.1-0.3
			c0.7,0,1.2,0.2,1.6,0.6s0.6,1,0.6,1.9v3.1l1,0.2v0.7h-3.1v-0.7l1-0.2v-3.1c0-0.6-0.1-1-0.3-1.2s-0.6-0.4-1-0.4
			c-0.3,0-0.6,0.1-0.9,0.2s-0.5,0.4-0.6,0.7v3.7l1,0.2v0.7h-3.1V204.6z"/>
		<path class="st42" d="M499.1,197.5v1.5h1.2v0.9h-1.2v3.8c0,0.3,0.1,0.5,0.2,0.6s0.3,0.2,0.5,0.2c0.1,0,0.2,0,0.3,0s0.2,0,0.3-0.1
			l0.2,0.8c-0.1,0.1-0.3,0.1-0.5,0.2s-0.4,0.1-0.6,0.1c-0.5,0-0.8-0.1-1.1-0.4s-0.4-0.7-0.4-1.3v-3.8h-1V199h1v-1.5H499.1z"/>
	</g>
	<line class="st62" x1="430" y1="203" x2="369.5" y2="203"/>
</g>
<g id="Layer_14">
</g>
</svg>
