<svg xmlns="http://www.w3.org/2000/svg" viewBox="0 0 350 200"><defs><style>.cls-1{opacity:.13}.cls-2{fill:url(#linear-gradient)}.cls-3,.cls-4{fill:#fff;stroke:#326de6;stroke-linecap:round;stroke-linejoin:round}.cls-3{stroke-width:.8px}.cls-4{stroke-width:1.2px}</style><linearGradient id="linear-gradient" x1="86.51" y1="100" x2="263.49" y2="100" gradientUnits="userSpaceOnUse"><stop offset="0" stop-color="#326de6"/><stop offset="1" stop-color="#06f7c9"/></linearGradient></defs><title>16.07.28_k8s_visual_diagrams</title><g id="Graphics"><path class="cls-1 cls-2" d="M245.97 47.9l17.52 76.79-49.11 61.58h-78.76l-49.11-61.58 17.52-76.79L175 13.73l70.97 34.17z"/><path class="cls-3" d="M197.46 86.54l-20.52-11.85V51l20.52-11.85L217.98 51v23.69l-20.52 11.85zM150.26 113.85l-20.52 11.84-20.52-11.84V90.16l20.52-11.85 20.52 11.85v23.69zM152.54 86.54l-20.52-11.85V51l20.52-11.85L173.06 51v23.69l-20.52 11.85zM152.31 164.85L131.79 153v-23.69l20.52-11.85 20.52 11.85V153l-20.52 11.85zM197.69 164.85L177.17 153v-23.69l20.52-11.85 20.52 11.85V153l-20.52 11.85zM240.78 113.85l-20.52 11.84-20.52-11.84V90.16l20.52-11.85 20.52 11.85v23.69z"/><path class="cls-4" d="M174.91 101.81v2.72M176.27 103.17h-2.72M190.13 106.22l-1.79-7.85-1.21-5.28h.01-.01l-7.22-3.48-4.91-2.36-12.11 5.83-.02.01-1.5 6.57-1.16 5.08-.34 1.48 3.55 4.45.63.8 4.22 5.28h13.46l3.18-3.98 1.02-1.28 4.2-5.27z"/></g></svg>