<svg xmlns="http://www.w3.org/2000/svg" xmlns:xlink="http://www.w3.org/1999/xlink" viewBox="0 0 720 440"><defs><style>.cls-1,.cls-2,.cls-5,.cls-8{fill:#fff;}.cls-1,.cls-2{stroke:#006de9;}.cls-1,.cls-17,.cls-2,.cls-5{stroke-linecap:round;stroke-linejoin:round;}.cls-2{stroke-width:6px;}.cls-3{opacity:0.13;}.cls-4{fill:url(#linear-gradient);}.cls-5{stroke:#326de6;stroke-width:1.6px;}.cls-6{fill:#326de6;}.cls-7{fill:#a0caea;}.cls-8{font-size:5.6px;}.cls-11,.cls-8{font-family:RobotoSlab-Regular, Roboto Slab;}.cls-9{letter-spacing:-0.01em;}.cls-10{letter-spacing:0em;}.cls-11{font-size:12px;}.cls-11,.cls-14{fill:#011f38;}.cls-12{letter-spacing:0em;}.cls-13{letter-spacing:-0.01em;}.cls-14{font-size:13.6px;font-family:RobotoSlab-Bold, Roboto Slab;font-weight:700;}.cls-15{letter-spacing:-0.01em;}.cls-16{letter-spacing:0em;}.cls-17{fill:none;stroke:#011f38;stroke-width:0.3px;}</style><linearGradient id="linear-gradient" x1="202.56" y1="220" x2="517.02" y2="220" gradientUnits="userSpaceOnUse"><stop offset="0" stop-color="#326de6"/><stop offset="1" stop-color="#10ffc6"/></linearGradient><symbol id="master_level1" data-name="master_level1" viewBox="0 0 137.18 133.89"><line class="cls-1" x1="68.59" y1="78.04" x2="68.59" y2="66.22"/><line class="cls-1" x1="74.5" y1="72.13" x2="62.68" y2="72.13"/><polygon class="cls-2" points="39.4 130.89 3 85.25 15.99 28.33 68.59 3 121.19 28.33 134.18 85.25 97.78 130.89 39.4 130.89"/></symbol></defs><title>16.07.28_k8s_diagrams_all</title><g id="CLUSTER"><g class="cls-3"><polygon class="cls-4" points="485.88 127.44 517.02 263.87 429.76 373.29 289.82 373.29 202.56 263.87 233.7 127.44 359.79 66.72 485.88 127.44"/></g></g><g id="master"><use width="137.18" height="133.89" transform="translate(332.35 195.18) scale(0.4)" xlink:href="#master_level1"/></g><g id="Node"><polygon class="cls-5" points="356.63 174.58 321 195.15 285.37 174.58 285.37 133.44 321 112.87 356.63 133.44 356.63 174.58"/><polygon class="cls-6" points="303.19 184.87 321 195.15 356.63 174.58 356.63 154.01 303.19 184.87"/><polygon class="cls-7" points="337.42 182.44 331.31 171.86 353.83 158.86 353.83 172.96 337.42 182.44"/><text class="cls-8" transform="translate(336.8 178.41) rotate(-30)">Doc<tspan class="cls-9" x="10.04" y="0">k</tspan><tspan class="cls-10" x="13.39" y="0">er</tspan></text><text class="cls-8" transform="translate(316.8 189.95) rotate(-30)">kubelet</text><polygon class="cls-5" points="399 195.15 363.37 174.58 363.37 133.44 399 112.87 434.63 133.44 434.63 174.58 399 195.15"/><polygon class="cls-6" points="363.37 154.01 363.37 174.58 399 195.15 416.81 184.86 363.37 154.01"/><polygon class="cls-7" points="382.58 182.44 388.69 171.86 411.21 184.87 399 191.92 382.58 182.44"/><text class="cls-8" transform="translate(385.82 179.82) rotate(30)">Doc<tspan class="cls-9" x="10.04" y="0">k</tspan><tspan class="cls-10" x="13.39" y="0">er</tspan></text><text class="cls-8" transform="translate(365.83 168.28) rotate(30)">kubelet</text><polygon class="cls-5" points="321 331.14 285.37 310.57 285.37 269.42 321 248.85 356.63 269.42 356.63 310.57 321 331.14"/><polygon class="cls-6" points="303.19 259.14 321 248.85 356.63 269.42 356.63 289.99 303.19 259.14"/><polygon class="cls-7" points="337.42 261.56 331.31 272.14 353.83 285.14 353.83 271.04 337.42 261.56"/><text class="cls-8" transform="translate(334.55 269.52) rotate(30)">Doc<tspan class="cls-9" x="10.04" y="0">k</tspan><tspan class="cls-10" x="13.39" y="0">er</tspan></text><text class="cls-8" transform="translate(314.55 257.98) rotate(30)">kubelet</text></g><g id="description"><text class="cls-11" transform="translate(539.59 230.13)">Master</text><text class="cls-11" transform="translate(539.59 265.51)"><tspan class="cls-12">n</tspan><tspan x="7.66" y="0">ode p</tspan><tspan class="cls-13" x="38.3" y="0">r</tspan><tspan x="43.14" y="0">ocesses</tspan></text><text class="cls-11" transform="translate(539.59 155.01)">Node</text><text class="cls-14" transform="translate(295.96 392.52)"><tspan class="cls-15">K</tspan><tspan x="9.57" y="0">uber</tspan><tspan class="cls-16" x="38.87" y="0">n</tspan><tspan x="47.43" y="0">eters cluster</tspan></text><line class="cls-17" x1="534.54" y1="226.4" x2="375.5" y2="226.4"/><line class="cls-17" x1="534.54" y1="263.51" x2="333.94" y2="263.51"/><line class="cls-17" x1="534.54" y1="153.01" x2="417.37" y2="153.01"/></g></svg>