<?xml version="1.0" encoding="utf-8"?>
<!-- Generator: Adobe Illustrator 19.2.1, SVG Export Plug-In . SVG Version: 6.00 Build 0)  -->
<svg version="1.1" xmlns="http://www.w3.org/2000/svg" xmlns:xlink="http://www.w3.org/1999/xlink" x="0px" y="0px"
	 viewBox="0 0 720 385.3" style="enable-background:new 0 0 720 385.3;" xml:space="preserve">
<style type="text/css">
	.st0{fill:#FFFFFF;stroke:#006DE9;stroke-linecap:round;stroke-linejoin:round;stroke-miterlimit:10;}
	.st1{fill:#FFFFFF;stroke:#006DE9;stroke-width:6;stroke-linecap:round;stroke-linejoin:round;stroke-miterlimit:10;}
	.st2{fill:#FFFFFF;stroke:#326DE6;stroke-width:2;stroke-linecap:round;stroke-linejoin:round;stroke-miterlimit:10;}
	.st3{opacity:0.71;fill:#326CE6;}
	.st4{opacity:0.45;fill:#FFFFFF;}
	.st5{fill:#FFFFFF;stroke:#006DE9;stroke-width:2;stroke-linecap:round;stroke-linejoin:round;stroke-miterlimit:10;}
	.st6{fill:#006DE9;}
	.st7{fill:#A0CAEA;}
	.st8{fill:#FFFFFF;}
	.st9{opacity:0.13;}
	.st10{fill:url(#SVGID_1_);}
	.st11{fill:url(#SVGID_2_);}
	.st12{fill:#FFFFFF;stroke:#326DE6;stroke-width:3.2;stroke-linecap:round;stroke-linejoin:round;stroke-miterlimit:10;}
	.st13{fill:#326DE6;}
	.st14{fill:none;stroke:#326DE6;stroke-width:2.4;stroke-miterlimit:10;}
	.st15{fill:#A0CAE9;}
	.st16{fill:#FFFFFF;stroke:#326DE6;stroke-width:1.6;stroke-linecap:round;stroke-linejoin:round;stroke-miterlimit:10;}
	.st17{fill:#FFFFFF;stroke:#326DE6;stroke-width:1.6;stroke-miterlimit:10;}
	.st18{fill:none;stroke:#06F7C9;stroke-width:2;stroke-miterlimit:10;}
	.st19{fill:none;stroke:#06F7C9;stroke-width:2;stroke-miterlimit:10;stroke-dasharray:2.3749,1.5832;}
	.st20{fill:none;stroke:#06F7C9;stroke-width:2;stroke-miterlimit:10;stroke-dasharray:2.4006,1.6004;}
	.st21{fill:none;stroke:#EEF406;stroke-width:2;stroke-miterlimit:10;stroke-dasharray:2.4,1.6;}
	.st22{fill:none;stroke:#EEF406;stroke-width:2;stroke-miterlimit:10;}
	.st23{fill:none;stroke:#EEF406;stroke-width:2;stroke-miterlimit:10;stroke-dasharray:2.3975,1.5984;}
	.st24{fill:none;stroke:#EEF406;stroke-width:2;stroke-miterlimit:10;stroke-dasharray:2.395,1.5966;}
	.st25{fill:none;stroke:#EEF406;stroke-width:2;stroke-miterlimit:10;stroke-dasharray:2.3963,1.5976;}
	.st26{opacity:0.1;fill:#EEF406;}
	.st27{opacity:2.000000e-02;fill:#EEF406;}
	.st28{opacity:0.1;fill:#06F7C9;}
	.st29{fill:none;stroke:#006DE9;stroke-width:0.8;stroke-miterlimit:10;}
	.st30{opacity:0.1;fill:url(#SVGID_3_);}
	.st31{opacity:0.1;fill:url(#SVGID_4_);}
	.st32{opacity:0.1;fill:url(#SVGID_5_);}
	.st33{opacity:0.1;fill:url(#SVGID_6_);}
	.st34{fill:none;stroke:#326DE6;stroke-width:1.2;stroke-miterlimit:10;}
	.st35{opacity:0.1;fill:url(#SVGID_7_);}
	.st36{opacity:0.1;fill:url(#SVGID_8_);}
	.st37{opacity:0.1;fill:url(#SVGID_9_);}
	.st38{opacity:0.1;fill:url(#SVGID_10_);}
	.st39{fill:none;stroke:#326DE6;stroke-width:2;stroke-miterlimit:10;}
	.st40{opacity:0.4;fill:none;stroke:#EEF406;stroke-width:2;stroke-miterlimit:10;}
	.st41{fill:none;stroke:#EEF406;stroke-width:2.4596;stroke-miterlimit:10;}
	.st42{fill:#011F38;}
	.st43{opacity:0.4;}
	.st44{opacity:0.1;}
	.st45{fill:#326DE6;stroke:#EEF406;stroke-width:2;stroke-miterlimit:10;}
	.st46{fill:none;stroke:#FFFFFF;stroke-width:1.2;stroke-linecap:round;stroke-linejoin:round;}
	.st47{fill:#06F7C9;stroke:#FFFFFF;stroke-width:0.3;stroke-linecap:round;stroke-linejoin:round;stroke-miterlimit:10;}
	.st48{fill:none;stroke:#011F38;stroke-width:1.2;stroke-linecap:round;stroke-linejoin:round;}
	.st49{fill:#326DE6;stroke:#06F7C9;stroke-width:2;stroke-miterlimit:10;}
	.st50{fill:#06F7C9;stroke:#011F38;stroke-width:0.8;stroke-linecap:round;stroke-linejoin:round;stroke-miterlimit:10;}
	.st51{fill:#8115FF;stroke:#011F38;stroke-width:0.8;stroke-linecap:round;stroke-linejoin:round;stroke-miterlimit:10;}
	.st52{opacity:0.3;}
	.st53{opacity:0.2;fill:#6D6E71;}
	.st54{fill:#EEF406;}
	.st55{fill:#06F7C9;}
	.st56{fill:#FFFFFF;stroke:#06F7C9;stroke-width:2;stroke-miterlimit:10;stroke-dasharray:2.4,1.6;}
	.st57{fill:#FFFFFF;stroke:#EEF406;stroke-width:1.6;stroke-miterlimit:10;stroke-dasharray:2.4,1.6;}
	.st58{fill:none;stroke:#06F7C9;stroke-width:2;stroke-miterlimit:10;stroke-dasharray:2.4938,1.6626;}
	.st59{fill:none;stroke:#06F7C9;stroke-width:2;stroke-miterlimit:10;stroke-dasharray:2.0084,1.3389;}
	.st60{fill:none;stroke:#06F7C9;stroke-width:2;stroke-miterlimit:10;stroke-dasharray:2.724,1.816;}
	.st61{fill:#011F38;stroke:#414042;stroke-width:0.3;stroke-linecap:round;stroke-linejoin:round;stroke-miterlimit:10;}
	.st62{fill:none;stroke:#011F38;stroke-width:0.3;stroke-linecap:round;stroke-linejoin:round;stroke-miterlimit:10;}
	.st63{fill:none;stroke:#011F38;stroke-width:0.2813;stroke-linecap:round;stroke-linejoin:round;stroke-miterlimit:10;}
</style>
<symbol  id="master_x5F_level1_1_" viewBox="-68.6 -66.9 137.2 133.9">
	<g>
		<g>
			<line class="st0" x1="0" y1="-11.1" x2="0" y2="0.7"/>
			<line class="st0" x1="5.9" y1="-5.2" x2="-5.9" y2="-5.2"/>
		</g>
		<polygon class="st1" points="-29.2,-63.9 -65.6,-18.3 -52.6,38.6 0,63.9 52.6,38.6 65.6,-18.3 29.2,-63.9 		"/>
	</g>
</symbol>
<symbol  id="node_high_level" viewBox="-81 -93 162 186.1">
	<polygon class="st2" points="-80,-46 -80,46 0,92 80,46 80,-46 0,-92 	"/>
	<g id="Isolation_Mode_3_">
	</g>
</symbol>
<symbol  id="node_x5F_empty" viewBox="-87.5 -100.6 175.1 201.1">
	
		<use xlink:href="#node_high_level"  width="162" height="186.1" id="XMLID_201_" x="-81" y="-93" transform="matrix(1.0808 0 0 1.0808 -3.292006e-05 -3.749943e-05)" style="overflow:visible;"/>
	<g>
		<polygon class="st3" points="76.8,-28.1 -14,-80.3 0,-88.3 76.7,-44.4 		"/>
		<polygon class="st4" points="76.8,-28.1 32.1,-53.8 38.8,-66.1 76.7,-44.4 		"/>
	</g>
</symbol>
<symbol  id="node_x5F_new" viewBox="-87.6 -101 175.2 202">
	<polygon class="st5" points="0,-100 -86.6,-50 -86.6,50 0,100 86.6,50 86.6,-50 	"/>
	<polygon class="st6" points="-86.6,-20.2 -86.6,-50 0,-100 25.8,-85.1 	"/>
	<polygon class="st7" points="-40.8,-70.7 -32.9,-57 15.7,-85.1 0,-94.3 	"/>
	
		<text transform="matrix(0.866 -0.5 -0.5 -0.866 -33.9256 -70.7388)" class="st8" style="font-family:'RobotoSlab-Regular'; font-size:11.3632px;">Docker</text>
	
		<text transform="matrix(0.866 -0.5 -0.5 -0.866 -76.0668 -46.4087)" class="st8" style="font-family:'RobotoSlab-Regular'; font-size:11.3632px;">Kubelt</text>
</symbol>
<g id="CLUSTER">
	<g id="XMLID_296_" class="st9">
		<g>
			<linearGradient id="SVGID_1_" gradientUnits="userSpaceOnUse" x1="202.562" y1="185.2931" x2="517.0175" y2="185.2931">
				<stop  offset="0" style="stop-color:#326DE6"/>
				<stop  offset="1" style="stop-color:#10FFC6"/>
			</linearGradient>
			<polygon class="st10" points="485.9,92.7 517,229.2 429.8,338.6 289.8,338.6 202.6,229.2 233.7,92.7 359.8,32 			"/>
		</g>
	</g>
</g>
<g id="master">
	
		<use xlink:href="#master_x5F_level1_1_"  width="137.2" height="133.9" x="-68.6" y="-66.9" transform="matrix(0.4 0 0 -0.4 359.7878 187.2514)" style="overflow:visible;"/>
	<g id="master_x5F_level1">
	</g>
</g>
<g id="Node">
	<g id="Node_x5F_level3_x5F_1">
		<g id="Isolation_Mode">
		</g>
	</g>
	<polygon class="st16" points="356.6,139.9 321,160.4 285.4,139.9 285.4,98.7 321,78.2 356.6,98.7 	"/>
	<polygon class="st13" points="303.2,150.2 321,160.4 356.6,139.9 356.6,119.3 	"/>
	<polygon class="st7" points="337.4,147.7 331.3,137.2 353.8,124.2 353.8,138.3 	"/>
	<g>
		<path class="st8" d="M336.4,139.3c0.4-0.3,0.9-0.3,1.3-0.2c0.4,0.1,0.8,0.4,1,0.8l0.3,0.5c0.3,0.4,0.3,0.9,0.2,1.3
			c-0.1,0.4-0.4,0.8-0.8,1l-1.4,0.8l-0.2-0.3l0.3-0.3l-1.6-2.7l-0.4,0.2l-0.2-0.3l0.4-0.2L336.4,139.3z M336,140l1.6,2.7l0.6-0.3
			c0.3-0.2,0.5-0.4,0.6-0.8c0.1-0.3,0-0.6-0.2-1l-0.3-0.5c-0.2-0.3-0.4-0.5-0.7-0.6c-0.3-0.1-0.6-0.1-0.9,0.1L336,140z"/>
		<path class="st8" d="M339.6,140.3c-0.2-0.4-0.3-0.8-0.2-1.1c0.1-0.4,0.3-0.6,0.6-0.9c0.4-0.2,0.7-0.2,1.1-0.1
			c0.3,0.1,0.6,0.4,0.9,0.8l0,0.1c0.2,0.4,0.3,0.8,0.2,1.1c-0.1,0.4-0.3,0.6-0.6,0.8c-0.4,0.2-0.7,0.2-1.1,0.1
			C340.2,141,339.9,140.8,339.6,140.3L339.6,140.3z M340.1,140.1c0.2,0.3,0.3,0.5,0.6,0.6c0.2,0.1,0.4,0.1,0.7,0
			c0.2-0.1,0.3-0.3,0.4-0.6c0-0.2-0.1-0.5-0.2-0.8l0-0.1c-0.2-0.3-0.3-0.5-0.6-0.6c-0.2-0.1-0.4-0.1-0.7,0c-0.2,0.1-0.3,0.3-0.4,0.6
			C339.9,139.5,339.9,139.8,340.1,140.1L340.1,140.1z"/>
		<path class="st8" d="M344.1,139.1c0.2-0.1,0.3-0.2,0.3-0.4c0.1-0.2,0.1-0.3,0-0.5l0.4-0.2l0,0c0.1,0.2,0.2,0.5,0,0.8
			c-0.1,0.3-0.3,0.5-0.6,0.7c-0.4,0.2-0.7,0.3-1.1,0.1c-0.3-0.1-0.6-0.4-0.8-0.7l-0.1-0.1c-0.2-0.4-0.3-0.7-0.2-1.1s0.3-0.6,0.6-0.9
			c0.2-0.1,0.4-0.2,0.6-0.2c0.2,0,0.4,0,0.6,0l0.3,0.6l-0.4,0.2l-0.3-0.3c-0.1,0-0.2,0-0.3,0c-0.1,0-0.2,0.1-0.3,0.1
			c-0.2,0.1-0.4,0.3-0.4,0.6c0,0.2,0.1,0.5,0.2,0.7l0.1,0.1c0.2,0.3,0.3,0.5,0.5,0.6C343.6,139.2,343.8,139.2,344.1,139.1z"/>
		<path class="st8" d="M343.7,135.2l-0.2-0.3l0.9-0.5l1.2,2.1l0.3-0.2l0.2-1l-0.3,0.1l-0.2-0.3l1.1-0.6l0.2,0.3l-0.3,0.2l-0.2,1.2
			l1.4,0.6l0.3-0.1l0.2,0.3l-1.1,0.6l-0.2-0.3l0.2-0.2l-1.2-0.5l-0.3,0.2l0.5,0.8l0.4-0.2l0.2,0.3l-1.2,0.7l-0.2-0.3l0.3-0.3l-1.7-3
			L343.7,135.2z"/>
		<path class="st8" d="M349.8,136.3c-0.4,0.2-0.7,0.3-1.1,0.1s-0.6-0.4-0.9-0.7l-0.1-0.1c-0.2-0.4-0.3-0.7-0.2-1.1
			c0.1-0.4,0.3-0.6,0.6-0.8c0.3-0.2,0.7-0.2,1-0.1s0.5,0.3,0.7,0.7l0.2,0.3l-1.7,1l0,0c0.1,0.2,0.3,0.4,0.5,0.5
			c0.2,0.1,0.4,0.1,0.6-0.1c0.2-0.1,0.3-0.2,0.4-0.3c0.1-0.1,0.2-0.2,0.2-0.4l0.4,0.2c0,0.1-0.1,0.3-0.2,0.4
			C350.2,136,350,136.1,349.8,136.3z M348.4,134c-0.2,0.1-0.3,0.2-0.3,0.4s0,0.4,0.1,0.6l0,0l1.2-0.7l0-0.1
			c-0.1-0.2-0.2-0.3-0.4-0.4C348.8,133.9,348.6,133.9,348.4,134z"/>
		<path class="st8" d="M349.9,133.1l-0.2-0.3l0.8-0.5l0.3,0.3c0-0.2,0-0.3,0.1-0.5c0.1-0.1,0.2-0.2,0.3-0.3c0,0,0.1,0,0.1-0.1
			c0,0,0.1,0,0.1,0l0.2,0.5l-0.3,0.1c-0.1,0.1-0.2,0.2-0.3,0.3c-0.1,0.1-0.1,0.2-0.1,0.4l0.8,1.5l0.4-0.2l0.2,0.3l-1.2,0.7l-0.2-0.3
			l0.3-0.3l-1.1-1.8L349.9,133.1z"/>
	</g>
	<g>
		<path class="st8" d="M315,151.8l-0.2-0.3l0.9-0.5l1.2,2.1l0.3-0.2l0.2-1l-0.3,0.1l-0.2-0.3l1.1-0.6l0.2,0.3l-0.3,0.2l-0.2,1.2
			l1.4,0.6l0.3-0.1l0.2,0.3l-1.1,0.6l-0.2-0.3l0.2-0.2l-1.2-0.5l-0.3,0.2l0.5,0.8l0.4-0.2l0.2,0.3l-1.2,0.7l-0.2-0.3l0.3-0.3l-1.7-3
			L315,151.8z"/>
		<path class="st8" d="M321.6,152c0,0.2,0,0.3-0.1,0.5c-0.1,0.1-0.2,0.3-0.4,0.4c-0.3,0.2-0.5,0.2-0.8,0.1c-0.3-0.1-0.5-0.3-0.7-0.7
			l-0.7-1.1l-0.3,0.1l-0.2-0.3l0.3-0.2l0.5-0.3l0.9,1.5c0.2,0.3,0.3,0.4,0.4,0.5s0.3,0,0.5-0.1c0.2-0.1,0.3-0.2,0.4-0.3
			c0.1-0.1,0.1-0.3,0.1-0.4l-0.9-1.5l-0.4,0.1L320,150l0.3-0.2l0.5-0.3l1.3,2.2l0.3-0.1l0.2,0.3l-0.7,0.4L321.6,152z"/>
		<path class="st8" d="M324.6,149.2c0.2,0.4,0.3,0.7,0.2,1c0,0.3-0.2,0.6-0.5,0.8c-0.2,0.1-0.3,0.1-0.5,0.2c-0.2,0-0.3,0-0.5-0.1
			l0.1,0.4l-0.4,0.2l-1.9-3.3l-0.4,0.2l-0.2-0.3l0.9-0.5l0.8,1.4c0-0.2,0.1-0.3,0.1-0.4c0.1-0.1,0.2-0.2,0.4-0.3
			c0.3-0.2,0.6-0.2,1,0S324.3,148.7,324.6,149.2L324.6,149.2z M324.1,149.4c-0.2-0.3-0.4-0.5-0.6-0.6c-0.2-0.1-0.4-0.1-0.7,0
			c-0.1,0.1-0.2,0.2-0.3,0.3c-0.1,0.1-0.1,0.3-0.1,0.4l0.7,1.1c0.1,0.1,0.3,0.1,0.4,0.1c0.1,0,0.3,0,0.4-0.1
			c0.2-0.1,0.3-0.3,0.4-0.5C324.3,149.9,324.2,149.7,324.1,149.4L324.1,149.4z"/>
		<path class="st8" d="M326.9,149.5c-0.4,0.2-0.7,0.3-1.1,0.1s-0.6-0.4-0.9-0.7l-0.1-0.1c-0.2-0.4-0.3-0.7-0.2-1.1
			c0.1-0.4,0.3-0.6,0.6-0.8c0.3-0.2,0.7-0.2,1-0.1s0.5,0.3,0.7,0.7l0.2,0.3l-1.7,1v0c0.1,0.2,0.3,0.4,0.5,0.5
			c0.2,0.1,0.4,0.1,0.6-0.1c0.2-0.1,0.3-0.2,0.4-0.3c0.1-0.1,0.2-0.2,0.2-0.4l0.4,0.2c0,0.1-0.1,0.3-0.2,0.4
			S327.1,149.3,326.9,149.5z M325.5,147.2c-0.2,0.1-0.3,0.2-0.3,0.4c0,0.2,0,0.4,0.1,0.6l0,0l1.2-0.7l0-0.1
			c-0.1-0.2-0.2-0.3-0.4-0.4S325.7,147.1,325.5,147.2z"/>
		<path class="st8" d="M326.3,145.2l-0.2-0.3l0.9-0.5l1.9,3.3l0.4-0.2l0.2,0.3l-1.2,0.7l-0.2-0.3l0.3-0.3l-1.7-3L326.3,145.2z"/>
		<path class="st8" d="M331,147.1c-0.4,0.2-0.7,0.3-1.1,0.1s-0.6-0.4-0.9-0.7l-0.1-0.1c-0.2-0.4-0.3-0.7-0.2-1.1
			c0.1-0.4,0.3-0.6,0.6-0.8c0.3-0.2,0.7-0.2,1-0.1s0.5,0.3,0.7,0.7l0.2,0.3l-1.7,1v0c0.1,0.2,0.3,0.4,0.5,0.5
			c0.2,0.1,0.4,0.1,0.6-0.1c0.2-0.1,0.3-0.2,0.4-0.3c0.1-0.1,0.2-0.2,0.2-0.4l0.4,0.2c0,0.1-0.1,0.3-0.2,0.4S331.3,147,331,147.1z
			 M329.7,144.8c-0.2,0.1-0.3,0.2-0.3,0.4s0,0.4,0.1,0.6l0,0l1.2-0.7l0-0.1c-0.1-0.2-0.2-0.3-0.4-0.4
			C330,144.7,329.8,144.7,329.7,144.8z"/>
		<path class="st8" d="M331.4,142.6l0.4,0.6l0.5-0.3l0.2,0.3l-0.5,0.3l0.9,1.6c0.1,0.1,0.1,0.2,0.2,0.2c0.1,0,0.2,0,0.2,0
			c0,0,0.1-0.1,0.1-0.1c0,0,0.1-0.1,0.1-0.1l0.2,0.3c0,0.1-0.1,0.1-0.2,0.2c-0.1,0.1-0.2,0.1-0.2,0.2c-0.2,0.1-0.4,0.1-0.6,0.1
			c-0.2,0-0.3-0.2-0.5-0.4l-0.9-1.6l-0.4,0.2l-0.2-0.3l0.4-0.2l-0.4-0.6L331.4,142.6z"/>
	</g>
	<polygon class="st16" points="399,160.4 363.4,139.9 363.4,98.7 399,78.2 434.6,98.7 434.6,139.9 	"/>
	<polygon class="st13" points="363.4,119.3 363.4,139.9 399,160.4 416.8,150.2 	"/>
	<polygon class="st7" points="382.6,147.7 388.7,137.2 411.2,150.2 399,157.2 	"/>
	<g>
		<path class="st8" d="M389.4,142.6c0.5,0.3,0.7,0.6,0.8,1c0.1,0.4,0,0.9-0.2,1.3l-0.3,0.5c-0.3,0.4-0.6,0.7-1,0.8
			c-0.4,0.1-0.9,0-1.3-0.2l-1.4-0.8l0.2-0.3l0.4,0.2l1.6-2.7l-0.3-0.3l0.2-0.3l0.4,0.2L389.4,142.6z M388.6,142.6l-1.6,2.7l0.6,0.3
			c0.3,0.2,0.6,0.2,0.9,0.1c0.3-0.1,0.6-0.3,0.7-0.6l0.3-0.5c0.2-0.3,0.2-0.6,0.2-1c-0.1-0.3-0.3-0.6-0.6-0.8L388.6,142.6z"/>
		<path class="st8" d="M390.2,145.9c0.2-0.4,0.5-0.6,0.8-0.8c0.3-0.1,0.7-0.1,1,0.1c0.4,0.2,0.6,0.5,0.6,0.9c0.1,0.4,0,0.7-0.2,1.1
			l0,0.1c-0.2,0.4-0.5,0.6-0.8,0.8c-0.3,0.1-0.7,0.1-1-0.1c-0.4-0.2-0.6-0.5-0.6-0.9C389.8,146.7,389.9,146.3,390.2,145.9
			L390.2,145.9z M390.6,146.2c-0.2,0.3-0.2,0.5-0.2,0.8c0,0.2,0.1,0.4,0.4,0.6c0.2,0.1,0.4,0.1,0.7,0c0.2-0.1,0.4-0.3,0.6-0.6l0-0.1
			c0.2-0.3,0.2-0.5,0.2-0.8c0-0.2-0.1-0.4-0.4-0.6c-0.2-0.1-0.4-0.1-0.7,0C391,145.7,390.8,145.9,390.6,146.2L390.6,146.2z"/>
		<path class="st8" d="M393.4,149.1c0.2,0.1,0.3,0.1,0.5,0.1c0.2,0,0.3-0.1,0.4-0.2l0.4,0.2l0,0c-0.1,0.2-0.3,0.4-0.6,0.4
			c-0.3,0.1-0.6,0-0.9-0.2c-0.4-0.2-0.6-0.5-0.6-0.9c-0.1-0.4,0-0.7,0.2-1.1l0.1-0.1c0.2-0.4,0.5-0.6,0.8-0.7s0.7-0.1,1.1,0.1
			c0.2,0.1,0.4,0.3,0.5,0.4s0.2,0.3,0.2,0.5l-0.3,0.6l-0.4-0.2l0.1-0.5c0-0.1-0.1-0.2-0.1-0.3c-0.1-0.1-0.2-0.2-0.3-0.2
			c-0.2-0.1-0.5-0.2-0.7,0c-0.2,0.1-0.4,0.3-0.5,0.6l-0.1,0.1c-0.2,0.3-0.2,0.5-0.2,0.7C393.1,148.8,393.2,149,393.4,149.1z"/>
		<path class="st8" d="M396.6,146.8l0.2-0.3l0.9,0.5l-1.2,2.1l0.3,0.2l0.9-0.4l-0.2-0.2l0.2-0.3l1.1,0.6l-0.2,0.3l-0.3-0.1l-1.1,0.4
			l0.2,1.5l0.3,0.2l-0.2,0.3l-1.1-0.6l0.2-0.3l0.3,0.1l-0.2-1.2l-0.3-0.2l-0.5,0.8l0.3,0.3l-0.2,0.3l-1.2-0.7l0.2-0.3l0.4,0.2l1.7-3
			L396.6,146.8z"/>
		<path class="st8" d="M398.8,152.7c-0.4-0.2-0.6-0.5-0.6-0.8s0-0.7,0.2-1.1l0.1-0.1c0.2-0.4,0.5-0.6,0.9-0.7s0.7-0.1,1,0.1
			c0.3,0.2,0.5,0.5,0.6,0.8c0.1,0.3,0,0.6-0.2,1l-0.2,0.3l-1.7-1l0,0c-0.1,0.2-0.2,0.5-0.2,0.7c0,0.2,0.2,0.4,0.4,0.5
			c0.2,0.1,0.3,0.1,0.5,0.2c0.1,0,0.3,0,0.4,0l0,0.4c-0.1,0-0.3,0-0.5,0S399,152.8,398.8,152.7z M400,150.3c-0.2-0.1-0.3-0.1-0.5,0
			c-0.2,0.1-0.4,0.2-0.5,0.4l0,0l1.2,0.7l0-0.1c0.1-0.2,0.1-0.4,0.1-0.5C400.3,150.6,400.2,150.4,400,150.3z"/>
		<path class="st8" d="M401.5,151.2l0.2-0.3l0.8,0.5l-0.2,0.4c0.1-0.1,0.3-0.1,0.4-0.2c0.1,0,0.3,0,0.4,0.1c0,0,0.1,0,0.1,0.1
			c0,0,0.1,0.1,0.1,0.1l-0.3,0.4l-0.3-0.2c-0.1-0.1-0.2-0.1-0.4-0.1c-0.1,0-0.2,0.1-0.3,0.1l-0.8,1.5l0.3,0.3l-0.2,0.3l-1.2-0.7
			l0.2-0.3l0.4,0.2l1.1-1.8L401.5,151.2z"/>
	</g>
	<g>
		<path class="st8" d="M367.9,130.3l0.2-0.3l0.9,0.5l-1.2,2.1l0.3,0.2l0.9-0.4l-0.2-0.2l0.2-0.3l1.1,0.6l-0.2,0.3l-0.3-0.1l-1.1,0.4
			l0.2,1.5l0.3,0.2l-0.2,0.3l-1.1-0.6l0.2-0.3l0.3,0.1l-0.2-1.2l-0.3-0.2l-0.5,0.8l0.3,0.3l-0.2,0.3l-1.2-0.7l0.2-0.3l0.4,0.2l1.7-3
			L367.9,130.3z"/>
		<path class="st8" d="M371,136.1c-0.2,0.1-0.3,0.1-0.5,0.1c-0.2,0-0.3,0-0.5-0.1c-0.3-0.2-0.4-0.4-0.5-0.6c-0.1-0.3,0-0.6,0.2-1
			l0.7-1.1l-0.3-0.2l0.2-0.3l0.3,0.2l0.5,0.3l-0.9,1.5c-0.2,0.3-0.2,0.5-0.2,0.6c0,0.1,0.1,0.3,0.3,0.4c0.2,0.1,0.3,0.1,0.5,0.1
			c0.1,0,0.3-0.1,0.4-0.1l0.9-1.5l-0.3-0.3l0.2-0.3l0.3,0.2l0.5,0.3l-1.3,2.2l0.3,0.2l-0.2,0.3l-0.7-0.4L371,136.1z"/>
		<path class="st8" d="M375,137.3c-0.2,0.4-0.5,0.6-0.8,0.7s-0.6,0.1-0.9-0.1c-0.2-0.1-0.3-0.2-0.4-0.3c-0.1-0.1-0.1-0.3-0.1-0.5
			l-0.2,0.3l-0.4-0.2l1.9-3.3l-0.3-0.3l0.2-0.3l0.9,0.5l-0.8,1.4c0.1-0.1,0.3-0.1,0.5-0.1s0.3,0.1,0.5,0.2c0.3,0.2,0.5,0.5,0.5,0.8
			S375.2,136.8,375,137.3L375,137.3z M374.5,136.9c0.2-0.3,0.3-0.6,0.3-0.8c0-0.2-0.1-0.4-0.3-0.6c-0.1-0.1-0.3-0.1-0.4-0.1
			c-0.1,0-0.3,0.1-0.4,0.1l-0.7,1.1c0,0.2,0,0.3,0.1,0.4c0.1,0.1,0.2,0.2,0.3,0.3c0.2,0.1,0.4,0.1,0.6,0
			C374.2,137.4,374.3,137.2,374.5,136.9L374.5,136.9z"/>
		<path class="st8" d="M375.9,139.4c-0.4-0.2-0.6-0.5-0.6-0.8c-0.1-0.4,0-0.7,0.2-1.1l0.1-0.1c0.2-0.4,0.5-0.6,0.9-0.7
			c0.4-0.1,0.7-0.1,1,0.1c0.3,0.2,0.5,0.5,0.6,0.8c0.1,0.3,0,0.6-0.2,1l-0.2,0.3l-1.7-1l0,0c-0.1,0.2-0.2,0.5-0.2,0.7
			c0,0.2,0.2,0.4,0.4,0.5c0.2,0.1,0.3,0.1,0.5,0.2c0.1,0,0.3,0,0.4,0l0,0.4c-0.1,0-0.3,0-0.5,0C376.3,139.6,376.1,139.6,375.9,139.4
			z M377.1,137.1c-0.2-0.1-0.3-0.1-0.5,0c-0.2,0.1-0.3,0.2-0.5,0.4l0,0l1.2,0.7l0-0.1c0.1-0.2,0.1-0.4,0.1-0.5
			C377.4,137.4,377.3,137.2,377.1,137.1z"/>
		<path class="st8" d="M379.2,136.8l0.2-0.3l0.9,0.5l-1.9,3.3l0.3,0.3l-0.2,0.3l-1.2-0.7l0.2-0.3l0.4,0.2l1.7-3L379.2,136.8z"/>
		<path class="st8" d="M380,141.8c-0.4-0.2-0.6-0.5-0.6-0.8c-0.1-0.4,0-0.7,0.2-1.1l0.1-0.1c0.2-0.4,0.5-0.6,0.9-0.7
			c0.4-0.1,0.7-0.1,1,0.1c0.3,0.2,0.5,0.5,0.6,0.8c0.1,0.3,0,0.6-0.2,1l-0.2,0.3l-1.7-1l0,0c-0.1,0.2-0.2,0.5-0.2,0.7
			c0,0.2,0.2,0.4,0.4,0.5c0.2,0.1,0.3,0.1,0.5,0.2c0.1,0,0.3,0,0.4,0l0,0.4c-0.1,0-0.3,0-0.5,0C380.4,142,380.2,141.9,380,141.8z
			 M381.3,139.5c-0.2-0.1-0.3-0.1-0.5,0c-0.2,0.1-0.3,0.2-0.5,0.4l0,0l1.2,0.7l0-0.1c0.1-0.2,0.1-0.4,0.1-0.5
			C381.6,139.7,381.5,139.6,381.3,139.5z"/>
		<path class="st8" d="M384.1,139.9l-0.4,0.6l0.5,0.3l-0.2,0.3l-0.5-0.3l-0.9,1.6c-0.1,0.1-0.1,0.2-0.1,0.3c0,0.1,0.1,0.1,0.2,0.2
			c0,0,0.1,0,0.1,0.1c0.1,0,0.1,0,0.1,0.1l-0.1,0.4c-0.1,0-0.1,0-0.2,0c-0.1,0-0.2-0.1-0.3-0.1c-0.2-0.1-0.3-0.3-0.4-0.4
			c0-0.2,0-0.4,0.1-0.6l0.9-1.6l-0.4-0.2l0.2-0.3l0.4,0.2l0.4-0.6L384.1,139.9z"/>
	</g>
	<polygon class="st16" points="321,296.4 285.4,275.9 285.4,234.7 321,214.1 356.6,234.7 356.6,275.9 	"/>
	<polygon class="st13" points="303.2,224.4 321,214.1 356.6,234.7 356.6,255.3 	"/>
	<polygon class="st7" points="337.4,226.9 331.3,237.4 353.8,250.4 353.8,236.3 	"/>
	<g>
		<path class="st8" d="M338.2,232.3c0.5,0.3,0.7,0.6,0.8,1c0.1,0.4,0,0.9-0.2,1.3l-0.3,0.5c-0.3,0.4-0.6,0.7-1,0.8
			c-0.4,0.1-0.9,0-1.3-0.2l-1.4-0.8l0.2-0.3l0.4,0.2l1.6-2.7l-0.3-0.3l0.2-0.3l0.4,0.2L338.2,232.3z M337.3,232.3l-1.6,2.7l0.6,0.3
			c0.3,0.2,0.6,0.2,0.9,0.1c0.3-0.1,0.6-0.3,0.7-0.6l0.3-0.5c0.2-0.3,0.3-0.6,0.2-1c-0.1-0.3-0.3-0.6-0.6-0.8L337.3,232.3z"/>
		<path class="st8" d="M338.9,235.6c0.2-0.4,0.5-0.6,0.8-0.8c0.3-0.1,0.7-0.1,1,0.1c0.4,0.2,0.6,0.5,0.6,0.9c0.1,0.4,0,0.7-0.2,1.1
			l0,0.1c-0.2,0.4-0.5,0.6-0.8,0.8c-0.3,0.1-0.7,0.1-1-0.1c-0.4-0.2-0.6-0.5-0.6-0.9C338.5,236.4,338.6,236,338.9,235.6L338.9,235.6
			z M339.3,235.9c-0.2,0.3-0.2,0.5-0.2,0.8c0,0.2,0.1,0.4,0.4,0.6c0.2,0.1,0.4,0.1,0.7,0c0.2-0.1,0.4-0.3,0.6-0.6l0-0.1
			c0.2-0.3,0.2-0.5,0.2-0.8c0-0.2-0.1-0.4-0.4-0.6c-0.2-0.1-0.4-0.1-0.7,0C339.7,235.4,339.5,235.6,339.3,235.9L339.3,235.9z"/>
		<path class="st8" d="M342.2,238.8c0.2,0.1,0.3,0.1,0.5,0.1c0.2,0,0.3-0.1,0.4-0.2l0.4,0.2l0,0c-0.1,0.2-0.3,0.4-0.6,0.4
			c-0.3,0.1-0.6,0-0.9-0.2c-0.4-0.2-0.6-0.5-0.6-0.9c-0.1-0.4,0-0.7,0.2-1.1l0.1-0.1c0.2-0.4,0.5-0.6,0.8-0.7
			c0.3-0.1,0.7-0.1,1.1,0.1c0.2,0.1,0.4,0.3,0.5,0.4s0.2,0.3,0.2,0.5l-0.3,0.6l-0.4-0.2l0.1-0.5c0-0.1-0.1-0.2-0.1-0.3
			c-0.1-0.1-0.2-0.2-0.3-0.2c-0.2-0.1-0.5-0.2-0.7,0c-0.2,0.1-0.4,0.3-0.5,0.6l-0.1,0.1c-0.2,0.3-0.2,0.5-0.2,0.7
			C341.8,238.5,341.9,238.7,342.2,238.8z"/>
		<path class="st8" d="M345.3,236.5l0.2-0.3l0.9,0.5l-1.2,2.1l0.3,0.2l0.9-0.4l-0.2-0.2l0.2-0.3l1.1,0.6l-0.2,0.3l-0.3-0.1l-1.1,0.4
			l0.2,1.5l0.3,0.2l-0.2,0.3l-1.1-0.6l0.2-0.3l0.3,0.1l-0.2-1.2l-0.3-0.2l-0.5,0.8l0.3,0.3l-0.2,0.3l-1.2-0.7l0.2-0.3l0.4,0.2l1.7-3
			L345.3,236.5z"/>
		<path class="st8" d="M347.5,242.4c-0.4-0.2-0.6-0.5-0.6-0.8c-0.1-0.4,0-0.7,0.2-1.1l0.1-0.1c0.2-0.4,0.5-0.6,0.9-0.7
			c0.4-0.1,0.7-0.1,1,0.1c0.3,0.2,0.5,0.5,0.6,0.8c0.1,0.3,0,0.6-0.2,1l-0.2,0.3l-1.7-1l0,0c-0.1,0.2-0.2,0.5-0.2,0.7
			c0,0.2,0.2,0.4,0.4,0.5c0.2,0.1,0.3,0.1,0.5,0.2s0.3,0,0.4,0l0,0.4c-0.1,0-0.3,0-0.5,0C347.9,242.6,347.7,242.5,347.5,242.4z
			 M348.7,240c-0.2-0.1-0.3-0.1-0.5,0c-0.2,0.1-0.4,0.2-0.5,0.4l0,0l1.2,0.7l0-0.1c0.1-0.2,0.1-0.4,0.1-0.5
			C349.1,240.3,348.9,240.1,348.7,240z"/>
		<path class="st8" d="M350.3,240.9l0.2-0.3l0.8,0.5l-0.2,0.4c0.1-0.1,0.3-0.1,0.4-0.2c0.2,0,0.3,0,0.4,0.1c0,0,0.1,0,0.1,0.1
			c0,0,0.1,0.1,0.1,0.1l-0.3,0.4l-0.3-0.2c-0.1-0.1-0.2-0.1-0.4-0.1c-0.1,0-0.2,0.1-0.3,0.1l-0.8,1.5l0.3,0.3l-0.2,0.3l-1.2-0.7
			l0.2-0.3l0.4,0.2l1.1-1.8L350.3,240.9z"/>
	</g>
	<g>
		<path class="st8" d="M316.7,220l0.2-0.3l0.9,0.5l-1.2,2.1l0.3,0.2l0.9-0.4l-0.2-0.2l0.2-0.3l1.1,0.6l-0.2,0.3l-0.3-0.1l-1.1,0.4
			l0.2,1.5l0.3,0.2l-0.2,0.3l-1.1-0.6l0.2-0.3l0.3,0.1l-0.2-1.2l-0.3-0.2l-0.5,0.8l0.3,0.3l-0.2,0.3l-1.2-0.7l0.2-0.3l0.4,0.2l1.7-3
			L316.7,220z"/>
		<path class="st8" d="M319.8,225.8c-0.2,0.1-0.3,0.1-0.5,0.1s-0.3,0-0.5-0.1c-0.3-0.2-0.4-0.4-0.5-0.6s0-0.6,0.2-1l0.7-1.1
			l-0.3-0.2l0.2-0.3l0.3,0.2l0.5,0.3l-0.9,1.5c-0.2,0.3-0.2,0.5-0.2,0.6s0.1,0.3,0.3,0.4c0.2,0.1,0.3,0.1,0.5,0.1
			c0.1,0,0.3-0.1,0.4-0.1l0.9-1.5l-0.3-0.3l0.2-0.3l0.3,0.2l0.5,0.3l-1.3,2.2l0.3,0.2l-0.2,0.3l-0.7-0.4L319.8,225.8z"/>
		<path class="st8" d="M323.7,227c-0.2,0.4-0.5,0.6-0.8,0.7c-0.3,0.1-0.6,0.1-0.9-0.1c-0.2-0.1-0.3-0.2-0.4-0.3
			c-0.1-0.1-0.1-0.3-0.1-0.5l-0.2,0.3l-0.4-0.2l1.9-3.3l-0.3-0.3l0.2-0.3l0.9,0.5l-0.8,1.4c0.1-0.1,0.3-0.1,0.5-0.1
			c0.2,0,0.3,0.1,0.5,0.2c0.3,0.2,0.5,0.5,0.5,0.8C324.1,226.1,324,226.5,323.7,227L323.7,227z M323.2,226.6
			c0.2-0.3,0.3-0.6,0.3-0.8c0-0.2-0.1-0.4-0.3-0.6c-0.1-0.1-0.3-0.1-0.4-0.1c-0.1,0-0.3,0.1-0.4,0.1l-0.7,1.1c0,0.2,0,0.3,0.1,0.4
			s0.2,0.2,0.3,0.3c0.2,0.1,0.4,0.1,0.6,0C322.9,227.1,323.1,227,323.2,226.6L323.2,226.6z"/>
		<path class="st8" d="M324.6,229.1c-0.4-0.2-0.6-0.5-0.6-0.8c-0.1-0.4,0-0.7,0.2-1.1l0.1-0.1c0.2-0.4,0.5-0.6,0.9-0.7
			c0.4-0.1,0.7-0.1,1,0.1c0.3,0.2,0.5,0.5,0.6,0.8s0,0.6-0.2,1l-0.2,0.3l-1.7-1l0,0c-0.1,0.2-0.2,0.5-0.2,0.7s0.2,0.4,0.4,0.5
			c0.2,0.1,0.3,0.1,0.5,0.2c0.1,0,0.3,0,0.4,0l0,0.4c-0.1,0-0.3,0-0.5,0C325,229.3,324.8,229.3,324.6,229.1z M325.9,226.8
			c-0.2-0.1-0.3-0.1-0.5,0c-0.2,0.1-0.4,0.2-0.5,0.4l0,0l1.2,0.7l0-0.1c0.1-0.2,0.1-0.4,0.1-0.5
			C326.2,227.1,326.1,226.9,325.9,226.8z"/>
		<path class="st8" d="M328,226.5l0.2-0.3l0.9,0.5l-1.9,3.3l0.3,0.3l-0.2,0.3l-1.2-0.7l0.2-0.3l0.4,0.2l1.7-3L328,226.5z"/>
		<path class="st8" d="M328.7,231.5c-0.4-0.2-0.6-0.5-0.6-0.8c-0.1-0.4,0-0.7,0.2-1.1l0.1-0.1c0.2-0.4,0.5-0.6,0.9-0.7
			c0.4-0.1,0.7-0.1,1,0.1c0.3,0.2,0.5,0.5,0.6,0.8s0,0.6-0.2,1l-0.2,0.3l-1.7-1l0,0c-0.1,0.2-0.2,0.5-0.2,0.7s0.2,0.4,0.4,0.5
			c0.2,0.1,0.3,0.1,0.5,0.2c0.1,0,0.3,0,0.4,0l0,0.4c-0.1,0-0.3,0-0.5,0C329.2,231.7,329,231.7,328.7,231.5z M330,229.2
			c-0.2-0.1-0.3-0.1-0.5,0c-0.2,0.1-0.4,0.2-0.5,0.4l0,0l1.2,0.7l0-0.1c0.1-0.2,0.1-0.4,0.1-0.5C330.3,229.5,330.2,229.3,330,229.2z
			"/>
		<path class="st8" d="M332.9,229.6l-0.4,0.6l0.5,0.3l-0.2,0.3l-0.5-0.3l-0.9,1.6c-0.1,0.1-0.1,0.2-0.1,0.3c0,0.1,0.1,0.1,0.2,0.2
			c0,0,0.1,0,0.1,0.1c0.1,0,0.1,0,0.1,0.1l-0.1,0.4c-0.1,0-0.1,0-0.2,0c-0.1,0-0.2-0.1-0.3-0.1c-0.2-0.1-0.3-0.3-0.4-0.4
			c0-0.2,0-0.4,0.1-0.6l0.9-1.6l-0.4-0.2l0.2-0.3l0.4,0.2l0.4-0.6L332.9,229.6z"/>
	</g>
</g>
<g id="service">
</g>
<g id="pods">
</g>
<g id="IP">
</g>
<g id="deployments">
</g>
<g id="containers_x2F_volumes">
</g>
<g id="labels_x2F_selectors">
</g>
<g id="description">
	<g>
		<path class="st42" d="M548.3,188.6L548.3,188.6l-2.8,6.8h-0.8l-2.8-6.8l0,0l0.1,3.5v2.5l1,0.2v0.7H540v-0.7l1-0.2v-6.7l-1-0.2
			v-0.7h1h1.5l2.7,6.9h0l2.7-6.9h2.4v0.7l-1,0.2v6.7l1,0.2v0.7h-3.1v-0.7l1-0.2V192L548.3,188.6z"/>
		<path class="st42" d="M555.4,195.4c0-0.2-0.1-0.3-0.1-0.5s0-0.3,0-0.4c-0.2,0.3-0.5,0.5-0.8,0.7s-0.7,0.3-1.1,0.3
			c-0.7,0-1.2-0.2-1.5-0.5s-0.5-0.8-0.5-1.4c0-0.6,0.2-1.1,0.7-1.4s1.2-0.5,2-0.5h1.2v-0.7c0-0.4-0.1-0.7-0.4-0.9s-0.6-0.3-1-0.3
			c-0.3,0-0.5,0-0.8,0.1s-0.4,0.2-0.5,0.3l-0.1,0.7h-0.9v-1.2c0.3-0.2,0.6-0.4,1-0.6s0.9-0.2,1.3-0.2c0.7,0,1.3,0.2,1.7,0.6
			s0.7,0.9,0.7,1.6v3.1c0,0.1,0,0.2,0,0.2s0,0.2,0,0.2l0.5,0.1v0.7H555.4z M553.6,194.6c0.4,0,0.7-0.1,1-0.3s0.5-0.4,0.7-0.7v-1
			h-1.2c-0.5,0-0.8,0.1-1.1,0.3s-0.4,0.5-0.4,0.8c0,0.3,0.1,0.5,0.3,0.6S553.2,194.6,553.6,194.6z"/>
		<path class="st42" d="M562.7,191.1h-0.9l-0.2-0.8c-0.1-0.1-0.3-0.2-0.5-0.3s-0.5-0.1-0.7-0.1c-0.4,0-0.7,0.1-0.9,0.3
			s-0.3,0.4-0.3,0.7c0,0.2,0.1,0.4,0.3,0.6s0.5,0.3,1.1,0.4c0.8,0.2,1.4,0.4,1.8,0.7s0.6,0.7,0.6,1.2c0,0.6-0.2,1-0.7,1.4
			s-1,0.5-1.8,0.5c-0.5,0-0.9-0.1-1.3-0.2s-0.7-0.3-1-0.5l0-1.4h0.9l0.2,0.8c0.1,0.1,0.3,0.2,0.5,0.3s0.5,0.1,0.7,0.1
			c0.4,0,0.7-0.1,1-0.2s0.3-0.4,0.3-0.7c0-0.3-0.1-0.5-0.3-0.6s-0.6-0.3-1.1-0.4c-0.8-0.2-1.3-0.4-1.7-0.7s-0.6-0.7-0.6-1.2
			c0-0.5,0.2-1,0.7-1.3s1-0.5,1.7-0.5c0.5,0,0.9,0.1,1.3,0.2s0.7,0.3,1,0.5L562.7,191.1z"/>
		<path class="st42" d="M566,187.5v1.5h1.2v0.9H566v3.8c0,0.3,0.1,0.5,0.2,0.6s0.3,0.2,0.5,0.2c0.1,0,0.2,0,0.3,0s0.2,0,0.3-0.1
			l0.2,0.8c-0.1,0.1-0.3,0.1-0.5,0.2s-0.4,0.1-0.6,0.1c-0.5,0-0.8-0.1-1.1-0.4s-0.4-0.7-0.4-1.3v-3.8h-1v-0.9h1v-1.5H566z"/>
		<path class="st42" d="M571.3,195.5c-0.9,0-1.6-0.3-2.1-0.9s-0.8-1.4-0.8-2.3v-0.3c0-0.9,0.3-1.7,0.8-2.3s1.2-0.9,1.9-0.9
			c0.9,0,1.5,0.3,1.9,0.8s0.7,1.2,0.7,2.1v0.7h-4.1l0,0c0,0.6,0.2,1.1,0.5,1.5s0.7,0.6,1.2,0.6c0.4,0,0.7-0.1,1-0.2s0.5-0.3,0.8-0.5
			l0.5,0.8c-0.2,0.2-0.5,0.4-0.9,0.6S571.8,195.5,571.3,195.5z M571.1,189.9c-0.4,0-0.7,0.2-1,0.5s-0.4,0.7-0.5,1.2l0,0h2.9v-0.2
			c0-0.5-0.1-0.8-0.4-1.1S571.6,189.9,571.1,189.9z"/>
		<path class="st42" d="M574.9,189.8v-0.7h2l0.1,0.9c0.2-0.3,0.4-0.6,0.7-0.8s0.6-0.3,0.9-0.3c0.1,0,0.2,0,0.3,0s0.2,0,0.2,0
			l-0.2,1.1l-0.7,0c-0.3,0-0.6,0.1-0.8,0.2s-0.4,0.3-0.5,0.6v3.6l1,0.2v0.7h-3.1v-0.7l1-0.2V190L574.9,189.8z"/>
	</g>
	<g>
		<path class="st42" d="M539.9,230.1l1-0.2v-4.5l-1-0.2v-0.7h2l0.1,0.9c0.2-0.3,0.5-0.6,0.8-0.8s0.7-0.3,1.1-0.3
			c0.7,0,1.2,0.2,1.6,0.6s0.6,1,0.6,1.9v3.1l1,0.2v0.7h-3.1v-0.7l1-0.2v-3.1c0-0.6-0.1-1-0.3-1.2s-0.6-0.4-1-0.4
			c-0.3,0-0.6,0.1-0.9,0.2s-0.5,0.4-0.6,0.7v3.7l1,0.2v0.7h-3.1V230.1z"/>
		<path class="st42" d="M547.8,227.6c0-0.9,0.3-1.7,0.8-2.3s1.2-0.9,2.1-0.9c0.9,0,1.6,0.3,2.1,0.9s0.8,1.4,0.8,2.3v0.1
			c0,0.9-0.3,1.7-0.8,2.3s-1.2,0.9-2.1,0.9c-0.9,0-1.6-0.3-2.1-0.9s-0.8-1.4-0.8-2.3V227.6z M548.9,227.7c0,0.7,0.1,1.2,0.4,1.7
			s0.7,0.7,1.3,0.7c0.5,0,1-0.2,1.2-0.7s0.4-1,0.4-1.7v-0.1c0-0.7-0.1-1.2-0.4-1.7s-0.7-0.7-1.3-0.7s-1,0.2-1.3,0.7s-0.4,1-0.4,1.7
			V227.7z"/>
		<path class="st42" d="M558.8,230c-0.2,0.3-0.5,0.5-0.8,0.7s-0.6,0.2-1,0.2c-0.8,0-1.4-0.3-1.8-0.8s-0.7-1.3-0.7-2.2v-0.1
			c0-1,0.2-1.8,0.7-2.5s1-0.9,1.8-0.9c0.4,0,0.7,0.1,1,0.2s0.5,0.3,0.7,0.6v-2.6l-1-0.2v-0.7h1h1.2v8.2l1,0.2v0.7h-2L558.8,230z
			 M555.7,227.9c0,0.6,0.1,1.1,0.4,1.5s0.7,0.6,1.2,0.6c0.3,0,0.6-0.1,0.9-0.2s0.4-0.4,0.6-0.7v-2.9c-0.1-0.3-0.3-0.5-0.6-0.6
			s-0.5-0.2-0.9-0.2c-0.6,0-1,0.2-1.2,0.7s-0.4,1.1-0.4,1.8V227.9z"/>
		<path class="st42" d="M564.6,230.9c-0.9,0-1.6-0.3-2.1-0.9s-0.8-1.4-0.8-2.3v-0.3c0-0.9,0.3-1.7,0.8-2.3s1.2-0.9,1.9-0.9
			c0.9,0,1.5,0.3,1.9,0.8s0.7,1.2,0.7,2.1v0.7h-4.1l0,0c0,0.6,0.2,1.1,0.5,1.5s0.7,0.6,1.2,0.6c0.4,0,0.7-0.1,1-0.2s0.5-0.3,0.8-0.5
			l0.5,0.8c-0.2,0.2-0.5,0.4-0.9,0.6S565.1,230.9,564.6,230.9z M564.4,225.3c-0.4,0-0.7,0.2-1,0.5s-0.4,0.7-0.5,1.2l0,0h2.9v-0.2
			c0-0.5-0.1-0.8-0.4-1.1S564.9,225.3,564.4,225.3z"/>
		<path class="st42" d="M571,232.5l1-0.2v-7l-1-0.2v-0.7h1.9l0.1,0.8c0.2-0.3,0.5-0.5,0.8-0.7s0.7-0.2,1.1-0.2
			c0.8,0,1.4,0.3,1.8,0.9s0.7,1.4,0.7,2.5v0.1c0,0.9-0.2,1.7-0.7,2.2s-1,0.8-1.8,0.8c-0.4,0-0.7-0.1-1-0.2s-0.5-0.3-0.8-0.6v2.2
			l1,0.2v0.7H571V232.5z M576.2,227.7c0-0.7-0.1-1.3-0.4-1.8s-0.7-0.7-1.3-0.7c-0.3,0-0.6,0.1-0.8,0.2s-0.4,0.4-0.6,0.6v3.1
			c0.1,0.3,0.3,0.5,0.6,0.6s0.5,0.2,0.9,0.2c0.5,0,1-0.2,1.2-0.6s0.4-0.9,0.4-1.6V227.7z"/>
		<path class="st42" d="M578.4,225.2v-0.7h2l0.1,0.9c0.2-0.3,0.4-0.6,0.7-0.8s0.6-0.3,0.9-0.3c0.1,0,0.2,0,0.3,0s0.2,0,0.2,0
			l-0.2,1.1l-0.7,0c-0.3,0-0.6,0.1-0.8,0.2s-0.4,0.3-0.5,0.6v3.6l1,0.2v0.7h-3.1v-0.7l1-0.2v-4.5L578.4,225.2z"/>
		<path class="st42" d="M583.3,227.6c0-0.9,0.3-1.7,0.8-2.3s1.2-0.9,2.1-0.9c0.9,0,1.6,0.3,2.1,0.9s0.8,1.4,0.8,2.3v0.1
			c0,0.9-0.3,1.7-0.8,2.3s-1.2,0.9-2.1,0.9c-0.9,0-1.6-0.3-2.1-0.9s-0.8-1.4-0.8-2.3V227.6z M584.4,227.7c0,0.7,0.1,1.2,0.4,1.7
			s0.7,0.7,1.3,0.7c0.5,0,1-0.2,1.2-0.7s0.4-1,0.4-1.7v-0.1c0-0.7-0.1-1.2-0.4-1.7s-0.7-0.7-1.3-0.7s-1,0.2-1.3,0.7s-0.4,1-0.4,1.7
			V227.7z"/>
		<path class="st42" d="M592.8,230c0.4,0,0.7-0.1,1-0.4s0.4-0.5,0.4-0.9h1l0,0c0,0.5-0.2,1-0.7,1.5s-1.1,0.6-1.8,0.6
			c-0.9,0-1.6-0.3-2.1-0.9s-0.7-1.4-0.7-2.3v-0.2c0-0.9,0.2-1.7,0.7-2.3s1.2-0.9,2.1-0.9c0.5,0,1,0.1,1.4,0.3s0.7,0.4,1,0.7l0.1,1.4
			h-0.9l-0.3-1c-0.1-0.1-0.3-0.2-0.5-0.3s-0.5-0.1-0.7-0.1c-0.6,0-1,0.2-1.3,0.7s-0.4,1-0.4,1.6v0.2c0,0.6,0.1,1.2,0.4,1.6
			S592.2,230,592.8,230z"/>
		<path class="st42" d="M599.4,230.9c-0.9,0-1.6-0.3-2.1-0.9s-0.8-1.4-0.8-2.3v-0.3c0-0.9,0.3-1.7,0.8-2.3s1.2-0.9,1.9-0.9
			c0.9,0,1.5,0.3,1.9,0.8s0.7,1.2,0.7,2.1v0.7h-4.1l0,0c0,0.6,0.2,1.1,0.5,1.5s0.7,0.6,1.2,0.6c0.4,0,0.7-0.1,1-0.2s0.5-0.3,0.8-0.5
			l0.5,0.8c-0.2,0.2-0.5,0.4-0.9,0.6S599.9,230.9,599.4,230.9z M599.2,225.3c-0.4,0-0.7,0.2-1,0.5s-0.4,0.7-0.5,1.2l0,0h2.9v-0.2
			c0-0.5-0.1-0.8-0.4-1.1S599.7,225.3,599.2,225.3z"/>
		<path class="st42" d="M607.8,226.5h-0.9l-0.2-0.8c-0.1-0.1-0.3-0.2-0.5-0.3s-0.5-0.1-0.7-0.1c-0.4,0-0.7,0.1-0.9,0.3
			s-0.3,0.4-0.3,0.7c0,0.2,0.1,0.4,0.3,0.6s0.5,0.3,1.1,0.4c0.8,0.2,1.4,0.4,1.8,0.7s0.6,0.7,0.6,1.2c0,0.6-0.2,1-0.7,1.4
			s-1,0.5-1.8,0.5c-0.5,0-0.9-0.1-1.3-0.2s-0.7-0.3-1-0.5l0-1.4h0.9l0.2,0.8c0.1,0.1,0.3,0.2,0.5,0.3s0.5,0.1,0.7,0.1
			c0.4,0,0.7-0.1,1-0.2s0.3-0.4,0.3-0.7c0-0.3-0.1-0.5-0.3-0.6s-0.6-0.3-1.1-0.4c-0.8-0.2-1.3-0.4-1.7-0.7s-0.6-0.7-0.6-1.2
			c0-0.5,0.2-1,0.7-1.3s1-0.5,1.7-0.5c0.5,0,0.9,0.1,1.3,0.2s0.7,0.3,1,0.5L607.8,226.5z"/>
		<path class="st42" d="M613.9,226.5H613l-0.2-0.8c-0.1-0.1-0.3-0.2-0.5-0.3s-0.5-0.1-0.7-0.1c-0.4,0-0.7,0.1-0.9,0.3
			s-0.3,0.4-0.3,0.7c0,0.2,0.1,0.4,0.3,0.6s0.5,0.3,1.1,0.4c0.8,0.2,1.4,0.4,1.8,0.7s0.6,0.7,0.6,1.2c0,0.6-0.2,1-0.7,1.4
			s-1,0.5-1.8,0.5c-0.5,0-0.9-0.1-1.3-0.2s-0.7-0.3-1-0.5l0-1.4h0.9l0.2,0.8c0.1,0.1,0.3,0.2,0.5,0.3s0.5,0.1,0.7,0.1
			c0.4,0,0.7-0.1,1-0.2s0.3-0.4,0.3-0.7c0-0.3-0.1-0.5-0.3-0.6s-0.6-0.3-1.1-0.4c-0.8-0.2-1.3-0.4-1.7-0.7s-0.6-0.7-0.6-1.2
			c0-0.5,0.2-1,0.7-1.3s1-0.5,1.7-0.5c0.5,0,0.9,0.1,1.3,0.2s0.7,0.3,1,0.5L613.9,226.5z"/>
		<path class="st42" d="M618,230.9c-0.9,0-1.6-0.3-2.1-0.9s-0.8-1.4-0.8-2.3v-0.3c0-0.9,0.3-1.7,0.8-2.3s1.2-0.9,1.9-0.9
			c0.9,0,1.5,0.3,1.9,0.8s0.7,1.2,0.7,2.1v0.7h-4.1l0,0c0,0.6,0.2,1.1,0.5,1.5s0.7,0.6,1.2,0.6c0.4,0,0.7-0.1,1-0.2s0.5-0.3,0.8-0.5
			l0.5,0.8c-0.2,0.2-0.5,0.4-0.9,0.6S618.6,230.9,618,230.9z M617.9,225.3c-0.4,0-0.7,0.2-1,0.5s-0.4,0.7-0.5,1.2l0,0h2.9v-0.2
			c0-0.5-0.1-0.8-0.4-1.1S618.3,225.3,617.9,225.3z"/>
		<path class="st42" d="M626.4,226.5h-0.9l-0.2-0.8c-0.1-0.1-0.3-0.2-0.5-0.3s-0.5-0.1-0.7-0.1c-0.4,0-0.7,0.1-0.9,0.3
			s-0.3,0.4-0.3,0.7c0,0.2,0.1,0.4,0.3,0.6s0.5,0.3,1.1,0.4c0.8,0.2,1.4,0.4,1.8,0.7s0.6,0.7,0.6,1.2c0,0.6-0.2,1-0.7,1.4
			s-1,0.5-1.8,0.5c-0.5,0-0.9-0.1-1.3-0.2s-0.7-0.3-1-0.5l0-1.4h0.9l0.2,0.8c0.1,0.1,0.3,0.2,0.5,0.3s0.5,0.1,0.7,0.1
			c0.4,0,0.7-0.1,1-0.2s0.3-0.4,0.3-0.7c0-0.3-0.1-0.5-0.3-0.6s-0.6-0.3-1.1-0.4c-0.8-0.2-1.3-0.4-1.7-0.7s-0.6-0.7-0.6-1.2
			c0-0.5,0.2-1,0.7-1.3s1-0.5,1.7-0.5c0.5,0,0.9,0.1,1.3,0.2s0.7,0.3,1,0.5L626.4,226.5z"/>
	</g>
	<g>
		<path class="st42" d="M548.4,111.8v0.7l-1,0.2v7.6h-1.2l-4.1-6.6l0,0v5.7l1,0.2v0.7H540v-0.7l1-0.2v-6.7l-1-0.2v-0.7h1h1.2
			l4.1,6.6l0,0v-5.7l-1-0.2v-0.7h2.1H548.4z"/>
		<path class="st42" d="M549.3,117.1c0-0.9,0.3-1.7,0.8-2.3s1.2-0.9,2.1-0.9c0.9,0,1.6,0.3,2.1,0.9s0.8,1.4,0.8,2.3v0.1
			c0,0.9-0.3,1.7-0.8,2.3s-1.2,0.9-2.1,0.9c-0.9,0-1.6-0.3-2.1-0.9s-0.8-1.4-0.8-2.3V117.1z M550.4,117.2c0,0.7,0.1,1.2,0.4,1.7
			s0.7,0.7,1.3,0.7c0.5,0,1-0.2,1.2-0.7s0.4-1,0.4-1.7v-0.1c0-0.7-0.1-1.2-0.4-1.7s-0.7-0.7-1.3-0.7s-1,0.2-1.3,0.7s-0.4,1-0.4,1.7
			V117.2z"/>
		<path class="st42" d="M560.3,119.5c-0.2,0.3-0.5,0.5-0.8,0.7s-0.6,0.2-1,0.2c-0.8,0-1.4-0.3-1.8-0.8s-0.7-1.3-0.7-2.2v-0.1
			c0-1,0.2-1.8,0.7-2.5s1-0.9,1.8-0.9c0.4,0,0.7,0.1,1,0.2s0.5,0.3,0.7,0.6v-2.6l-1-0.2v-0.7h1h1.2v8.2l1,0.2v0.7h-2L560.3,119.5z
			 M557.1,117.4c0,0.6,0.1,1.1,0.4,1.5s0.7,0.6,1.2,0.6c0.3,0,0.6-0.1,0.9-0.2s0.4-0.4,0.6-0.7v-2.9c-0.1-0.3-0.3-0.5-0.6-0.6
			s-0.5-0.2-0.9-0.2c-0.6,0-1,0.2-1.2,0.7s-0.4,1.1-0.4,1.8V117.4z"/>
		<path class="st42" d="M566.1,120.4c-0.9,0-1.6-0.3-2.1-0.9s-0.8-1.4-0.8-2.3V117c0-0.9,0.3-1.7,0.8-2.3s1.2-0.9,1.9-0.9
			c0.9,0,1.5,0.3,1.9,0.8s0.7,1.2,0.7,2.1v0.7h-4.1l0,0c0,0.6,0.2,1.1,0.5,1.5s0.7,0.6,1.2,0.6c0.4,0,0.7-0.1,1-0.2s0.5-0.3,0.8-0.5
			l0.5,0.8c-0.2,0.2-0.5,0.4-0.9,0.6S566.6,120.4,566.1,120.4z M565.9,114.8c-0.4,0-0.7,0.2-1,0.5s-0.4,0.7-0.5,1.2l0,0h2.9v-0.2
			c0-0.5-0.1-0.8-0.4-1.1S566.4,114.8,565.9,114.8z"/>
	</g>
	<g>
		<g>
			<path class="st42" d="M296.3,356.6l1-0.2v-6.9l-1-0.2v-1.2h4v1.2l-1,0.2v2.6h0.8l1.9-2.7l-0.6-0.1v-1.2h3.8v1.2l-1,0.2l-2.4,3.2
				l2.7,3.8l1,0.2v1.2h-3.8v-1.2l0.6-0.1l-1.9-2.8h-1.1v2.7l1,0.2v1.2h-4V356.6z"/>
			<path class="st42" d="M311,356.9c-0.2,0.3-0.5,0.6-0.9,0.8c-0.3,0.2-0.7,0.3-1.2,0.3c-0.8,0-1.4-0.2-1.8-0.7
				c-0.4-0.5-0.6-1.2-0.6-2.3v-3l-0.8-0.2v-1.2h0.8h1.9v4.3c0,0.5,0.1,0.9,0.3,1.1c0.2,0.2,0.4,0.3,0.8,0.3c0.3,0,0.6,0,0.8-0.1
				s0.4-0.2,0.5-0.4V352l-0.8-0.2v-1.2h0.8h1.9v5.8l0.9,0.2v1.2h-2.6L311,356.9z"/>
			<path class="st42" d="M321.4,354.4c0,1.1-0.2,1.9-0.7,2.6c-0.5,0.6-1.2,1-2.1,1c-0.4,0-0.8-0.1-1.1-0.3c-0.3-0.2-0.6-0.4-0.8-0.8
				l-0.1,0.9h-1.7v-9l-1-0.2v-1.2h3v3.9c0.2-0.3,0.5-0.5,0.7-0.7c0.3-0.2,0.6-0.2,1-0.2c0.9,0,1.6,0.3,2.1,1
				c0.5,0.7,0.7,1.6,0.7,2.8V354.4z M319.4,354.3c0-0.7-0.1-1.3-0.3-1.7c-0.2-0.4-0.6-0.6-1.1-0.6c-0.3,0-0.6,0.1-0.8,0.2
				c-0.2,0.1-0.4,0.3-0.5,0.5v3c0.1,0.2,0.3,0.4,0.5,0.5c0.2,0.1,0.5,0.2,0.8,0.2c0.5,0,0.8-0.2,1-0.5s0.3-0.9,0.3-1.5V354.3z"/>
			<path class="st42" d="M325.7,358c-1,0-1.9-0.3-2.5-1c-0.6-0.7-0.9-1.5-0.9-2.5v-0.3c0-1.1,0.3-1.9,0.9-2.6c0.6-0.7,1.4-1,2.4-1
				c1,0,1.7,0.3,2.3,0.9c0.5,0.6,0.8,1.4,0.8,2.4v1.1h-4.3l0,0c0,0.5,0.2,0.9,0.5,1.2c0.3,0.3,0.7,0.5,1.1,0.5c0.4,0,0.8,0,1.1-0.1
				c0.3-0.1,0.6-0.2,0.9-0.4l0.5,1.2c-0.3,0.2-0.7,0.4-1.2,0.6C326.8,357.9,326.3,358,325.7,358z M325.5,352c-0.4,0-0.6,0.1-0.8,0.4
				c-0.2,0.3-0.3,0.6-0.4,1.1l0,0h2.4v-0.2c0-0.4-0.1-0.7-0.3-1S325.9,352,325.5,352z"/>
			<path class="st42" d="M329.7,356.6l0.9-0.2V352l-1-0.2v-1.2h2.8l0.1,1c0.2-0.4,0.4-0.7,0.7-0.9c0.3-0.2,0.6-0.3,0.9-0.3
				c0.1,0,0.2,0,0.3,0c0.1,0,0.2,0,0.3,0.1l-0.2,1.8l-0.8,0c-0.3,0-0.5,0.1-0.7,0.2c-0.2,0.1-0.3,0.3-0.4,0.5v3.5l0.9,0.2v1.2h-3.8
				V356.6z"/>
			<path class="st42" d="M335.1,356.6l0.9-0.2V352l-1-0.2v-1.2h2.8l0.1,1c0.2-0.4,0.5-0.7,0.9-0.9s0.7-0.3,1.2-0.3
				c0.7,0,1.3,0.2,1.7,0.7s0.6,1.2,0.6,2.1v3.1l0.9,0.2v1.2h-3.7v-1.2l0.8-0.2v-3.1c0-0.5-0.1-0.8-0.3-1c-0.2-0.2-0.5-0.3-0.9-0.3
				c-0.3,0-0.5,0.1-0.7,0.2c-0.2,0.1-0.4,0.3-0.5,0.4v3.9l0.8,0.2v1.2h-3.7V356.6z"/>
			<path class="st42" d="M347.2,358c-1,0-1.9-0.3-2.5-1c-0.6-0.7-0.9-1.5-0.9-2.5v-0.3c0-1.1,0.3-1.9,0.9-2.6c0.6-0.7,1.4-1,2.4-1
				c1,0,1.7,0.3,2.3,0.9c0.5,0.6,0.8,1.4,0.8,2.4v1.1h-4.3l0,0c0,0.5,0.2,0.9,0.5,1.2c0.3,0.3,0.7,0.5,1.1,0.5c0.4,0,0.8,0,1.1-0.1
				c0.3-0.1,0.6-0.2,0.9-0.4l0.5,1.2c-0.3,0.2-0.7,0.4-1.2,0.6C348.4,357.9,347.8,358,347.2,358z M347.1,352c-0.4,0-0.6,0.1-0.8,0.4
				c-0.2,0.3-0.3,0.6-0.4,1.1l0,0h2.4v-0.2c0-0.4-0.1-0.7-0.3-1S347.5,352,347.1,352z"/>
			<path class="st42" d="M353.9,348.9v1.8h1.3v1.4h-1.3v3.7c0,0.3,0.1,0.5,0.2,0.6c0.1,0.1,0.3,0.2,0.5,0.2c0.1,0,0.2,0,0.3,0
				c0.1,0,0.2,0,0.3-0.1l0.2,1.4c-0.2,0.1-0.4,0.1-0.6,0.1c-0.2,0-0.4,0-0.7,0c-0.7,0-1.2-0.2-1.5-0.6c-0.4-0.4-0.5-0.9-0.5-1.7V352
				h-1.1v-1.4h1.1v-1.8H353.9z"/>
			<path class="st42" d="M359.6,358c-1,0-1.9-0.3-2.5-1c-0.6-0.7-0.9-1.5-0.9-2.5v-0.3c0-1.1,0.3-1.9,0.9-2.6c0.6-0.7,1.4-1,2.4-1
				c1,0,1.7,0.3,2.3,0.9c0.5,0.6,0.8,1.4,0.8,2.4v1.1h-4.3l0,0c0,0.5,0.2,0.9,0.5,1.2c0.3,0.3,0.7,0.5,1.1,0.5c0.4,0,0.8,0,1.1-0.1
				c0.3-0.1,0.6-0.2,0.9-0.4l0.5,1.2c-0.3,0.2-0.7,0.4-1.2,0.6C360.7,357.9,360.1,358,359.6,358z M359.4,352c-0.4,0-0.6,0.1-0.8,0.4
				c-0.2,0.3-0.3,0.6-0.4,1.1l0,0h2.4v-0.2c0-0.4-0.1-0.7-0.3-1S359.8,352,359.4,352z"/>
			<path class="st42" d="M363.5,356.6l0.9-0.2V352l-1-0.2v-1.2h2.8l0.1,1c0.2-0.4,0.4-0.7,0.7-0.9c0.3-0.2,0.6-0.3,0.9-0.3
				c0.1,0,0.2,0,0.3,0c0.1,0,0.2,0,0.3,0.1l-0.2,1.8l-0.8,0c-0.3,0-0.5,0.1-0.7,0.2c-0.2,0.1-0.3,0.3-0.4,0.5v3.5l0.9,0.2v1.2h-3.8
				V356.6z"/>
			<path class="st42" d="M375,353.1h-1.3l-0.2-0.9c-0.1-0.1-0.3-0.2-0.5-0.3c-0.2-0.1-0.4-0.1-0.7-0.1c-0.3,0-0.6,0.1-0.8,0.2
				s-0.3,0.3-0.3,0.6c0,0.2,0.1,0.4,0.3,0.5c0.2,0.1,0.6,0.3,1.1,0.4c0.9,0.2,1.5,0.4,2,0.8c0.4,0.3,0.6,0.8,0.6,1.4
				c0,0.6-0.3,1.2-0.8,1.6c-0.6,0.4-1.3,0.6-2.2,0.6c-0.6,0-1.1-0.1-1.5-0.2c-0.5-0.2-0.9-0.4-1.2-0.7l0-1.6h1.4l0.3,0.9
				c0.1,0.1,0.3,0.2,0.5,0.2s0.4,0.1,0.6,0.1c0.4,0,0.7-0.1,0.9-0.2c0.2-0.1,0.3-0.3,0.3-0.6c0-0.2-0.1-0.4-0.3-0.6
				c-0.2-0.2-0.6-0.3-1.1-0.4c-0.8-0.2-1.5-0.4-1.9-0.8c-0.4-0.3-0.6-0.8-0.6-1.4c0-0.6,0.2-1.1,0.7-1.6s1.2-0.7,2.1-0.7
				c0.6,0,1.1,0.1,1.6,0.2c0.5,0.2,0.9,0.3,1.2,0.6L375,353.1z"/>
			<path class="st42" d="M382.8,356.5c0.3,0,0.6-0.1,0.8-0.3c0.2-0.2,0.3-0.5,0.3-0.8h1.8l0,0c0,0.7-0.3,1.3-0.8,1.8
				c-0.6,0.5-1.3,0.7-2.1,0.7c-1.1,0-1.9-0.3-2.5-1s-0.9-1.5-0.9-2.6v-0.2c0-1.1,0.3-1.9,0.9-2.6s1.4-1,2.5-1c0.6,0,1.1,0.1,1.6,0.3
				c0.5,0.2,0.8,0.4,1.1,0.7l0,1.9h-1.6l-0.3-1.1c-0.1-0.1-0.2-0.2-0.4-0.2c-0.1-0.1-0.3-0.1-0.5-0.1c-0.5,0-0.9,0.2-1.2,0.6
				s-0.3,0.9-0.3,1.5v0.2c0,0.6,0.1,1.2,0.3,1.6C381.9,356.3,382.3,356.5,382.8,356.5z"/>
			<path class="st42" d="M386.4,348.6v-1.2h3v9l0.9,0.2v1.2h-3.8v-1.2l0.9-0.2v-7.6L386.4,348.6z"/>
			<path class="st42" d="M396,356.9c-0.2,0.3-0.5,0.6-0.9,0.8c-0.3,0.2-0.7,0.3-1.2,0.3c-0.8,0-1.4-0.2-1.8-0.7
				c-0.4-0.5-0.6-1.2-0.6-2.3v-3l-0.8-0.2v-1.2h0.8h1.9v4.3c0,0.5,0.1,0.9,0.3,1.1c0.2,0.2,0.4,0.3,0.8,0.3c0.3,0,0.6,0,0.8-0.1
				s0.4-0.2,0.5-0.4V352l-0.8-0.2v-1.2h0.8h1.9v5.8l0.9,0.2v1.2h-2.6L396,356.9z"/>
			<path class="st42" d="M405.3,353.1H404l-0.2-0.9c-0.1-0.1-0.3-0.2-0.5-0.3c-0.2-0.1-0.4-0.1-0.7-0.1c-0.3,0-0.6,0.1-0.8,0.2
				s-0.3,0.3-0.3,0.6c0,0.2,0.1,0.4,0.3,0.5c0.2,0.1,0.6,0.3,1.1,0.4c0.9,0.2,1.5,0.4,2,0.8c0.4,0.3,0.6,0.8,0.6,1.4
				c0,0.6-0.3,1.2-0.8,1.6c-0.6,0.4-1.3,0.6-2.2,0.6c-0.6,0-1.1-0.1-1.5-0.2c-0.5-0.2-0.9-0.4-1.2-0.7l0-1.6h1.4l0.3,0.9
				c0.1,0.1,0.3,0.2,0.5,0.2s0.4,0.1,0.6,0.1c0.4,0,0.7-0.1,0.9-0.2c0.2-0.1,0.3-0.3,0.3-0.6c0-0.2-0.1-0.4-0.3-0.6
				c-0.2-0.2-0.6-0.3-1.1-0.4c-0.8-0.2-1.5-0.4-1.9-0.8c-0.4-0.3-0.6-0.8-0.6-1.4c0-0.6,0.2-1.1,0.7-1.6s1.2-0.7,2.1-0.7
				c0.6,0,1.1,0.1,1.6,0.2c0.5,0.2,0.9,0.3,1.2,0.6L405.3,353.1z"/>
			<path class="st42" d="M409.3,348.9v1.8h1.3v1.4h-1.3v3.7c0,0.3,0.1,0.5,0.2,0.6c0.1,0.1,0.3,0.2,0.5,0.2c0.1,0,0.2,0,0.3,0
				c0.1,0,0.2,0,0.3-0.1l0.2,1.4c-0.2,0.1-0.4,0.1-0.6,0.1c-0.2,0-0.4,0-0.7,0c-0.7,0-1.2-0.2-1.5-0.6c-0.4-0.4-0.5-0.9-0.5-1.7V352
				h-1.1v-1.4h1.1v-1.8H409.3z"/>
			<path class="st42" d="M414.9,358c-1,0-1.9-0.3-2.5-1c-0.6-0.7-0.9-1.5-0.9-2.5v-0.3c0-1.1,0.3-1.9,0.9-2.6c0.6-0.7,1.4-1,2.4-1
				c1,0,1.7,0.3,2.3,0.9c0.5,0.6,0.8,1.4,0.8,2.4v1.1h-4.3l0,0c0,0.5,0.2,0.9,0.5,1.2c0.3,0.3,0.7,0.5,1.1,0.5c0.4,0,0.8,0,1.1-0.1
				c0.3-0.1,0.6-0.2,0.9-0.4l0.5,1.2c-0.3,0.2-0.7,0.4-1.2,0.6C416,357.9,415.5,358,414.9,358z M414.8,352c-0.4,0-0.6,0.1-0.8,0.4
				c-0.2,0.3-0.3,0.6-0.4,1.1l0,0h2.4v-0.2c0-0.4-0.1-0.7-0.3-1S415.1,352,414.8,352z"/>
			<path class="st42" d="M418.9,356.6l0.9-0.2V352l-1-0.2v-1.2h2.8l0.1,1c0.2-0.4,0.4-0.7,0.7-0.9c0.3-0.2,0.6-0.3,0.9-0.3
				c0.1,0,0.2,0,0.3,0c0.1,0,0.2,0,0.3,0.1l-0.2,1.8l-0.8,0c-0.3,0-0.5,0.1-0.7,0.2c-0.2,0.1-0.3,0.3-0.4,0.5v3.5l0.9,0.2v1.2h-3.8
				V356.6z"/>
		</g>
	</g>
	<line class="st62" x1="534.5" y1="191.7" x2="375.5" y2="191.7"/>
	<line class="st62" x1="534.5" y1="228.8" x2="333.9" y2="228.8"/>
	<line class="st62" x1="534.5" y1="118.3" x2="417.4" y2="118.3"/>
</g>
<g id="Layer_14">
</g>
</svg>
