<svg xmlns="http://www.w3.org/2000/svg" xmlns:xlink="http://www.w3.org/1999/xlink" viewBox="0 0 720.4 440.4"><defs><style>.cls-1{fill:#326de6;}.cls-10,.cls-18,.cls-2{fill:none;}.cls-10,.cls-2{stroke:#326de6;stroke-miterlimit:10;}.cls-2{stroke-width:2.4px;}.cls-3{fill:#a0cae9;}.cls-4{font-size:9.6px;fill:#fff;}.cls-14,.cls-4{font-family:RobotoSlab-Regular, Roboto Slab;}.cls-5{letter-spacing:-0.01em;}.cls-6,.cls-7,.cls-8,.cls-9{opacity:0.1;}.cls-6{fill:url(#linear-gradient);}.cls-7{fill:url(#linear-gradient-2);}.cls-8{fill:url(#linear-gradient-3);}.cls-9{fill:url(#linear-gradient-4);}.cls-10{stroke-width:1.2px;}.cls-11{font-size:11.2px;font-family:RobotoSlab-Light, Roboto Slab;}.cls-11,.cls-14{fill:#011f38;}.cls-12{fill:#06f7c9;}.cls-12,.cls-13,.cls-18{stroke:#011f38;stroke-linecap:round;stroke-linejoin:round;}.cls-12,.cls-13{stroke-width:0.8px;}.cls-13{fill:#8115ff;}.cls-14{font-size:12px;}.cls-15{letter-spacing:-0.01em;}.cls-16{letter-spacing:-0.01em;}.cls-17{letter-spacing:0em;}.cls-18{stroke-width:0.3px;}.cls-19{letter-spacing:-0.01em;}.cls-20{letter-spacing:-0.01em;}</style><linearGradient id="linear-gradient" x1="271.65" y1="278.88" x2="333.11" y2="278.88" gradientUnits="userSpaceOnUse"><stop offset="0" stop-color="#326de6"/><stop offset="1" stop-color="#10ffc6"/></linearGradient><linearGradient id="linear-gradient-2" x1="308.31" y1="192.47" x2="354.4" y2="192.47" xlink:href="#linear-gradient"/><linearGradient id="linear-gradient-3" x1="377.58" y1="162.7" x2="459.53" y2="162.7" xlink:href="#linear-gradient"/><linearGradient id="linear-gradient-4" x1="365.29" y1="278.44" x2="471.82" y2="278.44" xlink:href="#linear-gradient"/></defs><title>16.07.28_k8s_diagrams_all</title><g id="Node"><polygon class="cls-1" points="186.86 290.9 186.86 311.35 350.87 406.04 368.58 395.82 186.86 290.9"/><polygon class="cls-2" points="186.86 311.35 186.86 121.96 350.87 27.27 514.88 121.96 514.88 311.35 350.87 406.04 186.86 311.35"/><polygon class="cls-3" points="270.07 356.61 276.52 345.44 363.78 395.82 350.87 403.27 270.07 356.61"/><text class="cls-4" transform="matrix(0.87, 0.5, -0.5, 0.87, 298.46, 369.97)">Doc<tspan class="cls-5" x="17.21" y="0">k</tspan><tspan x="22.95" y="0">er</tspan></text><text class="cls-4" transform="matrix(0.87, 0.5, -0.5, 0.87, 215.49, 322.07)">kubelet</text></g><g id="pods"><circle class="cls-6" cx="302.38" cy="278.88" r="30.73"/><circle class="cls-7" cx="331.36" cy="192.47" r="23.05"/><circle class="cls-8" cx="418.56" cy="162.7" r="40.97"/><circle class="cls-9" cx="418.56" cy="278.44" r="53.27"/><circle class="cls-10" cx="302.38" cy="278.88" r="30.73"/><circle class="cls-10" cx="331.36" cy="192.47" r="23.05"/><circle class="cls-10" cx="418.56" cy="162.7" r="40.97"/><circle class="cls-10" cx="418.56" cy="278.44" r="53.27"/></g><g id="IP"><text class="cls-11" transform="translate(271.39 266.95) rotate(-64.94)">1</text><text class="cls-11" transform="translate(273.11 263.06) rotate(-56.06)">0</text><text class="cls-11" transform="translate(276.58 258.08) rotate(-48.88)">.</text><text class="cls-11" transform="matrix(0.73, -0.68, 0.68, 0.73, 278.09, 256.26)">1</text><text class="cls-11" transform="matrix(0.83, -0.56, 0.56, 0.83, 281.13, 253.29)">0</text><text class="cls-11" transform="translate(286.22 249.94) rotate(-27.07)">.</text><text class="cls-11" transform="translate(288.27 248.82) rotate(-21.29)">1</text><text class="cls-11" transform="translate(292.19 247.19) rotate(-12.36)">0</text><text class="cls-11" transform="translate(298.15 246) rotate(-5.09)">.</text><text class="cls-11" transform="translate(300.45 245.67) rotate(1.91)">2</text><text class="cls-11" transform="matrix(0.44, -0.9, 0.9, 0.44, 308.04, 183.57)">1</text><text class="cls-11" transform="translate(309.76 179.79) rotate(-52.25)">0</text><text class="cls-11" transform="translate(313.56 175.1) rotate(-42.79)">.</text><text class="cls-11" transform="translate(315.19 173.48) rotate(-35.27)">1</text><text class="cls-11" transform="translate(318.51 170.97) rotate(-23.66)">0</text><text class="cls-11" transform="matrix(0.97, -0.24, 0.24, 0.97, 324.07, 168.68)">.</text><text class="cls-11" transform="matrix(0.99, -0.11, 0.11, 0.99, 326.25, 168.04)">1</text><text class="cls-11" transform="matrix(1, 0.09, -0.09, 1, 330.39, 167.44)">0</text><text class="cls-11" transform="translate(336.36 168.09) rotate(14.55)">.</text><text class="cls-11" transform="translate(338.6 168.59) rotate(22.17)">1</text><text class="cls-11" transform="translate(383.95 136.49) rotate(-49.81)">1</text><text class="cls-11" transform="translate(386.69 133.15) rotate(-43)">0</text><text class="cls-11" transform="translate(391.22 129.03) rotate(-37.45)">.</text><text class="cls-11" transform="translate(393.1 127.53) rotate(-32.99)">1</text><text class="cls-11" transform="translate(396.69 125.12) rotate(-26.11)">0</text><text class="cls-11" transform="matrix(0.94, -0.35, 0.35, 0.94, 402.22, 122.51)">.</text><text class="cls-11" transform="translate(404.45 121.62) rotate(-15.98)">1</text><text class="cls-11" transform="matrix(0.99, -0.16, 0.16, 0.99, 408.57, 120.37)">0</text><text class="cls-11" transform="matrix(1, -0.06, 0.06, 1, 414.64, 119.49)">.</text><text class="cls-11" transform="matrix(1, 0.03, -0.03, 1, 417.01, 119.25)">3</text><text class="cls-11" transform="matrix(0.69, -0.72, 0.72, 0.69, 376.77, 241.64)">1</text><text class="cls-11" transform="translate(379.75 238.44) rotate(-40.91)">0</text><text class="cls-11" transform="translate(384.47 234.44) rotate(-36.53)">.</text><text class="cls-11" transform="matrix(0.84, -0.55, 0.55, 0.84, 386.39, 232.98)">1</text><text class="cls-11" transform="translate(390.02 230.55) rotate(-27.63)">0</text><text class="cls-11" transform="translate(395.54 227.74) rotate(-23.18)">.</text><text class="cls-11" transform="translate(397.74 226.76) rotate(-19.66)">1</text><text class="cls-11" transform="translate(401.84 225.24) rotate(-14.19)">0</text><text class="cls-11" transform="translate(407.84 223.79) rotate(-9.75)">.</text><text class="cls-11" transform="matrix(1, -0.09, 0.09, 1, 410.19, 223.31)">4</text></g><g id="containers_volumes" data-name="containers/volumes"><polygon class="cls-12" points="283.57 273.85 291.49 269.28 299.41 273.85 291.49 278.43 283.57 273.85"/><polygon class="cls-12" points="283.57 283 283.57 273.85 291.49 278.43 291.49 287.57 283.57 283"/><polygon class="cls-12" points="291.49 287.57 291.49 278.43 299.41 273.85 299.41 283 291.49 287.57"/><path class="cls-13" d="M321.19,282.39s0,0,0,0,0,0,0,0v-7.91H305.35v7.91s0,0,0,0,0,0,0,0v.14h0c.18,2.16,3.64,3.89,7.9,3.89s7.73-1.73,7.9-3.89h0Z"/><ellipse class="cls-13" cx="313.27" cy="274.49" rx="7.92" ry="4.06"/><polygon class="cls-12" points="323.44 187.89 331.36 183.32 339.28 187.89 331.36 192.47 323.44 187.89"/><polygon class="cls-12" points="323.44 197.04 323.44 187.89 331.36 192.47 331.36 201.62 323.44 197.04"/><polygon class="cls-12" points="331.36 201.62 331.36 192.47 339.28 187.89 339.28 197.04 331.36 201.62"/><polygon class="cls-12" points="410.64 148.62 418.56 144.05 426.48 148.62 418.56 153.2 410.64 148.62"/><polygon class="cls-12" points="410.64 157.77 410.64 148.62 418.56 153.2 418.56 162.34 410.64 157.77"/><polygon class="cls-12" points="418.56 162.34 418.56 153.2 426.48 148.62 426.48 157.77 418.56 162.34"/><polygon class="cls-12" points="401.71 166.04 407.65 162.61 413.59 166.04 407.65 169.47 401.71 166.04"/><polygon class="cls-12" points="401.71 172.9 401.71 166.04 407.65 169.47 407.65 176.33 401.71 172.9"/><polygon class="cls-12" points="407.65 176.33 407.65 169.47 413.59 166.04 413.59 172.9 407.65 176.33"/><path class="cls-13" d="M437.34,173.44s0,0,0,0,0,0,0,0v-7.91H421.51v7.91s0,0,0,0,0,0,0,0v.14h0c.18,2.16,3.64,3.89,7.9,3.89s7.73-1.73,7.9-3.89h0Z"/><ellipse class="cls-13" cx="429.42" cy="165.54" rx="7.92" ry="4.06"/><path class="cls-13" d="M401.48,284.48s0,0,0,0,0,0,0,0V273.85H380.36V284.4s0,0,0,0,0,0,0,0v.19h0c.24,2.88,4.86,5.19,10.54,5.19s10.3-2.3,10.54-5.19h0Z"/><ellipse class="cls-13" cx="390.92" cy="273.96" rx="10.56" ry="5.42"/><path class="cls-13" d="M444.88,262.78s0,0,0,0,0,0,0,0V252.14H423.76V262.7s0,0,0,0,0,0,0,0V263h0c.24,2.88,4.86,5.19,10.54,5.19s10.3-2.3,10.54-5.19h0Z"/><ellipse class="cls-13" cx="434.32" cy="252.25" rx="10.56" ry="5.42"/><polygon class="cls-12" points="409.27 273.09 419.83 267 430.39 273.09 419.83 279.2 409.27 273.09"/><polygon class="cls-12" points="409.27 285.29 409.27 273.09 419.83 279.2 419.83 291.39 409.27 285.29"/><polygon class="cls-12" points="419.83 291.39 419.83 279.2 430.39 273.09 430.39 285.29 419.83 291.39"/><polygon class="cls-12" points="440.91 274.62 448.83 270.05 456.76 274.62 448.83 279.2 440.91 274.62"/><polygon class="cls-12" points="440.91 283.77 440.91 274.62 448.83 279.2 448.83 288.34 440.91 283.77"/><polygon class="cls-12" points="448.83 288.34 448.83 279.2 456.76 274.62 456.76 283.77 448.83 288.34"/><polygon class="cls-12" points="408.42 297.45 403.14 294.4 397.86 297.45 403.14 300.5 408.42 297.45"/><polygon class="cls-12" points="408.42 303.55 408.42 297.45 403.14 300.5 403.14 306.6 408.42 303.55"/><polygon class="cls-12" points="403.14 306.6 403.14 300.5 397.86 297.45 397.86 303.55 403.14 306.6"/></g><g id="description"><text class="cls-14" transform="translate(546.95 263.11)"><tspan class="cls-15">v</tspan><tspan class="cls-16" x="6.61" y="0">o</tspan><tspan x="13.22" y="0">lu</tspan><tspan class="cls-17" x="24.29" y="0">m</tspan><tspan x="35.57" y="0">e</tspan></text><line class="cls-18" x1="544.91" y1="260.71" x2="433.57" y2="260.71"/><text class="cls-14" transform="translate(546.95 349.55)"><tspan class="cls-17">n</tspan><tspan x="7.66" y="0">ode p</tspan><tspan class="cls-16" x="38.3" y="0">r</tspan><tspan x="43.14" y="0">ocesses</tspan></text><line class="cls-18" x1="544.91" y1="347.15" x2="273.73" y2="347.15"/><text class="cls-14" transform="translate(546.95 284.64)">contai<tspan class="cls-17" x="35.87" y="0">n</tspan><tspan x="43.54" y="0">eri</tspan><tspan class="cls-19" x="58.89" y="0">z</tspan><tspan x="65.15" y="0">ed app</tspan></text><line class="cls-18" x1="544.91" y1="282.24" x2="421.55" y2="282.24"/><text class="cls-14" transform="translate(546.95 187.39)"><tspan class="cls-20">P</tspan><tspan x="7.55" y="0">od</tspan></text><line class="cls-18" x1="544.91" y1="184.99" x2="450.63" y2="184.99"/><text class="cls-14" transform="translate(546.95 67.62)">Node</text><line class="cls-18" x1="544.91" y1="65.22" x2="360.33" y2="65.22"/></g></svg>